<svg xmlns="http://www.w3.org/2000/svg" xmlns:xlink="http://www.w3.org/1999/xlink" width="400" height="359.028" viewBox="0 0 400 359.028">
  <defs>
    <linearGradient id="linear-gradient" x1="0.434" y1="1.819" x2="0.507" y2="0.645" gradientUnits="objectBoundingBox">
      <stop offset="0" stop-color="#444b8c"/>
      <stop offset="0.996" stop-color="#26264f"/>
    </linearGradient>
    <linearGradient id="linear-gradient-2" x1="0.378" y1="0.48" x2="0.132" y2="0.522" gradientUnits="objectBoundingBox">
      <stop offset="0" stop-color="#444b8c"/>
      <stop offset="0.395" stop-color="#383c74"/>
      <stop offset="0.996" stop-color="#26264f"/>
    </linearGradient>
    <linearGradient id="linear-gradient-3" x1="0.788" y1="-0.179" x2="0.128" y2="1.287" xlink:href="#linear-gradient"/>
    <linearGradient id="linear-gradient-4" x1="0.788" y1="-0.253" x2="-0.045" y2="1.885" gradientUnits="objectBoundingBox">
      <stop offset="0" stop-color="#084a93"/>
      <stop offset="0.996" stop-color="#2f94ff"/>
      <stop offset="1" stop-color="#80c559"/>
    </linearGradient>
    <linearGradient id="linear-gradient-5" y1="0.5" x2="1" y2="0.5" gradientUnits="objectBoundingBox">
      <stop offset="0" stop-color="#67affc"/>
      <stop offset="0.996" stop-color="#71b4fc"/>
      <stop offset="1" stop-color="#80c559"/>
    </linearGradient>
    <linearGradient id="linear-gradient-6" x1="153.793" y1="0.683" x2="153.577" y2="0.44" xlink:href="#linear-gradient"/>
    <linearGradient id="linear-gradient-7" x1="231.795" y1="0.162" x2="230.939" y2="2.45" xlink:href="#linear-gradient"/>
    <linearGradient id="linear-gradient-8" x1="252.454" y1="0.5" x2="253.454" y2="0.5" xlink:href="#linear-gradient"/>
  </defs>
  <g id="Grupo_176094" data-name="Grupo 176094" transform="translate(-1020 -1317)">
    <rect id="Rectángulo_298528" data-name="Rectángulo 298528" width="400" height="359" transform="translate(1020 1317)" fill="none"/>
    <g id="Grupo_174657" data-name="Grupo 174657" transform="translate(3309.044 -67.518)">
      <path id="Trazado_162828" data-name="Trazado 162828" d="M-2052.071,1416.6l-6.761.457a52.734,52.734,0,0,0-3.062-8.708l5.61-3.766a3.329,3.329,0,0,0,.879-4.643l-6.543-9.624a3.394,3.394,0,0,0-4.676-.936l-5.683,3.793a54.258,54.258,0,0,0-7.012-6.056l3-6.154a3.382,3.382,0,0,0-1.579-4.5l-10.533-5.183a3.366,3.366,0,0,0-4.526,1.506l-3.018,6.173a53.969,53.969,0,0,0-9.134-1.808l-.524-6.923a3.461,3.461,0,0,0-3.656-3.166l-11.773.694a3.337,3.337,0,0,0-3.161,3.578l.529,6.944a53.589,53.589,0,0,0-8.854,2.911l-3.971-5.788a3.5,3.5,0,0,0-4.786-.957l-9.853,6.47a3.341,3.341,0,0,0-.91,4.709l3.984,5.792a53.138,53.138,0,0,0-6.182,6.965l-6.375-3.079a3.476,3.476,0,0,0-4.634,1.541l-5.216,10.553a3.4,3.4,0,0,0,1.623,4.564l6.329,3.037a52.011,52.011,0,0,0-1.784,9.179l-7.005.472a3.414,3.414,0,0,0-3.217,3.639l.892,11.759a3.472,3.472,0,0,0,3.731,3.161l6.95-.49a52.651,52.651,0,0,0,3.119,8.893l-5.717,3.817a3.368,3.368,0,0,0-.917,4.739l6.755,9.726a3.5,3.5,0,0,0,4.818.891l5.671-3.808a54.472,54.472,0,0,0,7.237,6.143l-2.964,6.064a3.369,3.369,0,0,0,1.613,4.535l10.727,5.053a3.472,3.472,0,0,0,4.592-1.6l2.925-6.008a54.175,54.175,0,0,0,9.354,1.705l.5,6.641a3.392,3.392,0,0,0,3.668,3.107l11.753-.928a3.4,3.4,0,0,0,3.14-3.633l-.5-6.621a53.466,53.466,0,0,0,8.907-3.1l3.753,5.455a3.4,3.4,0,0,0,4.707.868l9.641-6.572a3.357,3.357,0,0,0,.884-4.672l-3.763-5.486a53.378,53.378,0,0,0,6.075-7.061l6.016,2.887a3.362,3.362,0,0,0,4.485-1.565l5.021-10.422a3.354,3.354,0,0,0-1.571-4.474l-6.027-2.911a52.124,52.124,0,0,0,1.676-9.087l6.7-.472a3.326,3.326,0,0,0,3.087-3.573l-.875-11.525A3.382,3.382,0,0,0-2052.071,1416.6Zm-60.94-20.71a34.6,34.6,0,0,1,36.79,31.679,34.028,34.028,0,0,1-31.625,36.4,34.588,34.588,0,0,1-37.169-31.653A34.019,34.019,0,0,1-2113.011,1395.893Z" transform="translate(129.549 17.459)" fill="#bfc8d6" opacity="0.3" style="mix-blend-mode: multiply;isolation: isolate"/>
      <g id="Grupo_174658" data-name="Grupo 174658" transform="translate(-2258.044 1483.968)">
        <g id="Grupo_101526" data-name="Grupo 101526" transform="translate(36.426 14.589)">
          <g id="Grupo_101523" data-name="Grupo 101523" transform="translate(111.17 171.257)">
            <path id="Trazado_162840" data-name="Trazado 162840" d="M-2132.668,1549.707a12.471,12.471,0,0,1-8.269-9.388l-6.145-30.415-52.567,1.867-6.469,31.685c-.907,4.438,2.72,8.889,6.9,10.525l21.994,8.605a28.6,28.6,0,0,0,12.858,1.864l46.48-3.977a2.884,2.884,0,0,0,2.606-2.554c.156-1.37,1.109-2.91-.187-3.338Z" transform="translate(2206.26 -1508.555)" fill="#97a6b7"/>
            <path id="Trazado_162841" data-name="Trazado 162841" d="M-2132.9,1548.434a12.364,12.364,0,0,1-8.26-9.27l-6.139-30.034-51.287,1.846-6.463,31.287a9.155,9.155,0,0,0,5.663,10.389l21.972,8.5a28.892,28.892,0,0,0,12.846,1.841l46.432-3.926a2.865,2.865,0,0,0,2.6-2.523,2.864,2.864,0,0,0-1.953-3.055Z" transform="translate(2207.016 -1509.13)" fill="url(#linear-gradient)"/>
          </g>
          <g id="Grupo_101525" data-name="Grupo 101525">
            <g id="Grupo_101524" data-name="Grupo 101524">
              <path id="Trazado_162842" data-name="Trazado 162842" d="M-2259.663,1603.719c-5.7.34-10.363-3.358-10.363-8.244V1419.324c0-4.887,4.663-8.661,10.363-8.414l263.632,11.423a7.969,7.969,0,0,1,7.575,7.866v149.815a8.13,8.13,0,0,1-7.575,7.99Z" transform="translate(2270.026 -1410.899)" fill="url(#linear-gradient-2)"/>
              <path id="Trazado_162843" data-name="Trazado 162843" d="M-2258.3,1603.719c-5.7.34-10.365-3.358-10.365-8.244V1419.324c0-4.887,4.664-8.661,10.365-8.414l263.632,11.423a7.969,7.969,0,0,1,7.575,7.866v149.815a8.131,8.131,0,0,1-7.575,7.99Z" transform="translate(2271.037 -1410.899)" fill="url(#linear-gradient-3)"/>
              <path id="Trazado_162844" data-name="Trazado 162844" d="M-1996.734,1424.106l-263.632-10.844c-3.048-.126-5.527,1.888-5.527,4.5v175.7c0,2.61,2.479,4.583,5.527,4.409l263.632-15.14a4.34,4.34,0,0,0,4.058-4.271V1428.311A4.255,4.255,0,0,0-1996.734,1424.106Z" transform="translate(2273.099 -1409.146)" fill="#d8dee8" opacity="0.3" style="mix-blend-mode: multiply;isolation: isolate"/>
              <path id="Trazado_162845" data-name="Trazado 162845" d="M-2261.8,1581.673a1.9,1.9,0,0,1-2.154-1.734V1416.662a1.925,1.925,0,0,1,2.154-1.755l263.632,10.441a1.663,1.663,0,0,1,1.586,1.642v139.995a1.683,1.683,0,0,1-1.586,1.657Z" transform="translate(2274.538 -1407.92)" fill="#b9ddfc"/>
            </g>
            <path id="Trazado_162846" data-name="Trazado 162846" d="M-2022.193,1577.1c-22.179-13.721-6.687-52.729-31.6-72.328-25.112-19.76-60.447,4.475-78.038-15.989-13.1-15.236,2.228-33.633-10.277-47.964-19.613-22.471-69.818,8.435-92.885-13.7-3.274-3.143-6.579-7.912-8.46-15.563l-14.854-.643c-5.7-.248-10.365,3.527-10.365,8.414v176.151c0,4.887,4.664,8.584,10.365,8.244L-1994.671,1588a8.131,8.131,0,0,0,7.575-7.99v-2.664C-2004.6,1583.291-2015.3,1581.362-2022.193,1577.1Z" transform="translate(2271.037 -1410.899)" fill="#084a93" opacity="0.6" style="mix-blend-mode: soft-light;isolation: isolate"/>
          </g>
        </g>
        <g id="Grupo_101531" data-name="Grupo 101531" transform="translate(72.25)">
          <g id="Grupo_101530" data-name="Grupo 101530">
            <path id="Trazado_162847" data-name="Trazado 162847" d="M-2043.724,1407.017l-190.719-6.608a11.287,11.287,0,0,0-11.627,11.479v142.284a11.387,11.387,0,0,0,11.627,11.566l190.719-5.157c5.5-.15,9.947-5.169,9.947-11.214V1418.305C-2033.777,1412.261-2038.221,1407.207-2043.724,1407.017Z" transform="translate(2246.07 -1400.402)" fill="url(#linear-gradient-4)"/>
            <path id="Trazado_162848" data-name="Trazado 162848" d="M-2243.935,1549.517V1413.268a10.455,10.455,0,0,1,10.748-10.638l185.415,6.161c5.111.171,9.24,4.854,9.24,10.462v125.839c0,5.609-4.129,10.26-9.24,10.39l-185.415,4.755A10.551,10.551,0,0,1-2243.935,1549.517Z" transform="translate(2247.658 -1398.751)" fill="#f0fcff" opacity="0.74" style="mix-blend-mode: soft-light;isolation: isolate"/>
            <path id="Trazado_162849" data-name="Trazado 162849" d="M-2043.724,1407.017l-190.719-6.608a11.287,11.287,0,0,0-11.627,11.479v8.524l212.293,5.744v-7.851C-2033.777,1412.261-2038.221,1407.207-2043.724,1407.017Z" transform="translate(2246.07 -1400.402)" fill="#084a93"/>
            <path id="Trazado_162850" data-name="Trazado 162850" d="M-2230.994,1408.392a3.682,3.682,0,0,1-3.769,3.748,3.964,3.964,0,0,1-3.779-3.98,3.682,3.682,0,0,1,3.779-3.748A3.964,3.964,0,0,1-2230.994,1408.392Z" transform="translate(2251.666 -1397.423)" fill="#fff"/>
            <path id="Trazado_162851" data-name="Trazado 162851" d="M-2223.482,1408.614a3.657,3.657,0,0,1-3.731,3.731,3.937,3.937,0,0,1-3.743-3.959,3.655,3.655,0,0,1,3.743-3.73A3.936,3.936,0,0,1-2223.482,1408.614Z" transform="translate(2257.307 -1397.242)" fill="#fff"/>
            <path id="Trazado_162852" data-name="Trazado 162852" d="M-2216.042,1408.835a3.631,3.631,0,0,1-3.7,3.714,3.907,3.907,0,0,1-3.7-3.94,3.629,3.629,0,0,1,3.7-3.714A3.909,3.909,0,0,1-2216.042,1408.835Z" transform="translate(2262.892 -1397.064)" fill="#fff"/>
            <path id="Trazado_162853" data-name="Trazado 162853" d="M-2051.168,1487.459l-187.128,1.362v-56.244l187.128,2.568Z" transform="translate(2251.85 -1376.483)" fill="url(#linear-gradient-5)"/>
            <path id="Trazado_162854" data-name="Trazado 162854" d="M-2051.168,1474.03l-187.128,2.354v-6.04l187.128-1.932Z" transform="translate(2251.85 -1349.844)" fill="#fff"/>
            <path id="Trazado_162855" data-name="Trazado 162855" d="M-2051.168,1481.935l-187.128,3.389v-6.04l187.128-2.968Z" transform="translate(2251.85 -1343.968)" fill="#fff"/>
            <g id="Grupo_101527" data-name="Grupo 101527" transform="translate(13.553 41.892)">
              <path id="Trazado_162856" data-name="Trazado 162856" d="M-2137.464,1426.35l-100.833-1.919v6.039l100.833,1.691Z" transform="translate(2238.296 -1424.431)" fill="#fff"/>
              <path id="Trazado_162857" data-name="Trazado 162857" d="M-2137.062,1426.357V1432l10.637.178v-5.617Z" transform="translate(2313.553 -1422.999)" fill="#fff"/>
            </g>
            <g id="Grupo_101528" data-name="Grupo 101528" opacity="0.5" style="mix-blend-mode: soft-light;isolation: isolate">
              <path id="Trazado_162858" data-name="Trazado 162858" d="M-2117.761,1479.7c-22.272-33.024-60.844-22.541-85.264-59.061a80.584,80.584,0,0,1-9.444-19.472l-21.974-.762a11.287,11.287,0,0,0-11.627,11.479v142.284a11.387,11.387,0,0,0,11.627,11.566l145.2-3.926a124.464,124.464,0,0,1-11.717-21.358C-2113.948,1510.048-2104.33,1499.621-2117.761,1479.7Z" transform="translate(2246.07 -1400.402)" fill="#fff"/>
            </g>
            <g id="Grupo_101529" data-name="Grupo 101529" transform="translate(16.898 63.275)" style="mix-blend-mode: soft-light;isolation: isolate">
              <path id="Trazado_162859" data-name="Trazado 162859" d="M-2213.5,1443.589l-22.873-.212v-6.68l22.873.268Z" transform="translate(2236.377 -1436.696)" fill="#fff"/>
              <path id="Trazado_162860" data-name="Trazado 162860" d="M-2107.673,1444.534l-107.216-1v-6.59l107.216,1.255Z" transform="translate(2252.352 -1436.509)" fill="#fff"/>
              <path id="Trazado_162861" data-name="Trazado 162861" d="M-2192.626,1450.11l-22.263-.116v-6.59l22.263.169Z" transform="translate(2252.352 -1431.71)" fill="#fff"/>
              <path id="Trazado_162862" data-name="Trazado 162862" d="M-2089.535,1450.607l-104.437-.542v-6.5l104.437.793Z" transform="translate(2267.902 -1431.591)" fill="#fff"/>
              <path id="Trazado_162863" data-name="Trazado 162863" d="M-2192.626,1456.475l-22.263-.024v-6.59l22.263.078Z" transform="translate(2252.352 -1426.91)" fill="#fff"/>
              <path id="Trazado_162864" data-name="Trazado 162864" d="M-2089.535,1456.55l-104.437-.113v-6.5l104.437.364Z" transform="translate(2267.902 -1426.856)" fill="#fff"/>
              <path id="Trazado_162865" data-name="Trazado 162865" d="M-2213.5,1462.948l-22.873.069v-6.68l22.873-.014Z" transform="translate(2236.377 -1422.106)" fill="#fff"/>
              <path id="Trazado_162866" data-name="Trazado 162866" d="M-2107.673,1462.612l-107.216.324v-6.59l107.216-.066Z" transform="translate(2252.352 -1422.138)" fill="#fff"/>
            </g>
          </g>
        </g>
        <g id="Grupo_101551" data-name="Grupo 101551" transform="translate(0 59.382)">
          <path id="Trazado_162893" data-name="Trazado 162893" d="M-2220.877,1546.563a14.9,14.9,0,0,0-.1,3.25c.205.816,7.284,1.405,9.688,1.123s-1.431-2.739-2.962-3.2S-2220.877,1546.563-2220.877,1546.563Z" transform="translate(2290.153 -1353.138)" fill="#084a93"/>
          <path id="Trazado_162894" data-name="Trazado 162894" d="M-2217.344,1544.326l-.746,4.885s-1.9.856-2.817.011l-.1-5.114Z" transform="translate(2290.182 -1354.963)" fill="#fee6be"/>
          <path id="Trazado_162895" data-name="Trazado 162895" d="M-2238.808,1544.246s1.5,1.116,1.1,2.45-3.905,6.684-6.4,8.2-1.714-1.644-.987-3.614,2.584-6.309,3.309-7.037S-2238.808,1544.246-2238.808,1544.246Z" transform="translate(2271.742 -1355.101)" fill="#084a93"/>
          <path id="Trazado_162896" data-name="Trazado 162896" d="M-2237.138,1541.03c-.727,2.024-1.425,3.688-1.97,4.915a17.53,17.53,0,0,1-2.619,4.618c-.652.769-2.2,2.411-2.611,2.137s.709-2.273,2.887-8.119c.316-.847,1.314-3.551,1.314-3.551h3Z" transform="translate(2272.775 -1357.251)" fill="#fee6be"/>
          <path id="Trazado_162897" data-name="Trazado 162897" d="M-2200.2,1492.586a126.475,126.475,0,0,1,.272,22.565c-.969,12.484-3.466,20.384-6.6,33.695-1.914,8.135-4.491,20.108-6.825,35.082a6.574,6.574,0,0,1-4.184.819,6.318,6.318,0,0,1-2.512-.954c-6.121-18.7-4.313-30.295-1.36-37.516,1.259-3.079,2.786-5.507,3.6-10.239,1.079-6.26-.256-9.759-2.16-24.261-1.356-10.335-1.121-11.932-.218-13.481C-2216.572,1492.1-2205.532,1492.218-2200.2,1492.586Z" transform="translate(2287.862 -1393.37)" fill="#00defc"/>
          <path id="Trazado_162898" data-name="Trazado 162898" d="M-2207.244,1493.773c-3.75,19.364-7.43,29.535-10.214,35.288a96.513,96.513,0,0,0-5.145,12.558,102.479,102.479,0,0,0-3.127,11.961c-1.292,5.937-4.488,14.6-13.085,25.972a3.269,3.269,0,0,1-2.974.151,2.874,2.874,0,0,1-1.2-1.249c1.124-10.868,2.414-20,3.535-27.05.234-1.478,1.269-7.947,2.893-16.491.634-3.344,1.565-8.244,2.679-13.276,1.387-6.267,3.516-14.794,6.8-25.011Q-2217.167,1495.2-2207.244,1493.773Z" transform="translate(2273.838 -1392.382)" fill="#00defc"/>
          <path id="Trazado_162899" data-name="Trazado 162899" d="M-2190.9,1460.411c2.127-1.967,6.194-4.231,8.236-9.5.614-1.586,2.79-7.2-.42-11.5-1.906-2.551-5.444-4.284-8.563-3.67-2.666.523-3.083,2.38-7.612,6.116a32.055,32.055,0,0,1-7.751,5.093c-5.4,2.226-8.649.131-14.075.37-6.665.295-14.407,4.013-18.137,9.423-6.621,9.6,2.97,19.338-4.282,30.583-2.376,3.685-3.548,2.859-9.175,9.991s-8.454,10.712-7.952,15.088c.7,6.074,7.238,11.874,13.4,12.268,6.018.387,9.843-4.348,12.907-2.277,2.179,1.473.933,4.339,3.248,7.784,2.986,4.441,8.853,5.326,9.8,5.469,8.8,1.327,20.654-8.987,25.691-21.2C-2186.505,1492.409-2202.459,1471.1-2190.9,1460.411Z" transform="translate(2260.687 -1435.616)" fill="url(#linear-gradient-6)"/>
          <path id="Trazado_162900" data-name="Trazado 162900" d="M-2156.481,1459.321c.061-6.149-13.91-11.065-20.3-12.649a45.245,45.245,0,0,0-19.841-.507,44.309,44.309,0,0,0-23.031,13.2,31.078,31.078,0,0,1,12.2,15.251c1.011,2.791,4,12.334-.273,21.273-2.465,5.15-6.823,9.017-10.134,11.954-4.965,4.406-7.537,5.082-9.2,9.029-1.813,4.3.013,6.393-2.238,9.334-2.417,3.161-5.251,1.692-9.349,4.887-4.2,3.272-2.7,5.966-6.524,9.583-5.551,5.255-12.91,3.548-13.253,5.912-.295,2.035,4.935,4.794,9.379,5.914,8.8,2.216,16.475-1.5,18.757-2.65,6.32-3.175,5.229-5.23,10.046-7.65,8.068-4.053,13.581.457,31.957.921,9.951.253,14.983.309,17.739-3.057,2.518-3.076,1.194-6.449-.317-20.986-.718-6.919-.979-13.877-1.508-20.814-1.5-19.618-1.544-21.344-.215-24.057C-2167.82,1464.489-2156.534,1464.84-2156.481,1459.321Z" transform="translate(2262.357 -1428.41)" fill="#e7f3fe"/>
          <g id="Grupo_101550" data-name="Grupo 101550" transform="translate(3.92 30.128)" opacity="0.3" style="mix-blend-mode: multiply;isolation: isolate">
            <path id="Trazado_162901" data-name="Trazado 162901" d="M-2245.174,1535.034c3.82-3.618,2.326-6.311,6.524-9.583,4.1-3.2,6.932-1.726,9.349-4.887,2.25-2.941.425-5.036,2.237-9.334,1.665-3.947,4.236-4.624,9.2-9.029,3.311-2.938,7.669-6.8,10.135-11.955,4.275-8.938,1.285-18.481.273-21.273a31.074,31.074,0,0,0-12.2-15.251c.228-.247.5-.528.787-.824,15.684,2.155,24.826,11.217,25.957,13.9,2.616,6.2-1.523,8.481-1.629,26.37-.053,8.552.87,11.927-1.9,15.5-3.173,4.083-6.828,2.819-11.417,8.155-3.525,4.1-2.962,6.7-6.254,8.428-3.539,1.857-5.793-.307-9.785.544-6.67,1.423-8.1,9.113-12.506,13.321-3.335,3.182-9.5,5.406-21.658,3.018a1.7,1.7,0,0,1-.362-1.184C-2258.083,1538.582-2250.724,1540.289-2245.174,1535.034Z" transform="translate(2258.438 -1452.897)" fill="#b9ddfc"/>
          </g>
          <path id="Trazado_162902" data-name="Trazado 162902" d="M-2207.914,1475.8c1.669,3.541-5.994,11.785-14.509,15.7-1.735.8-14.193,6.525-19.744,1.018-4.589-4.552-1.629-13.963-.57-17.324,5.191-16.5,21.132-24.892,27.812-27.919,4.987,12.467,2.05,18.021.895,19.756a66.46,66.46,0,0,1-8.156,8.972c-2.517,2.359-4.085,3.506-3.874,3.874.262.458,3.213-.406,14.674-5.985C-2210.057,1474.108-2208.482,1474.593-2207.914,1475.8Z" transform="translate(2272.604 -1426.947)" fill="#e7f3fe"/>
          <path id="Trazado_162903" data-name="Trazado 162903" d="M-2173.855,1453.145l-5.625,28.006a2.294,2.294,0,0,1-1.769,1.794l-41.931,9a2.3,2.3,0,0,1-2.774-2.425l2.212-28.482a2.3,2.3,0,0,1,1.74-2.054c6.651-1.641,32.253-7.789,45.755-8.588A2.3,2.3,0,0,1-2173.855,1453.145Z" transform="translate(2286.501 -1424.631)" fill="url(#linear-gradient-7)"/>
          <path id="Trazado_162904" data-name="Trazado 162904" d="M-2215.945,1440.24s-.792,6.321-3.124,7.77-6.107,3.34-6.522,3.855,14.457,2.113,21.828-1.608h0c-2.429-.505-3.09-.692-3.09-.692a13.678,13.678,0,0,1-3.122-1.236,10.6,10.6,0,0,1-3.431-3.173l.026-3.5Z" transform="translate(2286.769 -1432.179)" fill="#ffe6be"/>
          <path id="Trazado_162905" data-name="Trazado 162905" d="M-2219.656,1444a3.5,3.5,0,0,0,3.909,1.219c2.136-.779.861-6.3-.833-6.928a3,3,0,0,0-2.3.317,3.325,3.325,0,0,0-1.044,3.738c-.539-.157-1.014-.016-1.133.253-.152.338.3.8.41.9A1.81,1.81,0,0,0-2219.656,1444Z" transform="translate(2290.124 -1433.704)" fill="#fee6be"/>
          <path id="Trazado_162906" data-name="Trazado 162906" d="M-2213.5,1477.359c4.5-1.27,8.238,1.883,11.826-.612,3.675-2.556,1.276-6.922,5.1-11.214,4.085-4.591,9.268-2.341,13.049-6.524,1.4-1.553,2.666-4.085,2.685-8.4.948-.092,1.855-.165,2.713-.216a2.3,2.3,0,0,1,2.39,2.749l-5.624,28.006a2.3,2.3,0,0,1-1.769,1.794l-40.3,8.648C-2220.583,1481.611-2216.786,1478.287-2213.5,1477.359Z" transform="translate(2288.384 -1424.631)" opacity="0.3" fill="url(#linear-gradient-8)" style="mix-blend-mode: multiply;isolation: isolate"/>
          <path id="Trazado_162907" data-name="Trazado 162907" d="M-2196.49,1465.324s2.674-2.472,2.966-5.343a5.543,5.543,0,0,0-3.682-5.757c-1.956-.586-3,.279-1.687,3.106S-2195.5,1461.995-2196.49,1465.324Z" transform="translate(2306.188 -1421.912)" fill="#fee6be"/>
        </g>
      </g>
      <g id="Grupo_174659" data-name="Grupo 174659" transform="translate(-2140.294 1391.789)">
        <g id="Grupo_101532" data-name="Grupo 101532" transform="translate(0 0)">
          <path id="Trazado_162867" data-name="Trazado 162867" d="M-2066.723,1387.6l-.06,51.813-.011,8.321c0,4.877-3.323,3.689-7.832,3.6l-16.6.2-2.164.027-14.97.18-2.463.031-93.639,1.121-.614.009a9.436,9.436,0,0,1-8.983-9.514l-.01-63.133a8.693,8.693,0,0,1,8.706-8.931l.282,0,3.567.2,126.608,6.822C-2070.394,1378.553-2066.717,1382.72-2066.723,1387.6Z" transform="translate(2214.067 -1371.109)" fill="#042c58"/>
          <path id="Trazado_162868" data-name="Trazado 162868" d="M-2147.966,1406.672l-2.259,3.194-3.1,4.369-11.891,16.794-2.4-1.14-.039-16.041-.01-3.771-.012-4.711,2.479.162Z" transform="translate(2270.903 -1329.41)" fill="#042c58"/>
          <path id="Trazado_162869" data-name="Trazado 162869" d="M-2065.194,1387.546l-.067,51.93-.011,8.508c0,4.9-3.7,8.827-8.232,8.722l-22.438-.607-1.667-.045-11.874-.319-2.452-.069-92.193-2.487a8.13,8.13,0,0,1-1.457-.162,9.548,9.548,0,0,1-7.552-9.391l-.01-63.427a8.845,8.845,0,0,1,6.661-8.737,8.418,8.418,0,0,1,2.355-.225l1.5.083,129.223,6.937C-2068.883,1378.457-2065.187,1382.64-2065.194,1387.546Z" transform="translate(2215.193 -1371.228)" fill="#ffb30b"/>
          <path id="Trazado_162870" data-name="Trazado 162870" d="M-2146.764,1406.622l-2.649,3.273-3.592,4.441-13.56,16.751.014-17.111v-8.653Z" transform="translate(2272.254 -1329.465)" fill="#ffb30b"/>
        </g>
        <g id="Grupo_101533" data-name="Grupo 101533" transform="translate(41.152 23.045)">
          <path id="Trazado_162871" data-name="Trazado 162871" d="M-2172.014,1412.726l-23.558-13.212v-4.009l23.558-12.257v6.568l-16.1,7.8,16.1,8.566Z" transform="translate(2195.572 -1379.55)" fill="#fff"/>
          <path id="Trazado_162872" data-name="Trazado 162872" d="M-2164.383,1382.049l-12.175,38.638-6.309-.212,12.335-38.89Z" transform="translate(2211.133 -1381.586)" fill="#fff"/>
          <path id="Trazado_162873" data-name="Trazado 162873" d="M-2172.583,1406.4l14.707-6.673-14.707-9.225v-6.381l21.2,14.373v3.715l-21.2,10.544Z" transform="translate(2223.73 -1378.486)" fill="#fff"/>
        </g>
      </g>
    </g>
  </g>
</svg>
