<svg xmlns="http://www.w3.org/2000/svg" width="101" height="101" viewBox="0 0 101 101">
  <g id="Grupo_174665" data-name="Grupo 174665" transform="translate(-900 -6329)">
    <rect id="Rectángulo_293539" data-name="Rectángulo 293539" width="101" height="101" transform="translate(900 6329)" fill="none"/>
    <g id="Grupo_129375" data-name="Grupo 129375" transform="translate(901.683 6336.575)">
      <g id="Grupo_129374" data-name="Grupo 129374" transform="translate(0 0)">
        <path id="Trazado_190032" data-name="Trazado 190032" d="M-572.492,748.285c.292-1.05,1.058-1.277,2.043-1.274,6.587.019,13.173-.027,19.759.03a4.638,4.638,0,0,1,4.845,4.95q.028,38.092,0,76.185a4.708,4.708,0,0,1-4.845,4.967c-.443.019-.887.007-1.33.007h-84.925c-4.695,0-6.2-1.53-6.2-6.284q0-36.954,0-73.906c0-4.306,1.637-5.937,5.977-5.938q29.068,0,58.136,0c1.13,0,2.357-.215,2.819,1.268-.21,1.411-1.187,1.554-2.374,1.548-6.523-.028-13.046-.014-19.57-.014q-19.474,0-38.949,0c-2.742,0-3.167.436-3.18,3.212a37.921,37.921,0,0,1-.033,4.177c-.2,1.757.512,2.051,2.12,2.047q39.329-.069,78.658-.027c2.785,0,5.571-.037,8.356-.056,2.553.191,2.553.191,2.553-2.354,0-1.445.028-2.89-.007-4.335-.052-2.144-.669-2.677-2.922-2.612-6.193-.019-12.386-.051-18.579-.042C-571.315,749.835-572.312,749.723-572.492,748.285Zm-44.445,81.99c1.775.465,2.221-.238,2.211-2.011-.073-12.941-.034-25.88-.049-38.82,0-1.184-.019-2.311,1.405-2.731,1.468.386,1.409,1.53,1.409,2.709q.012,20.286.057,40.57c-.053.263.038.376.311.3q22.8.032,45.6.057c4.939,0,9.879-.044,14.818-.066,2.161-.115,2.51-.549,2.511-3.224q0-31.375,0-62.749c0-2.4,0-2.4-2.518-2.21a4.937,4.937,0,0,0-.564-.065q-29.4-.006-58.8-.035c-1.2,0-1.466.354-1.455,1.492.055,5.817,0,11.634.045,17.451.008,1.159-.277,1.975-1.463,2.3-1.155-.407-1.376-1.283-1.369-2.407.035-5.573-.052-11.148.056-16.72.034-1.769-.413-2.509-2.217-2.016-7.09-.023-14.182.007-21.27-.114-1.672-.027-2.115.406-2.107,2.091.069,14.628.04,29.255.04,43.883,0,6.522-.01,13.045.007,19.567,0,2.127.553,2.795,2.442,2.8C-630.865,830.338-623.9,830.3-616.937,830.275Z" transform="translate(643.148 -747.008)" fill-rule="evenodd"/>
        <path id="Trazado_190033" data-name="Trazado 190033" d="M-571.823,748.591c.18,1.438,1.177,1.55,2.353,1.549,6.193-.009,12.386.023,18.578.042.883,3.069.3,6.2.376,9.3-2.785.019-5.571.056-8.356.056q-39.329,0-78.658.027c-1.609,0-2.323-.29-2.12-2.048a37.891,37.891,0,0,0,.033-4.177c.012-2.776.438-3.212,3.18-3.212q19.475,0,38.95,0c6.524,0,13.047-.015,19.57.014,1.187.006,2.164-.136,2.374-1.547Z" transform="translate(642.478 -747.314)" fill="#0ddcf1" fill-rule="evenodd"/>
        <path id="Trazado_190034" data-name="Trazado 190034" d="M-604.781,833.582q-.033-20.285-.057-40.57c0-1.179.058-2.324-1.409-2.709q-.021-1.738-.042-3.473c1.184-.326,1.47-1.142,1.462-2.3-.043-5.817.01-11.634-.045-17.451-.01-1.138.252-1.495,1.455-1.492q29.4.062,58.8.035a4.951,4.951,0,0,1,.564.065q0,34.093.006,68.182c-4.939.023-9.879.069-14.818.066q-22.8-.013-45.6-.057Zm21.8-39.516c5.059,0,10.117-.01,15.175.006,1.138,0,2.349-.018,2.3-1.513-.04-1.359-1.212-1.382-2.271-1.381q-15.27.009-30.541,0c-1.114,0-2.367,0-2.306,1.522.055,1.35,1.207,1.372,2.274,1.369C-593.226,794.057-588.1,794.066-582.982,794.066Zm8.537,21.384q7.309,0,14.62,0c1.109,0,2.386.049,2.359-1.461-.025-1.355-1.206-1.351-2.272-1.348q-14.524.019-29.049,0c-1.069,0-2.245,0-2.265,1.356-.022,1.512,1.26,1.454,2.366,1.453Q-581.565,815.444-574.445,815.451Zm18.816-7.076q3.8,0,7.6,0c1.059,0,2.192-.042,2.222-1.438s-1.054-1.487-2.145-1.484q-7.692.022-15.383,0c-1.1,0-2.16.119-2.133,1.5.023,1.251,1.031,1.424,2.056,1.422C-560.82,808.37-558.225,808.374-555.629,808.374Zm-35.116-2.914c-2.65,0-5.3.012-7.949-.006-1.076-.008-1.959.3-1.935,1.518.022,1.127.921,1.4,1.881,1.4q7.948.011,15.9,0c1.031,0,1.994-.259,1.928-1.531-.065-1.246-1.034-1.392-2.064-1.384C-585.572,805.472-588.159,805.46-590.745,805.46Zm-.08,24.324c2.649,0,5.3-.01,7.948,0,1.06.006,1.96-.243,1.955-1.493,0-1.154-.891-1.417-1.849-1.418q-7.95-.016-15.9,0c-1.033,0-2.007.255-1.961,1.505.044,1.219,1,1.423,2.044,1.413C-596,829.77-593.411,829.785-590.825,829.785Zm7.965-58.557a1.513,1.513,0,0,0-1.147-1.409c-1.015-.22-1.489.447-1.815,1.263q-2.62,6.569-5.233,13.141c-.4.991-.729,2.064.572,2.544,1.284.474,1.728-.536,2.125-1.542,1.684-4.269,3.4-8.524,5.1-12.787C-583.093,772.032-582.981,771.6-582.859,771.227Zm-7.824,51.366c2.591,0,5.181-.014,7.771.006,1.048.009,1.988-.169,1.982-1.445-.006-1.171-.905-1.363-1.87-1.362q-7.96,0-15.921,0c-.971,0-1.879.2-1.894,1.349-.017,1.246.908,1.472,1.973,1.462C-595.991,822.576-593.337,822.593-590.684,822.593Zm-3.3-50.628a1.5,1.5,0,0,0-.883-1.388,1.288,1.288,0,0,0-1.673.488c-1.331,2.14-2.619,4.307-3.919,6.466a1.317,1.317,0,0,0,.035,1.431c1.23,2.127,2.446,4.261,3.684,6.385a1.4,1.4,0,0,0,2.094.6,1.375,1.375,0,0,0,.391-2,19.048,19.048,0,0,0-1.83-3.085c-1.535-1.856-1.316-3.5.086-5.315A11.63,11.63,0,0,0-593.988,771.965Zm20.386,6.2a7.892,7.892,0,0,0-.394-.9q-1.737-2.925-3.5-5.835c-.472-.78-1.145-1.285-2.039-.79-.977.541-.907,1.4-.4,2.276,1.041,1.792,2.883,3.588,2.883,5.383s-1.833,3.61-2.866,5.412c-.5.862-.65,1.747.353,2.281.957.508,1.647-.006,2.149-.9,1.081-1.921,2.215-3.811,3.308-5.725A10.1,10.1,0,0,0-573.6,778.169Zm-8.641,23.055c1.008,0,2.019.045,3.025-.013a1.368,1.368,0,0,0,1.444-1.426,1.337,1.337,0,0,0-1.4-1.461c-2.077-.063-4.159-.053-6.237,0a1.382,1.382,0,0,0-1.465,1.425,1.448,1.448,0,0,0,1.613,1.478C-584.26,801.249-583.251,801.229-582.243,801.224Zm9.092,7.121v.01c1.008,0,2.018.044,3.021-.014a1.351,1.351,0,0,0,1.46-1.4,1.314,1.314,0,0,0-1.394-1.451c-2.077-.048-4.157-.036-6.235-.011a1.381,1.381,0,0,0-1.483,1.4,1.366,1.366,0,0,0,1.421,1.458C-575.3,808.4-574.221,808.345-573.151,808.345Zm-22.986-7.122v.008c1.009,0,2.019.034,3.027-.01.924-.039,1.589-.465,1.58-1.494A1.35,1.35,0,0,0-593,798.321c-2.08-.049-4.163-.054-6.242.011a1.347,1.347,0,0,0-1.406,1.468,1.4,1.4,0,0,0,1.48,1.41C-598.157,801.263-597.145,801.223-596.137,801.223Zm22.827,21.363c1.074,0,2.148.018,3.222,0a1.285,1.285,0,0,0,1.4-1.427,1.213,1.213,0,0,0-1.3-1.325c-2.148-.031-4.3-.027-6.444,0a1.273,1.273,0,0,0-1.337,1.32,1.323,1.323,0,0,0,1.419,1.434C-575.333,822.605-574.321,822.587-573.31,822.587Zm-24.039-7.142v-.008c.629,0,1.259.012,1.889,0a1.3,1.3,0,0,0,1.424-1.414,1.313,1.313,0,0,0-1.474-1.366c-1.2.007-2.393,0-3.589,0a1.349,1.349,0,0,0-1.526,1.328c-.047,1.007.62,1.443,1.575,1.462C-598.482,815.454-597.915,815.445-597.348,815.445Z" transform="translate(636.026 -750.598)" fill="#fff1d1" fill-rule="evenodd"/>
        <path id="Trazado_190035" data-name="Trazado 190035" d="M-616.26,833.861c-6.964.021-13.928.063-20.892.05-1.889-.005-2.437-.672-2.442-2.8-.018-6.522-.007-13.045-.007-19.567,0-14.628.029-29.255-.041-43.883-.008-1.685.435-2.119,2.107-2.091,7.088.121,14.18.09,21.27.114Q-616.262,799.774-616.26,833.861Zm-13.711-39.822v.01c.82,0,1.642.04,2.459-.011a1.345,1.345,0,0,0,1.41-1.449,1.257,1.257,0,0,0-1.284-1.363c-1.7-.065-3.4-.065-5.1.015a1.252,1.252,0,0,0-1.231,1.41,1.319,1.319,0,0,0,1.291,1.371C-631.615,794.1-630.791,794.04-629.971,794.04Zm.213-24.29v.01c-.883,0-1.772-.06-2.649.017a1.345,1.345,0,0,0-1.314,1.363,1.263,1.263,0,0,0,1.21,1.436c1.7.1,3.4.094,5.1.024a1.287,1.287,0,0,0,1.307-1.356,1.359,1.359,0,0,0-1.388-1.478C-628.239,769.7-629,769.75-629.758,769.75Zm-.164,38.587v.006c.82,0,1.645.063,2.458-.017a1.343,1.343,0,0,0,1.364-1.5,1.3,1.3,0,0,0-1.332-1.333c-1.638-.061-3.28-.052-4.919-.005a1.325,1.325,0,0,0-1.365,1.307,1.336,1.336,0,0,0,1.337,1.521A23.324,23.324,0,0,0-629.922,808.336Zm-.1,21.441v-.006c.82,0,1.643.035,2.46-.009a1.363,1.363,0,0,0,1.462-1.406,1.327,1.327,0,0,0-1.416-1.448c-1.574-.067-3.154-.065-4.729-.006a1.345,1.345,0,0,0-1.465,1.406c.013,1.006.657,1.441,1.606,1.466C-631.413,829.792-630.718,829.777-630.024,829.777ZM-630,801.2a22.469,22.469,0,0,0,2.648-.024,1.33,1.33,0,0,0,1.259-1.411,1.3,1.3,0,0,0-1.254-1.412,48.611,48.611,0,0,0-5.107,0,1.3,1.3,0,0,0-1.264,1.4,1.34,1.34,0,0,0,1.261,1.413A20.1,20.1,0,0,0-630,801.2Zm.188-14.344c.815,0,1.633.043,2.444-.011a1.256,1.256,0,0,0,1.263-1.36,1.215,1.215,0,0,0-1.251-1.356q-2.538-.066-5.079,0a1.231,1.231,0,0,0-1.271,1.346,1.261,1.261,0,0,0,1.26,1.367C-631.576,786.9-630.694,786.85-629.816,786.855Zm-.18-7.16c.877,0,1.757.04,2.632-.011a1.224,1.224,0,0,0,1.253-1.355,1.251,1.251,0,0,0-1.257-1.368c-1.692-.055-3.388-.058-5.079,0a1.263,1.263,0,0,0-1.261,1.372,1.241,1.241,0,0,0,1.268,1.348C-631.629,779.735-630.812,779.695-630,779.695Zm.039,35.747v-.015c.816,0,1.631.026,2.445-.006a1.278,1.278,0,0,0,1.4-1.416,1.317,1.317,0,0,0-1.482-1.348c-1.505-.015-3.011-.01-4.516,0-.955,0-1.608.434-1.59,1.438.018,1.035.758,1.345,1.675,1.351C-631.337,815.445-630.647,815.442-629.958,815.442Zm.082,4.378v-.006c-.814,0-1.631-.029-2.444.008a1.284,1.284,0,0,0-1.385,1.432,1.269,1.269,0,0,0,1.324,1.309c1.63.043,3.262.041,4.891.006a1.285,1.285,0,0,0,1.376-1.443,1.238,1.238,0,0,0-1.318-1.3C-628.244,819.788-629.06,819.82-629.876,819.82Z" transform="translate(642.47 -750.595)" fill="#ffb30c" fill-rule="evenodd"/>
        <path id="Trazado_190036" data-name="Trazado 190036" d="M-529.142,833.875q0-34.09-.006-68.182c2.517-.188,2.518-.188,2.518,2.21q0,31.373,0,62.749C-526.633,833.325-526.981,833.759-529.142,833.875Z" transform="translate(621.12 -750.605)" fill="#fff1d1" fill-rule="evenodd"/>
        <path id="Trazado_190037" data-name="Trazado 190037" d="M-610.661,833.853q0-34.088-.006-68.177c1.8-.493,2.251.247,2.217,2.016-.107,5.572-.02,11.146-.056,16.72-.007,1.124.215,2,1.369,2.407q.022,1.735.043,3.473c-1.424.419-1.406,1.547-1.405,2.731.015,12.94-.024,25.879.049,38.82C-608.44,833.615-608.886,834.318-610.661,833.853Z" transform="translate(636.872 -750.587)" fill="#ffb30c" fill-rule="evenodd"/>
        <path id="Trazado_190038" data-name="Trazado 190038" d="M-529.25,759.862c-.078-3.1.507-6.232-.376-9.3,2.253-.065,2.87.468,2.922,2.612.035,1.445.008,2.89.007,4.335C-526.7,760.054-526.7,760.054-529.25,759.862Z" transform="translate(621.213 -747.694)" fill="#0ddcf1" fill-rule="evenodd"/>
        <path id="Trazado_190039" data-name="Trazado 190039" d="M-604.423,849.867l.311.3C-604.385,850.243-604.477,850.13-604.423,849.867Z" transform="translate(635.668 -766.883)" fill="#d8d7d7" fill-rule="evenodd"/>
        <path id="Trazado_190040" data-name="Trazado 190040" d="M-581.625,800.2c-5.121,0-10.244-.009-15.365.006-1.067,0-2.219-.019-2.274-1.369-.061-1.526,1.192-1.522,2.306-1.522q15.27,0,30.541,0c1.059,0,2.231.023,2.271,1.381.045,1.5-1.166,1.516-2.3,1.514C-571.508,800.186-576.567,800.2-581.625,800.2Z" transform="translate(634.669 -756.727)" fill-rule="evenodd"/>
        <path id="Trazado_190041" data-name="Trazado 190041" d="M-570.8,826.721q-7.121,0-14.24,0c-1.106,0-2.388.059-2.366-1.453.019-1.355,1.2-1.359,2.265-1.356q14.524.019,29.049,0c1.066,0,2.247-.007,2.272,1.348.027,1.51-1.25,1.462-2.359,1.461Q-563.485,826.713-570.8,826.721Z" transform="translate(632.376 -761.868)" fill-rule="evenodd"/>
        <path id="Trazado_190042" data-name="Trazado 190042" d="M-545.853,817.922c-2.6,0-5.191,0-7.787,0-1.025,0-2.032-.171-2.056-1.422-.027-1.383,1.031-1.5,2.133-1.5q7.69.027,15.383,0c1.092,0,2.175.085,2.145,1.484s-1.163,1.439-2.222,1.438Q-542.056,817.919-545.853,817.922Z" transform="translate(626.25 -760.146)" fill-rule="evenodd"/>
        <path id="Trazado_190043" data-name="Trazado 190043" d="M-589.389,815.009c2.586,0,5.173.012,7.759-.006,1.03-.008,2,.139,2.064,1.384.066,1.271-.9,1.529-1.928,1.531q-7.948.013-15.9,0c-.961,0-1.86-.27-1.881-1.4-.024-1.222.858-1.526,1.935-1.518C-594.689,815.021-592.04,815.009-589.389,815.009Z" transform="translate(634.67 -760.146)" fill-rule="evenodd"/>
        <path id="Trazado_190044" data-name="Trazado 190044" d="M-589.469,844.462c-2.587,0-5.173-.015-7.76.008-1.046.01-2-.194-2.044-1.413-.047-1.251.928-1.5,1.96-1.505q7.948-.006,15.9,0c.958,0,1.844.265,1.849,1.418.006,1.25-.895,1.5-1.955,1.493C-584.171,844.452-586.82,844.462-589.469,844.462Z" transform="translate(634.67 -765.276)" fill-rule="evenodd"/>
        <path id="Trazado_190045" data-name="Trazado 190045" d="M-579.3,772.23c-.122.378-.233.8-.395,1.21-1.7,4.263-3.42,8.518-5.1,12.787-.4,1.006-.841,2.017-2.125,1.543-1.3-.48-.967-1.553-.572-2.544q2.62-6.569,5.234-13.141c.325-.817.8-1.484,1.814-1.263A1.513,1.513,0,0,1-579.3,772.23Z" transform="translate(632.462 -751.601)" fill-rule="evenodd"/>
        <path id="Trazado_190046" data-name="Trazado 190046" d="M-589.325,835.575c-2.654,0-5.307-.017-7.961.009-1.065.01-1.99-.216-1.973-1.462.015-1.147.923-1.35,1.894-1.349q7.961.01,15.921,0c.965,0,1.864.191,1.87,1.362.006,1.276-.934,1.454-1.982,1.445C-584.144,835.56-586.734,835.575-589.325,835.575Z" transform="translate(634.667 -763.58)" fill-rule="evenodd"/>
        <path id="Trazado_190047" data-name="Trazado 190047" d="M-592.639,773.131a11.63,11.63,0,0,1-2.014,3.58c-1.4,1.819-1.622,3.459-.086,5.315a19.052,19.052,0,0,1,1.83,3.085,1.375,1.375,0,0,1-.391,2,1.4,1.4,0,0,1-2.094-.6c-1.238-2.124-2.454-4.258-3.684-6.385a1.317,1.317,0,0,1-.035-1.431c1.3-2.16,2.587-4.327,3.919-6.466a1.288,1.288,0,0,1,1.673-.488A1.5,1.5,0,0,1-592.639,773.131Z" transform="translate(634.677 -751.764)" fill-rule="evenodd"/>
        <path id="Trazado_190048" data-name="Trazado 190048" d="M-567.378,779.332a10.09,10.09,0,0,1-.5,1.2c-1.092,1.914-2.227,3.8-3.308,5.725-.5.894-1.192,1.408-2.149.9-1-.533-.848-1.419-.353-2.281,1.033-1.8,2.867-3.609,2.866-5.412s-1.843-3.591-2.883-5.383c-.511-.879-.581-1.735.4-2.276.894-.5,1.567.01,2.039.79q1.761,2.909,3.5,5.835A7.884,7.884,0,0,1-567.378,779.332Z" transform="translate(629.801 -751.762)" fill-rule="evenodd"/>
        <path id="Trazado_190049" data-name="Trazado 190049" d="M-577.595,809.056c-1.008,0-2.017.023-3.025,0a1.448,1.448,0,0,1-1.613-1.478,1.382,1.382,0,0,1,1.465-1.425c2.078-.049,4.16-.059,6.237,0a1.337,1.337,0,0,1,1.4,1.461,1.368,1.368,0,0,1-1.444,1.426C-575.575,809.1-576.586,809.054-577.595,809.056Z" transform="translate(631.377 -758.428)" fill-rule="evenodd"/>
        <path id="Trazado_190050" data-name="Trazado 190050" d="M-566.323,817.893c-1.071,0-2.144.051-3.21-.016a1.366,1.366,0,0,1-1.421-1.458,1.381,1.381,0,0,1,1.483-1.4c2.077-.025,4.157-.037,6.235.011a1.314,1.314,0,0,1,1.394,1.451,1.351,1.351,0,0,1-1.46,1.4c-1,.059-2.014.014-3.021.014Z" transform="translate(629.198 -760.146)" fill-rule="evenodd"/>
        <path id="Trazado_190051" data-name="Trazado 190051" d="M-594.785,809.054c-1.009,0-2.02.04-3.026-.012a1.4,1.4,0,0,1-1.48-1.41,1.347,1.347,0,0,1,1.406-1.468c2.079-.065,4.162-.061,6.242-.011a1.35,1.35,0,0,1,1.466,1.406c.009,1.029-.656,1.455-1.58,1.494-1.008.043-2.018.01-3.027.01Z" transform="translate(634.674 -758.429)" fill-rule="evenodd"/>
        <path id="Trazado_190052" data-name="Trazado 190052" d="M-566.477,835.572c-1.012,0-2.023.019-3.034,0a1.323,1.323,0,0,1-1.419-1.434,1.273,1.273,0,0,1,1.337-1.32c2.148-.025,4.3-.029,6.444,0a1.213,1.213,0,0,1,1.3,1.325,1.285,1.285,0,0,1-1.4,1.427C-564.329,835.59-565.4,835.572-566.477,835.572Z" transform="translate(629.193 -763.584)" fill-rule="evenodd"/>
        <path id="Trazado_190053" data-name="Trazado 190053" d="M-595.992,826.717c-.566,0-1.134.009-1.7,0-.955-.019-1.622-.455-1.575-1.462a1.349,1.349,0,0,1,1.526-1.328c1.2,0,2.394.007,3.589,0a1.313,1.313,0,0,1,1.474,1.366,1.3,1.3,0,0,1-1.424,1.414c-.629.015-1.259,0-1.889,0Z" transform="translate(634.669 -761.871)" fill-rule="evenodd"/>
        <path id="Trazado_190054" data-name="Trazado 190054" d="M-628.553,800.173c-.82,0-1.644.058-2.457-.016a1.319,1.319,0,0,1-1.291-1.371,1.252,1.252,0,0,1,1.231-1.41c1.7-.08,3.4-.08,5.1-.015a1.257,1.257,0,0,1,1.284,1.363,1.345,1.345,0,0,1-1.409,1.449c-.817.052-1.639.011-2.459.011Z" transform="translate(641.052 -756.729)" fill-rule="evenodd"/>
        <path id="Trazado_190055" data-name="Trazado 190055" d="M-628.341,770.746c.757,0,1.519-.053,2.27.015a1.359,1.359,0,0,1,1.388,1.478,1.287,1.287,0,0,1-1.307,1.356c-1.7.069-3.407.073-5.1-.024a1.263,1.263,0,0,1-1.21-1.436,1.345,1.345,0,0,1,1.314-1.363c.877-.077,1.765-.017,2.649-.017Z" transform="translate(641.053 -751.591)" fill-rule="evenodd"/>
        <path id="Trazado_190056" data-name="Trazado 190056" d="M-628.5,817.888a23.326,23.326,0,0,1-2.458-.019,1.336,1.336,0,0,1-1.337-1.522,1.324,1.324,0,0,1,1.365-1.307c1.639-.048,3.281-.056,4.919,0a1.3,1.3,0,0,1,1.332,1.333,1.343,1.343,0,0,1-1.364,1.5c-.812.08-1.638.017-2.457.017Z" transform="translate(641.052 -760.146)" fill-rule="evenodd"/>
        <path id="Trazado_190057" data-name="Trazado 190057" d="M-628.6,844.456c-.694,0-1.388.015-2.082,0-.95-.025-1.593-.46-1.606-1.466a1.345,1.345,0,0,1,1.465-1.406c1.576-.058,3.155-.06,4.729.006a1.327,1.327,0,0,1,1.416,1.448,1.363,1.363,0,0,1-1.462,1.405c-.817.044-1.64.009-2.46.009Z" transform="translate(641.05 -765.274)" fill-rule="evenodd"/>
        <path id="Trazado_190058" data-name="Trazado 190058" d="M-628.587,809.034a19.84,19.84,0,0,1-2.457-.025A1.34,1.34,0,0,1-632.3,807.6a1.3,1.3,0,0,1,1.264-1.4,48.563,48.563,0,0,1,5.107,0,1.3,1.3,0,0,1,1.254,1.412,1.33,1.33,0,0,1-1.259,1.411A22.133,22.133,0,0,1-628.587,809.034Z" transform="translate(641.053 -758.431)" fill-rule="evenodd"/>
        <path id="Trazado_190059" data-name="Trazado 190059" d="M-628.4,791.289c-.878,0-1.76.044-2.633-.015a1.261,1.261,0,0,1-1.26-1.367,1.231,1.231,0,0,1,1.271-1.346q2.538-.064,5.079,0a1.215,1.215,0,0,1,1.251,1.356,1.256,1.256,0,0,1-1.263,1.36C-626.763,791.334-627.581,791.292-628.4,791.289Z" transform="translate(641.049 -755.031)" fill-rule="evenodd"/>
        <path id="Trazado_190060" data-name="Trazado 190060" d="M-628.576,782.413c-.815,0-1.632.04-2.445-.011a1.241,1.241,0,0,1-1.268-1.348,1.263,1.263,0,0,1,1.261-1.372c1.691-.061,3.388-.058,5.079,0a1.251,1.251,0,0,1,1.257,1.368,1.224,1.224,0,0,1-1.253,1.355C-626.818,782.453-627.7,782.413-628.576,782.413Z" transform="translate(641.049 -753.313)" fill-rule="evenodd"/>
        <path id="Trazado_190061" data-name="Trazado 190061" d="M-628.535,826.716c-.69,0-1.38,0-2.069,0-.916-.006-1.657-.315-1.675-1.351-.018-1,.635-1.435,1.59-1.438,1.505-.006,3.011-.01,4.516,0a1.317,1.317,0,0,1,1.482,1.348,1.278,1.278,0,0,1-1.4,1.416c-.814.032-1.63.006-2.445.006Z" transform="translate(641.048 -761.87)" fill-rule="evenodd"/>
        <path id="Trazado_190062" data-name="Trazado 190062" d="M-628.454,832.809c.816,0,1.632-.032,2.444.009a1.239,1.239,0,0,1,1.318,1.3,1.285,1.285,0,0,1-1.376,1.443c-1.629.035-3.261.036-4.891-.007a1.269,1.269,0,0,1-1.324-1.309,1.284,1.284,0,0,1,1.384-1.432c.813-.037,1.63-.008,2.445-.008Z" transform="translate(641.049 -763.584)" fill-rule="evenodd"/>
      </g>
      <path id="Trazado_190063" data-name="Trazado 190063" d="M-567.452,749.826h16.979v-2.809h-18.29Z" transform="translate(628.775 -747.01)" fill-rule="evenodd"/>
      <path id="Trazado_190064" data-name="Trazado 190064" d="M-605.171,783.2v15.561h-2.805V780.013l2.737,2.738" transform="translate(636.352 -753.386)" fill-rule="evenodd"/>
    </g>
  </g>
</svg>
