<svg xmlns="http://www.w3.org/2000/svg" xmlns:xlink="http://www.w3.org/1999/xlink" width="101.229" height="137.564" viewBox="0 0 101.229 137.564">
  <defs>
    <clipPath id="clip-path">
      <path id="Trazado_208724" data-name="Trazado 208724" d="M206.339,220.954v68.455c0,4.5,2.739,9.737,6.117,11.688l87.26,50.408c3.378,1.951,6.117-.12,6.117-4.624V278.427c0-4.5-2.739-9.737-6.117-11.687l-87.26-50.409a4.893,4.893,0,0,0-2.428-.734c-2.171,0-3.69,2-3.69,5.358" transform="translate(-206.339 -215.596)" fill="none"/>
    </clipPath>
    <linearGradient id="linear-gradient" x1="-2.464" y1="1.102" x2="-2.452" y2="1.102" gradientUnits="objectBoundingBox">
      <stop offset="0" stop-color="#b9ddfc"/>
      <stop offset="0.581" stop-color="#b9ddfc"/>
      <stop offset="0.699" stop-color="#c8e4fc"/>
      <stop offset="0.929" stop-color="#f1f8fe"/>
      <stop offset="1" stop-color="#fff"/>
    </linearGradient>
    <clipPath id="clip-path-2">
      <path id="Trazado_208725" data-name="Trazado 208725" d="M210.245,215.03c-.128.049-1.834.955-1.954,1.022l-.006,0a4,4,0,0,1,3.8.421l87.26,50.409c3.378,1.95,6.117,7.183,6.117,11.687v68.455c0,2.811-1.067,4.674-2.69,5.2a1.018,1.018,0,0,0,.536-.182c.077-.045,1.929-1.088,2-1.141,1.162-.814,1.886-2.486,1.886-4.8V277.652c0-4.5-2.739-9.737-6.117-11.687l-87.26-50.409a4.906,4.906,0,0,0-2.428-.734,3.175,3.175,0,0,0-1.151.209" transform="translate(-208.285 -214.821)" fill="none"/>
    </clipPath>
    <linearGradient id="linear-gradient-2" x1="-2.502" y1="1.112" x2="-2.49" y2="1.112" gradientUnits="objectBoundingBox">
      <stop offset="0" stop-color="#b9ddfc"/>
      <stop offset="0.434" stop-color="#b9ddfc"/>
      <stop offset="0.458" stop-color="#c3e1fc"/>
      <stop offset="0.497" stop-color="#deeffd"/>
      <stop offset="0.535" stop-color="#fff"/>
      <stop offset="0.596" stop-color="#ebf5fe"/>
      <stop offset="0.719" stop-color="#baddfc"/>
      <stop offset="0.722" stop-color="#b9ddfc"/>
      <stop offset="0.909" stop-color="#b9ddfc"/>
      <stop offset="1" stop-color="#b9ddfc"/>
    </linearGradient>
    <clipPath id="clip-path-3">
      <path id="Trazado_208727" data-name="Trazado 208727" d="M208.131,288.655a10.669,10.669,0,0,0,4.514,8.938l88.569,51.159.146.084a1.2,1.2,0,0,0,1.8-1.043v-70.4a14.735,14.735,0,0,0-.1-1.66l-94.924-54.808Z" transform="translate(-208.131 -220.922)" fill="none"/>
    </clipPath>
    <linearGradient id="linear-gradient-3" x1="-2.603" y1="1.134" x2="-2.59" y2="1.134" gradientUnits="objectBoundingBox">
      <stop offset="0" stop-color="#084a93"/>
      <stop offset="0.005" stop-color="#084a93"/>
      <stop offset="0.399" stop-color="#084a93"/>
      <stop offset="1" stop-color="#084a93"/>
    </linearGradient>
  </defs>
  <g id="Grupo_176089" data-name="Grupo 176089" transform="translate(10952.724 12622.731)">
    <g id="Grupo_176087" data-name="Grupo 176087" transform="translate(-10952.724 -12621.811)">
      <g id="Grupo_176011" data-name="Grupo 176011" clip-path="url(#clip-path)">
        <rect id="Rectángulo_298490" data-name="Rectángulo 298490" width="99.495" height="137.86" transform="translate(0 0)" fill="url(#linear-gradient)"/>
      </g>
    </g>
    <g id="Grupo_176088" data-name="Grupo 176088" transform="translate(-10950.411 -12622.731)">
      <g id="Grupo_176013" data-name="Grupo 176013" clip-path="url(#clip-path-2)">
        <rect id="Rectángulo_298491" data-name="Rectángulo 298491" width="98.916" height="137.415" transform="translate(0 0)" fill="url(#linear-gradient-2)"/>
      </g>
    </g>
    <g id="Grupo_176020" data-name="Grupo 176020" transform="translate(-10950.595 -12615.482)" clip-path="url(#clip-path-3)">
      <rect id="Rectángulo_298494" data-name="Rectángulo 298494" width="95.025" height="128.371" transform="translate(0)" fill="url(#linear-gradient-3)"/>
    </g>
    <path id="Trazado_208728" data-name="Trazado 208728" d="M302.332,348.559l-.147-.084-88.568-51.158a10.673,10.673,0,0,1-4.514-8.939V221.483l-.972-.562v67.735a10.669,10.669,0,0,0,4.514,8.938l88.568,51.159.147.084a1.19,1.19,0,0,0,1.378-.143,1.206,1.206,0,0,1-.406-.135" transform="translate(-11158.726 -12836.404)" fill="#a8cff0"/>
    <path id="Trazado_208729" data-name="Trazado 208729" d="M245.449,255.067l-4.621-2.668v52.084l4.621,2.669Z" transform="translate(-11152.569 -12830.478)" fill="#ffb30b"/>
    <path id="Trazado_208730" data-name="Trazado 208730" d="M251.05,252.87l-4.621-2.668v58.48l4.621,2.669Z" transform="translate(-11151.515 -12830.891)" fill="#ffb30b"/>
    <path id="Trazado_208731" data-name="Trazado 208731" d="M256.816,262.771,252.2,260.1v50.632l4.621,2.668Z" transform="translate(-11150.429 -12829.027)" fill="#ffb30b"/>
    <path id="Trazado_208732" data-name="Trazado 208732" d="M229.295,265.435v28.534l4.621,2.669V268.1Z" transform="translate(-11154.74 -12828.022)" fill="#ffb30b"/>
    <path id="Trazado_208733" data-name="Trazado 208733" d="M239.682,259.183l-4.621-2.668v43.049l4.621,2.669Z" transform="translate(-11153.655 -12829.702)" fill="#ffb30b"/>
    <path id="Trazado_208734" data-name="Trazado 208734" d="M262.473,274.939l-4.621-2.669v40.087l4.621,2.669Z" transform="translate(-11149.364 -12826.736)" fill="#ffb30b"/>
    <path id="Trazado_208735" data-name="Trazado 208735" d="M268.019,281.023l-4.621-2.668v36.707l4.621,2.668Z" transform="translate(-11148.319 -12825.59)" fill="#ffb30b"/>
    <path id="Trazado_208736" data-name="Trazado 208736" d="M228.149,261.7l-4.621-2.668v32.016l4.621,2.669Z" transform="translate(-11155.826 -12829.229)" fill="#ffb30b"/>
    <path id="Trazado_208737" data-name="Trazado 208737" d="M211.994,262.864v19.4l4.621,2.669v-19.4Z" transform="translate(-11157.998 -12828.507)" fill="#ffb30b"/>
    <path id="Trazado_208738" data-name="Trazado 208738" d="M222.382,256.883l-4.621-2.668v33.592l4.621,2.668Z" transform="translate(-11156.912 -12830.136)" fill="#ffb30b"/>
    <path id="Trazado_208739" data-name="Trazado 208739" d="M245.449,272.272l-4.621-2.668v31.639l4.621,2.669Z" transform="translate(-11152.569 -12827.238)" fill="#00defc"/>
    <path id="Trazado_208740" data-name="Trazado 208740" d="M251.05,260.167l-4.621-2.669v49.81l4.621,2.668Z" transform="translate(-11151.515 -12829.518)" fill="#00defc"/>
    <path id="Trazado_208741" data-name="Trazado 208741" d="M256.816,270.551l-4.621-2.669v41.386l4.621,2.669Z" transform="translate(-11150.429 -12827.563)" fill="#00defc"/>
    <path id="Trazado_208742" data-name="Trazado 208742" d="M229.295,271.27v21.6l4.621,2.668v-21.6Z" transform="translate(-11154.74 -12826.925)" fill="#00defc"/>
    <path id="Trazado_208743" data-name="Trazado 208743" d="M239.682,270.98l-4.621-2.669v29.033l4.621,2.668Z" transform="translate(-11153.655 -12827.481)" fill="#00defc"/>
    <path id="Trazado_208744" data-name="Trazado 208744" d="M228.149,263.9l-4.621-2.669v29.4l4.621,2.669Z" transform="translate(-11155.826 -12828.814)" fill="#00defc"/>
    <path id="Trazado_208745" data-name="Trazado 208745" d="M211.994,274.461v5.618l4.621,2.669v-5.619Z" transform="translate(-11157.998 -12826.323)" fill="#00defc"/>
    <path id="Trazado_208746" data-name="Trazado 208746" d="M222.382,274.893l-4.621-2.668v12.191l4.621,2.668Z" transform="translate(-11156.912 -12826.744)" fill="#00defc"/>
    <path id="Trazado_208747" data-name="Trazado 208747" d="M262.473,281.218l-4.621-2.669v32.626l4.621,2.669Z" transform="translate(-11149.364 -12825.554)" fill="#00defc"/>
    <path id="Trazado_208748" data-name="Trazado 208748" d="M268.019,292.271,263.4,289.6v23.341l4.621,2.668Z" transform="translate(-11148.319 -12823.473)" fill="#00defc"/>
    <path id="Trazado_208749" data-name="Trazado 208749" d="M273.495,278.637l-4.621-2.669v43.264l4.621,2.669Z" transform="translate(-11147.289 -12826.04)" fill="#ffb30b"/>
    <path id="Trazado_208750" data-name="Trazado 208750" d="M279.1,269.953l-4.621-2.669v57.369l4.621,2.668Z" transform="translate(-11146.234 -12827.675)" fill="#ffb30b"/>
    <path id="Trazado_208751" data-name="Trazado 208751" d="M284.862,278.918l-4.621-2.669v50.632l4.621,2.668Z" transform="translate(-11145.148 -12825.986)" fill="#ffb30b"/>
    <path id="Trazado_208752" data-name="Trazado 208752" d="M273.495,288.419l-4.621-2.668v31.639l4.621,2.668Z" transform="translate(-11147.289 -12824.197)" fill="#00defc"/>
    <path id="Trazado_208753" data-name="Trazado 208753" d="M279.1,276.314l-4.621-2.668v49.809l4.621,2.668Z" transform="translate(-11146.234 -12826.477)" fill="#00defc"/>
    <path id="Trazado_208754" data-name="Trazado 208754" d="M284.862,286.7l-4.621-2.669v41.386l4.621,2.669Z" transform="translate(-11145.148 -12824.521)" fill="#eb4680"/>
    <path id="Trazado_208755" data-name="Trazado 208755" d="M284.862,286.7l-4.621-2.669v41.386l4.621,2.669Z" transform="translate(-11145.148 -12824.521)" fill="#00defc"/>
  </g>
</svg>
