<svg xmlns="http://www.w3.org/2000/svg" xmlns:xlink="http://www.w3.org/1999/xlink" width="101.229" height="138.506" viewBox="0 0 101.229 138.506">
  <defs>
    <clipPath id="clip-path">
      <path id="Trazado_208756" data-name="Trazado 208756" d="M182.877,6.926V75.381c0,4.5,2.739,9.737,6.117,11.687l87.26,50.409c3.378,1.951,6.117-.12,6.117-4.625V64.4c0-4.5-2.739-9.737-6.117-11.688L188.994,2.3a4.893,4.893,0,0,0-2.429-.734c-2.17,0-3.688,2-3.688,5.358" transform="translate(-182.877 -1.568)" fill="none"/>
    </clipPath>
    <linearGradient id="linear-gradient" x1="-2.184" y1="2.947" x2="-2.172" y2="2.947" gradientUnits="objectBoundingBox">
      <stop offset="0" stop-color="#b9ddfc"/>
      <stop offset="0.581" stop-color="#b9ddfc"/>
      <stop offset="0.699" stop-color="#c8e4fc"/>
      <stop offset="0.929" stop-color="#f1f8fe"/>
      <stop offset="1" stop-color="#fff"/>
    </linearGradient>
    <clipPath id="clip-path-2">
      <path id="Trazado_208757" data-name="Trazado 208757" d="M186.782,1c-.128.05-1.834.957-1.954,1.022l-.006,0a4,4,0,0,1,3.8.421l87.26,50.408c3.378,1.951,6.117,7.184,6.117,11.688V133c0,2.811-1.067,4.674-2.69,5.2a1.018,1.018,0,0,0,.536-.182c.077-.045,1.929-1.09,2-1.141,1.162-.814,1.886-2.486,1.886-4.8V63.624c0-4.5-2.739-9.737-6.117-11.688L190.362,1.527a4.9,4.9,0,0,0-2.429-.734,3.169,3.169,0,0,0-1.15.208" transform="translate(-184.823 -0.793)" fill="none"/>
    </clipPath>
    <linearGradient id="linear-gradient-2" x1="-2.22" y1="2.963" x2="-2.208" y2="2.963" gradientUnits="objectBoundingBox">
      <stop offset="0" stop-color="#084a93"/>
      <stop offset="0.005" stop-color="#084a93"/>
      <stop offset="0.399" stop-color="#084a93"/>
      <stop offset="1" stop-color="#084a93"/>
    </linearGradient>
    <clipPath id="clip-path-3">
      <path id="Trazado_208759" data-name="Trazado 208759" d="M184.669,74.628a10.674,10.674,0,0,0,4.514,8.938l88.569,51.159.146.084a1.2,1.2,0,0,0,1.8-1.043v-70.4a14.713,14.713,0,0,0-.1-1.659L184.669,6.893Z" transform="translate(-184.669 -6.893)" fill="none"/>
    </clipPath>
    <linearGradient id="linear-gradient-3" x1="-2.309" y1="3.115" x2="-2.297" y2="3.115" xlink:href="#linear-gradient-2"/>
  </defs>
  <g id="Grupo_176086" data-name="Grupo 176086" transform="translate(11626.604 12878)">
    <g id="Grupo_176082" data-name="Grupo 176082" transform="translate(-11626.604 -12876.137)">
      <g id="Grupo_176024" data-name="Grupo 176024" clip-path="url(#clip-path)">
        <rect id="Rectángulo_298496" data-name="Rectángulo 298496" width="99.495" height="137.86" transform="translate(0 0)" fill="url(#linear-gradient)"/>
      </g>
    </g>
    <g id="Grupo_176083" data-name="Grupo 176083" transform="translate(-11624.291 -12877.058)">
      <g id="Grupo_176026" data-name="Grupo 176026" clip-path="url(#clip-path-2)">
        <rect id="Rectángulo_298497" data-name="Rectángulo 298497" width="98.916" height="137.416" transform="translate(0 0)" fill="url(#linear-gradient-2)"/>
      </g>
    </g>
    <g id="Grupo_176084" data-name="Grupo 176084" transform="translate(-11624.474 -12869.81)">
      <g id="Grupo_176033" data-name="Grupo 176033" clip-path="url(#clip-path-3)">
        <rect id="Rectángulo_298500" data-name="Rectángulo 298500" width="95.025" height="128.371" transform="translate(0 0)" fill="url(#linear-gradient-3)"/>
      </g>
    </g>
    <path id="Trazado_208856" data-name="Trazado 208856" d="M278.87,134.531l-.147-.084L190.155,83.289a10.672,10.672,0,0,1-4.513-8.939V7.455l-.973-.562V74.628a10.669,10.669,0,0,0,4.514,8.938l88.568,51.159.147.084a1.192,1.192,0,0,0,1.38-.143,1.2,1.2,0,0,1-.408-.135" transform="translate(-11809.143 -12876.702)" fill="#a8cff0"/>
    <path id="Trazado_208857" data-name="Trazado 208857" d="M277.443,101.927a1.187,1.187,0,0,1-1.078-.687c-2.216-4.756-4.308-9.247-7.921-11.386a22.108,22.108,0,0,0-9.076-3.147c-2.336-.346-4.347-.644-6.76-2.977-.188-.183-.359-.34-.517-.484-1.42-1.3-1.937-1.965-2.412-6.326-.113-1.029-.21-2.078-.309-3.129-.684-7.351-1.331-14.294-6.823-15.41-4.765-.967-5.952-4.371-7.327-8.311a47.849,47.849,0,0,0-1.83-4.678c-2.382-5.081-5.748-9.395-8.376-10.734-3.76-1.917-8.521,1.068-10.609,5.063-2.114,4.05-4.746,9.088-9.668,9.682-7.874.934-11.247-3.642-13.973-7.319-1.46-1.971-2.72-3.669-4.335-4.059a1.189,1.189,0,0,1,.557-2.311c2.453.593,4.024,2.71,5.684,4.952,2.606,3.516,5.291,7.155,11.784,6.378,3.678-.443,5.89-4.683,7.844-8.423,2.6-4.981,8.62-8.726,13.795-6.08,3.78,1.926,7.452,7.584,9.448,11.844a49.637,49.637,0,0,1,1.923,4.9c1.32,3.783,2.118,6.067,5.556,6.764,7.221,1.469,7.982,9.627,8.717,17.52.1,1.037.193,2.074.3,3.091.4,3.691.692,3.953,1.652,4.829.172.158.361.33.568.53,1.863,1.8,3.213,2,5.449,2.334a24.166,24.166,0,0,1,9.944,3.453c4.248,2.513,6.49,7.329,8.865,12.428a1.189,1.189,0,0,1-1.075,1.69" transform="translate(-11808.982 -12872.037)" fill="#00defc"/>
    <path id="Trazado_208858" data-name="Trazado 208858" d="M241.883,103.6a.476.476,0,0,1-.477-.475v-1.188a.475.475,0,1,1,.951,0v1.188a.476.476,0,0,1-.474.475m0-3.565a.476.476,0,0,1-.477-.475V98.369a.475.475,0,1,1,.951,0v1.188a.476.476,0,0,1-.474.475m0-3.565a.476.476,0,0,1-.477-.475V94.8a.475.475,0,1,1,.951,0v1.188a.476.476,0,0,1-.474.475m0-3.565a.476.476,0,0,1-.477-.475V91.239a.475.475,0,1,1,.951,0v1.188a.476.476,0,0,1-.474.475m0-3.565a.476.476,0,0,1-.477-.475V87.674a.475.475,0,1,1,.951,0v1.188a.476.476,0,0,1-.474.475m0-3.565a.476.476,0,0,1-.477-.475V84.109a.475.475,0,1,1,.951,0V85.3a.476.476,0,0,1-.474.475m0-3.565a.476.476,0,0,1-.477-.475V80.544a.475.475,0,1,1,.951,0v1.188a.476.476,0,0,1-.474.475m0-3.565a.476.476,0,0,1-.477-.475v-.3a.475.475,0,1,1,.951,0v.3a.476.476,0,0,1-.474.475" transform="translate(-11798.46 -12863.428)" fill="#2672ab"/>
    <path id="Trazado_208859" data-name="Trazado 208859" d="M253.555,110.227a.476.476,0,0,1-.475-.475v-1.188a.475.475,0,1,1,.951,0v1.188a.476.476,0,0,1-.475.475m0-3.565a.476.476,0,0,1-.475-.475V105a.475.475,0,1,1,.951,0v1.188a.476.476,0,0,1-.475.475m0-3.565a.476.476,0,0,1-.475-.475v-1.188a.475.475,0,1,1,.951,0v1.188a.476.476,0,0,1-.475.475m0-3.565a.476.476,0,0,1-.475-.475V97.869a.475.475,0,1,1,.951,0v1.188a.476.476,0,0,1-.475.475m0-3.565a.476.476,0,0,1-.475-.475V94.3a.475.475,0,1,1,.951,0v1.188a.476.476,0,0,1-.475.475m0-3.565a.476.476,0,0,1-.475-.475V90.739a.475.475,0,1,1,.951,0v1.188a.476.476,0,0,1-.475.475m0-3.565a.476.476,0,0,1-.475-.475V87.174a.475.475,0,1,1,.951,0v1.188a.476.476,0,0,1-.475.475m0-3.565a.476.476,0,0,1-.475-.475V83.609a.475.475,0,1,1,.951,0V84.8a.476.476,0,0,1-.475.475" transform="translate(-11796.263 -12862.348)" fill="#2672ab"/>
    <path id="Trazado_208860" data-name="Trazado 208860" d="M230.278,99.964a.476.476,0,0,1-.475-.475V98.3a.475.475,0,1,1,.951,0v1.188a.476.476,0,0,1-.475.475m0-3.565a.476.476,0,0,1-.475-.475V94.736a.475.475,0,1,1,.951,0v1.188a.476.476,0,0,1-.475.475m0-3.565a.476.476,0,0,1-.475-.475V91.171a.475.475,0,1,1,.951,0v1.188a.476.476,0,0,1-.475.475m0-3.565a.476.476,0,0,1-.475-.475V87.606a.475.475,0,1,1,.951,0v1.188a.476.476,0,0,1-.475.475m0-3.565a.476.476,0,0,1-.475-.475V84.041a.475.475,0,1,1,.951,0V85.23a.476.476,0,0,1-.475.475m0-3.565a.476.476,0,0,1-.475-.475V80.476a.475.475,0,1,1,.951,0v1.188a.476.476,0,0,1-.475.475m0-3.565a.476.476,0,0,1-.475-.475V76.912a.475.475,0,1,1,.951,0V78.1a.476.476,0,0,1-.475.475m0-3.565a.476.476,0,0,1-.475-.475V73.347a.475.475,0,1,1,.951,0v1.188a.476.476,0,0,1-.475.475m0-3.565a.476.476,0,0,1-.475-.475V69.782a.475.475,0,1,1,.951,0V70.97a.476.476,0,0,1-.475.475m0-3.565a.476.476,0,0,1-.475-.475V66.217a.475.475,0,1,1,.951,0v1.188a.476.476,0,0,1-.475.475m0-3.565a.476.476,0,0,1-.475-.475V62.652a.475.475,0,1,1,.951,0V63.84a.476.476,0,0,1-.475.475m0-3.565a.476.476,0,0,1-.475-.475V59.087a.475.475,0,1,1,.951,0v1.188a.476.476,0,0,1-.475.475m0-3.565a.476.476,0,0,1-.475-.475V55.523a.475.475,0,1,1,.951,0v1.188a.476.476,0,0,1-.475.475" transform="translate(-11800.645 -12867.636)" fill="#2672ab"/>
    <path id="Trazado_208861" data-name="Trazado 208861" d="M218.674,94.934a.475.475,0,0,1-.475-.475V93.27a.475.475,0,1,1,.951,0v1.188a.475.475,0,0,1-.475.475m0-3.565a.475.475,0,0,1-.475-.475V89.705a.475.475,0,1,1,.951,0v1.188a.475.475,0,0,1-.475.475m0-3.565a.475.475,0,0,1-.475-.475V86.14a.475.475,0,1,1,.951,0v1.188a.475.475,0,0,1-.475.475m0-3.565a.475.475,0,0,1-.475-.475V82.576a.475.475,0,1,1,.951,0v1.188a.475.475,0,0,1-.475.475m0-3.565a.475.475,0,0,1-.475-.475V79.011a.475.475,0,1,1,.951,0V80.2a.475.475,0,0,1-.475.475m0-3.565a.475.475,0,0,1-.475-.475V75.446a.475.475,0,1,1,.951,0v1.188a.475.475,0,0,1-.475.475m0-3.565a.475.475,0,0,1-.475-.475V71.881a.475.475,0,1,1,.951,0v1.188a.475.475,0,0,1-.475.475m0-3.565a.475.475,0,0,1-.475-.475V68.316a.475.475,0,1,1,.951,0V69.5a.475.475,0,0,1-.475.475m0-3.565a.475.475,0,0,1-.475-.475V64.751a.475.475,0,1,1,.951,0V65.94a.475.475,0,0,1-.475.475m0-3.565a.475.475,0,0,1-.475-.475V61.186a.475.475,0,1,1,.951,0v1.188a.475.475,0,0,1-.475.475m0-3.565a.475.475,0,0,1-.475-.475V57.622a.475.475,0,1,1,.951,0V58.81a.475.475,0,0,1-.475.475m0-3.565a.475.475,0,0,1-.475-.475V54.057a.475.475,0,1,1,.951,0v1.188a.475.475,0,0,1-.475.475m0-3.565a.475.475,0,0,1-.475-.475V50.492a.475.475,0,1,1,.951,0V51.68a.475.475,0,0,1-.475.475m0-3.565a.475.475,0,0,1-.475-.475V46.927a.475.475,0,1,1,.951,0v1.188a.475.475,0,0,1-.475.475m0-3.565a.475.475,0,0,1-.475-.475V43.362a.475.475,0,1,1,.951,0V44.55a.475.475,0,0,1-.475.475m0-3.565a.475.475,0,0,1-.475-.475V39.8a.475.475,0,1,1,.951,0v1.188a.475.475,0,0,1-.475.475" transform="translate(-11802.83 -12870.597)" fill="#2672ab"/>
    <path id="Trazado_208862" data-name="Trazado 208862" d="M207.072,85.1a.475.475,0,0,1-.475-.475V83.433a.475.475,0,1,1,.951,0v1.188a.475.475,0,0,1-.475.475m0-3.565a.475.475,0,0,1-.475-.475V79.868a.475.475,0,1,1,.951,0v1.188a.475.475,0,0,1-.475.475m0-3.565a.475.475,0,0,1-.475-.475V76.3a.475.475,0,0,1,.951,0v1.188a.475.475,0,0,1-.475.475m0-3.565a.475.475,0,0,1-.475-.475V72.738a.475.475,0,0,1,.951,0v1.188a.475.475,0,0,1-.475.475m0-3.565a.475.475,0,0,1-.475-.475V69.173a.475.475,0,1,1,.951,0v1.188a.475.475,0,0,1-.475.475m0-3.565a.475.475,0,0,1-.475-.475V65.609a.475.475,0,1,1,.951,0V66.8a.475.475,0,0,1-.475.475m0-3.565a.475.475,0,0,1-.475-.475V62.044a.475.475,0,1,1,.951,0v1.188a.475.475,0,0,1-.475.475m0-3.565a.475.475,0,0,1-.475-.475V58.479a.475.475,0,0,1,.951,0v1.188a.475.475,0,0,1-.475.475m0-3.565a.475.475,0,0,1-.475-.475V54.914a.475.475,0,1,1,.951,0V56.1a.475.475,0,0,1-.475.475m0-3.565a.475.475,0,0,1-.475-.475V51.349a.475.475,0,1,1,.951,0v1.188a.475.475,0,0,1-.475.475m0-3.565a.475.475,0,0,1-.475-.475V47.784a.475.475,0,1,1,.951,0v1.188a.475.475,0,0,1-.475.475" transform="translate(-11805.015 -12869.093)" fill="#2672ab"/>
    <path id="Trazado_208863" data-name="Trazado 208863" d="M195.468,77.363a.475.475,0,0,1-.475-.475V75.7a.475.475,0,1,1,.951,0v1.188a.475.475,0,0,1-.475.475m0-3.565a.475.475,0,0,1-.475-.475V72.134a.475.475,0,1,1,.951,0v1.188a.475.475,0,0,1-.475.475m0-3.565a.475.475,0,0,1-.475-.475V68.569a.475.475,0,1,1,.951,0v1.188a.475.475,0,0,1-.475.475m0-3.565a.475.475,0,0,1-.475-.475V65a.475.475,0,0,1,.951,0v1.188a.475.475,0,0,1-.475.475m0-3.565a.475.475,0,0,1-.475-.475V61.44a.475.475,0,1,1,.951,0v1.188a.475.475,0,0,1-.475.475m0-3.565a.475.475,0,0,1-.475-.475V57.875a.475.475,0,1,1,.951,0v1.188a.475.475,0,0,1-.475.475m0-3.565a.475.475,0,0,1-.475-.475V54.31a.475.475,0,1,1,.951,0V55.5a.475.475,0,0,1-.475.475m0-3.565a.475.475,0,0,1-.475-.475V50.745a.475.475,0,1,1,.951,0v1.188a.475.475,0,0,1-.475.475m0-3.565a.475.475,0,0,1-.475-.475V47.244a.475.475,0,0,1,.951,0v1.124a.475.475,0,0,1-.475.475" transform="translate(-11807.199 -12869.194)" fill="#2672ab"/>
    <path id="Trazado_208864" data-name="Trazado 208864" d="M216.474,32.83a6.551,6.551,0,0,0,2.973,5.127c1.641.948,2.972.189,2.972-1.694a6.549,6.549,0,0,0-2.972-5.127c-1.642-.948-2.973-.189-2.973,1.694" transform="translate(-11803.154 -12872.215)" fill="#d1ebff"/>
    <path id="Trazado_208865" data-name="Trazado 208865" d="M220.875,39.054h0a3.284,3.284,0,0,1-1.632-.487,7.11,7.11,0,0,1-3.27-5.642c0-1.614.9-2.7,2.233-2.7a3.284,3.284,0,0,1,1.632.487,7.112,7.112,0,0,1,3.27,5.642,3.033,3.033,0,0,1-.586,1.924,2.066,2.066,0,0,1-1.647.774m-2.669-7.638c-.942,0-1.044,1.055-1.044,1.509a5.989,5.989,0,0,0,2.676,4.612c.74.429,1.406.44,1.757,0a1.888,1.888,0,0,0,.324-1.18,5.994,5.994,0,0,0-2.676-4.613,2.151,2.151,0,0,0-1.037-.328" transform="translate(-11803.249 -12872.309)" fill="#2672ab"/>
    <path id="Trazado_208866" data-name="Trazado 208866" d="M276.417,83.839a1.187,1.187,0,0,1-.948-.469l-5.093-6.709a10.008,10.008,0,0,0-7.164-3.92l-17.093-1.372a12.386,12.386,0,0,1-8.935-4.941l-7.228-9.7A10.061,10.061,0,0,0,217.8,53.6a12.322,12.322,0,0,1-10.658-.2l-.673-.336a10.025,10.025,0,0,0-8.127-.366L187.332,57.02a1.188,1.188,0,0,1-.867-2.213l11.008-4.319a12.4,12.4,0,0,1,10.058.452l.674.336a9.965,9.965,0,0,0,8.61.158,12.449,12.449,0,0,1,15.046,3.871l7.228,9.7A10,10,0,0,0,246.308,69L263.4,70.371a12.384,12.384,0,0,1,8.868,4.853l5.093,6.709a1.188,1.188,0,0,1-.946,1.906" transform="translate(-11808.947 -12868.654)" fill="#ffb30b"/>
    <path id="Trazado_208867" data-name="Trazado 208867" d="M276.55,107.544a1.183,1.183,0,0,1-.474-.1l-11.929-5.206a49.922,49.922,0,0,1-17.381-12.674l-3.827-4.344a5.211,5.211,0,0,0-6.82-.87,7.579,7.579,0,0,1-11.72-5L221.6,62.974a5.2,5.2,0,0,0-6.878-4.025c-17.676,6.341-26.8,9.61-27.12,9.715a1.188,1.188,0,0,1-.752-2.253c.247-.084,5.143-1.834,27.069-9.7a7.572,7.572,0,0,1,10.022,5.862L226.74,78.95a5.205,5.205,0,0,0,8.046,3.433,7.59,7.59,0,0,1,9.934,1.267l3.827,4.344A47.526,47.526,0,0,0,265.1,100.06l11.929,5.206a1.188,1.188,0,0,1-.476,2.278" transform="translate(-11808.884 -12867.406)" fill="#fff"/>
    <path id="Trazado_208868" data-name="Trazado 208868" d="M199.464,14.248l20.012,11.844,3.68,9.228,1.364-.528V14.756L199.464,0l-1.42.6Z" transform="translate(-11806.625 -12878)" fill="#00defc"/>
    <path id="Trazado_208869" data-name="Trazado 208869" d="M222.806,15.474,198.678,1.254l-.309-.961,25.056,14.756V35.083l-.619-1.718Z" transform="translate(-11806.563 -12877.945)" fill="#fff"/>
    <path id="Trazado_208870" data-name="Trazado 208870" d="M198.043,14.669l20.012,11.844,5.044,8.7V15.178L198.043.422Z" transform="translate(-11806.625 -12877.921)" fill="#00defc"/>
    <path id="Trazado_208871" data-name="Trazado 208871" d="M200.233,12.768V4.04l19.929,11.606v8.74Z" transform="translate(-11806.213 -12877.239)" fill="#fff"/>
  </g>
</svg>
