<svg xmlns="http://www.w3.org/2000/svg" width="166.91" height="130.249" viewBox="0 0 166.91 130.249">
  <g id="Grupo_174692" data-name="Grupo 174692" transform="translate(307.263 -1729.613)">
    <g id="Grupo_139936" data-name="Grupo 139936" transform="translate(-307.263 1729.613)">
      <path id="Trazado_196495" data-name="Trazado 196495" d="M-162.7,1729.824H-270.79a6.145,6.145,0,0,0-6.145,6.145v39.849h-2.7a8.306,8.306,0,0,1-3.611-.866,16.52,16.52,0,0,0-10.037-1.4,16.606,16.606,0,0,0-13.629,14.477,16.6,16.6,0,0,0,16.49,18.464,16.465,16.465,0,0,0,6.677-1.409,8.285,8.285,0,0,1,3.346-.738h3.463v38.86a6.145,6.145,0,0,0,6.145,6.145H-162.7a5,5,0,0,0,5-5V1734.828A5,5,0,0,0-162.7,1729.824Z" transform="translate(307.165 -1729.695)" fill="#d8d8d8"/>
      <g id="Grupo_139935" data-name="Grupo 139935">
        <path id="Trazado_196496" data-name="Trazado 196496" d="M-162.794,1729.741s.114,0,.338.009a2.541,2.541,0,0,1,.417.041,3.623,3.623,0,0,1,.573.116,4.982,4.982,0,0,1,3.049,2.352,5.22,5.22,0,0,1,.667,2.8q0,1.6.008,3.5c0,2.529.009,5.446.015,8.73.012,13.14.029,32.148.051,55.636.005,11.745.012,24.609.019,38.419q0,1.3,0,2.6a6.739,6.739,0,0,1-.1,1.329,5.236,5.236,0,0,1-.439,1.271,5.128,5.128,0,0,1-4.349,2.843l-10.877.016-22.691.007-48.726.009-25.773,0a6.527,6.527,0,0,1-3.235-.739,6.341,6.341,0,0,1-2.42-2.292,6.3,6.3,0,0,1-.921-3.215l0-3.314v-13.357q0-11.252,0-22.246l.158.158h-2.634c-.438,0-.88-.011-1.3.016a7.766,7.766,0,0,0-1.27.191,8.474,8.474,0,0,0-1.225.387c-.391.162-.8.347-1.214.5a16.466,16.466,0,0,1-2.531.724,16.393,16.393,0,0,1-2.605.315,10,10,0,0,1-1.309-.016c-.436-.028-.873-.038-1.305-.08a18.442,18.442,0,0,1-5.006-1.379,18.807,18.807,0,0,1-4.311-2.831,18.832,18.832,0,0,1-3.231-3.973,18.242,18.242,0,0,1-1.864-4.73c-.1-.411-.144-.833-.219-1.25l-.1-.626c-.02-.21-.024-.421-.038-.632l-.063-1.263.069-1.26a16.591,16.591,0,0,1,3.609-9.168,16.845,16.845,0,0,1,8-5.482,16.694,16.694,0,0,1,9.526-.173,16.742,16.742,0,0,1,2.247.8,11.582,11.582,0,0,0,2.165.85,8.087,8.087,0,0,0,2.284.25h2.331l-.146.146c0-11.587.007-22.739.01-33.386q0-2,0-3.968,0-.986,0-1.966a7.83,7.83,0,0,1,.174-1.971,6.266,6.266,0,0,1,2.023-3.319,6.632,6.632,0,0,1,1.657-1.027,6.652,6.652,0,0,1,1.881-.459c5.081-.052,9.991-.01,14.776-.02l49.827.034,32.446.041,8.619.023,2.218.011c.5,0,.751.012.751.012s-.253.008-.751.012l-2.218.012-8.619.023-32.446.041-49.827.034c-4.775.014-9.717-.022-14.753.033a6.389,6.389,0,0,0-1.8.441,6.384,6.384,0,0,0-1.587.986,6,6,0,0,0-1.935,3.181,7.558,7.558,0,0,0-.165,1.91q0,.98,0,1.966,0,1.971,0,3.968c0,10.646.007,21.8.01,33.386v.146h-2.477a8.383,8.383,0,0,1-2.358-.259,11.848,11.848,0,0,1-2.211-.864,16.434,16.434,0,0,0-2.206-.788,16.4,16.4,0,0,0-9.356.174,16.54,16.54,0,0,0-7.852,5.386,16.28,16.28,0,0,0-3.539,9l-.068,1.237.063,1.24c.012.207.018.414.037.62l.1.614c.073.408.117.823.214,1.227a17.946,17.946,0,0,0,1.83,4.641,18.534,18.534,0,0,0,3.172,3.9,18.511,18.511,0,0,0,4.232,2.778,18.123,18.123,0,0,0,4.912,1.352c.425.042.854.051,1.281.078a9.812,9.812,0,0,0,1.285.016,16.059,16.059,0,0,0,2.556-.31,16.2,16.2,0,0,0,2.483-.711c.408-.15.792-.323,1.207-.495a8.867,8.867,0,0,1,1.27-.4,8.041,8.041,0,0,1,1.322-.2c.45-.028.886-.012,1.324-.017h2.792v.158q0,10.977,0,22.246v13.357q0,1.658,0,3.311a5.979,5.979,0,0,0,.874,3.054,6.018,6.018,0,0,0,2.3,2.177,6.205,6.205,0,0,0,3.086.7l25.773,0,48.726.009,22.691.007,10.865-.008a4.859,4.859,0,0,0,4.123-2.692,4.941,4.941,0,0,0,.417-1.2,6.474,6.474,0,0,0,.1-1.276q0-1.305,0-2.6c.007-13.81.014-26.674.02-38.419.021-23.488.038-42.5.051-55.636.005-3.284.01-6.2.015-8.73q0-1.9.007-3.5a5.154,5.154,0,0,0-.643-2.769,4.964,4.964,0,0,0-3-2.352,3.572,3.572,0,0,0-.568-.124,2.654,2.654,0,0,0-.415-.049C-162.68,1729.753-162.794,1729.741-162.794,1729.741Z" transform="translate(307.263 -1729.613)" fill="#1c262b"/>
      </g>
    </g>
    <g id="Grupo_140160" data-name="Grupo 140160" transform="translate(-265.655 1744.015)">
      <g id="Grupo_140159" data-name="Grupo 140159">
        <path id="Trazado_196497" data-name="Trazado 196497" d="M-150.055,1812.045c-.265-7.358-.534-14.751-1.95-21.978s-3.19-14.269-7.742-20.077l-42.583,2.263c-1.643,6.523-3.3,13.206-2.617,19.9.662,6.492,3.514,12.767,3.054,19.277-.325,4.6-2.281,8.9-3.725,13.282s-2.369,9.248-.654,13.531a5.716,5.716,0,0,0,2.039,2.766,7.57,7.57,0,0,0,4.157.81q25.535.036,51.051-1.164Q-149.54,1826.347-150.055,1812.045Z" transform="translate(226.561 -1759.79)" fill="#1c262b"/>
        <g id="Grupo_140092" data-name="Grupo 140092" transform="translate(21.188)">
          <path id="Trazado_196498" data-name="Trazado 196498" d="M-133.644,1799.992a32.069,32.069,0,0,1-10.328,24.283l-4.616-13.292" transform="translate(182.473 -1771.511)" fill="#1c262b"/>
          <g id="Grupo_139937" data-name="Grupo 139937" transform="translate(6.589)">
            <path id="Trazado_196499" data-name="Trazado 196499" d="M-185.945,1755.29a19.719,19.719,0,0,1,13.177-1.581,41.7,41.7,0,0,1,12.462,5.121,20.343,20.343,0,0,1,5.956,4.619c2.877,3.6,5.721,9.508,6,14.1.224,3.709-1.205,13-2.783,16.366-1.448,3.092-8.223,5.446-11.567,6.209l-30.685-35.472A15.457,15.457,0,0,1-185.945,1755.29Z" transform="translate(193.386 -1753.25)" fill="#1c262b"/>
          </g>
          <g id="Grupo_139938" data-name="Grupo 139938" transform="translate(0 5.518)">
            <path id="Trazado_196500" data-name="Trazado 196500" d="M-195.46,1763.614l7.356-1.308c-4.021,9.519-5.111,31.286-7.412,41.354-2.711-3.911-9.008-15.822-8.671-20.56S-204.2,1762.806-195.46,1763.614Z" transform="translate(204.2 -1762.306)" fill="#1c262b"/>
          </g>
          <path id="Trazado_196501" data-name="Trazado 196501" d="M-158.009,1780.265a12.511,12.511,0,0,0-9.378-11.451L-184.4,1764.5c-7.321-.786-12.209,8.166-12.689,15.47-.533,8.115-.86,16.677.093,22.734,1.918,12.181,11.3,13.751,11.3,13.751,0-.018,0,2.812.009,6.369l.191.448a13.127,13.127,0,0,0,23.748.776h0l3.781-43.6C-157.96,1780.229-157.989,1780.6-158.009,1780.265Z" transform="translate(201.623 -1757.626)" fill="#f8ae8b"/>
          <g id="Grupo_139953" data-name="Grupo 139953" transform="translate(6.881 30.067)">
            <g id="Grupo_139952" data-name="Grupo 139952">
              <g id="Grupo_139951" data-name="Grupo 139951">
                <g id="Grupo_139950" data-name="Grupo 139950">
                  <g id="Grupo_139949" data-name="Grupo 139949">
                    <g id="Grupo_139948" data-name="Grupo 139948">
                      <g id="Grupo_139947" data-name="Grupo 139947">
                        <g id="Grupo_139946" data-name="Grupo 139946">
                          <g id="Grupo_139945" data-name="Grupo 139945">
                            <g id="Grupo_139944" data-name="Grupo 139944">
                              <g id="Grupo_139943" data-name="Grupo 139943">
                                <g id="Grupo_139942" data-name="Grupo 139942">
                                  <g id="Grupo_139941" data-name="Grupo 139941">
                                    <g id="Grupo_139940" data-name="Grupo 139940">
                                      <g id="Grupo_139939" data-name="Grupo 139939">
                                        <path id="Trazado_196502" data-name="Trazado 196502" d="M-192.906,1804a1.566,1.566,0,0,0,1.512,1.579,1.5,1.5,0,0,0,1.622-1.4,1.565,1.565,0,0,0-1.509-1.579A1.5,1.5,0,0,0-192.906,1804Z" transform="translate(192.907 -1802.597)" fill="#1c262b"/>
                                      </g>
                                    </g>
                                  </g>
                                </g>
                              </g>
                            </g>
                          </g>
                        </g>
                      </g>
                    </g>
                  </g>
                </g>
              </g>
            </g>
          </g>
          <g id="Grupo_139969" data-name="Grupo 139969" transform="translate(6.348 25.48)">
            <g id="Grupo_139968" data-name="Grupo 139968">
              <g id="Grupo_139967" data-name="Grupo 139967">
                <g id="Grupo_139966" data-name="Grupo 139966">
                  <g id="Grupo_139965" data-name="Grupo 139965">
                    <g id="Grupo_139964" data-name="Grupo 139964">
                      <g id="Grupo_139963" data-name="Grupo 139963">
                        <g id="Grupo_139962" data-name="Grupo 139962">
                          <g id="Grupo_139961" data-name="Grupo 139961">
                            <g id="Grupo_139960" data-name="Grupo 139960">
                              <g id="Grupo_139959" data-name="Grupo 139959">
                                <g id="Grupo_139958" data-name="Grupo 139958">
                                  <g id="Grupo_139957" data-name="Grupo 139957">
                                    <g id="Grupo_139956" data-name="Grupo 139956">
                                      <g id="Grupo_139955" data-name="Grupo 139955">
                                        <g id="Grupo_139954" data-name="Grupo 139954">
                                          <path id="Trazado_196503" data-name="Trazado 196503" d="M-193.757,1796.7c.194.2,1.387-.669,3.077-.661,1.689-.016,2.928.851,3.112.646.09-.091-.108-.459-.647-.851a4.324,4.324,0,0,0-2.49-.769,4.152,4.152,0,0,0-2.45.78C-193.675,1796.242-193.853,1796.61-193.757,1796.7Z" transform="translate(193.782 -1795.067)" fill="#1c262b"/>
                                        </g>
                                      </g>
                                    </g>
                                  </g>
                                </g>
                              </g>
                            </g>
                          </g>
                        </g>
                      </g>
                    </g>
                  </g>
                </g>
              </g>
            </g>
          </g>
          <g id="Grupo_139984" data-name="Grupo 139984" transform="translate(22.271 29.855)">
            <g id="Grupo_139983" data-name="Grupo 139983">
              <g id="Grupo_139982" data-name="Grupo 139982">
                <g id="Grupo_139981" data-name="Grupo 139981">
                  <g id="Grupo_139980" data-name="Grupo 139980">
                    <g id="Grupo_139979" data-name="Grupo 139979">
                      <g id="Grupo_139978" data-name="Grupo 139978">
                        <g id="Grupo_139977" data-name="Grupo 139977">
                          <g id="Grupo_139976" data-name="Grupo 139976">
                            <g id="Grupo_139975" data-name="Grupo 139975">
                              <g id="Grupo_139974" data-name="Grupo 139974">
                                <g id="Grupo_139973" data-name="Grupo 139973">
                                  <g id="Grupo_139972" data-name="Grupo 139972">
                                    <g id="Grupo_139971" data-name="Grupo 139971">
                                      <g id="Grupo_139970" data-name="Grupo 139970">
                                        <path id="Trazado_196504" data-name="Trazado 196504" d="M-167.648,1803.655a1.566,1.566,0,0,0,1.512,1.579,1.5,1.5,0,0,0,1.623-1.4,1.566,1.566,0,0,0-1.51-1.579A1.5,1.5,0,0,0-167.648,1803.655Z" transform="translate(167.649 -1802.247)" fill="#1c262b"/>
                                      </g>
                                    </g>
                                  </g>
                                </g>
                              </g>
                            </g>
                          </g>
                        </g>
                      </g>
                    </g>
                  </g>
                </g>
              </g>
            </g>
          </g>
          <g id="Grupo_140000" data-name="Grupo 140000" transform="translate(22.404 25.479)">
            <g id="Grupo_139999" data-name="Grupo 139999">
              <g id="Grupo_139998" data-name="Grupo 139998">
                <g id="Grupo_139997" data-name="Grupo 139997">
                  <g id="Grupo_139996" data-name="Grupo 139996">
                    <g id="Grupo_139995" data-name="Grupo 139995">
                      <g id="Grupo_139994" data-name="Grupo 139994">
                        <g id="Grupo_139993" data-name="Grupo 139993">
                          <g id="Grupo_139992" data-name="Grupo 139992">
                            <g id="Grupo_139991" data-name="Grupo 139991">
                              <g id="Grupo_139990" data-name="Grupo 139990">
                                <g id="Grupo_139989" data-name="Grupo 139989">
                                  <g id="Grupo_139988" data-name="Grupo 139988">
                                    <g id="Grupo_139987" data-name="Grupo 139987">
                                      <g id="Grupo_139986" data-name="Grupo 139986">
                                        <g id="Grupo_139985" data-name="Grupo 139985">
                                          <path id="Trazado_196505" data-name="Trazado 196505" d="M-167.407,1796.7c.195.2,1.388-.669,3.078-.661,1.688-.016,2.928.851,3.111.646.09-.091-.105-.458-.647-.851a4.326,4.326,0,0,0-2.49-.77,4.163,4.163,0,0,0-2.45.781C-167.324,1796.241-167.5,1796.609-167.407,1796.7Z" transform="translate(167.431 -1795.066)" fill="#1c262b"/>
                                        </g>
                                      </g>
                                    </g>
                                  </g>
                                </g>
                              </g>
                            </g>
                          </g>
                        </g>
                      </g>
                    </g>
                  </g>
                </g>
              </g>
            </g>
          </g>
          <g id="Grupo_140016" data-name="Grupo 140016" transform="translate(12.838 26.312)">
            <g id="Grupo_140015" data-name="Grupo 140015">
              <g id="Grupo_140014" data-name="Grupo 140014">
                <g id="Grupo_140013" data-name="Grupo 140013">
                  <g id="Grupo_140012" data-name="Grupo 140012">
                    <g id="Grupo_140011" data-name="Grupo 140011">
                      <g id="Grupo_140010" data-name="Grupo 140010">
                        <g id="Grupo_140009" data-name="Grupo 140009">
                          <g id="Grupo_140008" data-name="Grupo 140008">
                            <g id="Grupo_140007" data-name="Grupo 140007">
                              <g id="Grupo_140006" data-name="Grupo 140006">
                                <g id="Grupo_140005" data-name="Grupo 140005">
                                  <g id="Grupo_140004" data-name="Grupo 140004">
                                    <g id="Grupo_140003" data-name="Grupo 140003">
                                      <g id="Grupo_140002" data-name="Grupo 140002">
                                        <g id="Grupo_140001" data-name="Grupo 140001">
                                          <path id="Trazado_196506" data-name="Trazado 196506" d="M-178.825,1810.432a11.322,11.322,0,0,0-2.745-.5c-.431-.045-.84-.131-.912-.424a2.168,2.168,0,0,1,.291-1.271l1.284-3.265c1.783-4.648,3.075-8.471,2.886-8.54s-1.788,3.641-3.571,8.289q-.643,1.719-1.23,3.284a2.471,2.471,0,0,0-.228,1.683,1.083,1.083,0,0,0,.709.63,2.942,2.942,0,0,0,.733.1A11.018,11.018,0,0,0-178.825,1810.432Z" transform="translate(183.13 -1796.433)" fill="#1c262b"/>
                                        </g>
                                      </g>
                                    </g>
                                  </g>
                                </g>
                              </g>
                            </g>
                          </g>
                        </g>
                      </g>
                    </g>
                  </g>
                </g>
              </g>
            </g>
          </g>
          <g id="Grupo_140020" data-name="Grupo 140020" transform="translate(15.931 54.496)">
            <g id="Grupo_140019" data-name="Grupo 140019">
              <g id="Grupo_140018" data-name="Grupo 140018">
                <g id="Grupo_140017" data-name="Grupo 140017">
                  <path id="Trazado_196507" data-name="Trazado 196507" d="M-161.807,1842.689s-3.986,8.364-16.244,7.2l0-2.864A31.008,31.008,0,0,0-161.807,1842.689Z" transform="translate(178.055 -1842.689)" fill="#f08259"/>
                </g>
              </g>
            </g>
          </g>
          <g id="Grupo_140032" data-name="Grupo 140032" transform="translate(22.95 19.789)">
            <g id="Grupo_140031" data-name="Grupo 140031">
              <g id="Grupo_140030" data-name="Grupo 140030">
                <g id="Grupo_140029" data-name="Grupo 140029">
                  <g id="Grupo_140028" data-name="Grupo 140028">
                    <g id="Grupo_140027" data-name="Grupo 140027">
                      <g id="Grupo_140026" data-name="Grupo 140026">
                        <g id="Grupo_140025" data-name="Grupo 140025">
                          <g id="Grupo_140024" data-name="Grupo 140024">
                            <g id="Grupo_140023" data-name="Grupo 140023">
                              <g id="Grupo_140022" data-name="Grupo 140022">
                                <g id="Grupo_140021" data-name="Grupo 140021">
                                  <path id="Trazado_196508" data-name="Trazado 196508" d="M-166.526,1786.981c.165.457,1.854.244,3.836.486,1.988.2,3.586.783,3.85.374.118-.2-.16-.626-.806-1.07a6.463,6.463,0,0,0-2.852-1,6.471,6.471,0,0,0-3,.344C-166.23,1786.406-166.6,1786.763-166.526,1786.981Z" transform="translate(166.534 -1785.728)" fill="#1c262b"/>
                                </g>
                              </g>
                            </g>
                          </g>
                        </g>
                      </g>
                    </g>
                  </g>
                </g>
              </g>
            </g>
          </g>
          <g id="Grupo_140044" data-name="Grupo 140044" transform="translate(6.881 20.24)">
            <g id="Grupo_140043" data-name="Grupo 140043">
              <g id="Grupo_140042" data-name="Grupo 140042">
                <g id="Grupo_140041" data-name="Grupo 140041">
                  <g id="Grupo_140040" data-name="Grupo 140040">
                    <g id="Grupo_140039" data-name="Grupo 140039">
                      <g id="Grupo_140038" data-name="Grupo 140038">
                        <g id="Grupo_140037" data-name="Grupo 140037">
                          <g id="Grupo_140036" data-name="Grupo 140036">
                            <g id="Grupo_140035" data-name="Grupo 140035">
                              <g id="Grupo_140034" data-name="Grupo 140034">
                                <g id="Grupo_140033" data-name="Grupo 140033">
                                  <path id="Trazado_196509" data-name="Trazado 196509" d="M-192.864,1788.2c.3.382,1.462-.011,2.863-.027,1.4-.064,2.586.262,2.859-.136.12-.195-.066-.577-.583-.939a3.979,3.979,0,0,0-2.326-.631,3.974,3.974,0,0,0-2.284.762C-192.831,1787.622-192.994,1788.015-192.864,1788.2Z" transform="translate(192.907 -1786.467)" fill="#1c262b"/>
                                </g>
                              </g>
                            </g>
                          </g>
                        </g>
                      </g>
                    </g>
                  </g>
                </g>
              </g>
            </g>
          </g>
          <g id="Grupo_140048" data-name="Grupo 140048" transform="translate(7.641 2.109)">
            <g id="Grupo_140047" data-name="Grupo 140047">
              <g id="Grupo_140046" data-name="Grupo 140046">
                <g id="Grupo_140045" data-name="Grupo 140045">
                  <path id="Trazado_196510" data-name="Trazado 196510" d="M-191.439,1765.825a5.392,5.392,0,0,1,4.759-3.033,10.511,10.511,0,0,1,5.651,1.638c7.3,4.192,11.045,14.316,18.254,18.653,1.773,1.066,4.081.09,5.589,1.5s2.486,3.671,1.652,5.556a17.035,17.035,0,0,0,2.5-4.205,5.72,5.72,0,0,0-.2-4.746c-.623-1.074-1.725-1.894-2.028-3.1-.266-1.059.154-2.166.108-3.256a7.071,7.071,0,0,0-1.122-3.106,31.688,31.688,0,0,0-11.71-12.245,20.829,20.829,0,0,0-10.751-2.764,15.911,15.911,0,0,0-10.229,4.035c-1.612,1.494-3.307,3.04-2.471,5.068" transform="translate(191.66 -1756.711)" fill="#1c262b"/>
                </g>
              </g>
            </g>
          </g>
          <g id="Grupo_140066" data-name="Grupo 140066" transform="translate(41.938 30.837)">
            <g id="Grupo_140065" data-name="Grupo 140065">
              <g id="Grupo_140064" data-name="Grupo 140064">
                <g id="Grupo_140063" data-name="Grupo 140063">
                  <g id="Grupo_140062" data-name="Grupo 140062">
                    <g id="Grupo_140061" data-name="Grupo 140061">
                      <g id="Grupo_140060" data-name="Grupo 140060">
                        <g id="Grupo_140059" data-name="Grupo 140059">
                          <g id="Grupo_140058" data-name="Grupo 140058">
                            <g id="Grupo_140057" data-name="Grupo 140057">
                              <g id="Grupo_140056" data-name="Grupo 140056">
                                <g id="Grupo_140055" data-name="Grupo 140055">
                                  <g id="Grupo_140054" data-name="Grupo 140054">
                                    <g id="Grupo_140053" data-name="Grupo 140053">
                                      <g id="Grupo_140052" data-name="Grupo 140052">
                                        <g id="Grupo_140051" data-name="Grupo 140051">
                                          <g id="Grupo_140050" data-name="Grupo 140050">
                                            <g id="Grupo_140049" data-name="Grupo 140049">
                                              <path id="Trazado_196511" data-name="Trazado 196511" d="M-135.372,1804.515c.129-.35,6.519-2.642,6.6,4.109.082,6.559-6.576,5.267-6.589,5.08S-135.372,1804.515-135.372,1804.515Z" transform="translate(135.372 -1803.859)" fill="#f8ae8b"/>
                                            </g>
                                          </g>
                                        </g>
                                      </g>
                                    </g>
                                  </g>
                                </g>
                              </g>
                            </g>
                          </g>
                        </g>
                      </g>
                    </g>
                  </g>
                </g>
              </g>
            </g>
          </g>
          <g id="Grupo_140085" data-name="Grupo 140085" transform="translate(43.958 32.977)">
            <g id="Grupo_140084" data-name="Grupo 140084">
              <g id="Grupo_140083" data-name="Grupo 140083">
                <g id="Grupo_140082" data-name="Grupo 140082">
                  <g id="Grupo_140081" data-name="Grupo 140081">
                    <g id="Grupo_140080" data-name="Grupo 140080">
                      <g id="Grupo_140079" data-name="Grupo 140079">
                        <g id="Grupo_140078" data-name="Grupo 140078">
                          <g id="Grupo_140077" data-name="Grupo 140077">
                            <g id="Grupo_140076" data-name="Grupo 140076">
                              <g id="Grupo_140075" data-name="Grupo 140075">
                                <g id="Grupo_140074" data-name="Grupo 140074">
                                  <g id="Grupo_140073" data-name="Grupo 140073">
                                    <g id="Grupo_140072" data-name="Grupo 140072">
                                      <g id="Grupo_140071" data-name="Grupo 140071">
                                        <g id="Grupo_140070" data-name="Grupo 140070">
                                          <g id="Grupo_140069" data-name="Grupo 140069">
                                            <g id="Grupo_140068" data-name="Grupo 140068">
                                              <g id="Grupo_140067" data-name="Grupo 140067">
                                                <path id="Trazado_196512" data-name="Trazado 196512" d="M-132.05,1812.572c.029-.021.116.079.311.165a1.153,1.153,0,0,0,.859.01,2.826,2.826,0,0,0,1.292-2.549,3.748,3.748,0,0,0-.338-1.632,1.325,1.325,0,0,0-.873-.869.586.586,0,0,0-.676.32c-.087.184-.043.314-.079.326-.018.017-.143-.108-.091-.38a.724.724,0,0,1,.255-.414.869.869,0,0,1,.634-.172,1.611,1.611,0,0,1,1.21,1.005,3.855,3.855,0,0,1,.416,1.824,2.963,2.963,0,0,1-1.65,2.848,1.237,1.237,0,0,1-1.053-.163C-132.036,1812.731-132.072,1812.584-132.05,1812.572Z" transform="translate(132.056 -1807.372)" fill="#f08259"/>
                                              </g>
                                            </g>
                                          </g>
                                        </g>
                                      </g>
                                    </g>
                                  </g>
                                </g>
                              </g>
                            </g>
                          </g>
                        </g>
                      </g>
                    </g>
                  </g>
                </g>
              </g>
            </g>
          </g>
          <g id="Grupo_140090" data-name="Grupo 140090" transform="translate(9.059 6.018)">
            <g id="Grupo_140089" data-name="Grupo 140089">
              <g id="Grupo_140088" data-name="Grupo 140088">
                <g id="Grupo_140087" data-name="Grupo 140087">
                  <g id="Grupo_140086" data-name="Grupo 140086">
                    <path id="Trazado_196513" data-name="Trazado 196513" d="M-153.829,1785.23a2.682,2.682,0,0,1-.4-.221c-.252-.16-.642-.372-1.106-.7a22.606,22.606,0,0,1-3.562-3.223,63.15,63.15,0,0,1-4.357-5.625,51.712,51.712,0,0,0-5.445-6.74,20.709,20.709,0,0,0-3.513-2.76,17.166,17.166,0,0,0-3.8-1.712,18.876,18.876,0,0,0-6.99-.853,18.086,18.086,0,0,0-4.682.912c-.542.163-.943.345-1.222.45a2.651,2.651,0,0,1-.431.152,2.484,2.484,0,0,1,.406-.207,11.344,11.344,0,0,1,1.208-.505,17.183,17.183,0,0,1,4.706-1.013,18.759,18.759,0,0,1,7.089.8,17.239,17.239,0,0,1,3.864,1.724,20.71,20.71,0,0,1,3.572,2.8,50.212,50.212,0,0,1,5.461,6.793,67.651,67.651,0,0,0,4.289,5.645,24.384,24.384,0,0,0,3.472,3.269c.451.339.828.567,1.069.742A2.521,2.521,0,0,1-153.829,1785.23Z" transform="translate(189.332 -1763.126)" fill="#354952"/>
                  </g>
                </g>
              </g>
            </g>
          </g>
          <path id="Trazado_196514" data-name="Trazado 196514" d="M-139.3,1796.476a10.046,10.046,0,0,1-.646,5.275c-.833,1.592-2.933,2.675-4.5,1.785-1.278-.726-1.661-2.354-1.877-3.8-.626-4.177-.912-8.4-1.574-12.573Z" transform="translate(182.203 -1766.499)" fill="#1c262b"/>
          <g id="Grupo_140091" data-name="Grupo 140091" transform="translate(9.486 7.796)">
            <path id="Trazado_196515" data-name="Trazado 196515" d="M-188.631,1766.351c.007.038.582-.109,1.64-.143a11.355,11.355,0,0,1,4.367.793,14.442,14.442,0,0,1,2.735,1.4,29.647,29.647,0,0,1,2.822,2.142,33.775,33.775,0,0,1,5.525,5.921c.838,1.17,1.581,2.373,2.385,3.487a16.717,16.717,0,0,0,2.646,2.956,29.417,29.417,0,0,0,5.576,3.708c1.688.887,3.1,1.509,4.073,1.938l1.128.478a1.878,1.878,0,0,0,.4.143,1.835,1.835,0,0,0-.373-.211l-1.1-.541c-.954-.469-2.346-1.125-4.009-2.037a30.392,30.392,0,0,1-5.475-3.733,16.656,16.656,0,0,1-2.576-2.912c-.79-1.1-1.531-2.307-2.378-3.49a33.164,33.164,0,0,0-5.606-5.966,28.915,28.915,0,0,0-2.877-2.14,14.309,14.309,0,0,0-2.811-1.387,10.961,10.961,0,0,0-4.465-.693,7.773,7.773,0,0,0-1.22.169A1.83,1.83,0,0,0-188.631,1766.351Z" transform="translate(188.631 -1766.045)" fill="#354952"/>
          </g>
        </g>
        <g id="Grupo_140096" data-name="Grupo 140096" transform="translate(0 60.574)">
          <path id="Trazado_196516" data-name="Trazado 196516" d="M-102.169,1891.446l19.584,20.86c3.232,3.443,5.576,6.587,10.157,7.788,3.208.841,8.244.4,9.906-1.712,2.279-2.9,3.365-8.849.869-12.682s-20.03-20.893-20.03-20.893l-20.486,6.64" transform="translate(185.526 -1865.222)" fill="#f8ae8b"/>
          <g id="Grupo_140093" data-name="Grupo 140093">
            <path id="Trazado_196517" data-name="Trazado 196517" d="M-78.9,1877.246s-20.351-24.139-28.088-24.139c0,0-4.892,8.561-5.054,13.227s15.656,26.521,15.656,26.521Z" transform="translate(189.384 -1852.837)" fill="#00defc"/>
            <path id="Trazado_196518" data-name="Trazado 196518" d="M-140.663,1884.925l-6.465-32.045-20.926-.216c-7.709,8.717-15.584,14.962-24.558,4.934l-22.035,8.665,5.727,31.119,66.462-.042C-139.868,1888.811-140.663,1884.925-140.663,1884.925Z" transform="translate(229.471 -1852.664)" fill="#00defc"/>
            <path id="Trazado_196519" data-name="Trazado 196519" d="M-238.975,1906.06c0-1.288,7.374-28.02,14.822-31.077l5.752,8.825,1.621,22.277Z" transform="translate(238.975 -1861.384)" fill="#00defc"/>
          </g>
          <g id="Grupo_140094" data-name="Grupo 140094" transform="translate(80.325 23.802)">
            <path id="Trazado_196520" data-name="Trazado 196520" d="M-94.472,1907.945a3.936,3.936,0,0,1-.544-.6c-.335-.4-.8-.99-1.377-1.726-1.145-1.471-2.678-3.539-4.378-5.814s-3.281-4.3-4.464-5.74c-.59-.719-1.073-1.3-1.411-1.693a3.913,3.913,0,0,1-.5-.641,4.028,4.028,0,0,1,.59.558c.367.371.877.928,1.49,1.631,1.231,1.4,2.842,3.416,4.547,5.695s3.206,4.366,4.3,5.87l1.3,1.785A3.968,3.968,0,0,1-94.472,1907.945Z" transform="translate(107.146 -1891.729)" fill="#1c262b"/>
          </g>
          <g id="Grupo_140095" data-name="Grupo 140095" transform="translate(16.37 24.699)">
            <path id="Trazado_196521" data-name="Trazado 196521" d="M-210.606,1913.5a3.918,3.918,0,0,1-.239-.77c-.137-.5-.3-1.232-.481-2.143a44.536,44.536,0,0,1-.77-7.2,44.531,44.531,0,0,1,.412-7.234c.132-.918.261-1.658.373-2.164a3.956,3.956,0,0,1,.2-.781,3.925,3.925,0,0,1-.079.8c-.074.511-.171,1.253-.273,2.171a54.16,54.16,0,0,0-.317,7.2,54.016,54.016,0,0,0,.674,7.172c.147.912.28,1.648.38,2.155A3.93,3.93,0,0,1-210.606,1913.5Z" transform="translate(212.108 -1893.201)" fill="#1c262b"/>
          </g>
        </g>
        <g id="Grupo_140097" data-name="Grupo 140097" transform="translate(17.245 10.668)">
          <path id="Trazado_196522" data-name="Trazado 196522" d="M-210.672,1826.7c.009.08.23.146.654.134a4.831,4.831,0,0,0,1.8-.46,7.569,7.569,0,0,0,2.37-1.762,9.577,9.577,0,0,0,1.977-3.376,16.636,16.636,0,0,0,.832-4.558c.092-1.64.061-3.338,0-5.139-.141-3.594-.567-7.507-1.042-11.572s-.914-7.912-1.09-11.407a65.786,65.786,0,0,1,.112-9.265c.462-5.256,1.569-8.4,1.2-8.539-.08-.031-.23.135-.441.482-.105.174-.227.394-.363.656s-.263.577-.414.93a29.662,29.662,0,0,0-1.735,6.242,50.988,50.988,0,0,0-.661,9.57c.053,3.607.433,7.538.908,11.613s.964,7.922,1.227,11.42c.126,1.746.232,3.422.233,4.94a16.467,16.467,0,0,1-.45,4.109,8.4,8.4,0,0,1-3.14,4.813C-209.856,1826.352-210.7,1826.505-210.672,1826.7Z" transform="translate(210.672 -1770.758)" fill="#1c262b"/>
        </g>
        <g id="Grupo_140131" data-name="Grupo 140131" transform="translate(38.259 40.494)">
          <g id="Grupo_140113" data-name="Grupo 140113" transform="translate(0.905 1.804)">
            <g id="Grupo_140112" data-name="Grupo 140112">
              <g id="Grupo_140111" data-name="Grupo 140111">
                <g id="Grupo_140110" data-name="Grupo 140110">
                  <g id="Grupo_140109" data-name="Grupo 140109">
                    <g id="Grupo_140108" data-name="Grupo 140108">
                      <g id="Grupo_140107" data-name="Grupo 140107">
                        <g id="Grupo_140106" data-name="Grupo 140106">
                          <g id="Grupo_140105" data-name="Grupo 140105">
                            <g id="Grupo_140104" data-name="Grupo 140104">
                              <g id="Grupo_140103" data-name="Grupo 140103">
                                <g id="Grupo_140102" data-name="Grupo 140102">
                                  <g id="Grupo_140101" data-name="Grupo 140101">
                                    <g id="Grupo_140100" data-name="Grupo 140100">
                                      <g id="Grupo_140099" data-name="Grupo 140099">
                                        <g id="Grupo_140098" data-name="Grupo 140098">
                                          <path id="Trazado_196523" data-name="Trazado 196523" d="M-174.543,1823.9a3.039,3.039,0,0,1,2.671-1.223,2.773,2.773,0,0,1,1.949.944,1.735,1.735,0,0,1,.211,1.986,2.041,2.041,0,0,1-2.181.639,6.386,6.386,0,0,1-2.2-1.191,1.842,1.842,0,0,1-.5-.476.555.555,0,0,1-.022-.622" transform="translate(174.699 -1822.669)" fill="#f08259"/>
                                        </g>
                                      </g>
                                    </g>
                                  </g>
                                </g>
                              </g>
                            </g>
                          </g>
                        </g>
                      </g>
                    </g>
                  </g>
                </g>
              </g>
            </g>
          </g>
          <g id="Grupo_140130" data-name="Grupo 140130">
            <g id="Grupo_140129" data-name="Grupo 140129">
              <g id="Grupo_140128" data-name="Grupo 140128">
                <g id="Grupo_140127" data-name="Grupo 140127">
                  <g id="Grupo_140126" data-name="Grupo 140126">
                    <g id="Grupo_140125" data-name="Grupo 140125">
                      <g id="Grupo_140124" data-name="Grupo 140124">
                        <g id="Grupo_140123" data-name="Grupo 140123">
                          <g id="Grupo_140122" data-name="Grupo 140122">
                            <g id="Grupo_140121" data-name="Grupo 140121">
                              <g id="Grupo_140120" data-name="Grupo 140120">
                                <g id="Grupo_140119" data-name="Grupo 140119">
                                  <g id="Grupo_140118" data-name="Grupo 140118">
                                    <g id="Grupo_140117" data-name="Grupo 140117">
                                      <g id="Grupo_140116" data-name="Grupo 140116">
                                        <g id="Grupo_140115" data-name="Grupo 140115">
                                          <g id="Grupo_140114" data-name="Grupo 140114">
                                            <path id="Trazado_196524" data-name="Trazado 196524" d="M-171,1819.709c-.274-.005-.206,1.808-1.718,3.156s-3.46,1.223-3.465,1.476c-.021.115.447.336,1.268.326a4.558,4.558,0,0,0,2.9-1.13,3.926,3.926,0,0,0,1.324-2.641C-170.656,1820.135-170.877,1819.693-171,1819.709Z" transform="translate(176.184 -1819.708)" fill="#1c262b"/>
                                          </g>
                                        </g>
                                      </g>
                                    </g>
                                  </g>
                                </g>
                              </g>
                            </g>
                          </g>
                        </g>
                      </g>
                    </g>
                  </g>
                </g>
              </g>
            </g>
          </g>
        </g>
        <g id="Grupo_140144" data-name="Grupo 140144" transform="translate(21.083 22.548)">
          <path id="Trazado_196525" data-name="Trazado 196525" d="M-126.858,1807.372c2.307,8.38.349,19.58,2.631,26.309s3.943,14.2,1.362,20.817l-3.553-7.823a10.035,10.035,0,0,1-.767,9.687c-1.9,2.81-11.479,5.205-14.882,5.043-3.445-18.167-2.493-32.059,3.454-46.1l4.592,5.075,4.137-1.77Z" transform="translate(180.808 -1796.943)" fill="#1c262b"/>
          <g id="Grupo_140141" data-name="Grupo 140141">
            <g id="Grupo_140136" data-name="Grupo 140136">
              <g id="Grupo_140132" data-name="Grupo 140132" transform="translate(17.722 0.34)">
                <path id="Trazado_196526" data-name="Trazado 196526" d="M-175.282,1798.763a12.62,12.62,0,0,1,.294-1.905,7.473,7.473,0,0,1,.882-2.069,7.792,7.792,0,0,1,2-2.2,7.786,7.786,0,0,1,3.287-1.44,7.875,7.875,0,0,1,4.09.344,7.334,7.334,0,0,1,1.967,1.055,8.676,8.676,0,0,1,.882.746,8.694,8.694,0,0,1,.761.9,7.734,7.734,0,0,1,1.512,4.567,7.732,7.732,0,0,1-1.511,4.568,8.686,8.686,0,0,1-.761.9,8.764,8.764,0,0,1-.882.746,7.338,7.338,0,0,1-1.967,1.055,7.88,7.88,0,0,1-4.09.345,7.79,7.79,0,0,1-3.287-1.44,7.8,7.8,0,0,1-2-2.2,7.482,7.482,0,0,1-.882-2.068,12.629,12.629,0,0,1-.294-1.9.472.472,0,0,0-.007.127c0,.1,0,.222.007.374a3.674,3.674,0,0,0,.05.607,5.515,5.515,0,0,0,.15.82,7.384,7.384,0,0,0,.856,2.115,7.857,7.857,0,0,0,2.01,2.266,7.93,7.93,0,0,0,3.355,1.5,8.058,8.058,0,0,0,4.207-.332,7.531,7.531,0,0,0,2.031-1.08,9.046,9.046,0,0,0,.911-.767,9.025,9.025,0,0,0,.787-.923,7.954,7.954,0,0,0,1.563-4.713,7.955,7.955,0,0,0-1.564-4.712,8.942,8.942,0,0,0-.787-.922,8.927,8.927,0,0,0-.911-.766,7.53,7.53,0,0,0-2.031-1.079,8.057,8.057,0,0,0-4.207-.332,7.93,7.93,0,0,0-3.355,1.5,7.859,7.859,0,0,0-2.01,2.266,7.379,7.379,0,0,0-.857,2.115,5.516,5.516,0,0,0-.15.819,3.677,3.677,0,0,0-.05.608c0,.152,0,.276-.007.375A.477.477,0,0,0-175.282,1798.763Z" transform="translate(175.289 -1790.814)" fill="#354952"/>
              </g>
              <g id="Grupo_140133" data-name="Grupo 140133">
                <path id="Trazado_196527" data-name="Trazado 196527" d="M-204.368,1798.206a12.618,12.618,0,0,1,.294-1.905,7.491,7.491,0,0,1,.882-2.069,7.807,7.807,0,0,1,2-2.2,7.788,7.788,0,0,1,3.287-1.44,7.875,7.875,0,0,1,4.09.345,7.335,7.335,0,0,1,1.967,1.055,8.749,8.749,0,0,1,.882.746,8.77,8.77,0,0,1,.762.9,7.732,7.732,0,0,1,1.511,4.567,7.732,7.732,0,0,1-1.51,4.569,8.769,8.769,0,0,1-.762.9,8.822,8.822,0,0,1-.882.746,7.345,7.345,0,0,1-1.968,1.055,7.873,7.873,0,0,1-4.09.344,7.788,7.788,0,0,1-3.287-1.44,7.79,7.79,0,0,1-2-2.2,7.481,7.481,0,0,1-.882-2.068,12.627,12.627,0,0,1-.294-1.9.494.494,0,0,0-.006.127c0,.1,0,.222.007.374a3.547,3.547,0,0,0,.05.608,5.49,5.49,0,0,0,.149.819,7.4,7.4,0,0,0,.857,2.116,7.844,7.844,0,0,0,2.009,2.265,7.921,7.921,0,0,0,3.356,1.5,8.056,8.056,0,0,0,4.207-.331,7.548,7.548,0,0,0,2.031-1.08,8.919,8.919,0,0,0,.911-.767,8.971,8.971,0,0,0,.788-.922,7.959,7.959,0,0,0,1.563-4.713,7.959,7.959,0,0,0-1.564-4.712,9.034,9.034,0,0,0-.788-.922,8.91,8.91,0,0,0-.911-.766,7.549,7.549,0,0,0-2.031-1.08,8.058,8.058,0,0,0-4.207-.332,7.932,7.932,0,0,0-3.355,1.5,7.865,7.865,0,0,0-2.009,2.265,7.4,7.4,0,0,0-.857,2.116,5.5,5.5,0,0,0-.149.82,3.544,3.544,0,0,0-.05.607c0,.152,0,.276-.007.374A.5.5,0,0,0-204.368,1798.206Z" transform="translate(204.374 -1790.256)" fill="#354952"/>
              </g>
              <g id="Grupo_140134" data-name="Grupo 140134" transform="translate(15.644 6.159)">
                <path id="Trazado_196528" data-name="Trazado 196528" d="M-178.692,1801.179c.033.02.126-.1.31-.241a1.558,1.558,0,0,1,.809-.322,1.565,1.565,0,0,1,.851.192c.2.11.314.214.344.19s-.041-.171-.246-.336a1.4,1.4,0,0,0-.968-.294,1.4,1.4,0,0,0-.91.441C-178.678,1801-178.719,1801.165-178.692,1801.179Z" transform="translate(178.699 -1800.364)" fill="#354952"/>
              </g>
              <g id="Grupo_140135" data-name="Grupo 140135" transform="translate(33.264 6.276)">
                <path id="Trazado_196529" data-name="Trazado 196529" d="M-149.781,1800.563a48.793,48.793,0,0,0,4.786,1.131,48.553,48.553,0,0,0,4.838.888,48.64,48.64,0,0,0-4.787-1.131A48.7,48.7,0,0,0-149.781,1800.563Z" transform="translate(149.781 -1800.556)" fill="#354952"/>
              </g>
            </g>
            <g id="Grupo_140137" data-name="Grupo 140137" transform="translate(29.63 2.671)">
              <path id="Trazado_196530" data-name="Trazado 196530" d="M-155.744,1805.76a1.236,1.236,0,0,0,.473-.2,4.139,4.139,0,0,0,1.038-.935,6.8,6.8,0,0,0,1.046-1.785,7.15,7.15,0,0,0,.455-2.49,7.651,7.651,0,0,0-1.344-4.339,6.416,6.416,0,0,0-.907-1.056,1.983,1.983,0,0,0-.4-.314,13.7,13.7,0,0,1,1.163,1.467,7.91,7.91,0,0,1,1.241,4.241,7.238,7.238,0,0,1-.421,2.409,7.08,7.08,0,0,1-.969,1.758,4.709,4.709,0,0,1-.952.964C-155.586,1805.667-155.753,1805.74-155.744,1805.76Z" transform="translate(155.745 -1794.639)" fill="#fff"/>
            </g>
            <g id="Grupo_140138" data-name="Grupo 140138" transform="translate(26.157 14.146)">
              <path id="Trazado_196531" data-name="Trazado 196531" d="M-161.444,1814.349a2.907,2.907,0,0,0,1.42-.207,2.89,2.89,0,0,0,1.273-.659,7.611,7.611,0,0,0-1.35.423A7.54,7.54,0,0,0-161.444,1814.349Z" transform="translate(161.444 -1813.473)" fill="#fff"/>
            </g>
            <g id="Grupo_140139" data-name="Grupo 140139" transform="translate(7.707 1.057)">
              <path id="Trazado_196532" data-name="Trazado 196532" d="M-191.726,1792.027c0,.043.536.045,1.369.226a8.018,8.018,0,0,1,3,1.344,7.963,7.963,0,0,1,2.178,2.456c.42.739.58,1.248.621,1.234a1.017,1.017,0,0,0-.077-.369,5.967,5.967,0,0,0-.388-.948,7.324,7.324,0,0,0-2.185-2.573,7.4,7.4,0,0,0-3.118-1.317,6.059,6.059,0,0,0-1.026-.088A1.032,1.032,0,0,0-191.726,1792.027Z" transform="translate(191.726 -1791.991)" fill="#fff"/>
            </g>
            <g id="Grupo_140140" data-name="Grupo 140140" transform="translate(14.467 7.519)">
              <path id="Trazado_196533" data-name="Trazado 196533" d="M-180.619,1805.158a2.169,2.169,0,0,0,.52-1.229,2.163,2.163,0,0,0-.062-1.332,11.213,11.213,0,0,0-.185,1.289A11.14,11.14,0,0,0-180.619,1805.158Z" transform="translate(180.631 -1802.597)" fill="#fff"/>
            </g>
          </g>
          <g id="Grupo_140142" data-name="Grupo 140142" transform="translate(32.186 20.037)">
            <path id="Trazado_196534" data-name="Trazado 196534" d="M-151.495,1869.662c.137.085.645-.4,1.356-1.427a21.066,21.066,0,0,0,2.324-4.742,37.462,37.462,0,0,0,1.771-7.6,91.22,91.22,0,0,0,.68-9.415c.1-3.31.2-6.434.436-9.246a51.675,51.675,0,0,1,1.1-7.374c.947-4.134,2.224-6.508,1.881-6.707-.139-.083-.638.409-1.329,1.45a21.378,21.378,0,0,0-2.252,4.773,38.486,38.486,0,0,0-1.693,7.614c-.378,2.9-.542,6.095-.645,9.411s-.209,6.426-.47,9.234a49.755,49.755,0,0,1-1.175,7.355C-150.51,1867.107-151.836,1869.456-151.495,1869.662Z" transform="translate(151.55 -1823.141)" fill="#1c262b"/>
          </g>
          <g id="Grupo_140143" data-name="Grupo 140143" transform="translate(42.498 17.122)">
            <path id="Trazado_196535" data-name="Trazado 196535" d="M-130.137,1819.041c-.014.018.149.132.369.4a2.576,2.576,0,0,1,.539,1.331,2.318,2.318,0,0,1-.707,1.927,2.536,2.536,0,0,1-2.4.67,2.727,2.727,0,0,1-1.892-1.647,2.992,2.992,0,0,1,0-2.1,1.982,1.982,0,0,1,.887-1.1,1.677,1.677,0,0,1,.516-.136c0-.007-.047-.024-.143-.029a.935.935,0,0,0-.413.078,2,2,0,0,0-1.011,1.126,3.112,3.112,0,0,0-.051,2.241,2.931,2.931,0,0,0,2.048,1.808,2.7,2.7,0,0,0,1.462-.039,2.874,2.874,0,0,0,1.159-.71,2.611,2.611,0,0,0,.639-1.048,2.477,2.477,0,0,0,.08-1.062,2.523,2.523,0,0,0-.64-1.374A1.217,1.217,0,0,0-130.137,1819.041Z" transform="translate(134.626 -1818.357)" fill="#d8d8d8"/>
          </g>
        </g>
        <g id="Grupo_140158" data-name="Grupo 140158" transform="translate(85.954 27.655)">
          <g id="Grupo_140156" data-name="Grupo 140156">
            <g id="Grupo_140151" data-name="Grupo 140151">
              <g id="Grupo_140150" data-name="Grupo 140150">
                <g id="Grupo_140149" data-name="Grupo 140149">
                  <g id="Grupo_140148" data-name="Grupo 140148">
                    <g id="Grupo_140147" data-name="Grupo 140147">
                      <g id="Grupo_140146" data-name="Grupo 140146">
                        <g id="Grupo_140145" data-name="Grupo 140145">
                          <path id="Trazado_196536" data-name="Trazado 196536" d="M-74.037,1829.389l-.628-7.947-1.625-10.034-2.524-8.219s-.512-.779-1.511-.042.422,5.217.422,5.217l.539,3.426s-.336,2.725-.561,2.522-1.4-4.779-1.4-4.779l-3.017-9.774a1.346,1.346,0,0,0-1.769-.508c-.662.288-1,1.327-.756,2.8s1.166,3.9,1.325,4.73,1.243,5.627,1.243,5.627l-4.6-10.8s-1.023-3.566-2.488-2.88-.166,3.183.024,4.3,3.22,8.484,3.265,10.623-.409,1.116-.409,1.116-1.262-3.4-2.256-6.086-2.218-4.168-3.441-4.241,1.082,6.146,1.082,6.146l3,8.711-.2,2.9-2.28-2.344s-.423-3.346-2.681-4.517c-2.295-1.19-2.632.457-2.632.457l5.334,12.552c1.159,2.021,7.624,5.5,7.624,5.5l2.485,12.892,13.511-2.248Z" transform="translate(97.907 -1798.637)" fill="#f8ae8b"/>
                        </g>
                      </g>
                    </g>
                  </g>
                </g>
              </g>
            </g>
            <g id="Grupo_140155" data-name="Grupo 140155" transform="translate(5.306 21.21)">
              <g id="Grupo_140154" data-name="Grupo 140154">
                <g id="Grupo_140153" data-name="Grupo 140153">
                  <g id="Grupo_140152" data-name="Grupo 140152">
                    <path id="Trazado_196537" data-name="Trazado 196537" d="M-75.833,1838.81a14.487,14.487,0,0,1-1.946-1.3,7.4,7.4,0,0,0-5.11-1.485,3.958,3.958,0,0,0-2.322,1.133l-.2.217-.222-.234c-.979-1.032-2.005-1.913-2.629-2.562-.651-.642-.986-1.086-.927-1.131a7.487,7.487,0,0,1,1.157.88A37.062,37.062,0,0,1-85.2,1836.8l-.423-.018a4.372,4.372,0,0,1,2.643-1.344,6.085,6.085,0,0,1,3.2.413,9.63,9.63,0,0,1,2.24,1.317A6.9,6.9,0,0,1-75.833,1838.81Z" transform="translate(89.199 -1833.448)" fill="#f08259"/>
                  </g>
                </g>
              </g>
            </g>
          </g>
          <path id="Trazado_196538" data-name="Trazado 196538" d="M-68.688,1896.074l-7.224-40.173,10.938-4.74,14.76,44.279Z" transform="translate(89.314 -1819.158)" fill="#f8ae8b"/>
          <g id="Grupo_140157" data-name="Grupo 140157" transform="translate(12.95 35.204)">
            <path id="Trazado_196539" data-name="Trazado 196539" d="M-67.958,1898.5a10.528,10.528,0,0,1-.484-1.621c-.278-1.052-.658-2.58-1.1-4.473-.894-3.786-2.038-9.037-3.217-14.852s-2.178-11.1-2.872-14.922c-.323-1.849-.59-3.378-.793-4.536a10.448,10.448,0,0,1-.22-1.677,10.451,10.451,0,0,1,.42,1.638c.244,1.15.566,2.668.956,4.5l3.021,14.89c1.189,5.767,2.264,10.986,3.065,14.875l.939,4.507A10.415,10.415,0,0,1-67.958,1898.5Z" transform="translate(76.653 -1856.415)" fill="#f08259"/>
          </g>
        </g>
      </g>
    </g>
  </g>
</svg>
