<svg xmlns="http://www.w3.org/2000/svg" xmlns:xlink="http://www.w3.org/1999/xlink" width="400" height="452.777" viewBox="0 0 400 452.777">
  <defs>
    <linearGradient id="linear-gradient" y1="0.5" x2="1" y2="0.5" gradientUnits="objectBoundingBox">
      <stop offset="0" stop-color="#13658c"/>
      <stop offset="0.996" stop-color="#06224f"/>
    </linearGradient>
    <linearGradient id="linear-gradient-3" y1="0.5" x2="1" y2="0.5" gradientUnits="objectBoundingBox">
      <stop offset="0.004" stop-color="#40cfe3"/>
      <stop offset="1" stop-color="#54c4f6"/>
    </linearGradient>
    <linearGradient id="linear-gradient-4" x1="0.25" y1="-0.207" x2="0.716" y2="1.162" xlink:href="#linear-gradient"/>
    <linearGradient id="linear-gradient-5" x1="0.394" y1="-6.047" x2="0.816" y2="19.969" xlink:href="#linear-gradient-3"/>
    <linearGradient id="linear-gradient-6" x1="0.255" y1="-16.683" x2="0.687" y2="13.672" xlink:href="#linear-gradient-3"/>
    <linearGradient id="linear-gradient-7" x1="0.079" y1="-22.232" x2="0.392" y2="-5.321" xlink:href="#linear-gradient-3"/>
    <linearGradient id="linear-gradient-8" x1="0.141" y1="-22.92" x2="0.533" y2="2.635" xlink:href="#linear-gradient-3"/>
    <linearGradient id="linear-gradient-9" x1="0.181" y1="-17.686" x2="0.734" y2="13.893" xlink:href="#linear-gradient-3"/>
    <linearGradient id="linear-gradient-10" x1="-6.945" y1="-0.378" x2="-5.627" y2="2.004" gradientUnits="objectBoundingBox">
      <stop offset="0" stop-color="#ffcca5"/>
      <stop offset="0.996" stop-color="#f3d7c5"/>
    </linearGradient>
    <linearGradient id="linear-gradient-11" x1="-26.667" y1="-4.084" x2="-25.616" y2="-2.635" xlink:href="#linear-gradient"/>
    <linearGradient id="linear-gradient-12" x1="-88.065" y1="-0.449" x2="-88.065" y2="-1.801" xlink:href="#linear-gradient-10"/>
    <linearGradient id="linear-gradient-13" x1="-34.281" y1="-5.503" x2="-32.948" y2="-3.714" xlink:href="#linear-gradient"/>
    <linearGradient id="linear-gradient-14" x1="-18.118" y1="-0.515" x2="-17.023" y2="0.793" xlink:href="#linear-gradient"/>
    <linearGradient id="linear-gradient-15" x1="-97.318" y1="1.222" x2="-97.318" y2="-0.193" xlink:href="#linear-gradient-10"/>
    <linearGradient id="linear-gradient-16" x1="-0.635" y1="0.91" x2="-2.265" y2="0.048" gradientUnits="objectBoundingBox">
      <stop offset="0" stop-color="#ffc444"/>
      <stop offset="0.996" stop-color="#f3593b"/>
    </linearGradient>
    <linearGradient id="linear-gradient-17" x1="-23.011" y1="-1.298" x2="-21.651" y2="0.479" xlink:href="#linear-gradient"/>
    <linearGradient id="linear-gradient-18" x1="-7.858" y1="0.884" x2="-7.34" y2="-0.213" xlink:href="#linear-gradient-10"/>
    <linearGradient id="linear-gradient-19" x1="0.49" y1="0.185" x2="0.583" y2="2.5" gradientUnits="objectBoundingBox">
      <stop offset="0" stop-color="#ab5903"/>
      <stop offset="1" stop-color="#794948"/>
    </linearGradient>
    <linearGradient id="linear-gradient-20" x1="-51.833" y1="-2.784" x2="-35.83" y2="10.461" xlink:href="#linear-gradient-10"/>
    <linearGradient id="linear-gradient-21" x1="0.405" y1="-1.347" x2="0.689" y2="4.864" xlink:href="#linear-gradient-19"/>
    <linearGradient id="linear-gradient-22" x1="0.024" y1="1.522" x2="-1.642" y2="0.051" xlink:href="#linear-gradient-16"/>
  </defs>
  <g id="Grupo_174654" data-name="Grupo 174654" transform="translate(-430.848 -1116.646)">
    <g id="Grupo_174656" data-name="Grupo 174656" transform="translate(0 -23.863)">
      <g id="Grupo_86894" data-name="Grupo 86894" transform="translate(431.074 1140.509)">
        <path id="Trazado_140468" data-name="Trazado 140468" d="M615.943,1687.137l-8.57-.072a66.712,66.712,0,0,0-3.026-11.277l7.434-4.21a4.208,4.208,0,0,0,1.552-5.771L606,1653.042a4.289,4.289,0,0,0-5.807-1.627l-7.532,4.24a68.69,68.69,0,0,0-8.263-8.31l4.369-7.475a4.279,4.279,0,0,0-1.562-5.829l-12.787-7.544a4.259,4.259,0,0,0-5.854,1.465l-4.4,7.5a68.353,68.353,0,0,0-11.345-3.154v-8.782a4.376,4.376,0,0,0-4.308-4.341l-14.914-.252a4.22,4.22,0,0,0-4.329,4.209v8.808a67.651,67.651,0,0,0-11.444,2.825l-4.453-7.681a4.428,4.428,0,0,0-5.944-1.666l-13.046,7.218a4.225,4.225,0,0,0-1.6,5.852l4.47,7.685a67.275,67.275,0,0,0-8.464,8.194l-7.745-4.494a4.4,4.4,0,0,0-5.992,1.5l-7.588,12.81a4.3,4.3,0,0,0,1.609,5.911l7.69,4.436a65.926,65.926,0,0,0-3.126,11.406l-8.882-.074a4.318,4.318,0,0,0-4.4,4.281v14.916a4.391,4.391,0,0,0,4.4,4.342l8.811.049a66.586,66.586,0,0,0,3.082,11.514l-7.575,4.265a4.262,4.262,0,0,0-1.609,5.889l7.588,12.914a4.433,4.433,0,0,0,5.992,1.584l7.518-4.258a68.665,68.665,0,0,0,8.54,8.439l-4.319,7.365a4.261,4.261,0,0,0,1.6,5.874l13.046,7.4a4.391,4.391,0,0,0,5.944-1.583l4.265-7.3a68.48,68.48,0,0,0,11.633,3.046v8.423a4.29,4.29,0,0,0,4.329,4.269l14.914-.044a4.3,4.3,0,0,0,4.308-4.283v-8.4a67.682,67.682,0,0,0,11.531-3.061l4.211,7.238a4.294,4.294,0,0,0,5.854,1.547l12.787-7.367a4.244,4.244,0,0,0,1.562-5.807l-4.221-7.281a67.279,67.279,0,0,0,8.337-8.323l7.311,4.217a4.254,4.254,0,0,0,5.807-1.547l7.329-12.663a4.244,4.244,0,0,0-1.552-5.793l-7.322-4.25a65.877,65.877,0,0,0,2.983-11.3l8.5.047a4.206,4.206,0,0,0,4.235-4.21v-14.62A4.276,4.276,0,0,0,615.943,1687.137Zm-74.875-31.952c24.011.3,43.37,19.759,43.37,43.474a43.042,43.042,0,0,1-43.37,42.875c-24.156-.036-43.847-19.5-43.847-43.477A43.027,43.027,0,0,1,541.067,1655.185Z" transform="translate(-220.405 -1540.634)" fill="#ffb30b"/>
        <g id="Grupo_86893" data-name="Grupo 86893" transform="translate(58.869 0)">
          <path id="Trazado_140469" data-name="Trazado 140469" d="M819.75,1307.253l-6.5-.178a48.93,48.93,0,0,0-2.3-8.381l5.643-3a3.028,3.028,0,0,0,1.178-4.24l-5.562-9.55a3.353,3.353,0,0,0-4.411-1.3l-5.726,3.014a53.227,53.227,0,0,0-6.289-6.286l3.326-5.458a3.163,3.163,0,0,0-1.189-4.341l-9.742-5.81a3.262,3.262,0,0,0-4.465.983l-3.357,5.48a54.386,54.386,0,0,0-8.669-2.536v-6.515a3.394,3.394,0,0,0-3.3-3.3l-11.424-.457a3.1,3.1,0,0,0-3.32,3.048v6.545a52.577,52.577,0,0,0-8.787,1.9l-3.423-5.791a3.521,3.521,0,0,0-4.572-1.345l-10.048,5.142a3.049,3.049,0,0,0-1.233,4.33l3.446,5.8a49.592,49.592,0,0,0-6.526,5.962l-5.978-3.478a3.426,3.426,0,0,0-4.629,1.019l-5.868,9.431a3.186,3.186,0,0,0,1.245,4.436l5.945,3.429a47.066,47.066,0,0,0-2.416,8.459l-6.87-.188a3.214,3.214,0,0,0-3.41,3.131v11.135a3.415,3.415,0,0,0,3.41,3.3l6.815.157a48.885,48.885,0,0,0,2.382,8.628l-5.857,3.083a3.088,3.088,0,0,0-1.245,4.373l5.868,9.727a3.528,3.528,0,0,0,4.629,1.252l5.8-3.084a53.348,53.348,0,0,0,6.584,6.388l-3.33,5.435a3.145,3.145,0,0,0,1.233,4.393l10.048,5.648a3.413,3.413,0,0,0,4.572-1.115l3.278-5.381a54.439,54.439,0,0,0,8.932,2.391v6.259a3.294,3.294,0,0,0,3.32,3.216l11.424.119a3.193,3.193,0,0,0,3.3-3.133v-6.23a52.462,52.462,0,0,0,8.811-2.144l3.214,5.409a3.357,3.357,0,0,0,4.465,1.208l9.742-5.319a3.067,3.067,0,0,0,1.189-4.281l-3.214-5.436a49.424,49.424,0,0,0,6.345-6.062l5.558,3.205a3.251,3.251,0,0,0,4.411-1.076l5.562-9.27a3.123,3.123,0,0,0-1.178-4.3l-5.558-3.234a47.041,47.041,0,0,0,2.265-8.312l6.45.149a3.082,3.082,0,0,0,3.21-3.052v-10.8A3.276,3.276,0,0,0,819.75,1307.253Zm-57.062-24.819c18.362.611,33.122,15.333,33.122,32.888s-14.761,31.534-33.122,31.221c-18.534-.317-33.685-15.048-33.685-32.9S744.155,1281.819,762.688,1282.434Z" transform="translate(-658.823 -1217.083)" fill="#ffb30b"/>
          <g id="Grupo_86892" data-name="Grupo 86892">
            <path id="Trazado_140470" data-name="Trazado 140470" d="M693.1,1153.315c-56.7-2.818-103.866,39.463-103.866,94.512s47.167,99.708,103.866,99.747c55.121.038,98.692-42.335,98.692-94.642S748.226,1156.055,693.1,1153.315Zm0,171.033c-42.993-.282-78.536-34.258-78.536-75.883s35.543-73.809,78.536-71.924c42.08,1.846,75.542,35.77,75.542,75.807S735.185,1324.623,693.1,1324.348Z" transform="translate(-589.239 -1153.182)" fill="#fff" opacity="0.74"/>
            <g id="Grupo_86891" data-name="Grupo 86891" transform="translate(0 0.004)">
              <path id="Trazado_140471" data-name="Trazado 140471" d="M646.2,1503.8l-21.817,11.525a103.347,103.347,0,0,0,35.222,35.825l12.43-20.318A78.478,78.478,0,0,1,646.2,1503.8Z" transform="translate(-611.213 -1372.417)" fill="#ffb30b"/>
              <path id="Trazado_140472" data-name="Trazado 140472" d="M991.869,1235.961l20.277-10.685a103.81,103.81,0,0,0-32.607-31.143l-11.847,19.393A79.08,79.08,0,0,1,991.869,1235.961Z" transform="translate(-825.873 -1178.791)" fill="#ffb30b"/>
              <path id="Trazado_140473" data-name="Trazado 140473" d="M658.806,1223.611a73.7,73.7,0,0,1,25.448-21.076l-12.391-20.909a96.826,96.826,0,0,0-34.9,29.293Z" transform="translate(-619.081 -1170.971)" fill="#ffb30b"/>
              <path id="Trazado_140474" data-name="Trazado 140474" d="M614.568,1401.933c0-.89.039-1.771.071-2.653l-25.362-.656q-.038,1.33-.039,2.67a95.2,95.2,0,0,0,10.944,44.241l21.91-11.546A72.335,72.335,0,0,1,614.568,1401.933Z" transform="translate(-589.239 -1306.653)" fill="#ffb30b"/>
              <path id="Trazado_140475" data-name="Trazado 140475" d="M1056.346,1413.553a69.981,69.981,0,0,1-6.987,30.588l20.2,11.741a91.966,91.966,0,0,0,9.933-41.746q0-1.274-.035-2.539l-23.181-.6C1056.31,1411.848,1056.346,1412.7,1056.346,1413.553Z" transform="translate(-876.938 -1314.389)" fill="#ffb30b" opacity="0.25"/>
              <path id="Trazado_140476" data-name="Trazado 140476" d="M1003.277,1509.695a72.665,72.665,0,0,1-24.435,25.647l11.834,20a95.607,95.607,0,0,0,32.763-33.952Z" transform="translate(-832.846 -1376.102)" fill="#ffb30b" opacity="0.25"/>
              <path id="Trazado_140477" data-name="Trazado 140477" d="M1038.753,1297.853a73.081,73.081,0,0,1,10.621,31.4l23.24.627a95.873,95.873,0,0,0-13.669-42.7Z" transform="translate(-870.306 -1236.974)" fill="#ffb30b"/>
              <path id="Trazado_140478" data-name="Trazado 140478" d="M778.265,1592.589A80.6,80.6,0,0,1,741.5,1582.3l-12.39,20.28a106,106,0,0,0,49.159,13.28Z" transform="translate(-676.694 -1421.498)" fill="#ffb30b" opacity="0.25"/>
              <path id="Trazado_140479" data-name="Trazado 140479" d="M908.548,1584.171a77.44,77.44,0,0,1-36.016,9.621v23.241a101.833,101.833,0,0,0,47.859-12.877Z" transform="translate(-766.374 -1422.67)" fill="#ffb30b" opacity="0.25"/>
              <path id="Trazado_140480" data-name="Trazado 140480" d="M753.492,1182.823a78.132,78.132,0,0,1,32.28-6.32v-23.268a102.773,102.773,0,0,0-44.659,8.671Z" transform="translate(-684.201 -1153.192)" fill="#ffb30b"/>
              <path id="Trazado_140481" data-name="Trazado 140481" d="M615.4,1314.163a69.828,69.828,0,0,1,11.412-31.857l-21.8-12.644a91.787,91.787,0,0,0-15.026,43.815Z" transform="translate(-589.704 -1226.017)" fill="#ffb30b"/>
              <path id="Trazado_140482" data-name="Trazado 140482" d="M872.532,1177.156a80.675,80.675,0,0,1,31.689,8.992l11.885-19.428a106.089,106.089,0,0,0-43.574-12.8Z" transform="translate(-766.374 -1153.645)" fill="#ffb30b"/>
            </g>
          </g>
        </g>
        <path id="Trazado_140483" data-name="Trazado 140483" d="M489.444,1473.055l-3.171.026a22.808,22.808,0,0,0-1.119-4.005l2.75-1.549a1.489,1.489,0,0,0,.575-2.07l-2.712-4.509a1.6,1.6,0,0,0-2.148-.543l-2.784,1.561a24.33,24.33,0,0,0-3.054-2.911l1.614-2.694a1.481,1.481,0,0,0-.577-2.068l-4.722-2.6a1.621,1.621,0,0,0-2.161.562l-1.622,2.7a25.548,25.548,0,0,0-4.184-1.048v-3.129a1.551,1.551,0,0,0-1.588-1.517l-5.494.012a1.565,1.565,0,0,0-1.594,1.528v3.135a25.978,25.978,0,0,0-4.21,1.082l-1.638-2.7a1.64,1.64,0,0,0-2.185-.553l-4.793,2.654a1.493,1.493,0,0,0-.588,2.091l1.642,2.7a25.06,25.06,0,0,0-3.108,2.967l-2.843-1.548a1.659,1.659,0,0,0-2.2.572l-2.782,4.6a1.486,1.486,0,0,0,.59,2.09l2.82,1.529a23.172,23.172,0,0,0-1.147,4.072l-3.256.027a1.59,1.59,0,0,0-1.614,1.547v5.3a1.556,1.556,0,0,0,1.614,1.517l3.231-.033a22.829,22.829,0,0,0,1.131,4.074l-2.778,1.558a1.5,1.5,0,0,0-.59,2.1l2.782,4.547a1.642,1.642,0,0,0,2.2.531l2.759-1.554a24.307,24.307,0,0,0,3.136,2.956l-1.587,2.641a1.477,1.477,0,0,0,.588,2.08l4.793,2.565a1.658,1.658,0,0,0,2.185-.593l1.568-2.618a25.681,25.681,0,0,0,4.28,1.024v3a1.53,1.53,0,0,0,1.594,1.5l5.494-.09a1.586,1.586,0,0,0,1.588-1.547v-2.992a25.9,25.9,0,0,0,4.252-1.15l1.554,2.558a1.6,1.6,0,0,0,2.161.522l4.722-2.692a1.5,1.5,0,0,0,.577-2.079l-1.56-2.574a24.985,24.985,0,0,0,3.081-3.013l2.7,1.465a1.619,1.619,0,0,0,2.148-.583l2.712-4.56a1.471,1.471,0,0,0-.575-2.058l-2.709-1.476a23.156,23.156,0,0,0,1.1-4.049l3.146-.033a1.56,1.56,0,0,0,1.568-1.527v-5.22A1.525,1.525,0,0,0,489.444,1473.055ZM461.8,1462.128c8.851-.048,16,6.769,16,15.226s-7.147,15.406-16,15.523c-8.891.117-16.128-6.7-16.128-15.225S452.9,1462.176,461.8,1462.128Z" transform="translate(-432.143 -1427.353)" fill="#ffb30b"/>
      </g>
    </g>
    <g id="Grupo_174655" data-name="Grupo 174655" transform="translate(-60.632 -81.317)">
      <g id="Grupo_86899" data-name="Grupo 86899" transform="translate(491.479 1313.963)">
        <g id="Grupo_86895" data-name="Grupo 86895" transform="translate(156.611 241.258)">
          <path id="Trazado_140484" data-name="Trazado 140484" d="M1111.728,2102.446a17.566,17.566,0,0,1-11.647-13.225l-8.657-42.846L1017.369,2049l-9.114,44.636c-1.277,6.251,3.833,12.523,9.718,14.825l30.983,12.123a40.276,40.276,0,0,0,18.114,2.627l65.479-5.6a4.062,4.062,0,0,0,3.672-3.6c.223-1.93,1.564-4.1-.261-4.7Z" transform="translate(-1008.057 -2044.473)" fill="url(#linear-gradient)"/>
          <path id="Trazado_140485" data-name="Trazado 140485" d="M1116.276,2096.934a17.413,17.413,0,0,1-11.635-13.058l-8.648-42.308-72.25,2.6-9.1,44.074a12.9,12.9,0,0,0,7.977,14.637l30.952,11.97a40.677,40.677,0,0,0,18.1,2.593l65.412-5.531a4.036,4.036,0,0,0,.917-7.856Z" transform="translate(-1011.872 -2041.568)" fill="#00defc"/>
        </g>
        <g id="Grupo_86898" data-name="Grupo 86898" transform="translate(0 0)">
          <g id="Grupo_86896" data-name="Grupo 86896">
            <path id="Trazado_140486" data-name="Trazado 140486" d="M626.734,1703.287c-8.031.479-14.6-4.731-14.6-11.616V1443.52c0-6.885,6.57-12.2,14.6-11.854l373,25.822c5.9.256,9.06-4.5,9.06,1.351v211.051a11.454,11.454,0,0,1-10.67,11.256Z" transform="translate(-612.133 -1431.65)" fill="url(#linear-gradient)"/>
            <path id="Trazado_140487" data-name="Trazado 140487" d="M635.172,1703.287c-8.031.479-14.6-4.731-14.6-11.616V1443.52c0-6.885,6.57-12.2,14.6-11.854l371.391,16.092a11.226,11.226,0,0,1,10.67,11.082v211.051a11.454,11.454,0,0,1-10.67,11.256Z" transform="translate(-617.233 -1431.65)" fill="url(#linear-gradient-3)"/>
            <path id="Trazado_140488" data-name="Trazado 140488" d="M1016.98,1461.572l-371.392-15.278c-4.293-.177-7.784,2.66-7.784,6.336v247.514c0,3.676,3.49,6.456,7.784,6.21l371.392-21.327a6.114,6.114,0,0,0,5.716-6.017V1467.495A5.993,5.993,0,0,0,1016.98,1461.572Z" transform="translate(-627.65 -1440.496)" fill="#d8dee8" opacity="0.3" style="mix-blend-mode: multiply;isolation: isolate"/>
          </g>
          <g id="Grupo_86897" data-name="Grupo 86897" transform="translate(15.026 9.643)">
            <path id="Trazado_140489" data-name="Trazado 140489" d="M1021.665,1673.057l-364.607,18c-3.827.189-6.937-2.341-6.937-5.651V1461.769c0-3.31,3.11-5.878,6.937-5.736l364.607,13.534a5.407,5.407,0,0,1,5.176,5.356v192.713A5.489,5.489,0,0,1,1021.665,1673.057Z" transform="translate(-650.121 -1456.028)" fill="url(#linear-gradient-4)"/>
            <path id="Trazado_140490" data-name="Trazado 140490" d="M770.364,1499.875l-83.268-2.449v-7.939l83.268,2.693Z" transform="translate(-672.47 -1476.252)" fill="#fff" opacity="0.6" style="mix-blend-mode: soft-light;isolation: isolate"/>
            <path id="Trazado_140491" data-name="Trazado 140491" d="M967.344,1503.935l-19.235-.582v-5.424l19.235.622Z" transform="translate(-830.237 -1481.354)" fill="#fff" opacity="0.36" style="mix-blend-mode: soft-light;isolation: isolate"/>
            <path id="Trazado_140492" data-name="Trazado 140492" d="M967.344,1522.931l-19.235-.527v-5.424l19.235.567Z" transform="translate(-830.237 -1492.87)" fill="#fff" opacity="0.36" style="mix-blend-mode: soft-light;isolation: isolate"/>
            <path id="Trazado_140493" data-name="Trazado 140493" d="M1125.043,1527.376l-74.626-2.043v-5.34l74.626,2.2Z" transform="translate(-892.076 -1494.691)" fill="url(#linear-gradient-5)"/>
            <path id="Trazado_140494" data-name="Trazado 140494" d="M1157.113,1546.743l-73.884-1.809v-5.313l73.884,1.963Z" transform="translate(-911.909 -1506.555)" fill="#b9ddfc" opacity="0.5"/>
            <path id="Trazado_140495" data-name="Trazado 140495" d="M1157.113,1565.19l-73.884-1.6v-5.313l73.884,1.749Z" transform="translate(-911.909 -1517.835)" fill="#b9ddfc" opacity="0.5"/>
            <path id="Trazado_140496" data-name="Trazado 140496" d="M1157.113,1583.637l-73.884-1.381v-5.313l73.884,1.535Z" transform="translate(-911.909 -1529.114)" fill="#fff" opacity="0.6" style="mix-blend-mode: soft-light;isolation: isolate"/>
            <path id="Trazado_140497" data-name="Trazado 140497" d="M967.344,1541.927l-19.235-.471v-5.424l19.235.511Z" transform="translate(-830.237 -1504.386)" fill="#fff" opacity="0.36" style="mix-blend-mode: soft-light;isolation: isolate"/>
            <path id="Trazado_140498" data-name="Trazado 140498" d="M967.344,1560.923l-19.235-.415v-5.424l19.235.455Z" transform="translate(-830.237 -1515.901)" fill="#fff" opacity="0.36" style="mix-blend-mode: soft-light;isolation: isolate"/>
            <path id="Trazado_140499" data-name="Trazado 140499" d="M967.344,1579.92l-19.235-.36v-5.424l19.235.4Z" transform="translate(-830.237 -1527.417)" fill="#fff" opacity="0.36" style="mix-blend-mode: soft-light;isolation: isolate"/>
            <path id="Trazado_140500" data-name="Trazado 140500" d="M967.344,1598.916l-19.235-.3v-5.424l19.235.344Z" transform="translate(-830.237 -1538.933)" fill="#fff" opacity="0.36" style="mix-blend-mode: soft-light;isolation: isolate"/>
            <path id="Trazado_140501" data-name="Trazado 140501" d="M1054.7,1600.371l-47.347-.748v-5.375l47.347.847Z" transform="translate(-866.044 -1539.573)" fill="#fff" opacity="0.6" style="mix-blend-mode: soft-light;isolation: isolate"/>
            <path id="Trazado_140502" data-name="Trazado 140502" d="M967.344,1617.912l-19.235-.249v-5.424l19.235.289Z" transform="translate(-830.237 -1550.448)" fill="#fff" opacity="0.36" style="mix-blend-mode: soft-light;isolation: isolate"/>
            <path id="Trazado_140503" data-name="Trazado 140503" d="M967.344,1636.908l-19.235-.193v-5.424l19.235.233Z" transform="translate(-830.237 -1561.964)" fill="#fff" opacity="0.36" style="mix-blend-mode: soft-light;isolation: isolate"/>
            <path id="Trazado_140504" data-name="Trazado 140504" d="M967.344,1655.9l-19.235-.138v-5.424l19.235.177Z" transform="translate(-830.237 -1573.48)" fill="#fff" opacity="0.36" style="mix-blend-mode: soft-light;isolation: isolate"/>
            <path id="Trazado_140505" data-name="Trazado 140505" d="M1102.912,1619.791l-52.495-.678v-5.34l52.495.787Z" transform="translate(-892.076 -1551.376)" fill="#b9ddfc" opacity="0.5"/>
            <path id="Trazado_140506" data-name="Trazado 140506" d="M1150.017,1638.909l-66.788-.669v-5.313l66.788.808Z" transform="translate(-911.909 -1562.953)" fill="#fff" opacity="0.6" style="mix-blend-mode: soft-light;isolation: isolate"/>
            <path id="Trazado_140507" data-name="Trazado 140507" d="M1150.017,1657.377l-66.788-.476v-5.312l66.788.615Z" transform="translate(-911.909 -1574.232)" fill="url(#linear-gradient-6)"/>
            <path id="Trazado_140508" data-name="Trazado 140508" d="M967.344,1674.9l-19.235-.081v-5.425l19.235.122Z" transform="translate(-830.237 -1584.995)" fill="#fff" opacity="0.36" style="mix-blend-mode: soft-light;isolation: isolate"/>
            <path id="Trazado_140509" data-name="Trazado 140509" d="M967.344,1693.9l-19.235-.026v-5.424l19.235.066Z" transform="translate(-830.237 -1596.511)" fill="#fff" opacity="0.36" style="mix-blend-mode: soft-light;isolation: isolate"/>
            <path id="Trazado_140510" data-name="Trazado 140510" d="M967.344,1712.893l-19.235.03V1707.5l19.235.011Z" transform="translate(-830.237 -1608.027)" fill="#fff" opacity="0.36" style="mix-blend-mode: soft-light;isolation: isolate"/>
            <path id="Trazado_140511" data-name="Trazado 140511" d="M967.344,1731.82l-19.235.085v-5.424l19.235-.045Z" transform="translate(-830.237 -1619.473)" fill="#fff" opacity="0.36" style="mix-blend-mode: soft-light;isolation: isolate"/>
            <path id="Trazado_140512" data-name="Trazado 140512" d="M967.344,1750.731l-19.235.141v-5.424l19.235-.1Z" transform="translate(-830.237 -1630.904)" fill="#fff" opacity="0.36" style="mix-blend-mode: soft-light;isolation: isolate"/>
            <path id="Trazado_140513" data-name="Trazado 140513" d="M967.344,1769.642l-19.235.2v-5.424l19.235-.157Z" transform="translate(-830.237 -1642.334)" fill="#fff" opacity="0.36" style="mix-blend-mode: soft-light;isolation: isolate"/>
            <path id="Trazado_140514" data-name="Trazado 140514" d="M967.344,1788.553l-19.235.252v-5.424l19.235-.212Z" transform="translate(-830.237 -1653.766)" fill="#fff" opacity="0.36" style="mix-blend-mode: soft-light;isolation: isolate"/>
            <path id="Trazado_140515" data-name="Trazado 140515" d="M967.344,1807.465l-19.235.308v-5.425l19.235-.267Z" transform="translate(-830.237 -1665.196)" fill="#fff" opacity="0.36" style="mix-blend-mode: soft-light;isolation: isolate"/>
            <path id="Trazado_140516" data-name="Trazado 140516" d="M967.344,1826.375l-19.235.364v-5.424l19.235-.323Z" transform="translate(-830.237 -1676.626)" fill="#fff" opacity="0.36" style="mix-blend-mode: soft-light;isolation: isolate"/>
            <path id="Trazado_140517" data-name="Trazado 140517" d="M967.344,1845.286l-19.235.419v-5.424l19.235-.379Z" transform="translate(-830.237 -1688.058)" fill="#fff" opacity="0.36" style="mix-blend-mode: soft-light;isolation: isolate"/>
            <path id="Trazado_140518" data-name="Trazado 140518" d="M967.344,1864.2l-19.235.475v-5.424l19.235-.435Z" transform="translate(-830.237 -1699.488)" fill="#fff" opacity="0.36" style="mix-blend-mode: soft-light;isolation: isolate"/>
            <path id="Trazado_140519" data-name="Trazado 140519" d="M967.344,1883.109l-19.235.53v-5.424l19.235-.49Z" transform="translate(-830.237 -1710.919)" fill="#fff" opacity="0.36" style="mix-blend-mode: soft-light;isolation: isolate"/>
            <path id="Trazado_140520" data-name="Trazado 140520" d="M967.344,1902.02l-19.235.586v-5.424l19.235-.546Z" transform="translate(-830.237 -1722.349)" fill="#fff" opacity="0.36" style="mix-blend-mode: soft-light;isolation: isolate"/>
            <path id="Trazado_140521" data-name="Trazado 140521" d="M967.344,1920.931l-19.235.641v-5.424l19.235-.6Z" transform="translate(-830.237 -1733.78)" fill="#fff" opacity="0.36" style="mix-blend-mode: soft-light;isolation: isolate"/>
            <path id="Trazado_140522" data-name="Trazado 140522" d="M967.344,1939.843l-19.235.7v-5.424l19.235-.657Z" transform="translate(-830.237 -1745.211)" fill="#fff" opacity="0.36" style="mix-blend-mode: soft-light;isolation: isolate"/>
            <path id="Trazado_140523" data-name="Trazado 140523" d="M967.344,1958.753l-19.235.753v-5.424l19.235-.712Z" transform="translate(-830.237 -1756.642)" fill="#fff" opacity="0.36" style="mix-blend-mode: soft-light;isolation: isolate"/>
            <path id="Trazado_140524" data-name="Trazado 140524" d="M967.344,1977.665l-19.235.808v-5.424l19.235-.768Z" transform="translate(-830.237 -1768.072)" fill="#fff" opacity="0.36" style="mix-blend-mode: soft-light;isolation: isolate"/>
            <path id="Trazado_140525" data-name="Trazado 140525" d="M967.344,1996.576l-19.235.864v-5.424l19.235-.824Z" transform="translate(-830.237 -1779.503)" fill="#fff" opacity="0.36" style="mix-blend-mode: soft-light;isolation: isolate"/>
            <path id="Trazado_140526" data-name="Trazado 140526" d="M1059.479,1506.8l-52.46-1.588v-5.375l52.46,1.7Z" transform="translate(-865.845 -1482.506)" fill="#b9ddfc" opacity="0.5"/>
            <path id="Trazado_140527" data-name="Trazado 140527" d="M1125.043,1894.945l-74.626,2.272v-5.34l74.626-2.117Z" transform="translate(-892.076 -1718.194)" fill="#fff" opacity="0.6" style="mix-blend-mode: soft-light;isolation: isolate"/>
            <path id="Trazado_140528" data-name="Trazado 140528" d="M1157.113,1912.164l-73.884,2.463v-5.312l73.884-2.31Z" transform="translate(-911.909 -1728.617)" fill="#b9ddfc" opacity="0.5"/>
            <path id="Trazado_140529" data-name="Trazado 140529" d="M1157.113,1930.284l-73.884,2.677v-5.312l73.884-2.523Z" transform="translate(-911.909 -1739.57)" fill="#b9ddfc" opacity="0.5"/>
            <path id="Trazado_140530" data-name="Trazado 140530" d="M1240.526,1945.357l-71.971,2.816v-5.242l71.971-2.666Z" transform="translate(-963.484 -1748.72)" fill="#b9ddfc" opacity="0.5"/>
            <path id="Trazado_140531" data-name="Trazado 140531" d="M1240.526,1963.246l-71.971,3.024v-5.243l71.971-2.874Z" transform="translate(-963.484 -1759.533)" fill="url(#linear-gradient-7)"/>
            <path id="Trazado_140532" data-name="Trazado 140532" d="M1240.526,1981.135l-71.971,3.232v-5.243l71.971-3.082Z" transform="translate(-963.484 -1770.345)" fill="#fff" opacity="0.6" style="mix-blend-mode: soft-light;isolation: isolate"/>
            <path id="Trazado_140533" data-name="Trazado 140533" d="M1059.479,1879.35l-52.46,1.446v-5.375l52.46-1.337Z" transform="translate(-865.845 -1708.718)" fill="#b9ddfc" opacity="0.5"/>
            <path id="Trazado_140534" data-name="Trazado 140534" d="M1125.043,1694.238l-74.626-.1v-5.34l74.626.256Z" transform="translate(-892.076 -1596.723)" fill="#b9ddfc" opacity="0.5"/>
            <path id="Trazado_140535" data-name="Trazado 140535" d="M1157.113,1712.77l-73.884.114v-5.313l73.884.04Z" transform="translate(-911.909 -1608.071)" fill="#fff" opacity="0.6" style="mix-blend-mode: soft-light;isolation: isolate"/>
            <path id="Trazado_140536" data-name="Trazado 140536" d="M1157.113,1730.952l-73.884.327v-5.313l73.884-.173Z" transform="translate(-911.909 -1619.085)" fill="#b9ddfc" opacity="0.5"/>
            <path id="Trazado_140537" data-name="Trazado 140537" d="M1157.113,1749.073l-73.884.541V1744.3l73.884-.387Z" transform="translate(-911.909 -1630.038)" fill="#b9ddfc" opacity="0.5"/>
            <path id="Trazado_140538" data-name="Trazado 140538" d="M1054.7,1768.475l-47.347.483v-5.375l47.347-.385Z" transform="translate(-866.044 -1641.694)" fill="#b9ddfc" opacity="0.5"/>
            <path id="Trazado_140539" data-name="Trazado 140539" d="M1102.912,1786.345l-52.495.688v-5.34l52.495-.579Z" transform="translate(-892.076 -1652.523)" fill="#fff" opacity="0.6" style="mix-blend-mode: soft-light;isolation: isolate"/>
            <path id="Trazado_140540" data-name="Trazado 140540" d="M1150.017,1803.7l-66.788,1.069v-5.313l66.788-.929Z" transform="translate(-911.909 -1663.048)" fill="url(#linear-gradient-8)"/>
            <path id="Trazado_140541" data-name="Trazado 140541" d="M1150.017,1821.874l-66.788,1.261v-5.312l66.788-1.123Z" transform="translate(-911.909 -1674.033)" fill="#b9ddfc" opacity="0.5"/>
            <path id="Trazado_140542" data-name="Trazado 140542" d="M1188.676,1839.279l-65.984,1.437v-5.281l65.984-1.3Z" transform="translate(-935.762 -1684.572)" fill="#b9ddfc" opacity="0.5"/>
            <path id="Trazado_140543" data-name="Trazado 140543" d="M1188.676,1857.343l-65.984,1.628v-5.28l65.984-1.49Z" transform="translate(-935.762 -1695.491)" fill="#b9ddfc" opacity="0.5"/>
            <path id="Trazado_140544" data-name="Trazado 140544" d="M1059.479,1675.365l-52.46-.223v-5.375l52.46.332Z" transform="translate(-865.845 -1585.22)" fill="url(#linear-gradient-9)"/>
            <path id="Trazado_140545" data-name="Trazado 140545" d="M824.774,1532.365l-47.661-1.184v-7.834l47.661,1.323Z" transform="translate(-726.88 -1496.718)" fill="#fff" style="mix-blend-mode: soft-light;isolation: isolate"/>
            <path id="Trazado_140546" data-name="Trazado 140546" d="M745.949,1530.352l8.977.223v-7.845l-8.977-.249Z" transform="translate(-708.043 -1496.195)" fill="#fff" opacity="0.6" style="mix-blend-mode: soft-light;isolation: isolate"/>
            <path id="Trazado_140547" data-name="Trazado 140547" d="M824.774,1560.637l-47.661-.983v-7.834l47.661,1.123Z" transform="translate(-726.88 -1513.928)" fill="#fff" opacity="0.6" style="mix-blend-mode: soft-light;isolation: isolate"/>
            <path id="Trazado_140548" data-name="Trazado 140548" d="M745.949,1558.956l8.977.185V1551.3l-8.977-.211Z" transform="translate(-708.043 -1513.484)" fill="#fff" opacity="0.6" style="mix-blend-mode: soft-light;isolation: isolate"/>
            <path id="Trazado_140549" data-name="Trazado 140549" d="M824.774,1588.907l-47.661-.782v-7.834l47.661.922Z" transform="translate(-726.88 -1531.138)" fill="#fff" opacity="0.6" style="mix-blend-mode: soft-light;isolation: isolate"/>
            <path id="Trazado_140550" data-name="Trazado 140550" d="M745.949,1587.559l8.977.147v-7.844l-8.977-.174Z" transform="translate(-708.043 -1530.773)" fill="#fff" opacity="0.6" style="mix-blend-mode: soft-light;isolation: isolate"/>
            <path id="Trazado_140551" data-name="Trazado 140551" d="M770.364,1788.817,687.1,1789.94V1782l83.268-.878Z" transform="translate(-672.47 -1652.529)" fill="#fff" style="mix-blend-mode: soft-light;isolation: isolate"/>
            <path id="Trazado_140552" data-name="Trazado 140552" d="M824.774,1819.214l-47.661.861v-7.835l47.661-.721Z" transform="translate(-726.88 -1670.901)" fill="#fff" opacity="0.6" style="mix-blend-mode: soft-light;isolation: isolate"/>
            <path id="Trazado_140553" data-name="Trazado 140553" d="M745.949,1821.477l8.977-.162v-7.844l-8.977.136Z" transform="translate(-708.043 -1672.08)" fill="#fff" opacity="0.6" style="mix-blend-mode: soft-light;isolation: isolate"/>
            <path id="Trazado_140554" data-name="Trazado 140554" d="M824.774,1847.178l-47.661,1.061V1840.4l47.661-.921Z" transform="translate(-726.88 -1687.804)" fill="#fff" opacity="0.6" style="mix-blend-mode: soft-light;isolation: isolate"/>
            <path id="Trazado_140555" data-name="Trazado 140555" d="M745.949,1850.022l8.977-.2v-7.845l-8.977.174Z" transform="translate(-708.043 -1689.311)" fill="#fff" opacity="0.6" style="mix-blend-mode: soft-light;isolation: isolate"/>
            <path id="Trazado_140556" data-name="Trazado 140556" d="M824.774,1875.143l-47.661,1.263v-7.835l47.661-1.122Z" transform="translate(-726.88 -1704.707)" fill="#fff" opacity="0.6" style="mix-blend-mode: soft-light;isolation: isolate"/>
            <path id="Trazado_140557" data-name="Trazado 140557" d="M745.949,1878.568l8.977-.238v-7.844l-8.977.211Z" transform="translate(-708.043 -1706.543)" fill="#fff" opacity="0.6" style="mix-blend-mode: soft-light;isolation: isolate"/>
            <path id="Trazado_140558" data-name="Trazado 140558" d="M770.364,1616.549l-83.268-1.014V1607.6l83.268,1.257Z" transform="translate(-672.47 -1547.642)" fill="#fff" style="mix-blend-mode: soft-light;isolation: isolate"/>
            <path id="Trazado_140559" data-name="Trazado 140559" d="M824.774,1648.1l-47.661-.362V1639.9l47.661.5Z" transform="translate(-726.88 -1567.17)" fill="#fff" opacity="0.6" style="mix-blend-mode: soft-light;isolation: isolate"/>
            <path id="Trazado_140560" data-name="Trazado 140560" d="M745.949,1647.447l8.977.068v-7.845l-8.977-.094Z" transform="translate(-708.043 -1566.972)" fill="#fff" opacity="0.6" style="mix-blend-mode: soft-light;isolation: isolate"/>
            <path id="Trazado_140561" data-name="Trazado 140561" d="M824.774,1676.372l-47.661-.161v-7.835l47.661.3Z" transform="translate(-726.88 -1584.38)" fill="#fff" opacity="0.6" style="mix-blend-mode: soft-light;isolation: isolate"/>
            <path id="Trazado_140562" data-name="Trazado 140562" d="M745.949,1676.05l8.977.03v-7.844l-8.977-.056Z" transform="translate(-708.043 -1584.261)" fill="#fff" opacity="0.6" style="mix-blend-mode: soft-light;isolation: isolate"/>
            <path id="Trazado_140563" data-name="Trazado 140563" d="M824.774,1733.125l-47.661.243v-7.835l47.661-.1Z" transform="translate(-726.88 -1618.865)" fill="#fff" opacity="0.6" style="mix-blend-mode: soft-light;isolation: isolate"/>
            <path id="Trazado_140564" data-name="Trazado 140564" d="M745.949,1733.6l8.977-.045v-7.845l-8.977.019Z" transform="translate(-708.043 -1619.034)" fill="#fff" opacity="0.6" style="mix-blend-mode: soft-light;isolation: isolate"/>
            <path id="Trazado_140565" data-name="Trazado 140565" d="M824.774,1761.089l-47.661.444V1753.7l47.661-.3Z" transform="translate(-726.88 -1635.769)" fill="#fff" opacity="0.6" style="mix-blend-mode: soft-light;isolation: isolate"/>
            <path id="Trazado_140566" data-name="Trazado 140566" d="M745.949,1762.144l8.977-.083v-7.844l-8.977.057Z" transform="translate(-708.043 -1636.265)" fill="#fff" opacity="0.6" style="mix-blend-mode: soft-light;isolation: isolate"/>
            <path id="Trazado_140567" data-name="Trazado 140567" d="M824.774,1704.644l-47.661.04v-7.835l47.661.1Z" transform="translate(-726.88 -1601.589)" fill="#fff" opacity="0.6" style="mix-blend-mode: soft-light;isolation: isolate"/>
            <path id="Trazado_140568" data-name="Trazado 140568" d="M745.949,1704.654l8.977-.008V1696.8l-8.977-.019Z" transform="translate(-708.043 -1601.55)" fill="#fff" opacity="0.6" style="mix-blend-mode: soft-light;isolation: isolate"/>
            <path id="Trazado_140569" data-name="Trazado 140569" d="M770.364,1903.1l-83.268,2.556v-7.939l83.268-2.312Z" transform="translate(-672.47 -1721.604)" fill="#fff" style="mix-blend-mode: soft-light;isolation: isolate"/>
            <path id="Trazado_140570" data-name="Trazado 140570" d="M824.774,1933.5l-47.661,1.681v-7.835l47.661-1.541Z" transform="translate(-726.88 -1739.978)" fill="#fff" opacity="0.6" style="mix-blend-mode: soft-light;isolation: isolate"/>
            <path id="Trazado_140571" data-name="Trazado 140571" d="M745.949,1938.131l8.977-.316v-7.845l-8.977.29Z" transform="translate(-708.043 -1742.498)" fill="#fff" opacity="0.6" style="mix-blend-mode: soft-light;isolation: isolate"/>
            <path id="Trazado_140572" data-name="Trazado 140572" d="M824.774,1961.46l-47.661,1.882v-7.834l47.661-1.743Z" transform="translate(-726.88 -1756.88)" fill="#fff" opacity="0.6" style="mix-blend-mode: soft-light;isolation: isolate"/>
            <path id="Trazado_140573" data-name="Trazado 140573" d="M745.949,1966.677l8.977-.354v-7.845l-8.977.328Z" transform="translate(-708.043 -1759.73)" fill="#fff" opacity="0.6" style="mix-blend-mode: soft-light;isolation: isolate"/>
            <path id="Trazado_140574" data-name="Trazado 140574" d="M824.774,1989.424l-47.661,2.083v-7.835l47.661-1.943Z" transform="translate(-726.88 -1773.784)" fill="#fff" opacity="0.6" style="mix-blend-mode: soft-light;isolation: isolate"/>
            <path id="Trazado_140575" data-name="Trazado 140575" d="M745.949,1995.223l8.977-.392v-7.844l-8.977.366Z" transform="translate(-708.043 -1776.961)" fill="#fff" opacity="0.6" style="mix-blend-mode: soft-light;isolation: isolate"/>
            <path id="Trazado_140576" data-name="Trazado 140576" d="M920.381,1696.014l-1.834.08V1496.973l1.834.059Z" transform="translate(-812.369 -1480.777)" fill="#fff" opacity="0.6" style="mix-blend-mode: soft-light;isolation: isolate"/>
          </g>
          <path id="Trazado_140577" data-name="Trazado 140577" d="M967.792,1665.787c-80.847,1.691-99.028,13.234-122-.6-31.566-19.006-17.19-52.814-47.946-70.549-38.666-22.3-83.246,18.537-103.427-1.37-20.1-19.825,17.867-66.485-4.11-118.5-8.819-20.872-23.837-34.429-34.21-42.2l-20.927-.906c-8.031-.348-14.6,4.968-14.6,11.853v248.151c0,6.885,6.57,12.1,14.6,11.616l371.391-22.14a11.453,11.453,0,0,0,10.67-11.256v-3.752C1006.1,1665.744,988.861,1665.347,967.792,1665.787Z" transform="translate(-617.233 -1431.651)" fill="#00defc" opacity="0.6" style="mix-blend-mode: soft-light;isolation: isolate"/>
        </g>
      </g>
      <g id="Grupo_86902" data-name="Grupo 86902" transform="translate(714.922 1347.716)">
        <g id="Grupo_86901" data-name="Grupo 86901" transform="translate(0)">
          <path id="Trazado_140578" data-name="Trazado 140578" d="M1197.8,1701.262l-5.211-5.685a19.309,19.309,0,0,0-4.634-4c-4.192-2.571-9.961-3.832-10.825-2.364-.98,1.665,4.5,6.6,6.365,8.227l7.73,5.615Z" transform="translate(-1177.011 -1620.711)" fill="url(#linear-gradient-10)"/>
          <path id="Trazado_140579" data-name="Trazado 140579" d="M1448.378,1622.926c1.416.535,23,9.118,27.434,31.645.359,1.82,3.826,21.174-9.3,34.846-14.717,15.331-43.057,14.951-54.307,2.134a22.987,22.987,0,0,1-4.782-9.085h0l2.964-7.874c3.617-4.366,8.541-5.4,11.171-6.049,6.484-1.6,11.378,1.29,15.091-1.837,2.055-1.73,2.463-4.219,2.828-6.443,1.241-7.574-3.034-12.237-3.345-16.908-.233-3.493-1.455-11.143,3.1-16.133A14.719,14.719,0,0,1,1448.378,1622.926Z" transform="translate(-1316.283 -1581.019)" fill="#f5c969"/>
          <path id="Trazado_140580" data-name="Trazado 140580" d="M1532.2,2254.969c.252-1.387,4.731-2.642,6.948-.785,1.1.923,1.859,2.792,1.222,3.637-.231.307.717.848-.192.858C1537.166,2258.713,1531.954,2256.347,1532.2,2254.969Z" transform="translate(-1391.699 -1962.011)" fill="url(#linear-gradient-11)"/>
          <path id="Trazado_140581" data-name="Trazado 140581" d="M1540.982,2241.45l4.606-.652c-2.134-2.569-1.739-10.75-1.739-10.75l-4.9,1.093s.557,2.246,1.507,5.558A21.728,21.728,0,0,1,1540.982,2241.45Z" transform="translate(-1395.783 -1947.988)" fill="url(#linear-gradient-12)"/>
          <path id="Trazado_140582" data-name="Trazado 140582" d="M1542.932,2256.483s5.545-1.277,6.145-.177,1.065,4.045-2.453,3.95S1542.619,2257.416,1542.932,2256.483Z" transform="translate(-1398.14 -1963.589)" fill="url(#linear-gradient-13)"/>
          <path id="Trazado_140583" data-name="Trazado 140583" d="M1372.409,2268.887c.443-1.339,5.053-1.954,6.989.2.961,1.068,1.45,3.025.7,3.771-.272.272.592.94-.31.823C1376.8,2273.289,1371.968,2270.216,1372.409,2268.887Z" transform="translate(-1295.1 -1970.729)" fill="url(#linear-gradient-14)"/>
          <path id="Trazado_140584" data-name="Trazado 140584" d="M1383.155,2257.029h4.652c-1.753-2.843-.217-10.888-.217-10.888l-5,.4s.239,2.3.715,5.715A21.75,21.75,0,0,1,1383.155,2257.029Z" transform="translate(-1301.269 -1957.715)" fill="url(#linear-gradient-15)"/>
          <path id="Trazado_140585" data-name="Trazado 140585" d="M1340.191,1823.2a215.218,215.218,0,0,0-7.213,33.009c-5.65,41.1,6.359,42.411,4.116,87.955-.715,14.538,12.595,48.061,13.768,48.8a14.429,14.429,0,0,0,1.841.073,18.356,18.356,0,0,0,4.688-.781c2.108-.363,9.71-20.954,7.948-33.2-1.247-8.664-.885-17.963-.163-36.561.117-3.013,7.827-58.628,7.827-58.628h0c2.346,20.584,5.043,38.076,7.381,51.637,7.512,43.57,31.938,69.941,33.213,70.363a5.165,5.165,0,0,0,4.417-.3,3.047,3.047,0,0,0,1.118-1.259c.653-.511-.193-43.5-7.643-75.851-10.814-46.958-6.105-57.946-9.532-78.92C1398.994,1811.387,1340.191,1823.2,1340.191,1823.2Z" transform="translate(-1270.36 -1699.788)" fill="#084a93"/>
          <path id="Trazado_140586" data-name="Trazado 140586" d="M1389.481,1612.844c-7.18-.211-23.682-2.746-32.772,5.433-.159.142,1.7,1.137.787,2.211a59.478,59.478,0,0,0-6.418,9.209,61.883,61.883,0,0,0-5.394,13.342,114.577,114.577,0,0,0-4.258,23.278c-1.661,21.852-.014,31.933,1.481,38.789,6.491,3.334,23.219,9.3,43.149,6.336a67.34,67.34,0,0,0,21.511-7.086c-5.171-15.658-1.114-24.038.8-31.76,2.729-11.013,2.774-10.18,5.021-18.928,3.708-14.434,4.316-29.184,1.768-32.2C1408.288,1613.328,1395.909,1613.033,1389.481,1612.844Z" transform="translate(-1275.97 -1574.602)" fill="url(#linear-gradient-16)"/>
          <path id="Trazado_140587" data-name="Trazado 140587" d="M1382.918,2271.947s5.67-.489,6.109.684.489,4.155-2.981,3.569S1382.478,2272.827,1382.918,2271.947Z" transform="translate(-1301.358 -1973.252)" fill="url(#linear-gradient-17)"/>
          <g id="Grupo_86900" data-name="Grupo 86900" transform="translate(88.871)">
            <path id="Trazado_140588" data-name="Trazado 140588" d="M1406.117,1567.235c-2.224-3.761-1.233-8.056-1.01-8.984.935-3.886,1.284-4.475,2-5.3l1.02-1.078s.063-.047.13-.093a14.626,14.626,0,0,1,3.929-1.31c1.826-.092,5.542,6.457,7.67,16.548q.259.541.513,1.092c1.056,2.289,1.961,4.541,2.738,6.736,12.341,1.044,14.054,2.491,14.109,3.327.117,1.76-6.915,3.794-12.2,4.569-11.533,1.688-23.388-1.353-23.333-3.5.023-.936,2.315-2.156,12.092-3.436q-.343-2.427-.686-4.854C1412.3,1570.774,1407.755,1570.005,1406.117,1567.235Z" transform="translate(-1401.684 -1537.224)" fill="url(#linear-gradient-18)"/>
            <path id="Trazado_140589" data-name="Trazado 140589" d="M1406.43,1529.76c.832,3.08,3.162,5.986,4.044,6.318a5.3,5.3,0,0,1,1.442.922,1.618,1.618,0,0,1,.273.317c1.194,1.763-1.286,4.873-.458,5.584.6.516,2.475-.888,2.87-.41.371.45-1.089,1.978-.659,2.52.325.41,1.286-.3,2.152.229.432.264.408.571,1.053,1.557a10.091,10.091,0,0,0,1.146,1.465c1.548,1.526,4.742,1.383,5.129.5.108-.245-.076-.378-.092-1.1a5.62,5.62,0,0,1,.229-1.511c.348-1.2,1.657-2.347,2.885-3.847,2.275-2.778,2.58-4.71,2.654-5.356.026-.23.035-.4.042-.523a11.86,11.86,0,0,0-2.328-7.586c-2.628-2.983-6.054-.321-10.123-2.886-4.694-2.958-3.954-8.911-6.091-8.977C1408.243,1516.908,1404.892,1524.064,1406.43,1529.76Z" transform="translate(-1404.317 -1516.981)" fill="url(#linear-gradient-19)"/>
            <path id="Trazado_140590" data-name="Trazado 140590" d="M1422,1578.905c.479-1.239,2.067-.618,2.432.724s-.563,3.085-1.9,3.156S1421.36,1580.573,1422,1578.905Z" transform="translate(-1413.675 -1554.006)" fill="url(#linear-gradient-20)"/>
          </g>
          <path id="Trazado_140591" data-name="Trazado 140591" d="M1503.3,1759.56a.167.167,0,0,1-.166-.149c-.857-7.713.737-13.3,2.142-18.227.343-1.2.667-2.34.949-3.476,1.552-6.259,2.23-8.675,2.949-11.234.467-1.661.95-3.379,1.7-6.248a.167.167,0,0,1,.324.085c-.749,2.872-1.232,4.592-1.7,6.254-.719,2.556-1.4,4.97-2.947,11.224-.283,1.142-.608,2.281-.952,3.487-1.4,4.9-2.981,10.451-2.131,18.1a.167.167,0,0,1-.148.185Z" transform="translate(-1373.985 -1639.755)" fill="#4d309b"/>
          <path id="Trazado_140592" data-name="Trazado 140592" d="M1413.6,1573.834l-1.144,2.747s-1.146,3.3-2.657,2.061c-1.234-1.01-1.46-.92-1.5-.853-.008.013-.007.028-.01.028s-.034-.658-.046-1.237a10.627,10.627,0,0,0-.641,3.619c0,1.521,0,3.15,1.191,4.4a4.526,4.526,0,0,0,3.114,1.328,11.95,11.95,0,0,0,3.3-1.236s-3.573-1.374-3.756-1.878c-.5-1.37,1.246-2.647,1.924-5.909A11.934,11.934,0,0,0,1413.6,1573.834Z" transform="translate(-1316.391 -1551.345)" fill="url(#linear-gradient-21)"/>
          <path id="Trazado_140593" data-name="Trazado 140593" d="M1215.071,1659.04a14.385,14.385,0,0,0-4.711,5.86,43.526,43.526,0,0,0,15.2,18.932c14.693,10.053,36.237,10.391,51.243-1.074,17.928-13.7,20.924-39.962,13.393-51.21-.866-1.3-3.716-5.552-8.141-6.041-2.794-.308-6.6.844-12.605,7.879-12.52,14.659-8.1,23.812-15.494,28.1C1242.863,1667.917,1226.381,1651.126,1215.071,1659.04Z" transform="translate(-1197.169 -1582.551)" fill="url(#linear-gradient-22)"/>
          <path id="Trazado_140594" data-name="Trazado 140594" d="M1349.6,1746.017a.167.167,0,0,1-.035-.33c.175-.038,17.568-4.044,25.4-25.654a.167.167,0,1,1,.314.114c-4.126,11.383-10.874,17.809-15.809,21.194a31.249,31.249,0,0,1-9.836,4.672A.149.149,0,0,1,1349.6,1746.017Z" transform="translate(-1281.232 -1639.647)" fill="#4d309b"/>
        </g>
      </g>
    </g>
  </g>
</svg>
