<svg xmlns="http://www.w3.org/2000/svg" width="439.564" height="299.772" viewBox="0 0 439.564 299.772">
  <g id="Grupo_174283" data-name="Grupo 174283" transform="translate(-108.484 -88.353)">
    <g id="Grupo_128352" data-name="Grupo 128352" transform="translate(108.484 88.352)">
      <g id="Grupo_128248" data-name="Grupo 128248" transform="translate(207.305 15.398)" opacity="0.2">
        <path id="Trazado_188353" data-name="Trazado 188353" d="M381.952,215.734l11.583-1.271a2.579,2.579,0,0,1,2.427,1.17q1,1.563,2.146,3.064a43.419,43.419,0,0,0,4.57,5.132,2.546,2.546,0,0,1,.621,2.8l-4.472,11.326a2.5,2.5,0,0,0,1.224,3.176l9.962,4.969a2.474,2.474,0,0,0,3.174-.87l6.059-9.435a2.484,2.484,0,0,1,2.783-1.068,45.008,45.008,0,0,0,14.119,1.447,2.564,2.564,0,0,1,2.562,1.787l2.026,6.513a2.591,2.591,0,0,0,2.939,1.756l10.84-2.161a2.251,2.251,0,0,0,.627-.205,2.486,2.486,0,0,0,1.393-2.534l-.94-8.652-.234-2.109a44.388,44.388,0,0,0,5.263-3.455,45.108,45.108,0,0,0,6.181-5.69,2.484,2.484,0,0,1,2.774-.661l9.12,3.613a2.575,2.575,0,0,0,3.252-1.249l3.8-7.617,1.083-2.185a2.607,2.607,0,0,0-.917-3.362l-7.881-5.07a2.479,2.479,0,0,1-1.1-2.706,44.74,44.74,0,0,0,1.23-9.477,7.977,7.977,0,0,0,.026-.8,1.374,1.374,0,0,1,.018-.27,2.542,2.542,0,0,1,1.8-2.171l10.569-3.313a1.9,1.9,0,0,0,.345-.135,2.585,2.585,0,0,0,1.4-2.8l-2.137-10.81a2.572,2.572,0,0,0-2.8-2.055l-12.08,1.332a2.487,2.487,0,0,1-2.49-1.314,45.373,45.373,0,0,0-3.764-5.8q-1.134-1.487-2.366-2.849a2.619,2.619,0,0,1-.487-2.714l4.295-10.887a2.5,2.5,0,0,0-1.208-3.156l-9.863-4.9a2.613,2.613,0,0,0-3.372.925l-4.8,7.464a2.564,2.564,0,0,1-2.989,1.049,44.883,44.883,0,0,0-13.616-2.485,2.549,2.549,0,0,1-2.4-1.8l-2.982-9.527a2.638,2.638,0,0,0-3.015-1.793l-10.771,2.124a2.521,2.521,0,0,0-2.022,2.757l.05.506,1.1,10.053a2.577,2.577,0,0,1-1.4,2.587l-.01.008a44.586,44.586,0,0,0-6.691,4.225c-1.142.871-2.218,1.787-3.263,2.745a2.529,2.529,0,0,1-2.663.512l-9.258-3.667a2.616,2.616,0,0,0-3.308,1.26l-4.886,9.819a2.808,2.808,0,0,0-.252.864,2.606,2.606,0,0,0,1.159,2.442l6.306,4.033a2.6,2.6,0,0,1,1.173,2.271,2.761,2.761,0,0,1-.132.708,44.739,44.739,0,0,0-2.324,17.538,2.518,2.518,0,0,1-1.359,2.411,2.472,2.472,0,0,1-.4.163l-8.56,2.676a2.561,2.561,0,0,0-1.746,2.931l.048.251,2.074,10.538A2.606,2.606,0,0,0,381.952,215.734Zm74.169-32.67a29.919,29.919,0,0,1,1.556,5.353,23.522,23.522,0,0,1-1.71,12.7c-.175.357-.357.7-.541,1.052-11.389,21-41.074,16.732-45.9-7.011a24.405,24.405,0,0,1,.9-11.081,16.007,16.007,0,0,1,.893-2.184,27.653,27.653,0,0,1,5.548-7.589A24.136,24.136,0,0,1,456.121,183.065Z" transform="translate(-376.943 -133.862)" fill="#b9ddfc"/>
      </g>
      <g id="Grupo_128249" data-name="Grupo 128249" transform="translate(358.787 39.713)">
        <path id="Trazado_188354" data-name="Trazado 188354" d="M549.168,198.446l7.192-.789a1.6,1.6,0,0,1,1.508.727q.622.97,1.333,1.9a26.844,26.844,0,0,0,2.838,3.186,1.583,1.583,0,0,1,.385,1.742l-2.778,7.033a1.553,1.553,0,0,0,.76,1.972l6.187,3.086a1.536,1.536,0,0,0,1.971-.541l3.762-5.858a1.543,1.543,0,0,1,1.729-.664,27.975,27.975,0,0,0,8.768.9,1.592,1.592,0,0,1,1.592,1.11l1.258,4.045a1.608,1.608,0,0,0,1.825,1.09l6.732-1.342a1.386,1.386,0,0,0,.389-.127,1.545,1.545,0,0,0,.866-1.574l-.585-5.373-.145-1.31a27.66,27.66,0,0,0,3.269-2.145,28.066,28.066,0,0,0,3.839-3.534,1.541,1.541,0,0,1,1.722-.41l5.663,2.244a1.6,1.6,0,0,0,2.02-.776l2.36-4.73.673-1.357a1.62,1.62,0,0,0-.57-2.088l-4.894-3.148a1.539,1.539,0,0,1-.686-1.681,27.794,27.794,0,0,0,.763-5.885c.018-.173.016-.331.017-.5a.833.833,0,0,1,.011-.168,1.578,1.578,0,0,1,1.116-1.348l6.563-2.057a1.183,1.183,0,0,0,.214-.084,1.6,1.6,0,0,0,.87-1.736l-1.327-6.712a1.6,1.6,0,0,0-1.738-1.276l-7.5.827a1.543,1.543,0,0,1-1.547-.816,28.2,28.2,0,0,0-2.338-3.6q-.7-.923-1.47-1.77a1.627,1.627,0,0,1-.3-1.685l2.667-6.761a1.552,1.552,0,0,0-.75-1.96l-6.125-3.043a1.621,1.621,0,0,0-2.093.574l-2.978,4.635a1.594,1.594,0,0,1-1.857.652,27.892,27.892,0,0,0-8.456-1.544,1.584,1.584,0,0,1-1.489-1.118l-1.851-5.915a1.637,1.637,0,0,0-1.872-1.114l-6.689,1.319a1.565,1.565,0,0,0-1.256,1.712l.032.314.68,6.243a1.6,1.6,0,0,1-.87,1.606l-.005.005a27.7,27.7,0,0,0-4.156,2.624c-.709.541-1.377,1.11-2.027,1.7a1.572,1.572,0,0,1-1.654.319l-5.749-2.278a1.624,1.624,0,0,0-2.054.783l-3.035,6.1a1.785,1.785,0,0,0-.157.536,1.618,1.618,0,0,0,.72,1.517l3.916,2.5a1.615,1.615,0,0,1,.728,1.41,1.719,1.719,0,0,1-.082.44,27.778,27.778,0,0,0-1.443,10.892,1.563,1.563,0,0,1-.843,1.5,1.611,1.611,0,0,1-.25.1l-5.316,1.662a1.59,1.59,0,0,0-1.084,1.82l.03.156,1.288,6.544A1.619,1.619,0,0,0,549.168,198.446Zm46.057-20.288a18.61,18.61,0,0,1,.967,3.323,14.614,14.614,0,0,1-1.062,7.89c-.109.222-.222.437-.336.653-7.072,13.04-25.507,10.39-28.5-4.354a15.132,15.132,0,0,1,.56-6.881,9.72,9.72,0,0,1,.554-1.356,17.15,17.15,0,0,1,3.445-4.714A14.988,14.988,0,0,1,595.225,178.158Z" transform="translate(-546.056 -147.604)" fill="#b9ddfc"/>
      </g>
      <g id="Grupo_128250" data-name="Grupo 128250" transform="translate(316.805 6.083)">
        <path id="Trazado_188355" data-name="Trazado 188355" d="M501.248,149.874l4.912-1.648a1.146,1.146,0,0,1,1.165.279q.583.585,1.223,1.128a19.131,19.131,0,0,0,2.471,1.8,1.134,1.134,0,0,1,.535,1.16l-.872,5.344a1.112,1.112,0,0,0,.832,1.264l4.8,1.217a1.1,1.1,0,0,0,1.3-.678l1.74-4.672a1.106,1.106,0,0,1,1.109-.728,20.009,20.009,0,0,0,6.271-.707,1.142,1.142,0,0,1,1.283.534l1.5,2.639a1.152,1.152,0,0,0,1.442.485l4.506-1.964a1.007,1.007,0,0,0,.253-.148,1.106,1.106,0,0,0,.365-1.233l-1.226-3.67-.3-.894a19.864,19.864,0,0,0,1.96-2,20.141,20.141,0,0,0,2.148-3.057,1.1,1.1,0,0,1,1.142-.549l4.3.708a1.145,1.145,0,0,0,1.295-.851l.93-3.668.264-1.052a1.159,1.159,0,0,0-.716-1.374l-3.9-1.457a1.1,1.1,0,0,1-.737-1.072,19.942,19.942,0,0,0-.362-4.234,3.47,3.47,0,0,0-.065-.352.6.6,0,0,1-.018-.119,1.132,1.132,0,0,1,.576-1.114l4.278-2.439a.8.8,0,0,0,.137-.091,1.149,1.149,0,0,0,.345-1.347l-1.951-4.494a1.144,1.144,0,0,0-1.411-.628l-5.122,1.721a1.106,1.106,0,0,1-1.207-.335,20.169,20.169,0,0,0-2.183-2.162q-.634-.539-1.3-1.014a1.165,1.165,0,0,1-.469-1.133l.836-5.137a1.111,1.111,0,0,0-.823-1.257l-4.749-1.2a1.161,1.161,0,0,0-1.377.721l-1.378,3.7a1.141,1.141,0,0,1-1.2.739,19.95,19.95,0,0,0-6.151.208,1.135,1.135,0,0,1-1.212-.557l-2.2-3.857a1.173,1.173,0,0,0-1.48-.494l-4.478,1.943a1.12,1.12,0,0,0-.618,1.389l.069.215,1.427,4.264a1.144,1.144,0,0,1-.363,1.256l0,0a19.8,19.8,0,0,0-2.508,2.468c-.414.487-.795.987-1.158,1.5a1.125,1.125,0,0,1-1.109.474l-4.37-.718a1.164,1.164,0,0,0-1.318.86l-1.194,4.729a1.242,1.242,0,0,0-.028.4,1.158,1.158,0,0,0,.735.952l3.121,1.155a1.156,1.156,0,0,1,.724.876,1.22,1.22,0,0,1,.01.32,19.879,19.879,0,0,0,.649,7.84,1.119,1.119,0,0,1-.362,1.176,1.094,1.094,0,0,1-.16.11l-3.466,1.972a1.139,1.139,0,0,0-.481,1.438l.045.105,1.9,4.382A1.16,1.16,0,0,0,501.248,149.874Zm29.135-21.21a13.334,13.334,0,0,1,1.183,2.178,10.463,10.463,0,0,1,.458,5.682c-.042.172-.089.341-.135.508-2.963,10.2-16.264,11.155-20.605,1.3a10.852,10.852,0,0,1-.656-4.9,7.037,7.037,0,0,1,.182-1.033,12.287,12.287,0,0,1,1.692-3.823A10.732,10.732,0,0,1,530.382,128.664Z" transform="translate(-497.099 -109.638)" fill="#b9ddfc"/>
      </g>
      <g id="Grupo_128281" data-name="Grupo 128281" transform="translate(92.467 78.293)">
        <g id="Grupo_128264" data-name="Grupo 128264">
          <g id="Grupo_128253" data-name="Grupo 128253" transform="translate(114.101 73.643)">
            <path id="Trazado_188358" data-name="Trazado 188358" d="M387.782,290.714,376.2,428.442s-1.214,8.349,5,8.363c10.211.024,50.822,0,50.822,0s-7.685-1.738-7.591-5.649c.11-4.609,13.538-141.746,13.538-141.746Z" transform="translate(-376.103 -289.41)" fill="#fcce57"/>
          </g>
          <g id="Grupo_128254" data-name="Grupo 128254" transform="translate(117.439 71.144)">
            <path id="Trazado_188359" data-name="Trazado 188359" d="M436.3,434.013c-2.008.005-41.325.072-51.269-.055-4.334-.054-5.093-3.853-5.129-6.312a12.252,12.252,0,0,1,.132-2.05l.3-3.58.768-9.125.678-8.061.872-10.358.734-8.743,8.23-97.866,50.182-1.3s-5.656,57.392-9.657,99.168c-.447,4.655-.872,9.118-1.264,13.284q-.192,2-.37,3.9c-.37,3.953-.709,7.582-1,10.786-.155,1.69-.3,3.259-.429,4.7-.511,5.634-.81,9.232-.814,9.915a5.8,5.8,0,0,0,.1,1.115C429.188,433.814,435.551,434.013,436.3,434.013Z" transform="translate(-379.905 -286.563)" fill="#cc8f20"/>
          </g>
          <g id="Grupo_128255" data-name="Grupo 128255" transform="translate(3.911 0)">
            <path id="Trazado_188360" data-name="Trazado 188360" d="M250.571,205.514l28.215,113.333,3.863,15.521,13.141,52.787H539.931L491.495,205.514Z" transform="translate(-250.571 -205.514)" fill="#ffb30b"/>
          </g>
          <g id="Grupo_128256" data-name="Grupo 128256">
            <path id="Trazado_188361" data-name="Trazado 188361" d="M250.026,205.514l-3.91,1.3L290.047,391.1l5.2-3.942Z" transform="translate(-246.116 -205.514)" fill="#cc8f20"/>
          </g>
          <g id="Grupo_128257" data-name="Grupo 128257" transform="translate(43.931 181.643)">
            <path id="Trazado_188362" data-name="Trazado 188362" d="M296.164,416.388H538.8l6.7-3.942H301.363Z" transform="translate(-296.164 -412.445)" fill="#cc8f20"/>
          </g>
          <g id="Grupo_128258" data-name="Grupo 128258" transform="translate(129.138 218.594)">
            <rect id="Rectángulo_41004" data-name="Rectángulo 41004" width="52.535" height="2.496" transform="translate(52.535 2.496) rotate(180)" fill="#fcce57"/>
          </g>
          <g id="Grupo_128259" data-name="Grupo 128259" transform="translate(118.641 185.584)">
            <path id="Trazado_188363" data-name="Trazado 188363" d="M430.952,416.935l-.271,1.908-49.406,9.981.678-8.061.323-3.829Z" transform="translate(-381.275 -416.935)" fill="#cc8f20"/>
          </g>
          <g id="Grupo_128260" data-name="Grupo 128260" transform="translate(117.44 202.976)">
            <path id="Trazado_188364" data-name="Trazado 188364" d="M436.3,452.367c-2.008.005-41.325.072-51.269-.055-4.334-.054-5.093-3.853-5.129-6.312l49.173-9.251c-.511,5.634-.81,9.232-.814,9.916a5.794,5.794,0,0,0,.1,1.115C429.188,452.168,435.551,452.367,436.3,452.367Z" transform="translate(-379.907 -436.749)" fill="#cc8f20"/>
          </g>
          <g id="Grupo_128261" data-name="Grupo 128261" transform="translate(3.91)">
            <path id="Trazado_188365" data-name="Trazado 188365" d="M250.571,205.514H491.495L530.585,351.5H286.913Z" transform="translate(-250.571 -205.514)" fill="#ffb30b"/>
          </g>
          <g id="Grupo_128262" data-name="Grupo 128262" transform="translate(13.889 7.82)">
            <path id="Trazado_188366" data-name="Trazado 188366" d="M520.611,346.259H295.033l-8.061-32.112-3.119-12.425-1.272-5.067-8.285-33-.429-1.718-4.38-17.444-1.959-7.8-1.671-6.658-3.918-15.607H484.266l4.3,15.607,1.834,6.658,2.152,7.8,14.175,51.42v0l1.2,4.356.559,2.023,9.787,35.5Z" transform="translate(-261.939 -214.423)" fill="#084a93"/>
          </g>
          <g id="Grupo_128263" data-name="Grupo 128263" transform="translate(40.253 145.983)">
            <path id="Trazado_188367" data-name="Trazado 188367" d="M383.506,371.821l-82.574,36.085-8.96-36.085Z" transform="translate(-291.973 -371.821)" fill="#ffb30b"/>
          </g>
        </g>
        <g id="Grupo_128280" data-name="Grupo 128280" transform="translate(97.073 23.431)">
          <g id="Grupo_128269" data-name="Grupo 128269" transform="translate(15.43)">
            <g id="Grupo_128266" data-name="Grupo 128266" transform="translate(0.077 0.076)">
              <g id="Grupo_128265" data-name="Grupo 128265">
                <path id="Trazado_188368" data-name="Trazado 188368" d="M413.8,299.141c-18.43,0-35.91-14.993-38.967-33.424s9.45-33.424,27.88-33.424,35.91,14.994,38.967,33.424S432.228,299.141,413.8,299.141Zm-10.131-61.085c-15.252,0-25.6,12.408-23.074,27.661s17,27.661,32.248,27.661,25.6-12.409,23.074-27.661S418.92,238.057,403.667,238.057Z" transform="translate(-374.371 -232.294)" fill="#ffb30b"/>
              </g>
            </g>
            <g id="Grupo_128268" data-name="Grupo 128268">
              <g id="Grupo_128267" data-name="Grupo 128267">
                <path id="Trazado_188369" data-name="Trazado 188369" d="M413.8,299.207c-18.472,0-35.992-15.028-39.056-33.5s9.472-33.5,27.943-33.5c10.035,0,20.194,4.443,27.871,12.19a40.027,40.027,0,0,1,11.186,21.31,2.442,2.442,0,0,1-2.467,2.958,3.632,3.632,0,0,1-3.448-2.958,33.892,33.892,0,0,0-32.16-27.584c-15.21,0-25.532,12.374-23.01,27.584s16.948,27.585,32.16,27.585a3.634,3.634,0,0,1,3.448,2.958A2.441,2.441,0,0,1,413.8,299.207Z" transform="translate(-374.283 -232.207)" fill="#ffb30b"/>
              </g>
            </g>
          </g>
          <g id="Grupo_128277" data-name="Grupo 128277" transform="translate(0 89.493)">
            <g id="Grupo_128270" data-name="Grupo 128270" transform="translate(0 0)">
              <path id="Trazado_188370" data-name="Trazado 188370" d="M475.067,337.33l.53,3.2a2.623,2.623,0,0,1-2.645,3.17H360.974a3.905,3.905,0,0,1-3.7-3.17l-.53-3.2a2.623,2.623,0,0,1,2.644-3.17H471.371A3.907,3.907,0,0,1,475.067,337.33Z" transform="translate(-356.705 -334.16)" fill="#e3efff"/>
            </g>
            <g id="Grupo_128276" data-name="Grupo 128276">
              <g id="Grupo_128271" data-name="Grupo 128271" transform="translate(0 0)">
                <path id="Trazado_188371" data-name="Trazado 188371" d="M438.892,334.16l1.582,9.536h-79.5a3.905,3.905,0,0,1-3.7-3.17l-.53-3.2a2.623,2.623,0,0,1,2.644-3.17Z" transform="translate(-356.705 -334.16)" fill="#ffb30b"/>
              </g>
              <g id="Grupo_128272" data-name="Grupo 128272" transform="translate(42.016)">
                <path id="Trazado_188372" data-name="Trazado 188372" d="M428.243,334.16l-7.215,9.537H404.57l7.215-9.537Z" transform="translate(-404.57 -334.16)" fill="#ffb30b"/>
              </g>
              <g id="Grupo_128273" data-name="Grupo 128273" transform="translate(68.515)">
                <path id="Trazado_188373" data-name="Trazado 188373" d="M448.431,334.16l1.582,9.537H434.759l7.215-9.537Z" transform="translate(-434.759 -334.16)" fill="#ffb30b"/>
              </g>
              <g id="Grupo_128274" data-name="Grupo 128274" transform="translate(15.517)">
                <path id="Trazado_188374" data-name="Trazado 188374" d="M398.054,334.16,390.84,343.7H374.382l7.215-9.537Z" transform="translate(-374.382 -334.16)" fill="#ffb30b"/>
              </g>
              <g id="Grupo_128275" data-name="Grupo 128275" transform="translate(0 0)">
                <path id="Trazado_188375" data-name="Trazado 188375" d="M369.4,334.16l-7.215,9.536h-1.207a3.905,3.905,0,0,1-3.7-3.17l-.53-3.2a2.623,2.623,0,0,1,2.644-3.17Z" transform="translate(-356.705 -334.16)" fill="#ffb30b"/>
              </g>
            </g>
          </g>
          <g id="Grupo_128278" data-name="Grupo 128278" transform="translate(30.377 26.939)">
            <path id="Trazado_188376" data-name="Trazado 188376" d="M397.87,265.054h-6.241l-.318-1.915h8.723l.274,1.649-3.817,10.763h-2.447Z" transform="translate(-391.311 -262.927)" fill="#e3efff"/>
            <path id="Trazado_188377" data-name="Trazado 188377" d="M404.142,269.315c-.588-3.546,1.1-6.418,4.361-6.418,3.245,0,5.861,2.837,6.454,6.418.588,3.546-1.1,6.418-4.361,6.418S404.736,272.9,404.142,269.315Zm8.564,0c-.405-2.447-2-4.45-3.911-4.45s-2.815,1.95-2.4,4.45c.406,2.447,1.979,4.451,3.912,4.451S413.117,271.8,412.706,269.315Z" transform="translate(-392.865 -262.897)" fill="#e3efff"/>
            <path id="Trazado_188378" data-name="Trazado 188378" d="M417.994,266.151c-.285-1.72.661-3.174,2.417-3.174a3.649,3.649,0,0,1,3.434,3.174c.285,1.72-.661,3.174-2.417,3.174A3.648,3.648,0,0,1,417.994,266.151Zm4.272,0a1.971,1.971,0,0,0-1.664-1.808c-.834,0-1.195.815-1.03,1.808a1.958,1.958,0,0,0,1.665,1.809C422.07,267.96,422.431,267.144,422.266,266.151Zm5.562-3.032h1.755l-7.019,12.412h-1.756Zm-1.282,9.38c-.285-1.721.661-3.174,2.417-3.174A3.647,3.647,0,0,1,432.4,272.5c.285,1.72-.661,3.173-2.417,3.173A3.648,3.648,0,0,1,426.546,272.5Zm4.273,0a1.972,1.972,0,0,0-1.665-1.809c-.834,0-1.195.815-1.03,1.809a1.957,1.957,0,0,0,1.665,1.808C430.623,274.307,430.984,273.492,430.819,272.5Z" transform="translate(-394.566 -262.907)" fill="#e3efff"/>
          </g>
          <g id="Grupo_128279" data-name="Grupo 128279" transform="translate(46.253 81.792)">
            <path id="Trazado_188379" data-name="Trazado 188379" d="M409.4,325.573h.672l.533,3.214h2.011l.1.612h-2.683Z" transform="translate(-409.397 -325.409)" fill="#e3efff"/>
            <path id="Trazado_188380" data-name="Trazado 188380" d="M413.369,328.083a1.246,1.246,0,0,1,1.29-1.508,1.836,1.836,0,0,1,1.786,1.508,1.247,1.247,0,0,1-1.3,1.5A1.833,1.833,0,0,1,413.369,328.083Zm2.415,0a1.094,1.094,0,0,0-1.039-.929.722.722,0,0,0-.715.929,1.1,1.1,0,0,0,1.034.93A.725.725,0,0,0,415.784,328.083Z" transform="translate(-409.88 -325.531)" fill="#e3efff"/>
            <path id="Trazado_188381" data-name="Trazado 188381" d="M419.625,329.523l-.059-.356a.975.975,0,0,1-.865.415,1.126,1.126,0,0,1-1.177-.9c-.106-.64.341-.945,1.012-.945a2.615,2.615,0,0,1,.818.12l-.009-.054a.729.729,0,0,0-.813-.618,1.8,1.8,0,0,0-.8.181l-.269-.53a2.225,2.225,0,0,1,1.059-.241,1.349,1.349,0,0,1,1.47,1.218l.284,1.711Zm-.184-1.208a2.044,2.044,0,0,0-.68-.115c-.415,0-.633.169-.585.459a.58.58,0,0,0,.628.427c.437,0,.725-.246.665-.607Z" transform="translate(-410.383 -325.534)" fill="#e3efff"/>
            <path id="Trazado_188382" data-name="Trazado 188382" d="M421.123,327.927a1.144,1.144,0,0,1,1.09-1.5,1.442,1.442,0,0,1,1.068.508l-.258-1.552h.662l.661,3.99h-.661l-.08-.481a.947.947,0,0,1-.894.541A1.7,1.7,0,0,1,421.123,327.927Zm2.333,0a1.062,1.062,0,0,0-.989-.923c-.453,0-.772.349-.676.934a1.054,1.054,0,0,0,.984.924A.724.724,0,0,0,423.456,327.927Z" transform="translate(-410.827 -325.386)" fill="#e3efff"/>
            <path id="Trazado_188383" data-name="Trazado 188383" d="M425,325.423h.711l.1.628h-.711Zm.205,1.071h.661l.479,2.886h-.661Z" transform="translate(-411.304 -325.391)" fill="#e3efff"/>
            <path id="Trazado_188384" data-name="Trazado 188384" d="M426.975,326.635h.661l.075.449a.852.852,0,0,1,.817-.508,1.207,1.207,0,0,1,1.211,1.11l.3,1.836h-.661l-.272-1.64a.736.736,0,0,0-.735-.7c-.383,0-.606.268-.531.716l.269,1.628h-.661Z" transform="translate(-411.545 -325.531)" fill="#e3efff"/>
            <path id="Trazado_188385" data-name="Trazado 188385" d="M431.4,330.062l.163-.5a2.137,2.137,0,0,0,1.078.306c.591,0,.862-.306.766-.885l-.038-.225a1,1,0,0,1-.928.53,1.592,1.592,0,0,1-1.538-1.361,1.078,1.078,0,0,1,1.087-1.355,1.494,1.494,0,0,1,1.093.492l-.071-.432h.661l.38,2.3a1.313,1.313,0,0,1-.185,1.087,1.4,1.4,0,0,1-1.122.389A2.793,2.793,0,0,1,431.4,330.062Zm1.838-2.131a.988.988,0,0,0-.98-.8.648.648,0,0,0-.687.8.963.963,0,0,0,.952.8A.671.671,0,0,0,433.242,327.93Z" transform="translate(-412.023 -325.531)" fill="#e3efff"/>
          </g>
        </g>
      </g>
      <g id="Grupo_128307" data-name="Grupo 128307" transform="translate(0 155.827)">
        <g id="Grupo_128302" data-name="Grupo 128302">
          <g id="Grupo_128282" data-name="Grupo 128282" transform="translate(59.587)">
            <path id="Trazado_188386" data-name="Trazado 188386" d="M230.7,300s.565-6.154-6.311-6.154a8.081,8.081,0,0,1,3.162,1.7s-4.386-2.575-9.159,1.382-1.807,13.88-3.259,15.763-7.1,2.261-6.412,8.353,17.938,13.722,16.831,18.762c0,0,6.759-9.937,1.926-14.47a8.954,8.954,0,0,1,2.6,4.856s.639-5.149-2.638-6.8c-2.9-1.457-5.276-6.788-5.024-7.741S230.7,300,230.7,300Z" transform="translate(-208.659 -293.843)" fill="#2a3967"/>
          </g>
          <g id="Grupo_128283" data-name="Grupo 128283" transform="translate(67.57 35.704)">
            <path id="Trazado_188387" data-name="Trazado 188387" d="M225.039,334.518s5.138,21.253,10.181,25.5c3.031,2.553,12.043,8.415,12.043,8.415l-3.748,1.36s-12.5-4.221-15.3-7.512S217.753,342.5,217.753,342.5Z" transform="translate(-217.753 -334.518)" fill="#ffae73"/>
          </g>
          <g id="Grupo_128284" data-name="Grupo 128284" transform="translate(73.015 69.094)">
            <path id="Trazado_188388" data-name="Trazado 188388" d="M255.3,380.85l-1.208-2.99a8.48,8.48,0,0,0-7.862-5.3H223.956v74.463h92.128V386.688H263.95A9.331,9.331,0,0,1,255.3,380.85Z" transform="translate(-223.956 -372.556)" fill="#084a92"/>
          </g>
          <g id="Grupo_128285" data-name="Grupo 128285" transform="translate(23.37 52.952)">
            <path id="Trazado_188389" data-name="Trazado 188389" d="M170.6,374.257c.045.081.093.166.141.25,1.124,1.953,3.7,6.741,6.543,11.98,1.344,2.486,2.751,5.074,4.085,7.509,2.3,4.2,4.392,7.944,5.612,9.922,1.241,2.01,2.155,3.424,2.525,3.989l0,0a.94.94,0,0,1,.12.583,30.387,30.387,0,0,0,.081,5.269,40.421,40.421,0,0,0,13.207,26.18l3.418.5s-4.837-17.917-6.261-28.046a19.468,19.468,0,0,1-.262-4.016,41.945,41.945,0,0,0-1.1-10.962,245.5,245.5,0,0,0-6.988-25.375c-.16-.5-4.966-17.881-4.966-17.881-4.033,3.525-18.747,4.981-18.747,4.981S165.517,365.213,170.6,374.257Z" transform="translate(-167.4 -354.167)" fill="#084a92"/>
          </g>
          <g id="Grupo_128286" data-name="Grupo 128286" transform="translate(55.14 135.62)">
            <path id="Trazado_188390" data-name="Trazado 188390" d="M217.934,456.281H203.671a7.829,7.829,0,0,1,.4-3.824c.714-1.582,1.731-1.633.13-4.113.906.933,3.82,1.319,5.882,1.042.253.41,1.629,3.157,2.473,3.764C213.491,453.82,217.647,453.581,217.934,456.281Z" transform="translate(-203.593 -448.344)" fill="#1e3865"/>
          </g>
          <g id="Grupo_128287" data-name="Grupo 128287" transform="translate(26.573 64.632)">
            <path id="Trazado_188391" data-name="Trazado 188391" d="M171.049,375.883c.045.082.093.166.141.25,1.124,1.953,7.2,13.183,10.044,18.422-3.291-13.542-1-27.083-1-27.083Z" transform="translate(-171.049 -367.473)" fill="#1e3865"/>
          </g>
          <g id="Grupo_128288" data-name="Grupo 128288" transform="translate(68.557 5.189)">
            <path id="Trazado_188392" data-name="Trazado 188392" d="M230,299.854c.093-.375-8.147,3.724-8.564,4.188-3.865,4.286-2.763,9.88-.552,9.934,1.418.034,1.144,2.392,1.144,2.392l15.8-6.684S235.925,298.593,230,299.854Z" transform="translate(-218.878 -299.754)" fill="#2a3967"/>
          </g>
          <g id="Grupo_128289" data-name="Grupo 128289" transform="translate(66.057 32.512)">
            <path id="Trazado_188393" data-name="Trazado 188393" d="M224.344,330.882s2.4,4.8,2.1,8.7c0,0-2.9,4.577-10.418,5.736C216.03,345.317,222.494,330.878,224.344,330.882Z" transform="translate(-216.03 -330.882)" fill="#00defc"/>
          </g>
          <g id="Grupo_128290" data-name="Grupo 128290" transform="translate(1.891 49.975)">
            <path id="Trazado_188394" data-name="Trazado 188394" d="M178.732,359.8l.048-2.668c-5.315.671-18.327-6.351-18.327-6.351s-5.56,3.7-6.322,14.26c-.371,5.155-2.722,26.957-2.982,33.468-.095,2.36-.126,4.043-.137,4.716a.024.024,0,0,1,0,.006.929.929,0,0,1-.226.549,30.418,30.418,0,0,0-2.88,4.414c-8.111,15.09-3.869,35.594-3.869,35.594l1.883-.479s6.858-21.256,11.34-30.45a19.306,19.306,0,0,1,2.029-3.475,41.9,41.9,0,0,0,5.214-9.706C167.816,391.765,178.732,359.8,178.732,359.8Z" transform="translate(-142.93 -350.776)" fill="#084a92"/>
          </g>
          <g id="Grupo_128291" data-name="Grupo 128291" transform="translate(0 135.517)">
            <path id="Trazado_188395" data-name="Trazado 188395" d="M155.117,456.267H140.854a7.841,7.841,0,0,1,.4-3.824c.715-1.582,1.832-2.3,1.565-4.216a5.135,5.135,0,0,0,4.445,1.7,15.636,15.636,0,0,0,2.475,3.208C150.674,453.805,154.83,453.567,155.117,456.267Z" transform="translate(-140.776 -448.227)" fill="#1e3865"/>
          </g>
          <g id="Grupo_128292" data-name="Grupo 128292" transform="translate(18.848 24.428)">
            <path id="Trazado_188396" data-name="Trazado 188396" d="M208.494,347.254c-1.915.326.313,1.849-2.322,2.135-3.751.41-7.623.69-9.651,1.5a2.178,2.178,0,0,0-1.39,1.125c-.88,2.644-6.447,7.186-6.447,7.186-24.837-1.13-26.436-12.2-26.436-12.2,16.119-15.655,29.833-24.188,41.166-25.245,2.759-.257,6.476.089,8.22.865,3.964,1.765,6.137,7.136,6.137,7.136S215.774,346.012,208.494,347.254Z" transform="translate(-162.248 -321.672)" fill="#00defc"/>
          </g>
          <g id="Grupo_128293" data-name="Grupo 128293" transform="translate(51.386 31.94)">
            <path id="Trazado_188397" data-name="Trazado 188397" d="M210.7,350.436c-3.751.41-7.623.69-9.651,1.5-5.864-11.687,5.017-21.7,5.017-21.7S209.881,345.748,210.7,350.436Z" transform="translate(-199.316 -330.23)" fill="#1cb1c9"/>
          </g>
          <g id="Grupo_128294" data-name="Grupo 128294" transform="translate(54.55 29.833)">
            <path id="Trazado_188398" data-name="Trazado 188398" d="M214.379,327.84s-9.432-.515-11.108,5.406,3.144,29.557,4.183,32c1.892,4.441,11.427,17.669,11.427,17.669l3.056-1.584s-6.138-19.365-7.509-21.281C212.276,357.041,217.2,330.417,214.379,327.84Z" transform="translate(-202.921 -327.829)" fill="#ffae73"/>
          </g>
          <g id="Grupo_128295" data-name="Grupo 128295" transform="translate(70.099 82.921)">
            <path id="Trazado_188399" data-name="Trazado 188399" d="M224.1,388.721a13.911,13.911,0,0,1,1.423,1.461c.635.776.076,1.055,1.9,4.565,0,0-.093.487-.489.4s-1.77-1.45-2.476-1.352c0,0-.5.415-.559,1.791a33.221,33.221,0,0,1-.279,4.668c-.225.535-1.861-2.242-2.667-4.249-.707-1.759-.018-7.695-.018-7.695Z" transform="translate(-220.635 -388.308)" fill="#fdae73"/>
          </g>
          <g id="Grupo_128296" data-name="Grupo 128296" transform="translate(53.041 28.084)">
            <path id="Trazado_188400" data-name="Trazado 188400" d="M201.2,340.922c.025.139,8.925,1.637,14.492-1.189,0,0,4.65-14.57-2-13.873s-10.582,2.791-10.749,5.973A61.259,61.259,0,0,1,201.2,340.922Z" transform="translate(-201.201 -325.836)" fill="#00defc"/>
          </g>
          <g id="Grupo_128297" data-name="Grupo 128297" transform="translate(68.012 20.711)">
            <path id="Trazado_188401" data-name="Trazado 188401" d="M218.268,323.124a5.924,5.924,0,0,0,1.79,4.149c1.182,1.218,2.891,2.167,4.091.967A13,13,0,0,0,226,326c1.037-1.783,2.273-3.6,2.273-3.6l-5.339-4.677-.319-.28a13.586,13.586,0,0,1-3.976,4.513A1.239,1.239,0,0,0,218.268,323.124Z" transform="translate(-218.257 -317.438)" fill="#ffae73"/>
          </g>
          <g id="Grupo_128298" data-name="Grupo 128298" transform="translate(72.595 20.991)">
            <path id="Trazado_188402" data-name="Trazado 188402" d="M228.914,322.436s-1.234,1.818-2.271,3.6c-3.318-2.046-3.322-6.153-3.066-8.281Z" transform="translate(-223.478 -317.757)" fill="#f99352"/>
          </g>
          <g id="Grupo_128299" data-name="Grupo 128299" transform="translate(72.374 11.452)">
            <path id="Trazado_188403" data-name="Trazado 188403" d="M229.032,323.451s-8.056-4.484-5.188-9.457,3.761-8.9,9.026-6.251,5.161,5.121,4.607,7.014S231.2,324.489,229.032,323.451Z" transform="translate(-223.226 -306.889)" fill="#ffae73"/>
          </g>
          <g id="Grupo_128300" data-name="Grupo 128300" transform="translate(71.528 10.778)">
            <path id="Trazado_188404" data-name="Trazado 188404" d="M238.721,311.763c-.369-2.209-1.491-2.419-2.273-2.272a6.443,6.443,0,0,0-7.836-3,10.969,10.969,0,0,1-6.35,3.814s.935,1.74,4.787,2.816a6.579,6.579,0,0,0,3.8-.3,21.5,21.5,0,0,1-5.467,2.061c5.075.464,9.906-4.176,10.406-4.672a7.225,7.225,0,0,1,.4,3.326c-.335,1.5-1.663,4.2-.851,4.556C235.336,318.087,239.274,315.075,238.721,311.763Z" transform="translate(-222.262 -306.121)" fill="#2a3967"/>
          </g>
          <g id="Grupo_128301" data-name="Grupo 128301" transform="translate(97.368 69.477)">
            <path id="Trazado_188405" data-name="Trazado 188405" d="M252.886,373.146s-2.248,1.686-.554,2.789,4.719,1.4,4.731.677C257.105,374.183,255.895,372.458,252.886,373.146Z" transform="translate(-251.7 -372.993)" fill="#ffae73"/>
          </g>
        </g>
        <g id="Grupo_128303" data-name="Grupo 128303" transform="translate(88.914 92.677)">
          <path id="Trazado_188406" data-name="Trazado 188406" d="M250.306,428.138h47.6c1.962,0,3.474-3,3.5-5.124.077-6.669-7.079-17.325-23.3-12.607,0,0-4.579-12.358-20.666-10.858-9.446.88-14.71,10.517-15.344,19.108C241.717,423.784,245.551,428.138,250.306,428.138Z" transform="translate(-242.069 -399.422)" fill="#e7f3fe"/>
        </g>
        <g id="Grupo_128306" data-name="Grupo 128306" transform="translate(107.142 104.841)">
          <g id="Grupo_128304" data-name="Grupo 128304" transform="translate(6.832 6.478)">
            <rect id="Rectángulo_41005" data-name="Rectángulo 41005" width="9.22" height="21.181" transform="translate(9.22 21.181) rotate(180)" fill="#ffb30b"/>
          </g>
          <g id="Grupo_128305" data-name="Grupo 128305">
            <path id="Trazado_188407" data-name="Trazado 188407" d="M285.718,424.036H262.835l11.442-10.755Z" transform="translate(-262.835 -413.28)" fill="#ffb30b"/>
          </g>
        </g>
      </g>
      <g id="Grupo_128310" data-name="Grupo 128310" transform="translate(311.488 161.184)">
        <g id="Grupo_128308" data-name="Grupo 128308">
          <path id="Trazado_188408" data-name="Trazado 188408" d="M518.106,311.047l-12.03,2.764-5.976,10.8-4.47-24.666Z" transform="translate(-495.631 -299.946)" fill="#1e3865"/>
        </g>
        <g id="Grupo_128309" data-name="Grupo 128309" transform="translate(8.04 11.489)">
          <rect id="Rectángulo_41006" data-name="Rectángulo 41006" width="2.198" height="12.715" transform="matrix(0.799, -0.602, 0.602, 0.799, 0, 1.322)" fill="#1e3865"/>
        </g>
      </g>
      <g id="Grupo_128336" data-name="Grupo 128336" transform="translate(110.086 0)">
        <g id="Grupo_128331" data-name="Grupo 128331">
          <g id="Grupo_128311" data-name="Grupo 128311" transform="translate(36.045 97.872)">
            <path id="Trazado_188409" data-name="Trazado 188409" d="M307.614,240.433a1.4,1.4,0,0,0-.25,1.5l0,.008a9.336,9.336,0,0,0,2.953,3.239c.177.144.336.274.474.4.036.032.072.063.106.1l.082.074c1.3,1.2.809,1.47,3.142,3.9,2.659,2.767,4.489,2.816,5.01,2.564.441-.215-.454-1.682-1.446-3.331-.048-.079-.1-.16-.145-.241-.133-.219-.263-.441-.394-.662-1.162-1.985-.864-2.916-.589-5.87.225-2.4,3.734-13.409,3.734-13.409l-5.095-.878s-1.534,8.767-3.225,10.117c-.9.72-1.916.729-2.785,1.262-.061.037-.121.076-.181.114A6.7,6.7,0,0,0,307.614,240.433Z" transform="translate(-307.252 -227.819)" fill="#ffae73"/>
          </g>
          <g id="Grupo_128312" data-name="Grupo 128312" transform="translate(36.045 109.365)">
            <path id="Trazado_188410" data-name="Trazado 188410" d="M307.614,242.033a1.4,1.4,0,0,0-.25,1.5l0,.008a10.825,10.825,0,0,0,2.957,3.228c.177.147.331.28.47.406.036.032.072.063.106.1l.082.074c1.3,1.2.809,1.47,3.142,3.9,2.659,2.767,4.489,2.816,5.01,2.564.441-.215-.454-1.682-1.446-3.331a11.326,11.326,0,0,1-4.74-3.492c-1.542-1.969-2.59-4.478-3.639-6.018l-.3-.056A6.7,6.7,0,0,0,307.614,242.033Z" transform="translate(-307.252 -240.912)" fill="#1e3865"/>
          </g>
          <g id="Grupo_128313" data-name="Grupo 128313" transform="translate(73.416 96.322)">
            <path id="Trazado_188411" data-name="Trazado 188411" d="M353.9,237.034c.314,1.573,2.556,1.311,5.061.7s1.91.115,5.475-.279,4.644-1.724,4.753-2.254c.1-.471-1.664-.636-3.553-.853q-.357-.041-.715-.086c-2.133-.268-3.695-1.644-5.633-2.774-1.835-1.071-4.574-5.434-4.574-5.434l-4.888.387s2.566,3.9,3.558,5.591a5.9,5.9,0,0,1,.48,3.331A6.277,6.277,0,0,0,353.9,237.034Z" transform="translate(-349.826 -226.053)" fill="#ffae73"/>
          </g>
          <g id="Grupo_128314" data-name="Grupo 128314" transform="translate(77.417 104.615)">
            <path id="Trazado_188412" data-name="Trazado 188412" d="M359.519,238.887c2.505-.612,1.91.115,5.475-.279s4.644-1.724,4.753-2.254c.1-.471-1.664-.636-3.553-.853l-.018.036a10.046,10.046,0,0,1-5.1,1.587c-2.418.059-4.981-.635-6.65-.607a6.275,6.275,0,0,0,.038,1.672C354.773,239.762,357.015,239.5,359.519,238.887Z" transform="translate(-354.384 -235.501)" fill="#1e3865"/>
          </g>
          <g id="Grupo_128315" data-name="Grupo 128315" transform="translate(41.985 68.208)">
            <path id="Trazado_188413" data-name="Trazado 188413" d="M330.791,201.861l-4.571,12.3-5.966,16.057a9.668,9.668,0,0,1-3.17-.29,13.741,13.741,0,0,1-3.065-1.492s1.657-17.241,4.747-27.137a17.64,17.64,0,0,1,2.66-5.752C326.217,189.883,330.791,201.861,330.791,201.861Z" transform="translate(-314.019 -194.024)" fill="#1cb1c9"/>
          </g>
          <g id="Grupo_128316" data-name="Grupo 128316" transform="translate(9.907 54.058)">
            <path id="Trazado_188414" data-name="Trazado 188414" d="M321.678,180.361c-2.6-.839-9.389-.013-16.751,1.319a4.992,4.992,0,0,1-5.156-2.328h0L281.243,177.9s-6.114,13.558-2.767,22.2a3.249,3.249,0,0,0,3.238,2.089h0s11.2.016,14.777.016c9.214,0,19.5-6.334,20.831-6.6,2.178-.435,3.049,3.92,5.227,8.494s20.474,20.255,20.474,20.255A16.1,16.1,0,0,0,347,223.95a3.919,3.919,0,0,0,1.706-1.077S328.43,182.54,321.678,180.361Z" transform="translate(-277.475 -177.905)" fill="#00defc"/>
          </g>
          <g id="Grupo_128317" data-name="Grupo 128317" transform="translate(0.068)">
            <path id="Trazado_188415" data-name="Trazado 188415" d="M296.433,117.418a6.573,6.573,0,0,0-3.539-.921,9.762,9.762,0,0,1-1.709-.1c-7.071-1.037-11.33,9.234-11.579,12.338-.458,5.7-3.472,6.567-7.715,10.135-8.508,7.155-6.013,15.469-1.362,18.559,2.791,1.853,7.711,0,7.711,0,.069.049,13.454-7.482,20.051-11.115C308.183,144.9,300.407,119.784,296.433,117.418Z" transform="translate(-266.267 -116.321)" fill="#1e3865"/>
          </g>
          <g id="Grupo_128318" data-name="Grupo 128318" transform="translate(17.537 16.523)">
            <path id="Trazado_188416" data-name="Trazado 188416" d="M295.194,145.519c.029.018-3.246,1.137-5.436.167-2.06-.91-3.621-4.3-3.59-4.3.937-.043,1.966-.862,2.758-6.239l.4.143,6.711,2.415s-.486,2.153-.8,4.2C294.97,143.626,294.828,145.275,295.194,145.519Z" transform="translate(-286.167 -135.144)" fill="#ffae73"/>
          </g>
          <g id="Grupo_128319" data-name="Grupo 128319" transform="translate(20.695 16.666)">
            <path id="Trazado_188417" data-name="Trazado 188417" d="M296.476,137.722s-.268,1.162-.659,3.332a7.576,7.576,0,0,1-6.051-5.747Z" transform="translate(-289.765 -135.307)" fill="#f9924f"/>
          </g>
          <g id="Grupo_128320" data-name="Grupo 128320" transform="translate(20.022 5.069)">
            <path id="Trazado_188418" data-name="Trazado 188418" d="M297.381,138.245s-9.181-1.232-8.326-6.938.247-9.707,6.145-9.161,6.708,2.893,6.885,4.866S299.792,138.418,297.381,138.245Z" transform="translate(-288.999 -122.095)" fill="#ffae73"/>
          </g>
          <g id="Grupo_128321" data-name="Grupo 128321" transform="translate(17.388 4.564)">
            <path id="Trazado_188419" data-name="Trazado 188419" d="M301.384,123.814s-5.877,5.065-9.874,5.473-5.512-.874-5.512-.874a15.607,15.607,0,0,0,3.775-5.114,2.813,2.813,0,0,1,2.317-1.657C294.944,121.4,300.356,121.283,301.384,123.814Z" transform="translate(-285.998 -121.521)" fill="#1e3865"/>
          </g>
          <g id="Grupo_128322" data-name="Grupo 128322" transform="translate(29.1 5.306)">
            <path id="Trazado_188420" data-name="Trazado 188420" d="M299.341,123.464a14.449,14.449,0,0,1,2.585,3.311,11.112,11.112,0,0,1,.3,5.908s3.063-5.957,1.329-8.851C301.717,120.763,299.341,123.464,299.341,123.464Z" transform="translate(-299.341 -122.366)" fill="#1e3865"/>
          </g>
          <g id="Grupo_128323" data-name="Grupo 128323" transform="translate(9.658 22.546)">
            <path id="Trazado_188421" data-name="Trazado 188421" d="M301.828,159.881c-.277,18.585-.075,14.7-2.108,16.465-.49.424-1.867.678-3.68.8-5.7.378-15.716-.561-16.1-1.613-1.314-3.645-.386-4.776-1.483-10.355-.114-.593-.255-1.235-.421-1.935-.915-3.831-1.8-5.135,1.44-11.291,2.941-5.577,6-10.1,6.273-9.938,7.761,4.607,8.387.735,8.387.735S301.964,150.816,301.828,159.881Z" transform="translate(-277.191 -142.006)" fill="#fcce57"/>
          </g>
          <g id="Grupo_128324" data-name="Grupo 128324" transform="translate(41.985 75.48)">
            <path id="Trazado_188422" data-name="Trazado 188422" d="M326.22,215.17l-5.966,16.057a9.667,9.667,0,0,1-3.17-.29,13.738,13.738,0,0,1-3.065-1.492s1.657-17.241,4.747-27.137Z" transform="translate(-314.019 -202.309)" fill="#00defc"/>
          </g>
          <g id="Grupo_128325" data-name="Grupo 128325" transform="translate(26.604 23.284)">
            <path id="Trazado_188423" data-name="Trazado 188423" d="M296.5,142.846s7.987,1.354,8.924,4.793,4.025,24.31,4.025,24.31-2.252,2.2-4.127.324-5.9-19.527-5.9-19.527Z" transform="translate(-296.497 -142.846)" fill="#fcce57"/>
          </g>
          <g id="Grupo_128326" data-name="Grupo 128326" transform="translate(10.926 37.975)">
            <path id="Trazado_188424" data-name="Trazado 188424" d="M296.216,179.291c-5.7.378-15.716-.561-16.1-1.613-1.314-3.645-.386-4.776-1.483-10.355l2.749-7.74s-.455,8.618,2.087,10.885,10.406,4.376,11.641,6.27A6.936,6.936,0,0,1,296.216,179.291Z" transform="translate(-278.636 -159.583)" fill="#fcce57"/>
          </g>
          <g id="Grupo_128327" data-name="Grupo 128327" transform="translate(21.977 53.188)">
            <path id="Trazado_188425" data-name="Trazado 188425" d="M291.226,177.784s5.622-1.252,6.529-.752a13.191,13.191,0,0,1,3.4,2.948c.278.633-2.019-.479-2.767-.68a6.655,6.655,0,0,0-2.388.523,7.93,7.93,0,0,1-4.279.429Z" transform="translate(-291.226 -176.914)" fill="#ffae73"/>
          </g>
          <g id="Grupo_128328" data-name="Grupo 128328" transform="translate(0 22.546)">
            <path id="Trazado_188426" data-name="Trazado 188426" d="M284.4,142.006s-7.549.465-10.162,4.11c-3.679,5.131-10.977,27-6.794,29.912,4.71,3.285,21.436.859,21.436.859s.557-2.6-.218-3.86-13.359-3.292-13.94-3.873,7.26-11.326,7.26-13.069S284.4,142.006,284.4,142.006Z" transform="translate(-266.189 -142.006)" fill="#fcce57"/>
          </g>
          <g id="Grupo_128329" data-name="Grupo 128329" transform="translate(28.778 54.87)">
            <path id="Trazado_188427" data-name="Trazado 188427" d="M298.974,178.83a10.884,10.884,0,0,0,1.564,1.7,1.148,1.148,0,0,0,.635.136l-.794-1.429Z" transform="translate(-298.974 -178.83)" fill="#ffae73"/>
          </g>
          <g id="Grupo_128330" data-name="Grupo 128330" transform="translate(28.506 53.306)">
            <path id="Trazado_188428" data-name="Trazado 188428" d="M298.664,177.048l3.425,1.663a.61.61,0,0,1-.568.219,8.18,8.18,0,0,1-1.485-.408Z" transform="translate(-298.664 -177.048)" fill="#ffae73"/>
          </g>
        </g>
        <g id="Grupo_128335" data-name="Grupo 128335" transform="translate(21.977 37.739)">
          <g id="Grupo_128332" data-name="Grupo 128332" transform="translate(0 19.476)">
            <path id="Trazado_188429" data-name="Trazado 188429" d="M327,181.5H291.226v.79h35.457Z" transform="translate(-291.226 -181.502)" fill="#1e3865"/>
          </g>
          <g id="Grupo_128333" data-name="Grupo 128333" transform="translate(8.366)">
            <path id="Trazado_188430" data-name="Trazado 188430" d="M300.756,179.58h27.092L336,159.314h-27.05Z" transform="translate(-300.756 -159.314)" fill="#1e3865"/>
          </g>
          <g id="Grupo_128334" data-name="Grupo 128334" transform="translate(25.986 8.843)">
            <path id="Trazado_188431" data-name="Trazado 188431" d="M323.463,170.678a.939.939,0,0,0-.921-1.29,1.847,1.847,0,0,0-1.659,1.29.938.938,0,0,0,.92,1.289A1.85,1.85,0,0,0,323.463,170.678Z" transform="translate(-320.83 -169.388)" fill="#fff"/>
          </g>
        </g>
      </g>
      <g id="Grupo_128351" data-name="Grupo 128351" transform="translate(391.589 109.575)">
        <g id="Grupo_128337" data-name="Grupo 128337" transform="translate(33.694 30.914)">
          <path id="Trazado_188432" data-name="Trazado 188432" d="M625.269,276.369s13.129,13.357,13.8,18.9-6.806,14.2-6.806,14.2Z" transform="translate(-625.269 -276.369)" fill="#fee4a9"/>
        </g>
        <g id="Grupo_128338" data-name="Grupo 128338" transform="translate(6.977 179.697)">
          <path id="Trazado_188433" data-name="Trazado 188433" d="M614.048,448.391s-.5,7.814-2.014,7.923c-.2.015-7.669,0-7.669,0l-9.533-.075a3.094,3.094,0,0,1,2.854-2.777c2.788-.479,7.457-2.427,9.153-6.107C608.623,443.482,614.048,448.391,614.048,448.391Z" transform="translate(-594.832 -445.866)" fill="#062646"/>
        </g>
        <g id="Grupo_128339" data-name="Grupo 128339" transform="translate(28.21 179.743)">
          <path id="Trazado_188434" data-name="Trazado 188434" d="M638.238,448.443s-.5,7.815-2.014,7.924c-.2.014-7.669,0-7.669,0l-9.533-.076a3.093,3.093,0,0,1,2.855-2.776c2.788-.479,7.457-2.428,9.153-6.107C632.814,443.535,638.238,448.443,638.238,448.443Z" transform="translate(-619.022 -445.919)" fill="#062646"/>
        </g>
        <g id="Grupo_128340" data-name="Grupo 128340" transform="translate(15.817 86.311)">
          <path id="Trazado_188435" data-name="Trazado 188435" d="M604.9,351.37s2.458,15.952,11.7,44.28,10.481,40.589,10.481,40.589l9.979-.258s.153-30.937-4.1-45.181-.814-51.321-.814-51.321Z" transform="translate(-604.903 -339.479)" fill="#0b3563"/>
        </g>
        <g id="Grupo_128341" data-name="Grupo 128341" transform="translate(10.975 87.116)">
          <path id="Trazado_188436" data-name="Trazado 188436" d="M599.4,340.4a386.981,386.981,0,0,0,3.688,53.544c4.094,29.514,2.657,42.036,2.657,42.036l9.958.353s6.015-29.5,4.341-44.276,8.259-50.658,8.259-50.658Z" transform="translate(-599.386 -340.395)" fill="#0d458e"/>
        </g>
        <g id="Grupo_128342" data-name="Grupo 128342" transform="translate(17.408 19.039)">
          <path id="Trazado_188437" data-name="Trazado 188437" d="M619.692,274.724l-5.312,3.467-7.665-1.446c.107-.619.619-3.183,1.085-5.506.028-.137.056-.274.082-.408.4-1.977.744-3.674.744-3.674l7.168-3.144,2.673-1.172c-.007.041-.211,2.194-.24,2.508A18.262,18.262,0,0,0,619.692,274.724Z" transform="translate(-606.715 -262.841)" fill="#ffae73"/>
        </g>
        <g id="Grupo_128343" data-name="Grupo 128343" transform="translate(16.304 26.719)">
          <path id="Trazado_188438" data-name="Trazado 188438" d="M608.533,274.015c.149-.063,9.24-2.724,10.227-2.4s1.566,2.239,1.566,2.239l-14.867,3.328A7.379,7.379,0,0,1,608.533,274.015Z" transform="translate(-605.458 -271.59)" fill="#cc8f20"/>
        </g>
        <g id="Grupo_128344" data-name="Grupo 128344" transform="translate(9.274 28.906)">
          <path id="Trazado_188439" data-name="Trazado 188439" d="M631.885,335.328c-1.556,7.022-27.185,7.8-33.777,1.408-.751-.729-.78-4.11-.487-8.669.573-8.907,2.383-22.3,2.467-29.15a54.222,54.222,0,0,1,1.115-9.756,79.275,79.275,0,0,1,3.276-11.673s12.527-4.02,14.867-3.327C630.624,277.5,633.441,328.307,631.885,335.328Z" transform="translate(-597.448 -274.081)" fill="#fee4a9"/>
        </g>
        <g id="Grupo_128345" data-name="Grupo 128345" transform="translate(9.447 42.674)">
          <path id="Trazado_188440" data-name="Trazado 188440" d="M597.646,329.984c.573-8.907,2.382-22.3,2.467-29.15a54.21,54.21,0,0,1,1.115-9.756l7.533-1.312S617.064,321.679,597.646,329.984Z" transform="translate(-597.646 -289.766)" fill="#fee4a9"/>
        </g>
        <g id="Grupo_128346" data-name="Grupo 128346" transform="translate(11.397 69.316)">
          <path id="Trazado_188441" data-name="Trazado 188441" d="M602.022,321.285a1.77,1.77,0,0,1-.57,2.049,3.435,3.435,0,0,0-1.536,3.13c.245.976,2.605,2.573,3.426,2.317s2.491-1.535,2.312-2.05,1.131-4.512-.863-6.056S602.022,321.285,602.022,321.285Z" transform="translate(-599.867 -320.118)" fill="#ffae73"/>
        </g>
        <g id="Grupo_128347" data-name="Grupo 128347" transform="translate(0 30.94)">
          <path id="Trazado_188442" data-name="Trazado 188442" d="M608.737,276.4s-7.143.942-13.012,9.553-9.734,15.013-8.663,18.124,10.874,13.911,12.568,13.915,4.43-1.223,4.59-3.994c0,0-6.21-11.027-4.844-12.576.584-.663,8.313-6.82,9.505-3.737C610.853,302.783,608.737,276.4,608.737,276.4Z" transform="translate(-586.884 -276.398)" fill="#fee4a9"/>
        </g>
        <g id="Grupo_128348" data-name="Grupo 128348" transform="translate(18.492 20.211)">
          <path id="Trazado_188443" data-name="Trazado 188443" d="M617.841,265.609c-1.578,2.661-7.445,4.952-9.89,5.793.028-.137.056-.274.083-.408.4-1.977.744-3.674.744-3.674l7.168-3.144C617.53,264.158,618.493,264.515,617.841,265.609Z" transform="translate(-607.951 -264.175)" fill="#ffa05e"/>
        </g>
        <g id="Grupo_128349" data-name="Grupo 128349" transform="translate(15.188 3.941)">
          <path id="Trazado_188444" data-name="Trazado 188444" d="M605.619,264.614s11.529,3.624,13.675-3.591,5.079-11.6-2.191-14.223-9.525-.293-10.827,1.94S602.675,263.485,605.619,264.614Z" transform="translate(-604.187 -245.64)" fill="#ffae73"/>
        </g>
        <g id="Grupo_128350" data-name="Grupo 128350" transform="translate(16.653)">
          <path id="Trazado_188445" data-name="Trazado 188445" d="M606.934,247.5s.718,8.4,2.456,8.041,3.314-.628,3.054,1.9-2.675,5.45,2.677,5.91S628.2,250.021,626.735,247.4C622.508,239.852,600.821,238.282,606.934,247.5Z" transform="translate(-605.856 -241.151)" fill="#0b3563"/>
        </g>
      </g>
    </g>
  </g>
</svg>
