<svg xmlns="http://www.w3.org/2000/svg" width="85" height="85" viewBox="0 0 85 85">
  <g id="codificacion" transform="translate(0 -0.001)">
    <g id="Grupo_146468" data-name="Grupo 146468" transform="translate(1.66 1.661)">
      <path id="Trazado_203766" data-name="Trazado 203766" d="M61.968,16.641H78.4V13.69A3.7,3.7,0,0,0,74.709,10H13.689A3.7,3.7,0,0,0,10,13.69v6.272H32.806l3.32-3.32Z" transform="translate(-10 -10.001)" fill="#ffb30b"/>
      <path id="Trazado_203767" data-name="Trazado 203767" d="M73.418,50H36.126l-3.32,3.32H10V89.474a3.7,3.7,0,0,0,3.689,3.689h9.592V62.323a3.7,3.7,0,0,1,3.689-3.689H78.4V50Z" transform="translate(-10 -43.36)" fill="#e8e8e8"/>
      <path id="Trazado_203768" data-name="Trazado 203768" d="M145.119,102.007H93.692A3.7,3.7,0,0,0,90,105.7v6.272h22.806l3.32-3.32H158.4V105.7a3.7,3.7,0,0,0-3.689-3.689Z" transform="translate(-76.721 -86.733)" fill="#ffb30b"/>
      <path id="Trazado_203769" data-name="Trazado 203769" d="M158.4,142.006H116.129l-3.32,3.32H90V181.48a3.7,3.7,0,0,0,3.689,3.689h24.865a16.6,16.6,0,1,1,33.2,0h2.951a3.7,3.7,0,0,0,3.689-3.689Z" transform="translate(-76.721 -120.091)" fill="#fff"/>
      <ellipse id="Elipse_4937" data-name="Elipse 4937" cx="17" cy="16.5" rx="17" ry="16.5" transform="translate(41.34 48.34)" fill="#00defc"/>
    </g>
    <path id="Trazado_203770" data-name="Trazado 203770" d="M79.65,15.275H71.718V5.35A5.355,5.355,0,0,0,66.369,0H5.349A5.356,5.356,0,0,0,0,5.35V47.776a5.355,5.355,0,0,0,5.349,5.349h7.932V63.05A5.355,5.355,0,0,0,18.631,68.4h4.98a1.66,1.66,0,1,0,0-3.32h-4.98A2.031,2.031,0,0,1,16.6,63.05V28.557H37.748a1.66,1.66,0,0,0,1.174-.486l2.834-2.834H81.679V63.05a2.031,2.031,0,0,1-2.029,2.029H78.283a18.261,18.261,0,0,0-36.371,0H35.061a1.66,1.66,0,1,0,0,3.32h6.852a18.261,18.261,0,0,0,36.371,0h1.367A5.355,5.355,0,0,0,85,63.05V20.625A5.356,5.356,0,0,0,79.65,15.275ZM60.1,81.681A14.941,14.941,0,1,1,75.039,66.739,14.958,14.958,0,0,1,60.1,81.681ZM5.349,49.8A2.031,2.031,0,0,1,3.32,47.776V13.282H24.466A1.66,1.66,0,0,0,25.64,12.8l2.834-2.834H53.628a1.66,1.66,0,0,0,0-3.32H27.759c-.045,0-.091,0-.136.007-.027,0-.053.008-.08.012s-.054.007-.081.012-.057.014-.085.021-.049.011-.073.019-.053.018-.08.028-.05.017-.074.027-.047.022-.07.033-.052.024-.077.037-.042.025-.063.037-.052.03-.077.047-.042.031-.064.047-.045.032-.067.05-.067.058-.1.089l-.023.021L23.778,9.962H3.32V5.35A2.031,2.031,0,0,1,5.349,3.321h61.02A2.031,2.031,0,0,1,68.4,5.35V6.641h-3.32a1.66,1.66,0,0,0,0,3.32H68.4v5.314H18.631a5.356,5.356,0,0,0-5.349,5.349V49.8H5.349ZM41.068,21.916h-.027c-.045,0-.091,0-.136.007-.027,0-.053.008-.08.012s-.054.007-.081.012-.057.014-.085.021-.049.011-.073.019-.053.018-.08.028-.05.017-.074.027-.047.022-.07.033-.052.024-.077.037-.042.025-.063.037-.052.03-.077.047-.042.031-.064.047-.045.032-.067.05-.067.058-.1.089l-.023.021L37.06,25.236H16.6V20.625A2.032,2.032,0,0,1,18.631,18.6H79.651a2.032,2.032,0,0,1,2.029,2.029v1.291H41.068Z"/>
    <path id="Trazado_203771" data-name="Trazado 203771" d="M173.895,392h-.045a1.66,1.66,0,1,0,0,3.32h.045a1.66,1.66,0,1,0,0-3.32Z" transform="translate(-143.604 -326.924)"/>
    <path id="Trazado_203772" data-name="Trazado 203772" d="M116.207,122.007h-.045a1.66,1.66,0,1,0,0,3.32h.045a1.66,1.66,0,1,0,0-3.32Z" transform="translate(-95.493 -101.751)"/>
    <path id="Trazado_203773" data-name="Trazado 203773" d="M156.207,122.007h-.045a1.66,1.66,0,0,0,0,3.32h.045a1.66,1.66,0,0,0,0-3.32Z" transform="translate(-128.852 -101.751)"/>
    <path id="Trazado_203774" data-name="Trazado 203774" d="M196.208,122.007h-.045a1.66,1.66,0,0,0,0,3.32h.045a1.66,1.66,0,0,0,0-3.32Z" transform="translate(-162.213 -101.751)"/>
    <path id="Trazado_203775" data-name="Trazado 203775" d="M36.2,30H36.16a1.66,1.66,0,1,0,0,3.32H36.2a1.66,1.66,0,0,0,0-3.32Z" transform="translate(-28.772 -25.02)"/>
    <path id="Trazado_203776" data-name="Trazado 203776" d="M76.206,30h-.045a1.66,1.66,0,1,0,0,3.32h.045a1.66,1.66,0,1,0,0-3.32Z" transform="translate(-62.133 -25.02)"/>
    <path id="Trazado_203777" data-name="Trazado 203777" d="M116.206,30h-.045a1.66,1.66,0,1,0,0,3.32h.045a1.66,1.66,0,0,0,0-3.32Z" transform="translate(-95.492 -25.02)"/>
    <path id="Trazado_203778" data-name="Trazado 203778" d="M343.425,43.32h.045a1.66,1.66,0,1,0,0-3.32h-.045a1.66,1.66,0,0,0,0,3.32Z" transform="translate(-285.027 -33.359)"/>
    <path id="Trazado_203779" data-name="Trazado 203779" d="M121.664,215.642H131.9a1.66,1.66,0,0,0,0-3.32H121.664a1.66,1.66,0,1,0,0,3.32Z" transform="translate(-100.082 -177.073)"/>
    <path id="Trazado_203780" data-name="Trazado 203780" d="M121.664,255.642h20.476a1.66,1.66,0,0,0,0-3.32H121.664a1.66,1.66,0,1,0,0,3.32Z" transform="translate(-100.082 -210.432)"/>
    <path id="Trazado_203781" data-name="Trazado 203781" d="M131.9,292.322H121.664a1.66,1.66,0,0,0,0,3.32H131.9a1.66,1.66,0,0,0,0-3.32Z" transform="translate(-100.082 -243.791)"/>
    <path id="Trazado_203782" data-name="Trazado 203782" d="M350.8,215.642a1.66,1.66,0,1,0,0-3.32H330.321a1.66,1.66,0,1,0,0,3.32Z" transform="translate(-274.098 -177.073)"/>
    <path id="Trazado_203783" data-name="Trazado 203783" d="M349.346,365.557a1.66,1.66,0,0,0-2.033,1.174l-2.358,8.8a1.66,1.66,0,1,0,3.207.859l2.358-8.8A1.66,1.66,0,0,0,349.346,365.557Z" transform="translate(-287.64 -304.821)"/>
    <path id="Trazado_203784" data-name="Trazado 203784" d="M295.352,368.591a1.66,1.66,0,0,0-2.34-.2l-4.714,3.984c-.013.011-.024.023-.036.034s-.044.04-.065.061-.042.044-.063.067-.022.023-.033.035l-.015.02c-.021.026-.042.053-.061.08s-.026.036-.039.054-.034.054-.05.082-.024.041-.035.062-.025.051-.037.077-.023.048-.033.073-.018.047-.026.071-.019.055-.028.083-.012.045-.018.068-.015.059-.02.088-.007.046-.011.069-.009.058-.012.088,0,.05,0,.075,0,.055,0,.082,0,.055,0,.082,0,.05,0,.075.007.058.012.088.006.046.011.069.013.059.02.088.011.045.018.068.018.055.028.082.017.048.026.071.021.048.033.073.024.052.037.077.023.041.035.062.032.055.05.082.026.036.039.054.04.054.061.08l.015.02c.009.011.019.02.028.03.024.027.049.054.076.08s.039.037.059.055l.033.031,4.714,3.984a1.66,1.66,0,0,0,2.143-2.536l-3.214-2.716,3.214-2.716A1.661,1.661,0,0,0,295.352,368.591Z" transform="translate(-239.947 -306.907)"/>
    <path id="Trazado_203785" data-name="Trazado 203785" d="M390.633,368.4a1.66,1.66,0,1,0-2.143,2.536l3.214,2.716-3.214,2.716a1.66,1.66,0,0,0,2.143,2.536l4.714-3.984c.012-.01.022-.021.034-.032s.039-.036.058-.054.052-.053.076-.081c.009-.01.019-.019.028-.03l.015-.02c.021-.026.042-.053.061-.08s.026-.036.039-.054.034-.054.05-.082.024-.041.035-.062.025-.051.037-.077.023-.048.033-.073.018-.047.026-.071.019-.055.028-.082.012-.045.018-.068.015-.059.02-.088.007-.046.011-.069.009-.058.012-.088,0-.05,0-.075,0-.055,0-.082,0-.055,0-.082,0-.05,0-.075-.007-.058-.012-.088-.006-.046-.011-.069-.013-.059-.02-.088-.011-.045-.018-.068-.018-.055-.028-.083-.017-.048-.026-.071-.021-.048-.033-.073-.024-.052-.037-.077-.023-.041-.035-.062-.032-.055-.05-.082-.026-.036-.039-.054-.04-.054-.061-.08l-.015-.02c-.01-.012-.022-.023-.033-.035s-.041-.045-.062-.067-.043-.042-.066-.061-.023-.023-.036-.033Z" transform="translate(-323.504 -306.909)"/>
  </g>
</svg>
