<svg xmlns="http://www.w3.org/2000/svg" xmlns:xlink="http://www.w3.org/1999/xlink" width="1030" height="539" viewBox="0 0 1030 539">
  <defs>
    <clipPath id="clip-path">
      <rect id="Rectángulo_298525" data-name="Rectángulo 298525" width="1030" height="539" transform="translate(285 1274)" fill="#fff" stroke="#707070" stroke-width="1"/>
    </clipPath>
    <clipPath id="clip-path-2">
      <rect id="Rectángulo_297738" data-name="Rectángulo 297738" width="406.478" height="406.478" fill="none"/>
    </clipPath>
    <clipPath id="clip-path-3">
      <rect id="Rectángulo_297737" data-name="Rectángulo 297737" width="406.479" height="406.479" fill="none"/>
    </clipPath>
    <clipPath id="clip-path-4">
      <rect id="Rectángulo_297736" data-name="Rectángulo 297736" width="367.345" height="368.176" fill="none"/>
    </clipPath>
    <clipPath id="clip-path-5">
      <path id="Trazado_207488" data-name="Trazado 207488" d="M367.344,184.088c0,101.669-82.233,184.088-183.672,184.087S0,285.756,0,184.087,82.233,0,183.672,0,367.344,82.419,367.344,184.088" fill="none"/>
    </clipPath>
    <radialGradient id="radial-gradient" cx="0.5" cy="0.5" r="0.499" gradientTransform="matrix(1.002, 0, 0, -0.988, 0, 2.092)" gradientUnits="objectBoundingBox">
      <stop offset="0" stop-color="#38393d"/>
      <stop offset="0.794" stop-color="#38393d"/>
      <stop offset="0.803" stop-color="#58595c"/>
      <stop offset="0.816" stop-color="#7f7f82"/>
      <stop offset="0.83" stop-color="#a1a2a4"/>
      <stop offset="0.845" stop-color="#bebfc0"/>
      <stop offset="0.862" stop-color="#d6d6d7"/>
      <stop offset="0.881" stop-color="#e8e8e9"/>
      <stop offset="0.904" stop-color="#f5f5f5"/>
      <stop offset="0.934" stop-color="#fcfcfc"/>
      <stop offset="1" stop-color="#fff"/>
    </radialGradient>
    <clipPath id="clip-path-6">
      <rect id="Rectángulo_297738-2" data-name="Rectángulo 297738" width="243.434" height="243.434" fill="none"/>
    </clipPath>
    <clipPath id="clip-path-8">
      <rect id="Rectángulo_297736-2" data-name="Rectángulo 297736" width="219.998" height="220.495" fill="none"/>
    </clipPath>
    <clipPath id="clip-path-9">
      <path id="Trazado_207488-2" data-name="Trazado 207488" d="M220,110.247c0,60.888-49.248,110.247-110,110.247S0,171.135,0,110.247,49.248,0,110,0,220,49.36,220,110.247" fill="none"/>
    </clipPath>
    <clipPath id="clip-path-10">
      <rect id="Rectángulo_297738-3" data-name="Rectángulo 297738" width="338.259" height="338.259" fill="none"/>
    </clipPath>
    <clipPath id="clip-path-11">
      <rect id="Rectángulo_297737-3" data-name="Rectángulo 297737" width="338.26" height="338.26" fill="none"/>
    </clipPath>
    <clipPath id="clip-path-12">
      <rect id="Rectángulo_297736-3" data-name="Rectángulo 297736" width="305.694" height="306.385" fill="none"/>
    </clipPath>
    <clipPath id="clip-path-13">
      <path id="Trazado_207488-3" data-name="Trazado 207488" d="M305.693,153.193c0,84.606-68.431,153.192-152.846,153.192S0,237.8,0,153.192,68.432,0,152.847,0,305.693,68.587,305.693,153.193" fill="none"/>
    </clipPath>
    <clipPath id="clip-path-14">
      <rect id="Rectángulo_297739" data-name="Rectángulo 297739" width="217.486" height="367.436" fill="none"/>
    </clipPath>
  </defs>
  <g id="Grupo_176098" data-name="Grupo 176098" transform="translate(-285 -1270)">
    <g id="Enmascarar_grupo_57" data-name="Enmascarar grupo 57" transform="translate(0 -4)" clip-path="url(#clip-path)">
      <g id="Grupo_174274" data-name="Grupo 174274" transform="translate(0 134.001)">
        <path id="Trazado_207475" data-name="Trazado 207475" d="M304.342,379.619A123.727,123.727,0,1,1,428.069,255.891,123.727,123.727,0,0,1,304.342,379.619" transform="translate(438.152 1122.535)" fill="#fff"/>
        <path id="Trazado_207484" data-name="Trazado 207484" d="M189.853,708.241A70.9,70.9,0,1,1,194.987,608.1a70.9,70.9,0,0,1-5.135,100.136" transform="translate(290.169 844.351)" fill="#fff"/>
        <path id="Trazado_207485" data-name="Trazado 207485" d="M184.612,702.118a58.727,58.727,0,1,1,4.254-82.943,58.727,58.727,0,0,1-4.254,82.943" transform="translate(287.254 841.437)" fill="#a6f4fe"/>
        <path id="Trazado_207486" data-name="Trazado 207486" d="M208.557,661.527a58.727,58.727,0,0,0-98-46.606l78.69,87.2a58.544,58.544,0,0,0,19.305-40.591" transform="translate(282.614 841.437)" fill="#00defc"/>
        <g id="Grupo_174256" data-name="Grupo 174256" transform="translate(477.666 1246.274) rotate(-22)">
          <g id="Grupo_174263" data-name="Grupo 174263" clip-path="url(#clip-path-2)">
            <g id="Grupo_174262" data-name="Grupo 174262" transform="translate(0 -0.001)">
              <g id="Grupo_174261" data-name="Grupo 174261" clip-path="url(#clip-path-3)">
                <path id="Trazado_207487" data-name="Trazado 207487" d="M405.509,143.134,388.593,102.4a11.426,11.426,0,0,0-13.467-6.667l-23.647,6.239a11.517,11.517,0,0,1-12.06-4.026,171.058,171.058,0,0,0-31.195-31.109,11.353,11.353,0,0,1-4-11.886l6.231-23.779a11.426,11.426,0,0,0-6.69-13.456L263,.868A11.426,11.426,0,0,0,248.76,5.677L236.389,26.918a11.353,11.353,0,0,1-11.225,5.594,171.05,171.05,0,0,0-44.055.015,11.518,11.518,0,0,1-11.384-5.661L157.379,5.755A11.426,11.426,0,0,0,143.134.971L102.4,17.886a11.427,11.427,0,0,0-6.666,13.468L101.968,55a11.518,11.518,0,0,1-4.026,12.06A171.056,171.056,0,0,0,66.834,98.254a11.353,11.353,0,0,1-11.886,4L31.169,96.026a11.426,11.426,0,0,0-13.456,6.689L.868,143.482a11.426,11.426,0,0,0,4.809,14.237l21.241,12.372a11.353,11.353,0,0,1,5.594,11.225,171.05,171.05,0,0,0,.015,44.055,11.518,11.518,0,0,1-5.661,11.384L5.755,249.1A11.426,11.426,0,0,0,.971,263.345l16.916,40.738a11.426,11.426,0,0,0,13.467,6.667L55,304.511a11.518,11.518,0,0,1,12.06,4.026,171.056,171.056,0,0,0,31.194,31.108,11.353,11.353,0,0,1,4,11.886L96.026,375.31a11.427,11.427,0,0,0,6.69,13.457l40.766,16.845a11.426,11.426,0,0,0,14.237-4.809l12.372-21.241a11.353,11.353,0,0,1,11.225-5.594,171.048,171.048,0,0,0,44.055-.015,11.517,11.517,0,0,1,11.384,5.661L249.1,400.724a11.427,11.427,0,0,0,14.245,4.784l40.738-16.915a11.426,11.426,0,0,0,6.667-13.467l-6.239-23.647a11.518,11.518,0,0,1,4.026-12.06,171.041,171.041,0,0,0,31.108-31.195,11.353,11.353,0,0,1,11.886-4l23.779,6.231a11.426,11.426,0,0,0,13.456-6.69L405.612,263A11.427,11.427,0,0,0,400.8,248.76l-21.242-12.372a11.353,11.353,0,0,1-5.594-11.225,171.055,171.055,0,0,0-.015-44.055,11.518,11.518,0,0,1,5.661-11.384l21.111-12.346a11.426,11.426,0,0,0,4.785-14.245" transform="translate(0 0)" fill="#00defc"/>
                <g id="Grupo_174260" data-name="Grupo 174260" transform="translate(19.567 19.151)" style="mix-blend-mode: multiply;isolation: isolate">
                  <g id="Grupo_174259" data-name="Grupo 174259">
                    <g id="Grupo_174258" data-name="Grupo 174258" clip-path="url(#clip-path-4)">
                      <g id="Grupo_174257" data-name="Grupo 174257" transform="translate(0 0)">
                        <g id="Grupo_174256-2" data-name="Grupo 174256" clip-path="url(#clip-path-5)">
                          <rect id="Rectángulo_297735" data-name="Rectángulo 297735" width="367.344" height="368.175" transform="translate(0 0)" fill="url(#radial-gradient)"/>
                        </g>
                      </g>
                    </g>
                  </g>
                </g>
                <path id="Trazado_207489" data-name="Trazado 207489" d="M305.793,152.9a152.9,152.9,0,1,0-152.9,152.9,152.9,152.9,0,0,0,152.9-152.9" transform="translate(50.768 50.343)" fill="#00defc"/>
                <path id="Trazado_207490" data-name="Trazado 207490" d="M265.559,132.779A132.78,132.78,0,1,1,132.779,0a132.779,132.779,0,0,1,132.78,132.779" transform="translate(70.886 70.46)" fill="#fff"/>
              </g>
            </g>
          </g>
        </g>
        <g id="Grupo_174270" data-name="Grupo 174270" transform="matrix(0.695, -0.719, 0.719, 0.695, 285, 1479.849)">
          <g id="Grupo_174263-2" data-name="Grupo 174263" clip-path="url(#clip-path-6)">
            <g id="Grupo_174262-2" data-name="Grupo 174262" transform="translate(0 -0.001)">
              <g id="Grupo_174261-2" data-name="Grupo 174261" clip-path="url(#clip-path-6)">
                <path id="Trazado_207487-2" data-name="Trazado 207487" d="M242.853,85.721l-10.13-24.4a6.843,6.843,0,0,0-8.065-3.992L210.5,61.067a6.9,6.9,0,0,1-7.222-2.411,102.445,102.445,0,0,0-18.682-18.63,6.8,6.8,0,0,1-2.4-7.118l3.731-14.241a6.843,6.843,0,0,0-4.006-8.059L157.505.52a6.843,6.843,0,0,0-8.526,2.88l-7.409,12.721a6.8,6.8,0,0,1-6.723,3.35,102.44,102.44,0,0,0-26.384.009,6.9,6.9,0,0,1-6.818-3.391L94.252,3.447A6.843,6.843,0,0,0,85.721.581l-24.4,10.13a6.843,6.843,0,0,0-3.992,8.066l3.736,14.162a6.9,6.9,0,0,1-2.411,7.223,102.443,102.443,0,0,0-18.63,18.682,6.8,6.8,0,0,1-7.118,2.4L18.667,57.509a6.843,6.843,0,0,0-8.059,4.006L.52,85.929A6.843,6.843,0,0,0,3.4,94.455l12.721,7.409a6.8,6.8,0,0,1,3.35,6.723,102.439,102.439,0,0,0,.009,26.384,6.9,6.9,0,0,1-3.391,6.818L3.447,149.183a6.843,6.843,0,0,0-2.865,8.531l10.13,24.4a6.843,6.843,0,0,0,8.065,3.993l14.162-3.736a6.9,6.9,0,0,1,7.223,2.411,102.443,102.443,0,0,0,18.682,18.63,6.8,6.8,0,0,1,2.4,7.118l-3.732,14.241a6.843,6.843,0,0,0,4.006,8.059l24.414,10.088a6.843,6.843,0,0,0,8.526-2.88l7.409-12.721a6.8,6.8,0,0,1,6.723-3.35,102.439,102.439,0,0,0,26.384-.009,6.9,6.9,0,0,1,6.818,3.391l7.394,12.643a6.843,6.843,0,0,0,8.531,2.865l24.4-10.13a6.843,6.843,0,0,0,3.992-8.065L182.367,210.5a6.9,6.9,0,0,1,2.411-7.222,102.434,102.434,0,0,0,18.63-18.682,6.8,6.8,0,0,1,7.118-2.4l14.241,3.731a6.843,6.843,0,0,0,8.059-4.006l10.088-24.414a6.843,6.843,0,0,0-2.88-8.526l-12.721-7.409a6.8,6.8,0,0,1-3.35-6.723,102.442,102.442,0,0,0-.009-26.384,6.9,6.9,0,0,1,3.391-6.818l12.643-7.394a6.843,6.843,0,0,0,2.865-8.531" transform="translate(0 0)" fill="#ffb30b"/>
                <g id="Grupo_174260-2" data-name="Grupo 174260" transform="translate(11.719 11.469)" style="mix-blend-mode: multiply;isolation: isolate">
                  <g id="Grupo_174259-2" data-name="Grupo 174259">
                    <g id="Grupo_174258-2" data-name="Grupo 174258" clip-path="url(#clip-path-8)">
                      <g id="Grupo_174257-2" data-name="Grupo 174257" transform="translate(0 0)">
                        <g id="Grupo_174256-3" data-name="Grupo 174256" transform="translate(0)" clip-path="url(#clip-path-9)">
                          <rect id="Rectángulo_297735-2" data-name="Rectángulo 297735" width="219.997" height="220.495" transform="translate(0 0)" fill="url(#radial-gradient)"/>
                        </g>
                      </g>
                    </g>
                  </g>
                </g>
                <path id="Trazado_207489-2" data-name="Trazado 207489" d="M183.135,91.567a91.567,91.567,0,1,0-91.567,91.567,91.567,91.567,0,0,0,91.567-91.567" transform="translate(30.404 30.15)" fill="#ffb30b"/>
                <path id="Trazado_207490-2" data-name="Trazado 207490" d="M159.039,79.52A79.52,79.52,0,1,1,79.52,0a79.52,79.52,0,0,1,79.52,79.52" transform="translate(42.452 42.198)" fill="#fff"/>
              </g>
            </g>
          </g>
        </g>
        <path id="Trazado_207493" data-name="Trazado 207493" d="M0,39.3,17.746,10.752,23.47,23.97A228.391,228.391,0,0,1,107.074.153C107.633.108,109.022,0,109.022,0l.3,0,0,2.76q-1.315.093-2.632.2A226.044,226.044,0,0,0,24.533,26.418l5.73,13.223Z" transform="matrix(0.996, 0.087, -0.087, 0.996, 363.856, 1312.568)" fill="#084a93"/>
        <path id="Trazado_207494" data-name="Trazado 207494" d="M102.074,9.495,74.488,13.8l8.246,8.666C47.179,52.8,25.109,92.141,18.909,136.252A173.577,173.577,0,0,0,17.3,155.134c-.136,4.479,2.186,4.346,2.333-.206a171.775,171.775,0,0,1,1.579-18.352c6.127-43.6,27.928-82.5,63.046-112.5l8.251,8.671Z" transform="translate(481.707 1171.553)" fill="#084a93"/>
        <path id="Trazado_207495" data-name="Trazado 207495" d="M11.194,162.734a7.114,7.114,0,1,1,6.054,8.035,7.113,7.113,0,0,1-6.054-8.035" transform="translate(482.024 1163.977)" fill="#084a93"/>
        <path id="Trazado_207496" data-name="Trazado 207496" d="M11.194,162.734a7.114,7.114,0,1,1,6.054,8.035,7.113,7.113,0,0,1-6.054-8.035" transform="translate(454.091 1159.133)" fill="#084a93"/>
        <g id="Grupo_174271" data-name="Grupo 174271" transform="matrix(0.695, -0.719, 0.719, 0.695, 836.702, 1496.565)">
          <g id="Grupo_174263-3" data-name="Grupo 174263" clip-path="url(#clip-path-10)">
            <g id="Grupo_174262-3" data-name="Grupo 174262" transform="translate(0 -0.001)">
              <g id="Grupo_174261-3" data-name="Grupo 174261" clip-path="url(#clip-path-11)">
                <path id="Trazado_207487-3" data-name="Trazado 207487" d="M337.452,119.112l-14.077-33.9a9.508,9.508,0,0,0-11.207-5.548l-19.678,5.192a9.584,9.584,0,0,1-10.036-3.35A142.348,142.348,0,0,0,256.5,55.617a9.447,9.447,0,0,1-3.33-9.891l5.185-19.788a9.509,9.509,0,0,0-5.567-11.2L218.859.722a9.508,9.508,0,0,0-11.848,4L196.716,22.4a9.448,9.448,0,0,1-9.341,4.655,142.343,142.343,0,0,0-36.661.012,9.585,9.585,0,0,1-9.474-4.711L130.966,4.789A9.508,9.508,0,0,0,119.112.808l-33.9,14.076a9.509,9.509,0,0,0-5.547,11.207l5.192,19.678A9.585,9.585,0,0,1,81.5,55.806,142.347,142.347,0,0,0,55.617,81.765,9.447,9.447,0,0,1,45.726,85.1L25.938,79.91a9.508,9.508,0,0,0-11.2,5.567L.722,119.4a9.508,9.508,0,0,0,4,11.848l17.677,10.3a9.448,9.448,0,0,1,4.655,9.341,142.343,142.343,0,0,0,.013,36.661,9.585,9.585,0,0,1-4.711,9.473L4.789,207.294A9.508,9.508,0,0,0,.808,219.149l14.077,33.9A9.508,9.508,0,0,0,26.092,258.6l19.678-5.192a9.585,9.585,0,0,1,10.036,3.35,142.347,142.347,0,0,0,25.959,25.887,9.448,9.448,0,0,1,3.331,9.891L79.91,312.322a9.509,9.509,0,0,0,5.567,11.2L119.4,337.538a9.509,9.509,0,0,0,11.848-4l10.3-17.677a9.447,9.447,0,0,1,9.341-4.655,142.344,142.344,0,0,0,36.661-.012,9.584,9.584,0,0,1,9.473,4.711l10.274,17.568a9.509,9.509,0,0,0,11.854,3.981l33.9-14.077a9.508,9.508,0,0,0,5.548-11.207l-5.192-19.678a9.585,9.585,0,0,1,3.35-10.036A142.336,142.336,0,0,0,282.643,256.5a9.448,9.448,0,0,1,9.891-3.33l19.788,5.185a9.508,9.508,0,0,0,11.2-5.567l14.018-33.924a9.509,9.509,0,0,0-4-11.848l-17.677-10.3a9.448,9.448,0,0,1-4.655-9.341,142.347,142.347,0,0,0-.013-36.661,9.585,9.585,0,0,1,4.711-9.474l17.568-10.274a9.509,9.509,0,0,0,3.982-11.854" transform="translate(0 0)" fill="#b9ddfc"/>
                <g id="Grupo_174260-3" data-name="Grupo 174260" transform="translate(16.283 15.937)" style="mix-blend-mode: multiply;isolation: isolate">
                  <g id="Grupo_174259-3" data-name="Grupo 174259">
                    <g id="Grupo_174258-3" data-name="Grupo 174258" clip-path="url(#clip-path-12)">
                      <g id="Grupo_174257-3" data-name="Grupo 174257" transform="translate(0 0)">
                        <g id="Grupo_174256-4" data-name="Grupo 174256" clip-path="url(#clip-path-13)">
                          <rect id="Rectángulo_297735-3" data-name="Rectángulo 297735" width="305.693" height="306.385" transform="translate(0 0)" fill="url(#radial-gradient)"/>
                        </g>
                      </g>
                    </g>
                  </g>
                </g>
                <path id="Trazado_207489-3" data-name="Trazado 207489" d="M254.472,127.236A127.236,127.236,0,1,0,127.236,254.472,127.236,127.236,0,0,0,254.472,127.236" transform="translate(42.248 41.894)" fill="#b9ddfc"/>
                <path id="Trazado_207490-3" data-name="Trazado 207490" d="M220.991,110.5A110.5,110.5,0,1,1,110.5,0a110.5,110.5,0,0,1,110.5,110.5" transform="translate(58.989 58.635)" fill="#fff"/>
              </g>
            </g>
          </g>
        </g>
        <g id="Grupo_174273" data-name="Grupo 174273" transform="translate(1061.829 1293.127)">
          <g id="Grupo_174272" data-name="Grupo 174272" transform="translate(0 0)" clip-path="url(#clip-path-14)">
            <path id="Trazado_207497" data-name="Trazado 207497" d="M.07,6.125a7.114,7.114,0,1,1,6.054,8.035A7.113,7.113,0,0,1,.07,6.125" transform="translate(0 0)" fill="#084a93"/>
            <path id="Trazado_207498" data-name="Trazado 207498" d="M139.7,386.115l27.532-4.633-8.35-8.567c-3.824-3.926.68.7-1.547-1.59l-8.354-8.571Z" transform="translate(-7.193 -18.679)" fill="#084a93"/>
            <path id="Trazado_207499" data-name="Trazado 207499" d="M17.881,5.727q-5.222,0-10.38.266V8.844q5.156-.267,10.38-.271c108.881,0,197.148,88.266,197.148,197.147A196.694,196.694,0,0,1,146.657,355v3.726a199.548,199.548,0,0,0,71.217-153c0-110.453-89.54-199.993-199.993-199.993" transform="translate(-0.386 -0.295)" fill="#084a93"/>
          </g>
        </g>
      </g>
    </g>
    <path id="Trazado_208873" data-name="Trazado 208873" d="M18.281,15.489V21H15.059V5.359h6.1a7.059,7.059,0,0,1,3.1.645,4.75,4.75,0,0,1,2.057,1.832,5.107,5.107,0,0,1,.72,2.7,4.491,4.491,0,0,1-1.574,3.625,6.555,6.555,0,0,1-4.356,1.327Zm0-2.61H21.16a2.831,2.831,0,0,0,1.95-.6,2.188,2.188,0,0,0,.671-1.719A2.58,2.58,0,0,0,23.1,8.7a2.528,2.528,0,0,0-1.869-.73H18.281Zm17.295-.591a8.434,8.434,0,0,0-1.117-.086,2.274,2.274,0,0,0-2.31,1.192V21h-3.1V9.377h2.933l.086,1.386a2.877,2.877,0,0,1,2.589-1.6,3.253,3.253,0,0,1,.967.14Zm8.454,7.53a3.893,3.893,0,0,1-3.18,1.4A3.672,3.672,0,0,1,38,20.141a4.586,4.586,0,0,1-1-3.147V9.377h3.1v7.518q0,1.817,1.654,1.817a2.242,2.242,0,0,0,2.17-1.1V9.377h3.115V21H44.116Zm10.7,1.4a5.706,5.706,0,0,1-4.163-1.568,5.575,5.575,0,0,1-1.606-4.179v-.3a7.021,7.021,0,0,1,.677-3.131,4.967,4.967,0,0,1,1.917-2.127,5.382,5.382,0,0,1,2.831-.747,4.824,4.824,0,0,1,3.754,1.5,6.111,6.111,0,0,1,1.37,4.265V16.2h-7.4a2.884,2.884,0,0,0,.908,1.826,2.744,2.744,0,0,0,1.917.688,3.351,3.351,0,0,0,2.8-1.3l1.525,1.708a4.66,4.66,0,0,1-1.891,1.542A6.2,6.2,0,0,1,54.729,21.215Zm-.354-9.55a1.94,1.94,0,0,0-1.5.626,3.241,3.241,0,0,0-.736,1.791h4.318v-.248a2.311,2.311,0,0,0-.559-1.6A2,2,0,0,0,54.375,11.665ZM71.745,15.3a7.038,7.038,0,0,1-1.192,4.356,3.95,3.95,0,0,1-3.33,1.563,3.629,3.629,0,0,1-3.019-1.45L64.064,21H61.271V4.5h3.1v5.919A3.536,3.536,0,0,1,67.2,9.162a3.982,3.982,0,0,1,3.335,1.563,7.048,7.048,0,0,1,1.208,4.4Zm-3.1-.237a4.649,4.649,0,0,0-.559-2.581,1.887,1.887,0,0,0-1.665-.814,2.047,2.047,0,0,0-2.041,1.218v4.6a2.075,2.075,0,0,0,2.063,1.228,1.917,1.917,0,0,0,1.977-1.487A7.693,7.693,0,0,0,68.641,15.059ZM80.393,21a3.448,3.448,0,0,1-.312-1.042,3.756,3.756,0,0,1-2.933,1.257,4.127,4.127,0,0,1-2.831-.988A3.178,3.178,0,0,1,73.2,17.734a3.285,3.285,0,0,1,1.37-2.836,6.758,6.758,0,0,1,3.958-1h1.429v-.666a1.915,1.915,0,0,0-.414-1.289,1.627,1.627,0,0,0-1.305-.483,1.85,1.85,0,0,0-1.23.376,1.277,1.277,0,0,0-.446,1.031h-3.1A3.118,3.118,0,0,1,74.076,11a4.118,4.118,0,0,1,1.762-1.348,6.42,6.42,0,0,1,2.557-.489,5.073,5.073,0,0,1,3.411,1.08,3.777,3.777,0,0,1,1.262,3.035v5.038a5.557,5.557,0,0,0,.462,2.5V21Zm-2.567-2.159a2.674,2.674,0,0,0,1.268-.306,2.011,2.011,0,0,0,.859-.822v-2h-1.16q-2.331,0-2.481,1.611l-.011.183a1.243,1.243,0,0,0,.408.956A1.586,1.586,0,0,0,77.825,18.841Zm13.922-1.053a1,1,0,0,0-.564-.9,6.406,6.406,0,0,0-1.81-.585q-4.146-.87-4.146-3.523A3.194,3.194,0,0,1,86.51,10.2a5.178,5.178,0,0,1,3.357-1.037,5.573,5.573,0,0,1,3.54,1.042,3.284,3.284,0,0,1,1.327,2.707h-3.1a1.5,1.5,0,0,0-.43-1.1,1.818,1.818,0,0,0-1.343-.435,1.858,1.858,0,0,0-1.214.354,1.119,1.119,0,0,0-.43.9.957.957,0,0,0,.489.833,5.028,5.028,0,0,0,1.649.548,13.468,13.468,0,0,1,1.955.521,3.212,3.212,0,0,1,2.46,3.126A3.032,3.032,0,0,1,93.4,20.232a5.885,5.885,0,0,1-3.523.983,6.147,6.147,0,0,1-2.594-.521,4.353,4.353,0,0,1-1.778-1.429,3.32,3.32,0,0,1-.645-1.96H87.8a1.621,1.621,0,0,0,.612,1.268,2.429,2.429,0,0,0,1.525.44,2.248,2.248,0,0,0,1.348-.338A1.053,1.053,0,0,0,91.747,17.788ZM101.759,15.1a7,7,0,0,1,1.219-4.329,3.956,3.956,0,0,1,3.335-1.611,3.56,3.56,0,0,1,2.8,1.268V4.5h3.115V21h-2.8l-.15-1.235a3.653,3.653,0,0,1-2.986,1.45A3.945,3.945,0,0,1,103,19.6,7.23,7.23,0,0,1,101.759,15.1Zm3.1.221a4.613,4.613,0,0,0,.569,2.514,1.853,1.853,0,0,0,1.654.874,2.077,2.077,0,0,0,2.03-1.219V12.884a2.047,2.047,0,0,0-2.009-1.219Q104.863,11.665,104.863,15.323Zm15.125,5.891a5.706,5.706,0,0,1-4.163-1.568,5.575,5.575,0,0,1-1.606-4.179v-.3a7.021,7.021,0,0,1,.677-3.131,4.967,4.967,0,0,1,1.917-2.127,5.382,5.382,0,0,1,2.831-.747,4.824,4.824,0,0,1,3.754,1.5,6.111,6.111,0,0,1,1.37,4.265V16.2h-7.4a2.884,2.884,0,0,0,.908,1.826,2.744,2.744,0,0,0,1.917.688,3.351,3.351,0,0,0,2.8-1.3l1.525,1.708a4.66,4.66,0,0,1-1.891,1.542A6.2,6.2,0,0,1,119.988,21.215Zm-.354-9.55a1.94,1.94,0,0,0-1.5.626,3.241,3.241,0,0,0-.736,1.791h4.318v-.248a2.311,2.311,0,0,0-.559-1.6A2,2,0,0,0,119.634,11.665ZM25.516,43.3A6.971,6.971,0,0,1,24.3,47.6,3.909,3.909,0,0,1,21,49.215a3.621,3.621,0,0,1-2.847-1.225v5.479h-3.1V37.377h2.879l.107,1.139a3.649,3.649,0,0,1,2.943-1.354,3.936,3.936,0,0,1,3.341,1.59,7.16,7.16,0,0,1,1.192,4.383Zm-3.1-.237a4.6,4.6,0,0,0-.575-2.511,1.87,1.87,0,0,0-1.67-.884,2.032,2.032,0,0,0-2.009,1.121v4.773a2.066,2.066,0,0,0,2.03,1.153Q22.412,46.712,22.412,43.059ZM34.174,49a3.447,3.447,0,0,1-.312-1.042,3.756,3.756,0,0,1-2.933,1.257,4.127,4.127,0,0,1-2.831-.988,3.178,3.178,0,0,1-1.123-2.492,3.285,3.285,0,0,1,1.37-2.836,6.758,6.758,0,0,1,3.958-1h1.429v-.666a1.915,1.915,0,0,0-.414-1.289,1.627,1.627,0,0,0-1.305-.483,1.85,1.85,0,0,0-1.23.376,1.277,1.277,0,0,0-.446,1.031h-3.1A3.118,3.118,0,0,1,27.858,39a4.118,4.118,0,0,1,1.762-1.348,6.42,6.42,0,0,1,2.557-.489,5.073,5.073,0,0,1,3.411,1.08,3.777,3.777,0,0,1,1.262,3.035v5.038a5.557,5.557,0,0,0,.462,2.5V49Zm-2.567-2.159a2.674,2.674,0,0,0,1.268-.306,2.011,2.011,0,0,0,.859-.822v-2h-1.16q-2.331,0-2.481,1.611l-.011.183a1.243,1.243,0,0,0,.408.956A1.586,1.586,0,0,0,31.607,46.841Zm14.158-6.553a8.434,8.434,0,0,0-1.117-.086,2.274,2.274,0,0,0-2.31,1.192V49h-3.1V37.377h2.933l.086,1.386a2.877,2.877,0,0,1,2.589-1.6,3.253,3.253,0,0,1,.967.14Zm5.747-5.769v2.857H53.5v2.277H51.512v5.8a1.385,1.385,0,0,0,.247.924,1.241,1.241,0,0,0,.945.279,4.951,4.951,0,0,0,.913-.075v2.353a6.391,6.391,0,0,1-1.88.279q-3.266,0-3.33-3.3V39.654h-1.7V37.377h1.7V34.52ZM58.505,49H55.39V37.377h3.115Zm-3.3-14.631a1.529,1.529,0,0,1,.467-1.149,2.014,2.014,0,0,1,2.541,0,1.64,1.64,0,0,1-.005,2.31,1.991,1.991,0,0,1-2.524,0A1.524,1.524,0,0,1,55.208,34.369ZM65.9,46.712a2.036,2.036,0,0,0,1.4-.473,1.656,1.656,0,0,0,.559-1.257h2.911a3.982,3.982,0,0,1-.645,2.165,4.253,4.253,0,0,1-1.735,1.525,5.43,5.43,0,0,1-2.433.542,5.046,5.046,0,0,1-3.932-1.584,6.27,6.27,0,0,1-1.439-4.377v-.2a6.2,6.2,0,0,1,1.429-4.286,4.987,4.987,0,0,1,3.921-1.6,4.889,4.889,0,0,1,3.5,1.241,4.393,4.393,0,0,1,1.337,3.3H67.851a2.133,2.133,0,0,0-.559-1.474,2.076,2.076,0,0,0-3.056.224,4.583,4.583,0,0,0-.553,2.566v.323a4.641,4.641,0,0,0,.548,2.582A1.893,1.893,0,0,0,65.9,46.712ZM75.811,49H72.7V37.377h3.115Zm-3.3-14.631a1.529,1.529,0,0,1,.467-1.149,2.014,2.014,0,0,1,2.541,0,1.64,1.64,0,0,1-.005,2.31,1.991,1.991,0,0,1-2.524,0A1.524,1.524,0,0,1,72.513,34.369Zm5.371,8.712A6.893,6.893,0,0,1,78.55,40,4.876,4.876,0,0,1,80.468,37.9a5.594,5.594,0,0,1,2.906-.741,5.293,5.293,0,0,1,3.84,1.439,5.777,5.777,0,0,1,1.66,3.91l.021.795A6.075,6.075,0,0,1,87.4,47.6a5.787,5.787,0,0,1-8.019.005,6.182,6.182,0,0,1-1.5-4.383Zm3.1.22a4.345,4.345,0,0,0,.623,2.534,2.238,2.238,0,0,0,3.545.011,4.754,4.754,0,0,0,.634-2.77,4.3,4.3,0,0,0-.634-2.518,2.06,2.06,0,0,0-1.783-.893,2.027,2.027,0,0,0-1.762.888A4.834,4.834,0,0,0,80.989,43.3Zm12.676-5.924.1,1.343A4.058,4.058,0,0,1,97.1,37.162a3.372,3.372,0,0,1,2.75,1.085,5.062,5.062,0,0,1,.924,3.244V49h-3.1V41.549a2.022,2.022,0,0,0-.43-1.437,1.921,1.921,0,0,0-1.429-.447,2.135,2.135,0,0,0-1.966,1.12V49h-3.1V37.377Zm14.813,11.838a5.706,5.706,0,0,1-4.163-1.568,5.575,5.575,0,0,1-1.606-4.179v-.3a7.021,7.021,0,0,1,.677-3.131,4.967,4.967,0,0,1,1.917-2.127,5.382,5.382,0,0,1,2.831-.747,4.824,4.824,0,0,1,3.754,1.5,6.111,6.111,0,0,1,1.37,4.265V44.2h-7.4a2.884,2.884,0,0,0,.908,1.826,2.744,2.744,0,0,0,1.917.688,3.351,3.351,0,0,0,2.8-1.3l1.525,1.708a4.66,4.66,0,0,1-1.891,1.542A6.2,6.2,0,0,1,108.478,49.215Zm-.354-9.55a1.94,1.94,0,0,0-1.5.626,3.241,3.241,0,0,0-.736,1.791h4.318v-.248a2.311,2.311,0,0,0-.559-1.6A2,2,0,0,0,108.124,39.665Zm13.191,6.123a1,1,0,0,0-.564-.9,6.406,6.406,0,0,0-1.81-.585q-4.146-.87-4.146-3.523a3.194,3.194,0,0,1,1.284-2.583,5.178,5.178,0,0,1,3.357-1.037,5.573,5.573,0,0,1,3.54,1.042,3.284,3.284,0,0,1,1.327,2.707h-3.1a1.5,1.5,0,0,0-.43-1.1,1.818,1.818,0,0,0-1.343-.435,1.858,1.858,0,0,0-1.214.354,1.119,1.119,0,0,0-.43.9.957.957,0,0,0,.489.833,5.028,5.028,0,0,0,1.649.548,13.468,13.468,0,0,1,1.955.521,3.212,3.212,0,0,1,2.46,3.126,3.032,3.032,0,0,1-1.364,2.573,5.885,5.885,0,0,1-3.523.983,6.147,6.147,0,0,1-2.594-.521,4.353,4.353,0,0,1-1.778-1.429,3.32,3.32,0,0,1-.645-1.96h2.943a1.621,1.621,0,0,0,.612,1.268,2.429,2.429,0,0,0,1.525.44,2.248,2.248,0,0,0,1.348-.338A1.053,1.053,0,0,0,121.315,45.788Z" transform="translate(386 1573.001)" fill="#12263f"/>
    <path id="Trazado_208874" data-name="Trazado 208874" d="M14.685,15.489V21H11.462V5.359h6.1a7.059,7.059,0,0,1,3.1.645A4.75,4.75,0,0,1,22.72,7.835a5.107,5.107,0,0,1,.72,2.7,4.491,4.491,0,0,1-1.574,3.625,6.555,6.555,0,0,1-4.356,1.327Zm0-2.61h2.879a2.831,2.831,0,0,0,1.95-.6,2.188,2.188,0,0,0,.671-1.719A2.58,2.58,0,0,0,19.508,8.7a2.528,2.528,0,0,0-1.869-.73H14.685Zm17.295-.591a8.434,8.434,0,0,0-1.117-.086,2.274,2.274,0,0,0-2.31,1.192V21h-3.1V9.377h2.933l.086,1.386a2.877,2.877,0,0,1,2.589-1.6,3.253,3.253,0,0,1,.967.14Zm8.454,7.53a3.893,3.893,0,0,1-3.18,1.4A3.672,3.672,0,0,1,34.4,20.141a4.586,4.586,0,0,1-1-3.147V9.377h3.1v7.518q0,1.817,1.654,1.817a2.242,2.242,0,0,0,2.17-1.1V9.377h3.115V21H40.52Zm10.7,1.4a5.706,5.706,0,0,1-4.163-1.568,5.575,5.575,0,0,1-1.606-4.179v-.3a7.021,7.021,0,0,1,.677-3.131,4.967,4.967,0,0,1,1.917-2.127,5.382,5.382,0,0,1,2.831-.747,4.824,4.824,0,0,1,3.754,1.5,6.111,6.111,0,0,1,1.37,4.265V16.2h-7.4a2.884,2.884,0,0,0,.908,1.826,2.744,2.744,0,0,0,1.917.688,3.351,3.351,0,0,0,2.8-1.3l1.525,1.708a4.66,4.66,0,0,1-1.891,1.542A6.2,6.2,0,0,1,51.133,21.215Zm-.354-9.55a1.94,1.94,0,0,0-1.5.626,3.241,3.241,0,0,0-.736,1.791h4.318v-.248a2.311,2.311,0,0,0-.559-1.6A2,2,0,0,0,50.778,11.665ZM68.148,15.3a7.038,7.038,0,0,1-1.192,4.356,3.95,3.95,0,0,1-3.33,1.563,3.629,3.629,0,0,1-3.019-1.45L60.468,21H57.675V4.5h3.1v5.919A3.536,3.536,0,0,1,63.6,9.162a3.982,3.982,0,0,1,3.335,1.563,7.048,7.048,0,0,1,1.208,4.4Zm-3.1-.237a4.649,4.649,0,0,0-.559-2.581,1.887,1.887,0,0,0-1.665-.814,2.047,2.047,0,0,0-2.041,1.218v4.6a2.075,2.075,0,0,0,2.063,1.228,1.917,1.917,0,0,0,1.977-1.487A7.693,7.693,0,0,0,65.044,15.059ZM76.8,21a3.448,3.448,0,0,1-.312-1.042,3.756,3.756,0,0,1-2.933,1.257,4.127,4.127,0,0,1-2.831-.988A3.178,3.178,0,0,1,69.6,17.734a3.285,3.285,0,0,1,1.37-2.836,6.758,6.758,0,0,1,3.958-1h1.429v-.666a1.915,1.915,0,0,0-.414-1.289,1.627,1.627,0,0,0-1.305-.483,1.85,1.85,0,0,0-1.23.376,1.277,1.277,0,0,0-.446,1.031h-3.1A3.118,3.118,0,0,1,70.479,11a4.118,4.118,0,0,1,1.762-1.348A6.42,6.42,0,0,1,74.8,9.162a5.073,5.073,0,0,1,3.411,1.08,3.777,3.777,0,0,1,1.262,3.035v5.038a5.557,5.557,0,0,0,.462,2.5V21Zm-2.567-2.159a2.674,2.674,0,0,0,1.268-.306,2.011,2.011,0,0,0,.859-.822v-2H75.2q-2.331,0-2.481,1.611l-.011.183a1.243,1.243,0,0,0,.408.956A1.586,1.586,0,0,0,74.229,18.841ZM88.15,17.788a1,1,0,0,0-.564-.9,6.406,6.406,0,0,0-1.81-.585q-4.146-.87-4.146-3.523A3.194,3.194,0,0,1,82.914,10.2a5.178,5.178,0,0,1,3.357-1.037A5.573,5.573,0,0,1,89.81,10.2a3.284,3.284,0,0,1,1.327,2.707h-3.1a1.5,1.5,0,0,0-.43-1.1,1.818,1.818,0,0,0-1.343-.435,1.858,1.858,0,0,0-1.214.354,1.119,1.119,0,0,0-.43.9.957.957,0,0,0,.489.833,5.028,5.028,0,0,0,1.649.548,13.468,13.468,0,0,1,1.955.521,3.212,3.212,0,0,1,2.46,3.126A3.032,3.032,0,0,1,89.8,20.232a5.885,5.885,0,0,1-3.523.983,6.147,6.147,0,0,1-2.594-.521,4.353,4.353,0,0,1-1.778-1.429,3.32,3.32,0,0,1-.645-1.96h2.943a1.621,1.621,0,0,0,.612,1.268,2.429,2.429,0,0,0,1.525.44,2.248,2.248,0,0,0,1.348-.338A1.053,1.053,0,0,0,88.15,17.788ZM109.119,15.3a7.038,7.038,0,0,1-1.192,4.356,3.95,3.95,0,0,1-3.33,1.563,3.629,3.629,0,0,1-3.019-1.45L101.438,21H98.646V4.5h3.1v5.919a3.536,3.536,0,0,1,2.825-1.257,3.982,3.982,0,0,1,3.335,1.563,7.048,7.048,0,0,1,1.208,4.4Zm-3.1-.237a4.649,4.649,0,0,0-.559-2.581,1.887,1.887,0,0,0-1.665-.814,2.047,2.047,0,0,0-2.041,1.218v4.6a2.075,2.075,0,0,0,2.063,1.228,1.917,1.917,0,0,0,1.977-1.487A7.693,7.693,0,0,0,106.015,15.059ZM117.767,21a3.448,3.448,0,0,1-.312-1.042,3.756,3.756,0,0,1-2.933,1.257,4.127,4.127,0,0,1-2.831-.988,3.178,3.178,0,0,1-1.123-2.492,3.285,3.285,0,0,1,1.37-2.836,6.758,6.758,0,0,1,3.958-1h1.429v-.666a1.915,1.915,0,0,0-.414-1.289,1.627,1.627,0,0,0-1.305-.483,1.85,1.85,0,0,0-1.23.376,1.277,1.277,0,0,0-.446,1.031h-3.1A3.118,3.118,0,0,1,111.45,11a4.118,4.118,0,0,1,1.762-1.348,6.42,6.42,0,0,1,2.557-.489,5.073,5.073,0,0,1,3.411,1.08,3.777,3.777,0,0,1,1.262,3.035v5.038a5.557,5.557,0,0,0,.462,2.5V21ZM115.2,18.841a2.674,2.674,0,0,0,1.268-.306,2.011,2.011,0,0,0,.859-.822v-2h-1.16q-2.331,0-2.481,1.611l-.011.183a1.243,1.243,0,0,0,.408.956A1.586,1.586,0,0,0,115.2,18.841Zm13.922-1.053a1,1,0,0,0-.564-.9,6.406,6.406,0,0,0-1.81-.585q-4.146-.87-4.146-3.523a3.194,3.194,0,0,1,1.284-2.583,5.178,5.178,0,0,1,3.357-1.037,5.573,5.573,0,0,1,3.54,1.042,3.284,3.284,0,0,1,1.327,2.707H129a1.5,1.5,0,0,0-.43-1.1,1.818,1.818,0,0,0-1.343-.435,1.858,1.858,0,0,0-1.214.354,1.119,1.119,0,0,0-.43.9.957.957,0,0,0,.489.833,5.028,5.028,0,0,0,1.649.548,13.468,13.468,0,0,1,1.955.521,3.212,3.212,0,0,1,2.46,3.126,3.032,3.032,0,0,1-1.364,2.573,5.885,5.885,0,0,1-3.523.983,6.147,6.147,0,0,1-2.594-.521,4.353,4.353,0,0,1-1.778-1.429,3.32,3.32,0,0,1-.645-1.96h2.943a1.621,1.621,0,0,0,.612,1.268,2.429,2.429,0,0,0,1.525.44,2.248,2.248,0,0,0,1.348-.338A1.053,1.053,0,0,0,129.121,17.788ZM140.873,21a3.447,3.447,0,0,1-.312-1.042,3.756,3.756,0,0,1-2.933,1.257,4.127,4.127,0,0,1-2.831-.988,3.178,3.178,0,0,1-1.123-2.492,3.285,3.285,0,0,1,1.37-2.836,6.758,6.758,0,0,1,3.958-1h1.429v-.666a1.915,1.915,0,0,0-.414-1.289,1.627,1.627,0,0,0-1.305-.483,1.85,1.85,0,0,0-1.23.376,1.277,1.277,0,0,0-.446,1.031h-3.1A3.119,3.119,0,0,1,134.557,11a4.118,4.118,0,0,1,1.762-1.348,6.42,6.42,0,0,1,2.557-.489,5.073,5.073,0,0,1,3.411,1.08,3.777,3.777,0,0,1,1.262,3.035v5.038a5.557,5.557,0,0,0,.462,2.5V21Zm-2.567-2.159a2.674,2.674,0,0,0,1.268-.306,2.011,2.011,0,0,0,.859-.822v-2h-1.16q-2.331,0-2.481,1.611l-.011.183a1.243,1.243,0,0,0,.408.956A1.586,1.586,0,0,0,138.306,18.841Zm7.144-3.738a7,7,0,0,1,1.219-4.329A3.956,3.956,0,0,1,150,9.162a3.56,3.56,0,0,1,2.8,1.268V4.5h3.115V21h-2.8l-.15-1.235a3.653,3.653,0,0,1-2.986,1.45A3.945,3.945,0,0,1,146.69,19.6,7.23,7.23,0,0,1,145.449,15.1Zm3.1.221a4.613,4.613,0,0,0,.569,2.514,1.853,1.853,0,0,0,1.654.874,2.077,2.077,0,0,0,2.03-1.219V12.884a2.047,2.047,0,0,0-2.009-1.219Q148.554,11.665,148.554,15.323ZM165.064,21a3.447,3.447,0,0,1-.312-1.042,3.756,3.756,0,0,1-2.933,1.257,4.127,4.127,0,0,1-2.831-.988,3.178,3.178,0,0,1-1.123-2.492,3.285,3.285,0,0,1,1.37-2.836,6.758,6.758,0,0,1,3.958-1h1.429v-.666a1.915,1.915,0,0,0-.414-1.289,1.627,1.627,0,0,0-1.305-.483,1.85,1.85,0,0,0-1.23.376,1.277,1.277,0,0,0-.446,1.031h-3.1A3.119,3.119,0,0,1,158.748,11a4.118,4.118,0,0,1,1.762-1.348,6.42,6.42,0,0,1,2.557-.489,5.073,5.073,0,0,1,3.411,1.08,3.777,3.777,0,0,1,1.262,3.035v5.038a5.557,5.557,0,0,0,.462,2.5V21ZM162.5,18.841a2.674,2.674,0,0,0,1.268-.306,2.011,2.011,0,0,0,.859-.822v-2h-1.16q-2.331,0-2.481,1.611l-.011.183a1.243,1.243,0,0,0,.408.956A1.586,1.586,0,0,0,162.5,18.841Zm13.922-1.053a1,1,0,0,0-.564-.9,6.406,6.406,0,0,0-1.81-.585q-4.146-.87-4.146-3.523a3.194,3.194,0,0,1,1.284-2.583,5.178,5.178,0,0,1,3.357-1.037,5.573,5.573,0,0,1,3.54,1.042,3.284,3.284,0,0,1,1.327,2.707h-3.1a1.5,1.5,0,0,0-.43-1.1,1.818,1.818,0,0,0-1.343-.435,1.858,1.858,0,0,0-1.214.354,1.119,1.119,0,0,0-.43.9.957.957,0,0,0,.489.833,5.028,5.028,0,0,0,1.649.548,13.468,13.468,0,0,1,1.955.521,3.212,3.212,0,0,1,2.46,3.126,3.032,3.032,0,0,1-1.364,2.573,5.885,5.885,0,0,1-3.523.983,6.147,6.147,0,0,1-2.594-.521,4.353,4.353,0,0,1-1.778-1.429,3.32,3.32,0,0,1-.645-1.96h2.943a1.621,1.621,0,0,0,.612,1.268,2.429,2.429,0,0,0,1.525.44,2.248,2.248,0,0,0,1.348-.338A1.053,1.053,0,0,0,176.419,17.788Zm15.845,3.427a5.706,5.706,0,0,1-4.163-1.568,5.575,5.575,0,0,1-1.606-4.179v-.3a7.021,7.021,0,0,1,.677-3.131,4.967,4.967,0,0,1,1.917-2.127,5.382,5.382,0,0,1,2.831-.747,4.824,4.824,0,0,1,3.754,1.5,6.111,6.111,0,0,1,1.37,4.265V16.2h-7.4a2.884,2.884,0,0,0,.908,1.826,2.744,2.744,0,0,0,1.917.688,3.351,3.351,0,0,0,2.8-1.3L196.8,19.12a4.66,4.66,0,0,1-1.891,1.542A6.2,6.2,0,0,1,192.264,21.215Zm-.354-9.55a1.94,1.94,0,0,0-1.5.626,3.241,3.241,0,0,0-.736,1.791h4.318v-.248a2.311,2.311,0,0,0-.559-1.6A2,2,0,0,0,191.909,11.665Zm9.754-2.288.1,1.343A4.058,4.058,0,0,1,205.1,9.162a3.372,3.372,0,0,1,2.75,1.085,5.062,5.062,0,0,1,.924,3.244V21h-3.1V13.549a2.022,2.022,0,0,0-.43-1.437,1.921,1.921,0,0,0-1.429-.447,2.135,2.135,0,0,0-1.966,1.12V21h-3.1V9.377ZM42.646,40.288a8.434,8.434,0,0,0-1.117-.086,2.274,2.274,0,0,0-2.31,1.192V49h-3.1V37.377h2.933l.086,1.386a2.877,2.877,0,0,1,2.589-1.6,3.253,3.253,0,0,1,.967.14Zm6.639,8.927a5.706,5.706,0,0,1-4.163-1.568,5.575,5.575,0,0,1-1.606-4.179v-.3a7.021,7.021,0,0,1,.677-3.131,4.967,4.967,0,0,1,1.917-2.127,5.382,5.382,0,0,1,2.831-.747,4.824,4.824,0,0,1,3.754,1.5,6.111,6.111,0,0,1,1.37,4.265V44.2h-7.4a2.884,2.884,0,0,0,.908,1.826,2.744,2.744,0,0,0,1.917.688,3.351,3.351,0,0,0,2.8-1.3l1.525,1.708a4.66,4.66,0,0,1-1.891,1.542A6.2,6.2,0,0,1,49.285,49.215Zm-.354-9.55a1.94,1.94,0,0,0-1.5.626,3.241,3.241,0,0,0-.736,1.791h4.318v-.248a2.311,2.311,0,0,0-.559-1.6A2,2,0,0,0,48.931,39.665Zm6.413,3.416a6.948,6.948,0,0,1,1.219-4.329,3.986,3.986,0,0,1,3.346-1.59,3.569,3.569,0,0,1,2.976,1.429l.2-1.214h2.729V53.469H62.7V48a3.579,3.579,0,0,1-2.814,1.214A3.957,3.957,0,0,1,56.579,47.6,7.288,7.288,0,0,1,55.344,43.081Zm3.1.22a4.557,4.557,0,0,0,.585,2.539,1.874,1.874,0,0,0,1.649.871,2.088,2.088,0,0,0,2.02-1.14V40.762a2.071,2.071,0,0,0-2-1.1,1.9,1.9,0,0,0-1.665.871A5.033,5.033,0,0,0,58.448,43.3Zm16.769,4.517a3.893,3.893,0,0,1-3.18,1.4,3.672,3.672,0,0,1-2.852-1.074,4.586,4.586,0,0,1-1-3.147V37.377h3.1v7.518q0,1.817,1.654,1.817a2.242,2.242,0,0,0,2.17-1.1V37.377h3.115V49H75.3Zm10.7,1.4a5.706,5.706,0,0,1-4.163-1.568,5.575,5.575,0,0,1-1.606-4.179v-.3a7.021,7.021,0,0,1,.677-3.131,4.967,4.967,0,0,1,1.917-2.127,5.382,5.382,0,0,1,2.831-.747,4.824,4.824,0,0,1,3.754,1.5,6.111,6.111,0,0,1,1.37,4.265V44.2h-7.4a2.884,2.884,0,0,0,.908,1.826,2.744,2.744,0,0,0,1.917.688,3.351,3.351,0,0,0,2.8-1.3l1.525,1.708a4.66,4.66,0,0,1-1.891,1.542A6.2,6.2,0,0,1,85.916,49.215Zm-.354-9.55a1.94,1.94,0,0,0-1.5.626,3.241,3.241,0,0,0-.736,1.791h4.318v-.248a2.311,2.311,0,0,0-.559-1.6A2,2,0,0,0,85.562,39.665Zm13.428.623a8.434,8.434,0,0,0-1.117-.086,2.274,2.274,0,0,0-2.31,1.192V49h-3.1V37.377h2.933l.086,1.386a2.877,2.877,0,0,1,2.589-1.6,3.253,3.253,0,0,1,.967.14ZM103.759,49h-3.115V37.377h3.115Zm-3.3-14.631a1.529,1.529,0,0,1,.467-1.149,2.014,2.014,0,0,1,2.541,0,1.64,1.64,0,0,1-.005,2.31,1.991,1.991,0,0,1-2.524,0A1.524,1.524,0,0,1,100.461,34.369Zm8.766,3.008.1,1.3a4.085,4.085,0,0,1,3.341-1.515,3.1,3.1,0,0,1,3.083,1.772,3.991,3.991,0,0,1,3.491-1.772,3.467,3.467,0,0,1,2.814,1.1,5.061,5.061,0,0,1,.924,3.314V49h-3.115V41.571a2.222,2.222,0,0,0-.387-1.448,1.711,1.711,0,0,0-1.364-.458A1.938,1.938,0,0,0,116.177,41l.011,8h-3.1V41.582a2.195,2.195,0,0,0-.4-1.464,1.728,1.728,0,0,0-1.354-.452,2.011,2.011,0,0,0-1.912,1.1V49h-3.1V37.377ZM128.638,49h-3.115V37.377h3.115Zm-3.3-14.631a1.529,1.529,0,0,1,.467-1.149,2.014,2.014,0,0,1,2.541,0,1.64,1.64,0,0,1-.005,2.31,1.991,1.991,0,0,1-2.524,0A1.524,1.524,0,0,1,125.34,34.369Zm11.2,14.846a5.706,5.706,0,0,1-4.163-1.568,5.575,5.575,0,0,1-1.606-4.179v-.3a7.021,7.021,0,0,1,.677-3.131,4.967,4.967,0,0,1,1.917-2.127,5.382,5.382,0,0,1,2.831-.747,4.824,4.824,0,0,1,3.754,1.5,6.111,6.111,0,0,1,1.37,4.265V44.2h-7.4a2.884,2.884,0,0,0,.908,1.826,2.744,2.744,0,0,0,1.917.688,3.351,3.351,0,0,0,2.8-1.3l1.525,1.708a4.66,4.66,0,0,1-1.891,1.542A6.2,6.2,0,0,1,136.544,49.215Zm-.354-9.55a1.94,1.94,0,0,0-1.5.626,3.241,3.241,0,0,0-.736,1.791h4.318v-.248a2.311,2.311,0,0,0-.559-1.6A2,2,0,0,0,136.189,39.665Zm9.754-2.288.1,1.343a4.058,4.058,0,0,1,3.341-1.558,3.372,3.372,0,0,1,2.75,1.085,5.062,5.062,0,0,1,.924,3.244V49h-3.1V41.549a2.022,2.022,0,0,0-.43-1.437,1.921,1.921,0,0,0-1.429-.447,2.135,2.135,0,0,0-1.966,1.12V49h-3.1V37.377Zm13.181-2.857v2.857h1.987v2.277h-1.987v5.8a1.385,1.385,0,0,0,.247.924,1.241,1.241,0,0,0,.945.279,4.951,4.951,0,0,0,.913-.075v2.353a6.391,6.391,0,0,1-1.88.279q-3.266,0-3.33-3.3V39.654h-1.7V37.377h1.7V34.52Zm2.911,8.562A6.893,6.893,0,0,1,162.7,40a4.876,4.876,0,0,1,1.917-2.095,5.594,5.594,0,0,1,2.906-.741,5.293,5.293,0,0,1,3.84,1.439,5.777,5.777,0,0,1,1.66,3.91l.021.795a6.075,6.075,0,0,1-1.493,4.292,5.787,5.787,0,0,1-8.019.005,6.182,6.182,0,0,1-1.5-4.383Zm3.1.22a4.345,4.345,0,0,0,.623,2.534,2.238,2.238,0,0,0,3.545.011,4.754,4.754,0,0,0,.634-2.77,4.3,4.3,0,0,0-.634-2.518,2.06,2.06,0,0,0-1.783-.893,2.027,2.027,0,0,0-1.762.888A4.834,4.834,0,0,0,165.14,43.3Zm16.113,2.487a1,1,0,0,0-.564-.9,6.406,6.406,0,0,0-1.81-.585q-4.146-.87-4.146-3.523a3.194,3.194,0,0,1,1.284-2.583,5.178,5.178,0,0,1,3.357-1.037,5.573,5.573,0,0,1,3.54,1.042,3.284,3.284,0,0,1,1.327,2.707h-3.1a1.5,1.5,0,0,0-.43-1.1,1.818,1.818,0,0,0-1.343-.435,1.858,1.858,0,0,0-1.214.354,1.119,1.119,0,0,0-.43.9.957.957,0,0,0,.489.833,5.028,5.028,0,0,0,1.649.548,13.468,13.468,0,0,1,1.955.521,3.212,3.212,0,0,1,2.46,3.126,3.032,3.032,0,0,1-1.364,2.573,5.885,5.885,0,0,1-3.523.983,6.147,6.147,0,0,1-2.594-.521,4.353,4.353,0,0,1-1.778-1.429,3.32,3.32,0,0,1-.645-1.96h2.943a1.621,1.621,0,0,0,.612,1.268,2.429,2.429,0,0,0,1.525.44,2.248,2.248,0,0,0,1.348-.338A1.053,1.053,0,0,0,181.253,45.788Z" transform="translate(634 1448.001)" fill="#12263f"/>
    <path id="Trazado_208875" data-name="Trazado 208875" d="M48.665,15.489V21H45.442V5.359h6.1a7.059,7.059,0,0,1,3.1.645A4.75,4.75,0,0,1,56.7,7.835a5.107,5.107,0,0,1,.72,2.7,4.491,4.491,0,0,1-1.574,3.625,6.555,6.555,0,0,1-4.356,1.327Zm0-2.61h2.879a2.831,2.831,0,0,0,1.95-.6,2.188,2.188,0,0,0,.671-1.719A2.58,2.58,0,0,0,53.488,8.7a2.528,2.528,0,0,0-1.869-.73H48.665Zm17.295-.591a8.434,8.434,0,0,0-1.117-.086,2.274,2.274,0,0,0-2.31,1.192V21h-3.1V9.377h2.933l.086,1.386a2.877,2.877,0,0,1,2.589-1.6A3.253,3.253,0,0,1,66,9.3Zm8.454,7.53a3.893,3.893,0,0,1-3.18,1.4,3.672,3.672,0,0,1-2.852-1.074,4.586,4.586,0,0,1-1-3.147V9.377h3.1v7.518q0,1.817,1.654,1.817a2.242,2.242,0,0,0,2.17-1.1V9.377h3.115V21H74.5Zm10.7,1.4a5.706,5.706,0,0,1-4.163-1.568,5.575,5.575,0,0,1-1.606-4.179v-.3a7.021,7.021,0,0,1,.677-3.131,4.967,4.967,0,0,1,1.917-2.127,5.382,5.382,0,0,1,2.831-.747,4.824,4.824,0,0,1,3.754,1.5,6.111,6.111,0,0,1,1.37,4.265V16.2h-7.4a2.884,2.884,0,0,0,.908,1.826,2.744,2.744,0,0,0,1.917.688,3.351,3.351,0,0,0,2.8-1.3l1.525,1.708a4.66,4.66,0,0,1-1.891,1.542A6.2,6.2,0,0,1,85.113,21.215Zm-.354-9.55a1.94,1.94,0,0,0-1.5.626,3.241,3.241,0,0,0-.736,1.791h4.318v-.248a2.311,2.311,0,0,0-.559-1.6A2,2,0,0,0,84.758,11.665Zm17.37,3.631a7.038,7.038,0,0,1-1.192,4.356,3.95,3.95,0,0,1-3.33,1.563,3.629,3.629,0,0,1-3.019-1.45L94.448,21H91.655V4.5h3.1v5.919a3.536,3.536,0,0,1,2.825-1.257,3.982,3.982,0,0,1,3.335,1.563,7.048,7.048,0,0,1,1.208,4.4Zm-3.1-.237a4.649,4.649,0,0,0-.559-2.581,1.887,1.887,0,0,0-1.665-.814,2.047,2.047,0,0,0-2.041,1.218v4.6a2.075,2.075,0,0,0,2.063,1.228A1.917,1.917,0,0,0,98.8,17.225,7.693,7.693,0,0,0,99.024,15.059ZM110.776,21a3.448,3.448,0,0,1-.312-1.042,3.756,3.756,0,0,1-2.933,1.257,4.127,4.127,0,0,1-2.831-.988,3.178,3.178,0,0,1-1.123-2.492,3.285,3.285,0,0,1,1.37-2.836,6.758,6.758,0,0,1,3.958-1h1.429v-.666a1.915,1.915,0,0,0-.414-1.289,1.627,1.627,0,0,0-1.305-.483,1.85,1.85,0,0,0-1.23.376,1.277,1.277,0,0,0-.446,1.031h-3.1A3.118,3.118,0,0,1,104.459,11a4.118,4.118,0,0,1,1.762-1.348,6.42,6.42,0,0,1,2.557-.489,5.073,5.073,0,0,1,3.411,1.08,3.777,3.777,0,0,1,1.262,3.035v5.038a5.557,5.557,0,0,0,.462,2.5V21Zm-2.567-2.159a2.674,2.674,0,0,0,1.268-.306,2.011,2.011,0,0,0,.859-.822v-2h-1.16q-2.331,0-2.481,1.611l-.011.183a1.243,1.243,0,0,0,.408.956A1.586,1.586,0,0,0,108.208,18.841Zm13.922-1.053a1,1,0,0,0-.564-.9,6.406,6.406,0,0,0-1.81-.585q-4.146-.87-4.146-3.523a3.194,3.194,0,0,1,1.284-2.583,5.178,5.178,0,0,1,3.357-1.037,5.573,5.573,0,0,1,3.54,1.042,3.284,3.284,0,0,1,1.327,2.707h-3.1a1.5,1.5,0,0,0-.43-1.1,1.818,1.818,0,0,0-1.343-.435,1.858,1.858,0,0,0-1.214.354,1.119,1.119,0,0,0-.43.9.957.957,0,0,0,.489.833,5.028,5.028,0,0,0,1.649.548,13.468,13.468,0,0,1,1.955.521,3.212,3.212,0,0,1,2.46,3.126,3.032,3.032,0,0,1-1.364,2.573,5.885,5.885,0,0,1-3.523.983,6.147,6.147,0,0,1-2.594-.521,4.353,4.353,0,0,1-1.778-1.429,3.32,3.32,0,0,1-.645-1.96h2.943a1.621,1.621,0,0,0,.612,1.268,2.429,2.429,0,0,0,1.525.44,2.248,2.248,0,0,0,1.348-.338A1.053,1.053,0,0,0,122.13,17.788ZM26.181,49.215a5.706,5.706,0,0,1-4.163-1.568,5.575,5.575,0,0,1-1.606-4.179v-.3a7.021,7.021,0,0,1,.677-3.131,4.967,4.967,0,0,1,1.917-2.127,5.382,5.382,0,0,1,2.831-.747,4.824,4.824,0,0,1,3.754,1.5,6.111,6.111,0,0,1,1.37,4.265V44.2h-7.4a2.884,2.884,0,0,0,.908,1.826,2.744,2.744,0,0,0,1.917.688,3.351,3.351,0,0,0,2.8-1.3l1.525,1.708a4.66,4.66,0,0,1-1.891,1.542A6.2,6.2,0,0,1,26.181,49.215Zm-.354-9.55a1.94,1.94,0,0,0-1.5.626,3.241,3.241,0,0,0-.736,1.791h4.318v-.248a2.311,2.311,0,0,0-.559-1.6A2,2,0,0,0,25.827,39.665Zm13.191,6.123a1,1,0,0,0-.564-.9,6.406,6.406,0,0,0-1.81-.585q-4.146-.87-4.146-3.523A3.194,3.194,0,0,1,33.781,38.2a5.178,5.178,0,0,1,3.357-1.037,5.573,5.573,0,0,1,3.54,1.042A3.284,3.284,0,0,1,42,40.911H38.9a1.5,1.5,0,0,0-.43-1.1,1.818,1.818,0,0,0-1.343-.435,1.858,1.858,0,0,0-1.214.354,1.119,1.119,0,0,0-.43.9.957.957,0,0,0,.489.833,5.028,5.028,0,0,0,1.649.548,13.468,13.468,0,0,1,1.955.521,3.212,3.212,0,0,1,2.46,3.126,3.032,3.032,0,0,1-1.364,2.573,5.885,5.885,0,0,1-3.523.983,6.147,6.147,0,0,1-2.594-.521,4.353,4.353,0,0,1-1.778-1.429,3.32,3.32,0,0,1-.645-1.96h2.943a1.621,1.621,0,0,0,.612,1.268,2.429,2.429,0,0,0,1.525.44,2.248,2.248,0,0,0,1.348-.338A1.053,1.053,0,0,0,39.018,45.788ZM47.751,34.52v2.857h1.987v2.277H47.751v5.8a1.385,1.385,0,0,0,.247.924,1.241,1.241,0,0,0,.945.279,4.951,4.951,0,0,0,.913-.075v2.353a6.391,6.391,0,0,1-1.88.279q-3.266,0-3.33-3.3V39.654h-1.7V37.377h1.7V34.52ZM58,40.288a8.434,8.434,0,0,0-1.117-.086,2.274,2.274,0,0,0-2.31,1.192V49h-3.1V37.377H54.4l.086,1.386a2.877,2.877,0,0,1,2.589-1.6,3.253,3.253,0,0,1,.967.14Zm8.454,7.53a3.893,3.893,0,0,1-3.18,1.4,3.672,3.672,0,0,1-2.852-1.074,4.586,4.586,0,0,1-1-3.147V37.377h3.1v7.518q0,1.817,1.654,1.817a2.242,2.242,0,0,0,2.17-1.1V37.377h3.115V49H66.54Zm10.184-1.106a2.036,2.036,0,0,0,1.4-.473,1.656,1.656,0,0,0,.559-1.257H81.5a3.982,3.982,0,0,1-.645,2.165,4.253,4.253,0,0,1-1.735,1.525,5.43,5.43,0,0,1-2.433.542,5.046,5.046,0,0,1-3.932-1.584,6.27,6.27,0,0,1-1.439-4.377v-.2a6.2,6.2,0,0,1,1.429-4.286,4.987,4.987,0,0,1,3.921-1.6,4.889,4.889,0,0,1,3.5,1.241,4.393,4.393,0,0,1,1.337,3.3H78.592a2.133,2.133,0,0,0-.559-1.474,2.076,2.076,0,0,0-3.056.224,4.583,4.583,0,0,0-.553,2.566v.323a4.641,4.641,0,0,0,.548,2.582A1.893,1.893,0,0,0,76.637,46.712ZM86.993,34.52v2.857H88.98v2.277H86.993v5.8a1.385,1.385,0,0,0,.247.924,1.241,1.241,0,0,0,.945.279,4.951,4.951,0,0,0,.913-.075v2.353a6.391,6.391,0,0,1-1.88.279q-3.266,0-3.33-3.3V39.654h-1.7V37.377h1.7V34.52Zm10.678,13.3a3.893,3.893,0,0,1-3.18,1.4,3.672,3.672,0,0,1-2.852-1.074,4.586,4.586,0,0,1-1-3.147V37.377h3.1v7.518q0,1.817,1.654,1.817a2.242,2.242,0,0,0,2.17-1.1V37.377h3.115V49H97.756Zm11.881-7.53a8.434,8.434,0,0,0-1.117-.086,2.274,2.274,0,0,0-2.31,1.192V49h-3.1V37.377h2.933l.086,1.386a2.877,2.877,0,0,1,2.589-1.6,3.253,3.253,0,0,1,.967.14ZM117.458,49a3.448,3.448,0,0,1-.312-1.042,3.756,3.756,0,0,1-2.933,1.257,4.127,4.127,0,0,1-2.831-.988,3.178,3.178,0,0,1-1.123-2.492,3.285,3.285,0,0,1,1.37-2.836,6.758,6.758,0,0,1,3.958-1h1.429v-.666a1.915,1.915,0,0,0-.414-1.289,1.627,1.627,0,0,0-1.305-.483,1.85,1.85,0,0,0-1.23.376,1.277,1.277,0,0,0-.446,1.031h-3.1A3.118,3.118,0,0,1,111.141,39a4.118,4.118,0,0,1,1.762-1.348,6.42,6.42,0,0,1,2.557-.489,5.073,5.073,0,0,1,3.411,1.08,3.777,3.777,0,0,1,1.262,3.035v5.038a5.557,5.557,0,0,0,.462,2.5V49Zm-2.567-2.159a2.674,2.674,0,0,0,1.268-.306,2.011,2.011,0,0,0,.859-.822v-2h-1.16q-2.331,0-2.481,1.611l-.011.183a1.243,1.243,0,0,0,.408.956A1.586,1.586,0,0,0,114.89,46.841ZM125.793,49h-3.115V32.5h3.115Zm7.906.215a5.706,5.706,0,0,1-4.163-1.568,5.575,5.575,0,0,1-1.606-4.179v-.3a7.021,7.021,0,0,1,.677-3.131,4.967,4.967,0,0,1,1.917-2.127,5.382,5.382,0,0,1,2.831-.747,4.824,4.824,0,0,1,3.754,1.5,6.111,6.111,0,0,1,1.37,4.265V44.2h-7.4a2.884,2.884,0,0,0,.908,1.826,2.744,2.744,0,0,0,1.917.688,3.351,3.351,0,0,0,2.8-1.3l1.525,1.708a4.66,4.66,0,0,1-1.891,1.542A6.2,6.2,0,0,1,133.7,49.215Zm-.354-9.55a1.94,1.94,0,0,0-1.5.626,3.241,3.241,0,0,0-.736,1.791h4.318v-.248a2.311,2.311,0,0,0-.559-1.6A2,2,0,0,0,133.345,39.665Zm13.191,6.123a1,1,0,0,0-.564-.9,6.406,6.406,0,0,0-1.81-.585q-4.146-.87-4.146-3.523A3.194,3.194,0,0,1,141.3,38.2a5.178,5.178,0,0,1,3.357-1.037A5.573,5.573,0,0,1,148.2,38.2a3.284,3.284,0,0,1,1.327,2.707h-3.1a1.5,1.5,0,0,0-.43-1.1,1.818,1.818,0,0,0-1.343-.435,1.858,1.858,0,0,0-1.214.354,1.119,1.119,0,0,0-.43.9.957.957,0,0,0,.489.833,5.028,5.028,0,0,0,1.649.548,13.468,13.468,0,0,1,1.955.521,3.212,3.212,0,0,1,2.46,3.126,3.032,3.032,0,0,1-1.364,2.573,5.885,5.885,0,0,1-3.523.983,6.147,6.147,0,0,1-2.594-.521,4.353,4.353,0,0,1-1.778-1.429,3.32,3.32,0,0,1-.645-1.96h2.943a1.621,1.621,0,0,0,.612,1.268,2.429,2.429,0,0,0,1.525.44,2.248,2.248,0,0,0,1.348-.338A1.053,1.053,0,0,0,146.537,45.788Z" transform="translate(992 1585.001)" fill="#12263f"/>
  </g>
</svg>
