<svg xmlns="http://www.w3.org/2000/svg" xmlns:xlink="http://www.w3.org/1999/xlink" width="401.113" height="1139" viewBox="0 0 401.113 1139">
  <defs>
    <clipPath id="clip-path">
      <rect id="Rectángulo_297996" data-name="Rectángulo 297996" width="200.585" height="209" fill="none"/>
    </clipPath>
    <clipPath id="clip-path-2">
      <rect id="Rectángulo_297998" data-name="Rectángulo 297998" width="168.541" height="271" fill="none"/>
    </clipPath>
    <clipPath id="clip-path-3">
      <rect id="Rectángulo_298000" data-name="Rectángulo 298000" width="262.118" height="132.08" fill="none"/>
    </clipPath>
    <clipPath id="clip-path-4">
      <rect id="Rectángulo_297995" data-name="Rectángulo 297995" width="400" height="307.663" fill="none"/>
    </clipPath>
    <clipPath id="clip-path-6">
      <rect id="Rectángulo_297983" data-name="Rectángulo 297983" width="32.561" height="46.616" fill="none"/>
    </clipPath>
    <clipPath id="clip-path-7">
      <rect id="Rectángulo_297982" data-name="Rectángulo 297982" width="32.559" height="46.612" fill="none"/>
    </clipPath>
    <clipPath id="clip-path-8">
      <rect id="Rectángulo_297985" data-name="Rectángulo 297985" width="27.111" height="29.083" fill="none"/>
    </clipPath>
    <clipPath id="clip-path-9">
      <rect id="Rectángulo_297984" data-name="Rectángulo 297984" width="27.11" height="29.071" fill="none"/>
    </clipPath>
    <clipPath id="clip-path-10">
      <rect id="Rectángulo_297987" data-name="Rectángulo 297987" width="18.372" height="15.593" fill="none"/>
    </clipPath>
    <clipPath id="clip-path-11">
      <rect id="Rectángulo_297986" data-name="Rectángulo 297986" width="18.37" height="15.593" fill="none"/>
    </clipPath>
    <clipPath id="clip-path-12">
      <rect id="Rectángulo_297989" data-name="Rectángulo 297989" width="52.036" height="43.573" fill="none"/>
    </clipPath>
    <clipPath id="clip-path-13">
      <rect id="Rectángulo_297988" data-name="Rectángulo 297988" width="52.035" height="43.573" fill="none"/>
    </clipPath>
    <clipPath id="clip-path-14">
      <rect id="Rectángulo_297991" data-name="Rectángulo 297991" width="8.36" height="9.952" fill="none"/>
    </clipPath>
    <clipPath id="clip-path-15">
      <rect id="Rectángulo_297990" data-name="Rectángulo 297990" width="8.36" height="9.951" fill="none"/>
    </clipPath>
    <clipPath id="clip-path-16">
      <rect id="Rectángulo_297993" data-name="Rectángulo 297993" width="41.941" height="55.531" fill="none"/>
    </clipPath>
    <clipPath id="clip-path-17">
      <rect id="Rectángulo_297992" data-name="Rectángulo 297992" width="41.908" height="55.518" fill="none"/>
    </clipPath>
    <clipPath id="clip-path-18">
      <rect id="Rectángulo_297978" data-name="Rectángulo 297978" width="344.87" height="712.295" fill="none"/>
    </clipPath>
    <clipPath id="clip-path-20">
      <rect id="Rectángulo_297974" data-name="Rectángulo 297974" width="84.738" height="42.934" fill="none"/>
    </clipPath>
    <clipPath id="clip-path-21">
      <rect id="Rectángulo_297973" data-name="Rectángulo 297973" width="84.738" height="42.927" fill="none"/>
    </clipPath>
    <clipPath id="clip-path-22">
      <rect id="Rectángulo_297976" data-name="Rectángulo 297976" width="91.762" height="9.194" fill="none"/>
    </clipPath>
    <clipPath id="clip-path-23">
      <rect id="Rectángulo_297975" data-name="Rectángulo 297975" width="91.76" height="9.194" fill="none"/>
    </clipPath>
    <clipPath id="clip-path-24">
      <rect id="Rectángulo_298002" data-name="Rectángulo 298002" width="190" height="89.555" fill="none"/>
    </clipPath>
  </defs>
  <g id="Grupo_174646" data-name="Grupo 174646" transform="translate(-180 -1894)">
    <g id="Grupo_174635" data-name="Grupo 174635" transform="translate(379.416 2543.908)">
      <g id="Grupo_174634" data-name="Grupo 174634" clip-path="url(#clip-path)">
        <path id="Trazado_207887" data-name="Trazado 207887" d="M50.058,14.594A41.179,41.179,0,0,1,60.1,10.231L62.166.3,78.956,0l2.418,9.858a41.082,41.082,0,0,1,10.187,4.008L100.046,8.3l12.081,11.665-5.266,8.674a41.142,41.142,0,0,1,4.363,10.043l9.93,2.069.3,16.789L111.6,59.956a41.079,41.079,0,0,1-4.007,10.187l5.567,8.487L101.5,90.712,92.82,85.446a41.142,41.142,0,0,1-10.043,4.363l-2.069,9.93-16.789.3L61.5,90.182a41.16,41.16,0,0,1-10.187-4.007l-8.486,5.567L30.747,80.078,36.013,71.4A41.132,41.132,0,0,1,31.65,61.361l-9.93-2.069-.3-16.791,9.858-2.418A41.149,41.149,0,0,1,35.283,29.9l-5.567-8.487L41.38,9.33Zm8.951,22.366a18.014,18.014,0,1,0,25.472-.45l0,0a18.012,18.012,0,0,0-25.469.45l0,0" transform="translate(79.128)" fill="#ebebeb"/>
        <path id="Trazado_207888" data-name="Trazado 207888" d="M194.831,174.163H4.67A4.442,4.442,0,0,1,.229,169.72V72.768A4.441,4.441,0,0,1,4.67,68.325H195.7a4.443,4.443,0,0,1,4.443,4.443v96.083a5.313,5.313,0,0,1-5.313,5.313" transform="translate(0.116 34.473)" fill="#fff"/>
        <path id="Trazado_207889" data-name="Trazado 207889" d="M200.149,91.053H.229V73.194A4.869,4.869,0,0,1,5.1,68.324H195.282a4.87,4.87,0,0,1,4.87,4.87Z" transform="translate(0.116 34.472)" fill="#e0e0e0"/>
        <path id="Trazado_207890" data-name="Trazado 207890" d="M194.639,174.3a8.182,8.182,0,0,0,1.526-.254,5.631,5.631,0,0,0,3.391-2.8,6.143,6.143,0,0,0,.615-3.226q0-1.86-.017-4.062-.016-4.405-.033-10.133c-.027-15.264-.068-37.322-.116-64.576q0-5.116-.011-10.464V73.365a4.267,4.267,0,0,0-2.43-4.243,5.406,5.406,0,0,0-2.625-.39h-8.579l-11.814.011-51.183.033-117.273.03a7.517,7.517,0,0,0-1.855.128,4.575,4.575,0,0,0-3.46,3.73A13.469,13.469,0,0,0,.715,74.54v51.02q0,14.726-.009,28.887v14A5.319,5.319,0,0,0,4,173.566a7.777,7.777,0,0,0,3.232.39h3.39l95.782.078,64.572.116,17.556.068,4.566.036c1.028.012,1.556.038,1.556.038s-.527.026-1.556.038l-4.566.035-17.556.069-64.572.116-95.782.078H7.235a8.409,8.409,0,0,1-3.486-.436,6.006,6.006,0,0,1-3.731-5.738v-14q0-14.155-.011-28.887t0-29.922v-21.1A14.411,14.411,0,0,1,.08,72.551a5.313,5.313,0,0,1,4.014-4.326,8.3,8.3,0,0,1,2.022-.15l117.274.03,51.183.033,11.814.011h8.579a5.983,5.983,0,0,1,2.859.451,4.834,4.834,0,0,1,2.744,4.754v5.416q0,5.351-.011,10.464c-.05,27.255-.09,49.313-.116,64.576-.012,3.809-.024,7.2-.033,10.133q-.009,2.2-.017,4.062a8.929,8.929,0,0,1-.122,1.78,6.047,6.047,0,0,1-.548,1.515,5.657,5.657,0,0,1-3.5,2.8,4.623,4.623,0,0,1-1.545.182" transform="translate(0 34.342)" fill="#263238"/>
        <path id="Trazado_207891" data-name="Trazado 207891" d="M15.088,78.3a3.722,3.722,0,1,1-3.722-3.722A3.724,3.724,0,0,1,15.088,78.3" transform="translate(3.857 37.629)" fill="#fff"/>
        <path id="Trazado_207892" data-name="Trazado 207892" d="M22.7,78.3a3.722,3.722,0,1,1-3.722-3.722A3.723,3.723,0,0,1,22.7,78.3" transform="translate(7.698 37.629)" fill="#fff"/>
        <path id="Trazado_207893" data-name="Trazado 207893" d="M30.315,78.3a3.722,3.722,0,1,1-3.724-3.722A3.724,3.724,0,0,1,30.315,78.3" transform="translate(11.539 37.629)" fill="#fff"/>
        <path id="Trazado_207894" data-name="Trazado 207894" d="M47.152,106.41H23.913a2.522,2.522,0,0,1,0-5.043H47.153a2.522,2.522,0,0,1,0,5.043" transform="translate(10.796 51.144)" fill="#263238"/>
        <path id="Trazado_207895" data-name="Trazado 207895" d="M47.152,115.183H23.913a2.522,2.522,0,0,1,0-5.043H47.153a2.522,2.522,0,0,1,0,5.043" transform="translate(10.796 55.57)" fill="#e0e0e0"/>
        <path id="Trazado_207896" data-name="Trazado 207896" d="M143.5,106.41H76.1a2.522,2.522,0,0,1,0-5.043h67.4a2.522,2.522,0,0,1,0,5.043" transform="translate(37.127 51.144)" fill="#e0e0e0"/>
        <path id="Trazado_207897" data-name="Trazado 207897" d="M47.152,124.249H23.913a2.522,2.522,0,0,1,0-5.043H47.153a2.522,2.522,0,0,1,0,5.043" transform="translate(10.796 60.144)" fill="#ffb30b"/>
        <path id="Trazado_207898" data-name="Trazado 207898" d="M118.006,115.183H94.766a2.522,2.522,0,0,1,0-5.043h23.241a2.522,2.522,0,0,1,0,5.043" transform="translate(46.544 55.57)" fill="#ffb30b"/>
        <path id="Trazado_207899" data-name="Trazado 207899" d="M71.9,106.41H48.667a2.522,2.522,0,1,1-.011-5.043H71.907a2.522,2.522,0,0,1,0,5.043" transform="translate(23.279 51.144)" fill="#455a64"/>
        <path id="Trazado_207900" data-name="Trazado 207900" d="M101.844,115.183H48.663a2.522,2.522,0,0,1,0-5.043h53.185a2.522,2.522,0,0,1,0,5.043" transform="translate(23.283 55.57)" fill="#263238"/>
        <path id="Trazado_207901" data-name="Trazado 207901" d="M154.013,124.249H48.547a2.525,2.525,0,0,1,0-5.043H154.013a2.525,2.525,0,0,1,0,5.043" transform="translate(23.281 60.144)" fill="#e0e0e0"/>
        <path id="Trazado_207902" data-name="Trazado 207902" d="M100.74,130.635H48.667a2.522,2.522,0,0,1-.012-5.043h52.089a2.522,2.522,0,0,1,0,5.043" transform="translate(23.279 63.366)" fill="#e0e0e0"/>
        <circle id="Elipse_13229" data-name="Elipse 13229" cx="2.558" cy="2.558" r="2.558" transform="translate(18.2 152.477)" fill="#455a64"/>
        <circle id="Elipse_13230" data-name="Elipse 13230" cx="2.558" cy="2.558" r="2.558" transform="translate(18.2 139.846)" fill="#455a64"/>
        <circle id="Elipse_13231" data-name="Elipse 13231" cx="2.558" cy="2.558" r="2.558" transform="translate(18.2 165.635)" fill="#455a64"/>
        <circle id="Elipse_13232" data-name="Elipse 13232" cx="2.558" cy="2.558" r="2.558" transform="translate(18.2 179.316)" fill="#455a64"/>
        <path id="Trazado_207903" data-name="Trazado 207903" d="M37.4,97.5H23.089a1.344,1.344,0,0,1-1.344-1.344V93.979a1.344,1.344,0,0,1,1.344-1.344H37.4a1.344,1.344,0,0,1,1.344,1.344v2.177A1.344,1.344,0,0,1,37.4,97.5" transform="translate(10.971 46.738)" fill="#455a64"/>
      </g>
    </g>
    <g id="Grupo_174638" data-name="Grupo 174638" transform="translate(180 2762)">
      <g id="Grupo_174637" data-name="Grupo 174637" clip-path="url(#clip-path-2)">
        <rect id="Rectángulo_297997" data-name="Rectángulo 297997" width="167.665" height="270.251" rx="2.85" transform="translate(0.427 0.439)" fill="#fff"/>
        <path id="Trazado_207904" data-name="Trazado 207904" d="M167.9,30.438H.235V6.368A6.127,6.127,0,0,1,6.359.242H162a5.9,5.9,0,0,1,5.9,5.9Z" transform="translate(0.193 0.199)" fill="#e0e0e0"/>
        <path id="Trazado_207905" data-name="Trazado 207905" d="M162.468,270.69a6.476,6.476,0,0,0,2.161-.481,5.717,5.717,0,0,0,2.146-1.64A5.606,5.606,0,0,0,168,265.095c-.018-5.785-.047-14.289-.082-25.236-.035-21.933-.082-53.639-.14-92.816-.027-39.19-.06-85.849-.095-137.655V6.955a7.876,7.876,0,0,0-.2-2.309,5.223,5.223,0,0,0-5.091-3.8H134.843l-41.5.013H6.062A5.177,5.177,0,0,0,.882,5.614C.838,6.474.869,7.454.86,8.367V84.482c0,28.2-.016,55.392-.026,81.3s-.029,50.527-.04,73.569q0,8.64-.013,16.978v8.26a5.35,5.35,0,0,0,4.176,5.614,28.612,28.612,0,0,0,3.912.12H20.593l15.04.015,92.811.14,25.233.084,6.56.042c1.48.015,2.236.046,2.236.046s-.758.031-2.236.046l-6.56.042-25.233.084-92.811.14-15.04.015H8.87a28.967,28.967,0,0,1-4.054-.128,5.984,5.984,0,0,1-3.531-2.2,6.133,6.133,0,0,1-1.2-4.029v-8.26q0-8.336-.013-16.978C.054,216.339.04,191.718.027,165.812S.011,112.7,0,84.509V8.394C.014,7.451-.022,6.572.027,5.57A6.064,6.064,0,0,1,6.089,0L93.368.011l41.5.011h27.55a6.046,6.046,0,0,1,5.878,4.4,8.694,8.694,0,0,1,.23,2.531V9.389c-.036,51.806-.067,98.465-.095,137.655-.06,39.175-.108,70.88-.14,92.816-.036,10.945-.064,19.449-.084,25.236a5.679,5.679,0,0,1-3.517,5.2,5.855,5.855,0,0,1-1.631.39c-.377.011-.565,0-.565,0" transform="translate(0 0)" fill="#263238"/>
        <path id="Trazado_207906" data-name="Trazado 207906" d="M18.261,12.051A4.947,4.947,0,1,1,13.314,7.1a4.948,4.948,0,0,1,4.947,4.947" transform="translate(6.879 5.84)" fill="#fff"/>
        <path id="Trazado_207907" data-name="Trazado 207907" d="M26.613,12.051A4.947,4.947,0,1,1,21.666,7.1a4.948,4.948,0,0,1,4.947,4.947" transform="translate(13.745 5.84)" fill="#fff"/>
        <path id="Trazado_207908" data-name="Trazado 207908" d="M34.966,12.051A4.947,4.947,0,1,1,30.019,7.1a4.948,4.948,0,0,1,4.947,4.947" transform="translate(20.612 5.84)" fill="#fff"/>
        <path id="Trazado_207909" data-name="Trazado 207909" d="M55.752,42.308H24.877a3.351,3.351,0,0,1-.157-6.7c.053,0,.1,0,.157,0H55.752a3.351,3.351,0,0,1,.157,6.7c-.053,0-.1,0-.157,0" transform="translate(17.633 29.272)" fill="#263238"/>
        <path id="Trazado_207910" data-name="Trazado 207910" d="M55.752,51.931H24.877a3.351,3.351,0,0,1-.157-6.7c.053,0,.1,0,.157,0H55.752a3.351,3.351,0,0,1,.157,6.7c-.053,0-.1,0-.157,0" transform="translate(17.633 37.184)" fill="#e0e0e0"/>
        <path id="Trazado_207911" data-name="Trazado 207911" d="M56.236,78.293H25.361a3.351,3.351,0,0,1-.157-6.7c.053,0,.1,0,.157,0H56.236a3.351,3.351,0,0,1,0,6.7" transform="translate(18.031 58.856)" fill="#e0e0e0"/>
        <path id="Trazado_207912" data-name="Trazado 207912" d="M55.682,61.877H24.807a3.351,3.351,0,0,1,0-6.7H55.682a3.351,3.351,0,0,1,0,6.7" transform="translate(17.703 45.361)" fill="#ffb30b"/>
        <path id="Trazado_207913" data-name="Trazado 207913" d="M55.682,117.339H24.807a3.351,3.351,0,0,1,0-6.7H55.682a3.351,3.351,0,0,1,0,6.7" transform="translate(17.703 90.957)" fill="#ffb30b"/>
        <path id="Trazado_207914" data-name="Trazado 207914" d="M82.9,42.308H52.025a3.351,3.351,0,0,1-.157-6.7c.053,0,.1,0,.157,0H82.9a3.351,3.351,0,0,1,.157,6.7c-.053,0-.1,0-.157,0" transform="translate(39.951 29.272)" fill="#455a64"/>
        <path id="Trazado_207915" data-name="Trazado 207915" d="M116.3,51.931H51.7a3.364,3.364,0,0,1,0-6.7h64.6a3.364,3.364,0,0,1,0,6.7" transform="translate(39.987 37.185)" fill="#263238"/>
        <path id="Trazado_207916" data-name="Trazado 207916" d="M115.589,61.877H50.54a3.356,3.356,0,0,1,0-6.7h65.049a3.356,3.356,0,0,1,0,6.7" transform="translate(38.96 45.361)" fill="#e0e0e0"/>
        <path id="Trazado_207917" data-name="Trazado 207917" d="M89.8,69.921H24.752a3.356,3.356,0,0,1,0-6.7H89.8a3.356,3.356,0,0,1,0,6.7" transform="translate(17.759 51.974)" fill="#e0e0e0"/>
        <path id="Trazado_207918" data-name="Trazado 207918" d="M18.093,38.982a3.4,3.4,0,1,1-3.4-3.4,3.4,3.4,0,0,1,3.4,3.4Z" transform="translate(9.278 29.249)" fill="#455a64"/>
        <path id="Trazado_207919" data-name="Trazado 207919" d="M18.093,29.773a3.4,3.4,0,1,1-3.4-3.4,3.4,3.4,0,0,1,3.4,3.4Z" transform="translate(9.278 21.678)" fill="#455a64"/>
        <path id="Trazado_207920" data-name="Trazado 207920" d="M18.093,48.575a3.4,3.4,0,1,1-3.4-3.4,3.4,3.4,0,0,1,3.4,3.4Z" transform="translate(9.278 37.135)" fill="#455a64"/>
        <path id="Trazado_207921" data-name="Trazado 207921" d="M18.093,58.553a3.4,3.4,0,1,1-3.4-3.4,3.4,3.4,0,0,1,3.4,3.4Z" transform="translate(9.278 45.338)" fill="#455a64"/>
        <path id="Trazado_207922" data-name="Trazado 207922" d="M56.166,105.209H25.291a3.351,3.351,0,0,1,0-6.7H56.166a3.351,3.351,0,0,1,0,6.7" transform="translate(18.101 80.985)" fill="#e0e0e0"/>
        <path id="Trazado_207923" data-name="Trazado 207923" d="M55.682,88.793H24.807a3.351,3.351,0,0,1,0-6.7H55.682a3.351,3.351,0,0,1,0,6.7" transform="translate(17.703 67.489)" fill="#ffb30b"/>
        <path id="Trazado_207924" data-name="Trazado 207924" d="M115.589,88.793H50.54a3.356,3.356,0,0,1,0-6.7h65.049a3.356,3.356,0,0,1,0,6.7" transform="translate(38.96 67.489)" fill="#e0e0e0"/>
        <path id="Trazado_207925" data-name="Trazado 207925" d="M89.8,96.836H24.752a3.356,3.356,0,0,1,0-6.7H89.8a3.356,3.356,0,0,1,0,6.7" transform="translate(17.759 74.101)" fill="#e0e0e0"/>
        <path id="Trazado_207926" data-name="Trazado 207926" d="M18.093,85.468a3.4,3.4,0,1,1-3.4-3.4,3.4,3.4,0,0,1,3.4,3.4Z" transform="translate(9.278 67.465)" fill="#455a64"/>
        <path id="Trazado_207927" data-name="Trazado 207927" d="M42.548,33.374H23.219a1.628,1.628,0,0,1-1.629-1.625V28.538a1.628,1.628,0,0,1,1.627-1.627H42.548a1.628,1.628,0,0,1,1.627,1.627v3.209A1.628,1.628,0,0,1,42.548,33.374Z" transform="translate(17.749 22.124)" fill="#455a64"/>
        <path id="Trazado_207928" data-name="Trazado 207928" d="M55.682,127.139H24.807a3.351,3.351,0,0,1,0-6.7H55.682a3.351,3.351,0,0,1,0,6.7" transform="translate(17.703 99.014)" fill="#263238"/>
        <path id="Trazado_207929" data-name="Trazado 207929" d="M82.83,127.139H51.955a3.351,3.351,0,0,1,0-6.7H82.83a3.351,3.351,0,0,1,.157,6.7c-.053,0-.1,0-.157,0" transform="translate(40.021 99.013)" fill="#455a64"/>
        <path id="Trazado_207930" data-name="Trazado 207930" d="M18.093,123.814a3.4,3.4,0,1,1-3.4-3.4,3.4,3.4,0,0,1,3.4,3.4Z" transform="translate(9.278 98.99)" fill="#455a64"/>
        <path id="Trazado_207931" data-name="Trazado 207931" d="M18.093,132.671a3.4,3.4,0,1,1-3.4-3.4,3.4,3.4,0,0,1,3.4,3.4Z" transform="translate(9.278 106.271)" fill="#455a64"/>
        <path id="Trazado_207932" data-name="Trazado 207932" d="M42.548,136.274H23.219a1.628,1.628,0,0,1-1.629-1.625v-3.211a1.628,1.628,0,0,1,1.627-1.627H42.548a1.628,1.628,0,0,1,1.627,1.627v3.2a1.628,1.628,0,0,1-1.627,1.627" transform="translate(17.749 106.718)" fill="#455a64"/>
      </g>
    </g>
    <g id="Grupo_174640" data-name="Grupo 174640" transform="translate(265 1968.921)">
      <g id="Grupo_174639" data-name="Grupo 174639" transform="translate(0 0)" clip-path="url(#clip-path-3)">
        <path id="Trazado_207933" data-name="Trazado 207933" d="M125.57,15.081a41.4,41.4,0,0,1,10.108-4.393L137.762.678l16.906-.3,2.432,9.925a41.5,41.5,0,0,1,10.258,4.036l8.543-5.6,12.163,11.746-5.3,8.735a41.44,41.44,0,0,1,4.394,10.11l10.01,2.084.3,16.9-9.926,2.434a41.478,41.478,0,0,1-4.034,10.257l5.6,8.545L177.367,91.72l-8.735-5.3a41.44,41.44,0,0,1-10.11,4.394l-2.084,10.01-16.9.3L137.1,91.2a41.483,41.483,0,0,1-10.257-4.036l-8.545,5.6L106.134,81.018l5.3-8.735a41.412,41.412,0,0,1-4.394-10.11l-10.01-2.082-.292-16.9,9.926-2.432A41.491,41.491,0,0,1,110.7,30.5l-5.6-8.543L116.84,9.792ZM134.578,37.6a18.139,18.139,0,1,0,25.648-.449l0,0a18.137,18.137,0,0,0-25.647.45" transform="translate(64.647 0.256)" fill="#ebebeb"/>
        <rect id="Rectángulo_297999" data-name="Rectángulo 297999" width="187.179" height="131.426" transform="translate(0.345 0.344)" fill="#fafafa"/>
        <path id="Trazado_207934" data-name="Trazado 207934" d="M187.516,131.77s-.02-.826-.03-2.4-.018-3.915-.033-6.955c-.015-6.1-.04-15.045-.07-26.484-.035-22.856-.085-55.684-.147-95.593l.279.277L.36.689H.345L.689.345C.677,47.348.667,91.973.657,131.77l-.312-.314,134.951.155,38.462.083,10.222.037,2.638.018c.594,0,.9.018.9.018s-.287.012-.869.018l-2.6.018-10.158.037-38.392.083L.345,132.08H.032v-.314C.022,91.973.012,47.348,0,.345V0H.36L187.522.067h.279V.345c-.06,39.976-.11,72.857-.147,95.76-.03,11.413-.055,20.336-.07,26.421-.013,3.02-.025,5.339-.033,6.9s-.03,2.336-.03,2.336" transform="translate(0 0)" fill="#263238"/>
        <path id="Trazado_207935" data-name="Trazado 207935" d="M187.673,16.249c0,.19-41.969.344-93.729.344S.206,16.439.206,16.249,42.167,15.9,93.944,15.9s93.729.153,93.729.344" transform="translate(0.138 10.629)" fill="#263238"/>
        <path id="Trazado_207936" data-name="Trazado 207936" d="M15.515,5.767a37.809,37.809,0,0,1-5.057,5.122A37.84,37.84,0,0,1,4.923,15.5a37.871,37.871,0,0,1,5.063-5.123,37.9,37.9,0,0,1,5.529-4.614" transform="translate(3.29 3.852)" fill="#263238"/>
        <path id="Trazado_207937" data-name="Trazado 207937" d="M14.915,16.1a37.9,37.9,0,0,1-5.12-5.07A37.86,37.86,0,0,1,5.179,5.51,37.871,37.871,0,0,1,10.3,10.573,37.9,37.9,0,0,1,14.917,16.1" transform="translate(3.461 3.682)" fill="#263238"/>
        <path id="Trazado_207938" data-name="Trazado 207938" d="M26.645,15.938c-.045-.045-.088-1.1-.147-2.891s-.123-4.291-.152-7.274l.3.3-10.163.045c-.077.075.651-.651.344-.342v5.369c-.012,1.7-.025,3.3-.035,4.795l-.3-.3c2.983.03,5.485.1,7.275.152a28.289,28.289,0,0,1,2.889.147,21.174,21.174,0,0,1-2.7.147c-1.77.057-4.351.123-7.464.15h-.3v-.3c-.01-1.491-.022-3.1-.035-4.795V5.772c-.307.307.42-.422.347-.345l10.163.045h.3v.3c-.028,3.115-.1,5.7-.15,7.464a21.8,21.8,0,0,1-.147,2.7" transform="translate(10.75 3.623)" fill="#263238"/>
        <path id="Trazado_207939" data-name="Trazado 207939" d="M38.15,11.344a21.9,21.9,0,0,1-5.454.345,21.912,21.912,0,0,1-5.455-.345A21.911,21.911,0,0,1,32.7,11a21.9,21.9,0,0,1,5.454.344" transform="translate(18.205 7.323)" fill="#263238"/>
        <path id="Trazado_207940" data-name="Trazado 207940" d="M87.42,52.458a26.262,26.262,0,1,0-48.9,13.268h-.013l.075.1c1,1.7,2.269,2.911,3.543,4.695l15.248,20.2a4.743,4.743,0,0,0,7.571,0l15-19.866A56.7,56.7,0,0,0,83.754,65.8l.055-.072H83.8a26.1,26.1,0,0,0,3.624-13.268M61.16,63.894A11.558,11.558,0,1,1,72.718,52.336,11.558,11.558,0,0,1,61.16,63.894" transform="translate(23.321 17.477)" fill="#e0e0e0"/>
      </g>
    </g>
    <g id="Grupo_174641" data-name="Grupo 174641" transform="translate(180 2084.168)">
      <g id="Grupo_174631" data-name="Grupo 174631" clip-path="url(#clip-path-4)">
        <rect id="Rectángulo_297979" data-name="Rectángulo 297979" width="399.495" height="307.137" transform="translate(0.276 0.275)" fill="#fff"/>
        <g id="Grupo_174630" data-name="Grupo 174630">
          <g id="Grupo_174629" data-name="Grupo 174629" clip-path="url(#clip-path-4)">
            <path id="Trazado_207805" data-name="Trazado 207805" d="M399.771,307.412c0-1.894-.09-121.56-.229-307.137l.229.228L.311.551H.277L.554.275C.544,110.887.535,215.554.525,307.412l-.248-.248,399.495.248-399.5.251H.028v-.248C.019,215.556.009,110.889,0,.277V0H.311l399.46.047H400V.276c-.134,185.576-.228,305.245-.229,307.137" fill="#263238"/>
            <path id="Trazado_207806" data-name="Trazado 207806" d="M399.16,21.391c0,.153-88.962.276-198.676.276-109.751,0-198.694-.123-198.694-.276s88.943-.277,198.694-.277c109.714,0,198.676.125,198.676.277" transform="translate(0.609 7.187)" fill="#263238"/>
            <path id="Trazado_207807" data-name="Trazado 207807" d="M19.743,8.42a66.2,66.2,0,0,1-6.1,5.981,66.356,66.356,0,0,1-6.473,5.575,66.048,66.048,0,0,1,6.1-5.982A65.847,65.847,0,0,1,19.743,8.42" transform="translate(2.441 2.866)" fill="#263238"/>
            <path id="Trazado_207808" data-name="Trazado 207808" d="M19.106,20.609a66.2,66.2,0,0,1-5.981-6.1A66.042,66.042,0,0,1,7.551,8.038a66.048,66.048,0,0,1,5.982,6.1,65.847,65.847,0,0,1,5.573,6.473" transform="translate(2.57 2.736)" fill="#263238"/>
            <path id="Trazado_207809" data-name="Trazado 207809" d="M36.159,20.362a6.76,6.76,0,0,1-.055-.917c-.016-.651-.038-1.474-.063-2.478-.046-2.119-.1-5.1-.122-8.67l.24.24L24.1,8.574c-.062.06.523-.523.276-.275v3.245c0,1.063,0,2.1-.008,3.118-.009,2.021-.019,3.93-.028,5.691l-.24-.24c3.567.024,6.55.078,8.671.122l2.477.063a6.761,6.761,0,0,1,.917.055,4.517,4.517,0,0,1-.818.055l-2.423.063c-2.1.046-5.151.1-8.822.122H23.86v-.241c-.009-1.761-.017-3.67-.028-5.691,0-1.013,0-2.055-.008-3.118V8.3c-.248.247.336-.339.277-.279l12.063.038h.241V8.3c-.023,3.671-.076,6.719-.121,8.822-.025.981-.046,1.787-.063,2.423a4.517,4.517,0,0,1-.055.818" transform="translate(8.088 2.729)" fill="#263238"/>
            <path id="Trazado_207810" data-name="Trazado 207810" d="M53.088,16.507a38.265,38.265,0,0,1-6.473.276,38.281,38.281,0,0,1-6.474-.276,38.281,38.281,0,0,1,6.474-.276,38.265,38.265,0,0,1,6.473.276" transform="translate(13.663 5.513)" fill="#263238"/>
            <rect id="Rectángulo_297980" data-name="Rectángulo 297980" width="258.266" height="164.286" transform="translate(34.521 67.672)" fill="#fff"/>
            <rect id="Rectángulo_297981" data-name="Rectángulo 297981" width="46.515" height="164.286" transform="translate(34.521 67.672)" fill="#ebebeb"/>
            <path id="Trazado_207811" data-name="Trazado 207811" d="M41.566,64a3.138,3.138,0,0,1,.775-.338l.16-.765,1.295-.024.186.761a3.175,3.175,0,0,1,.785.31l.654-.43.938.9-.4.67a3.139,3.139,0,0,1,.338.775l.765.16.024,1.295-.761.186a3.176,3.176,0,0,1-.31.785l.43.654-.9.938-.67-.4a3.208,3.208,0,0,1-.775.336l-.16.767-1.295.023-.186-.761a3.175,3.175,0,0,1-.785-.31l-.654.43-.938-.9.4-.67a3.139,3.139,0,0,1-.338-.775l-.765-.16-.024-1.295.761-.186a3.175,3.175,0,0,1,.31-.785L40,64.538l.9-.938Zm.69,1.725a1.39,1.39,0,1,0,1.965-.035,1.389,1.389,0,0,0-1.965.035" transform="translate(13.396 21.401)" fill="#e0e0e0"/>
            <path id="Trazado_207812" data-name="Trazado 207812" d="M54.7,91.85H34.423a2.084,2.084,0,1,1,0-4.167H54.7a2.084,2.084,0,0,1,0,4.167" transform="translate(11.007 29.845)" fill="#e0e0e0"/>
            <path id="Trazado_207813" data-name="Trazado 207813" d="M54.7,83.929H34.423a2.084,2.084,0,1,1,0-4.167H54.7a2.084,2.084,0,0,1,0,4.167" transform="translate(11.007 27.149)" fill="#e0e0e0"/>
            <path id="Trazado_207814" data-name="Trazado 207814" d="M54.7,76.685H34.423a2.084,2.084,0,1,1,0-4.167H54.7a2.084,2.084,0,0,1,0,4.167" transform="translate(11.007 24.683)" fill="#e0e0e0"/>
            <path id="Trazado_207815" data-name="Trazado 207815" d="M95.074,69.653H75.868a2.084,2.084,0,0,1,0-4.167H95.074a2.084,2.084,0,1,1,0,4.167" transform="translate(25.115 22.29)" fill="#263238"/>
            <path id="Trazado_207816" data-name="Trazado 207816" d="M95.074,77.791H75.868a2.084,2.084,0,0,1,0-4.167H95.074a2.084,2.084,0,1,1,0,4.167" transform="translate(25.115 25.06)" fill="#e0e0e0"/>
            <path id="Trazado_207817" data-name="Trazado 207817" d="M95.074,86.2H75.868a2.084,2.084,0,0,1,0-4.167H95.074a2.084,2.084,0,1,1,0,4.167" transform="translate(25.115 27.923)" fill="#ffb30b"/>
            <path id="Trazado_207818" data-name="Trazado 207818" d="M86.881,102.46H75.867a2.084,2.084,0,0,1,0-4.167H86.881a2.084,2.084,0,0,1,0,4.167" transform="translate(25.114 33.456)" fill="#263238"/>
            <path id="Trazado_207819" data-name="Trazado 207819" d="M86.881,110.889H75.867a2.084,2.084,0,0,1,0-4.167H86.881a2.084,2.084,0,0,1,0,4.167" transform="translate(25.114 36.325)" fill="#263238"/>
            <path id="Trazado_207820" data-name="Trazado 207820" d="M113.633,110.889h-20.2a2.084,2.084,0,1,1,0-4.167h20.2a2.084,2.084,0,0,1,0,4.167" transform="translate(31.094 36.325)" fill="#e0e0e0"/>
            <path id="Trazado_207821" data-name="Trazado 207821" d="M105.11,118.383h-20.2a2.084,2.084,0,0,1,0-4.167h20.2a2.084,2.084,0,0,1,0,4.167" transform="translate(28.194 38.876)" fill="#ffb30b"/>
            <path id="Trazado_207822" data-name="Trazado 207822" d="M106.857,126.927H92.622a1.24,1.24,0,0,1-1.24-1.24V124a1.24,1.24,0,0,1,1.24-1.24h14.233A1.24,1.24,0,0,1,108.1,124v1.686a1.24,1.24,0,0,1-1.24,1.24" transform="translate(31.104 41.785)" fill="#ffb30b"/>
            <path id="Trazado_207823" data-name="Trazado 207823" d="M106.014,143.686H93.468a2.084,2.084,0,1,1,0-4.167h12.549a2.084,2.084,0,1,1,0,4.167" transform="translate(31.105 47.489)" fill="#ffb30b"/>
            <path id="Trazado_207824" data-name="Trazado 207824" d="M106.014,161.384H93.468a2.084,2.084,0,1,1,0-4.169h12.549a2.084,2.084,0,1,1,0,4.169" transform="translate(31.105 53.512)" fill="#ffb30b"/>
            <path id="Trazado_207825" data-name="Trazado 207825" d="M131.428,161.384h-22a2.084,2.084,0,1,1,0-4.169h22a2.084,2.084,0,1,1,0,4.169" transform="translate(36.537 53.512)" fill="#455a64"/>
            <path id="Trazado_207826" data-name="Trazado 207826" d="M138.134,161.384h-3.169a2.084,2.084,0,1,1,0-4.169h3.169a2.084,2.084,0,0,1,0,4.169" transform="translate(45.229 53.512)" fill="#e0e0e0"/>
            <path id="Trazado_207827" data-name="Trazado 207827" d="M129.578,143.686h-18.59a2.084,2.084,0,0,1,0-4.167h18.591a2.084,2.084,0,0,1,0,4.167" transform="translate(37.069 47.489)" fill="#e0e0e0"/>
            <path id="Trazado_207828" data-name="Trazado 207828" d="M170.344,151.455H110.988a2.084,2.084,0,0,1,0-4.167h59.357a2.084,2.084,0,0,1,0,4.167" transform="translate(37.069 50.133)" fill="#e0e0e0"/>
            <path id="Trazado_207829" data-name="Trazado 207829" d="M170.012,143.686h-37.9a2.084,2.084,0,1,1,0-4.167h37.9a2.084,2.084,0,0,1,0,4.167" transform="translate(44.259 47.489)" fill="#455a64"/>
            <path id="Trazado_207830" data-name="Trazado 207830" d="M126.553,126.927H109.166a1.241,1.241,0,0,1-1.24-1.24V124a1.24,1.24,0,0,1,1.24-1.24h17.387a1.24,1.24,0,0,1,1.24,1.24v1.686a1.24,1.24,0,0,1-1.24,1.24" transform="translate(36.735 41.785)" fill="#455a64"/>
            <path id="Trazado_207831" data-name="Trazado 207831" d="M133.694,126.927h-5.588a1.241,1.241,0,0,1-1.24-1.24V124a1.24,1.24,0,0,1,1.24-1.24h5.588a1.24,1.24,0,0,1,1.24,1.24v1.686a1.24,1.24,0,0,1-1.24,1.24" transform="translate(43.182 41.785)" fill="#e0e0e0"/>
            <path id="Trazado_207832" data-name="Trazado 207832" d="M160.021,126.927H138.709a1.242,1.242,0,0,1-1.241-1.24V124a1.242,1.242,0,0,1,1.241-1.24h21.312a1.24,1.24,0,0,1,1.24,1.24v1.686a1.24,1.24,0,0,1-1.24,1.24" transform="translate(46.791 41.785)" fill="#e0e0e0"/>
            <path id="Trazado_207833" data-name="Trazado 207833" d="M111.335,118.383h-4.5a2.084,2.084,0,0,1,0-4.167h4.5a2.084,2.084,0,1,1,0,4.167" transform="translate(35.655 38.876)" fill="#263238"/>
            <path id="Trazado_207834" data-name="Trazado 207834" d="M145.906,118.383H117.254a2.084,2.084,0,0,1,0-4.167h28.652a2.084,2.084,0,0,1,0,4.167" transform="translate(39.201 38.876)" fill="#e0e0e0"/>
            <path id="Trazado_207835" data-name="Trazado 207835" d="M118.03,69.653H98.824a2.084,2.084,0,0,1,0-4.167H118.03a2.084,2.084,0,0,1,0,4.167" transform="translate(32.928 22.29)" fill="#455a64"/>
            <path id="Trazado_207836" data-name="Trazado 207836" d="M142.778,77.791H98.824a2.084,2.084,0,0,1,0-4.167h43.954a2.084,2.084,0,0,1,0,4.167" transform="translate(32.928 25.06)" fill="#263238"/>
            <path id="Trazado_207837" data-name="Trazado 207837" d="M190.1,86.2H98.82a2.084,2.084,0,0,1,0-4.167H190.1a2.084,2.084,0,1,1,0,4.167" transform="translate(32.927 27.923)" fill="#e0e0e0"/>
            <path id="Trazado_207838" data-name="Trazado 207838" d="M141.861,92.124H98.824a2.084,2.084,0,0,1,0-4.167h43.037a2.084,2.084,0,0,1,0,4.167" transform="translate(32.928 29.938)" fill="#e0e0e0"/>
            <path id="Trazado_207839" data-name="Trazado 207839" d="M135.293,102.46H92.256a2.084,2.084,0,0,1,0-4.167h43.037a2.084,2.084,0,1,1,0,4.167" transform="translate(30.693 33.456)" fill="#455a64"/>
            <path id="Trazado_207840" data-name="Trazado 207840" d="M146,102.46H131.575a2.084,2.084,0,0,1,0-4.167H146a2.084,2.084,0,0,1,0,4.167" transform="translate(44.076 33.456)" fill="#ffb30b"/>
            <path id="Trazado_207841" data-name="Trazado 207841" d="M176.776,102.41h-27.25a2.084,2.084,0,0,1,0-4.167h27.248a2.084,2.084,0,0,1,0,4.167" transform="translate(50.186 33.439)" fill="#263238"/>
            <path id="Trazado_207842" data-name="Trazado 207842" d="M204.442,102.41h-27.25a2.084,2.084,0,0,1,0-4.167H204.44a2.084,2.084,0,1,1,0,4.167" transform="translate(59.603 33.439)" fill="#e0e0e0"/>
            <path id="Trazado_207843" data-name="Trazado 207843" d="M45.919,100.234h-11.5a2.084,2.084,0,0,1,0-4.167h11.5a2.084,2.084,0,1,1,0,4.167" transform="translate(11.008 32.699)" fill="#e0e0e0"/>
            <path id="Trazado_207844" data-name="Trazado 207844" d="M42.48,125.386H34.425a2.084,2.084,0,1,1,0-4.167H42.48a2.084,2.084,0,0,1,0,4.167" transform="translate(11.008 41.26)" fill="#e0e0e0"/>
            <path id="Trazado_207845" data-name="Trazado 207845" d="M56.785,108.617H34.423a2.084,2.084,0,1,1,0-4.167H56.785a2.084,2.084,0,0,1,0,4.167" transform="translate(11.007 35.552)" fill="#e0e0e0"/>
            <path id="Trazado_207846" data-name="Trazado 207846" d="M52.862,117H34.424a2.084,2.084,0,1,1,0-4.167H52.862a2.084,2.084,0,0,1,0,4.167" transform="translate(11.008 38.406)" fill="#e0e0e0"/>
            <path id="Trazado_207847" data-name="Trazado 207847" d="M69.39,67.578a2.116,2.116,0,1,1-2.118-2.118,2.117,2.117,0,0,1,2.118,2.118" transform="translate(22.178 22.281)" fill="#455a64"/>
            <path id="Trazado_207848" data-name="Trazado 207848" d="M69.39,59.285a2.116,2.116,0,1,1-2.118-2.118,2.117,2.117,0,0,1,2.118,2.118Z" transform="translate(22.178 19.458)" fill="#455a64"/>
            <path id="Trazado_207849" data-name="Trazado 207849" d="M69.39,75.691a2.116,2.116,0,1,1-2.118-2.118,2.117,2.117,0,0,1,2.118,2.118Z" transform="translate(22.178 25.042)" fill="#455a64"/>
            <path id="Trazado_207850" data-name="Trazado 207850" d="M69.39,84.126a2.116,2.116,0,1,1-2.118-2.118,2.117,2.117,0,0,1,2.118,2.118Z" transform="translate(22.178 27.913)" fill="#455a64"/>
            <path id="Trazado_207851" data-name="Trazado 207851" d="M69.39,92.559a2.116,2.116,0,1,1-2.118-2.116,2.117,2.117,0,0,1,2.118,2.116" transform="translate(22.178 30.785)" fill="#455a64"/>
            <path id="Trazado_207852" data-name="Trazado 207852" d="M69.39,100.995a2.116,2.116,0,1,1-2.118-2.118,2.117,2.117,0,0,1,2.118,2.118" transform="translate(22.178 33.655)" fill="#455a64"/>
            <path id="Trazado_207853" data-name="Trazado 207853" d="M69.39,109.429a2.116,2.116,0,1,1-2.118-2.118,2.117,2.117,0,0,1,2.118,2.118" transform="translate(22.178 36.526)" fill="#455a64"/>
            <path id="Trazado_207854" data-name="Trazado 207854" d="M69.39,117.864a2.116,2.116,0,1,1-2.118-2.118,2.117,2.117,0,0,1,2.118,2.118" transform="translate(22.178 39.397)" fill="#455a64"/>
            <path id="Trazado_207855" data-name="Trazado 207855" d="M69.39,126.3a2.116,2.116,0,1,1-2.118-2.116A2.117,2.117,0,0,1,69.39,126.3" transform="translate(22.178 42.268)" fill="#455a64"/>
            <path id="Trazado_207856" data-name="Trazado 207856" d="M69.39,134.733a2.116,2.116,0,1,1-2.118-2.118,2.117,2.117,0,0,1,2.118,2.118" transform="translate(22.178 45.139)" fill="#455a64"/>
            <path id="Trazado_207857" data-name="Trazado 207857" d="M69.39,143.167a2.116,2.116,0,1,1-2.118-2.118,2.117,2.117,0,0,1,2.118,2.118" transform="translate(22.178 48.01)" fill="#455a64"/>
            <path id="Trazado_207858" data-name="Trazado 207858" d="M69.39,151.6a2.116,2.116,0,1,1-2.118-2.118A2.117,2.117,0,0,1,69.39,151.6" transform="translate(22.178 50.88)" fill="#455a64"/>
            <path id="Trazado_207859" data-name="Trazado 207859" d="M69.39,160.04a2.116,2.116,0,1,1-2.118-2.118,2.117,2.117,0,0,1,2.118,2.118" transform="translate(22.178 53.753)" fill="#455a64"/>
            <path id="Trazado_207860" data-name="Trazado 207860" d="M279.231,33.775H32.5a6.75,6.75,0,0,0-6.75,6.749v15.65H284.015V38.565a4.79,4.79,0,0,0-4.79-4.79" transform="translate(8.766 11.496)" fill="#e0e0e0"/>
            <path id="Trazado_207861" data-name="Trazado 207861" d="M39.573,43.42a3.083,3.083,0,1,1-3.083-3.083,3.083,3.083,0,0,1,3.083,3.083" transform="translate(11.371 13.73)" fill="#fff"/>
            <path id="Trazado_207862" data-name="Trazado 207862" d="M46.635,43.42a3.083,3.083,0,1,1-3.083-3.083,3.083,3.083,0,0,1,3.083,3.083" transform="translate(13.775 13.73)" fill="#fff"/>
            <path id="Trazado_207863" data-name="Trazado 207863" d="M53.7,43.42a3.083,3.083,0,1,1-3.083-3.083A3.083,3.083,0,0,1,53.7,43.42" transform="translate(16.179 13.73)" fill="#fff"/>
            <path id="Trazado_207864" data-name="Trazado 207864" d="M66.739,171.141l21.831,23.6,19.816-23.6Z" transform="translate(22.716 58.252)" fill="#fff"/>
            <path id="Trazado_207865" data-name="Trazado 207865" d="M277.108,220.556a8.219,8.219,0,0,0,2.26-.42,6.994,6.994,0,0,0,4.414-4.738,7.661,7.661,0,0,0,.248-2.328q0-1.253-.009-2.634-.01-2.765-.019-6.042c-.009-4.368-.021-9.407-.034-15.077-.028-22.7-.068-55.526-.119-96.086q-.01-15.214-.024-31.838,0-8.3-.011-16.937c-.019-1.422.039-2.917-.043-4.3a6.729,6.729,0,0,0-5.282-5.831,29.862,29.862,0,0,0-4.379-.141l-76.155.034L113.8,34.24H35.027c-.938.015-1.961-.034-2.848.034a6.543,6.543,0,0,0-2.587.826,6.673,6.673,0,0,0-3.2,4.265,20.222,20.222,0,0,0-.178,3.945v59.547c0,20.766-.008,41.062-.009,60.775q0,14.786-.009,29.122v14.208c.008,2.339-.023,4.706.019,6.99A6.646,6.646,0,0,0,32.68,220.2l3.425.009H56.347l26,.012h.134l.094.1,19.993,21.044-.449.013L119.8,220.374l.084-.1h.134l114.806.123,31.338.076,8.163.042c1.842.013,2.784.042,2.784.042s-.938.028-2.784.042l-8.163.042-31.338.075-114.806.125.216-.1-17.65,21.044-.216.259-.232-.245L82.125,220.772l.229.1-26,.012H36.109l-3.441-.008a7.329,7.329,0,0,1-7.14-6.89c-.046-2.367-.015-4.674-.025-7.032V192.746q0-14.329-.008-29.122c0-19.714-.008-40.01-.011-60.775V41.292a8.577,8.577,0,0,1,.2-2.092,7.425,7.425,0,0,1,3.553-4.745,7.268,7.268,0,0,1,2.879-.918c1.036-.075,1.945-.021,2.923-.038h78.775l84.153.021,76.155.035a29.925,29.925,0,0,1,4.5.158,7.339,7.339,0,0,1,5.754,6.367c.087,1.515.023,2.914.042,4.366q0,8.631-.011,16.937-.01,16.607-.024,31.838c-.05,40.561-.09,73.387-.119,96.086-.012,5.67-.024,10.71-.033,15.077q-.01,3.273-.017,6.042,0,1.381-.009,2.634a7.8,7.8,0,0,1-.268,2.368,7.025,7.025,0,0,1-6.229,5.107c-.389.012-.584.009-.584.009" transform="translate(8.673 11.401)" fill="#263238"/>
            <path id="Trazado_207866" data-name="Trazado 207866" d="M125.034,185.006A49.675,49.675,0,1,1,75.36,134.995a49.675,49.675,0,0,1,49.674,50.011" transform="translate(8.742 45.949)" fill="#ffb30b"/>
            <g id="Grupo_174603" data-name="Grupo 174603" transform="translate(34.426 227.172)" opacity="0.3">
              <g id="Grupo_174602" data-name="Grupo 174602">
                <g id="Grupo_174601" data-name="Grupo 174601" clip-path="url(#clip-path-6)">
                  <g id="Grupo_174600" data-name="Grupo 174600" transform="translate(0.001)">
                    <g id="Grupo_174599" data-name="Grupo 174599" clip-path="url(#clip-path-7)">
                      <path id="Trazado_207867" data-name="Trazado 207867" d="M56.963,195.558c.26-2.177,1.957-4.386.982-6.349-1.092-2.193-4.274-1.84-6.514-2.821-3.128-1.375-4.095-5.258-6.139-8-1.831-2.452-6.105-5.147-9.36-4.408a3.966,3.966,0,0,0-3.41,3.67l-.3-.047c-.873-.1-1.9-.141-2.374-.865-.559-.84-.009-2.091-.582-2.915a4.6,4.6,0,0,0-1.241-.928c-.425-.3-.785-.865-.527-1.32.212-.385.763-.464,1.037-.816a.8.8,0,0,0-.016-.982c-.9-1.062-1.894,1.1-2.389,1.608a4.272,4.272,0,0,1-.4.377v.009c-.008.094-.016.18-.016.275-.011.295-.009.6-.015.9s-.016.6-.016.9c0,.244.008.485.012.726s0,.487.011.726a8.558,8.558,0,0,1,1.532.755c.966.559,2.044,1.3,2.106,2.413a.917.917,0,0,0,.1.525.744.744,0,0,0,.464.236,13.582,13.582,0,0,0,2.523.354c.016,1,.087,2.044.071,3.035a34.273,34.273,0,0,0-.338,4.289c.228,2.011,1.626,3.661,2.844,5.28,4.636,6.194,7.135,13.3,9.846,20.573.5.4,1.221.938,1.742,1.3.4.295.785.552,1.206.834s.792.523,1.22.789c.3.189.363.241.67.422-.04-.086.035.062,0-.025-1.092-2.4-1.094-5.719,1.256-6.907a5.358,5.358,0,0,0,1.328-.7c1.045-.989.189-3.033,1.234-4.021.59-.55,1.509-.511,2.24-.84a3.693,3.693,0,0,0,1.634-3.733,22.885,22.885,0,0,1-.416-4.307" transform="translate(-25.685 -169.484)"/>
                    </g>
                  </g>
                </g>
              </g>
            </g>
            <g id="Grupo_174608" data-name="Grupo 174608" transform="translate(35.051 195.229)" opacity="0.3">
              <g id="Grupo_174607" data-name="Grupo 174607">
                <g id="Grupo_174606" data-name="Grupo 174606" clip-path="url(#clip-path-8)">
                  <g id="Grupo_174605" data-name="Grupo 174605" transform="translate(0 0.012)">
                    <g id="Grupo_174604" data-name="Grupo 174604" clip-path="url(#clip-path-9)">
                      <path id="Trazado_207868" data-name="Trazado 207868" d="M28.609,167.064a2.3,2.3,0,0,1,3.245.1,3.425,3.425,0,0,1,.26,2.539c-.181,1.163-.361,2.326-.55,3.485a1.828,1.828,0,0,0,.046,1.045c.346.739,1.556.6,2.02-.063a3.217,3.217,0,0,0,.291-2.366,4.47,4.47,0,0,1,.024-2.413c.785-1.877,3.576-1.588,5.2-2.805a8.8,8.8,0,0,0,2.051-3.128,3.465,3.465,0,0,1,2.852-2.162c.425.016.842.174,1.265.157a1.692,1.692,0,0,0,1.086-2.734,3.189,3.189,0,0,1-.551-.566,1.031,1.031,0,0,1,.394-1.234,2.956,2.956,0,0,1,1.32-.425c1.06-.173,2.12-.338,3.183-.5,1.17-.181,2.671-.785,2.507-1.957-.142-1.013-1.517-1.474-1.721-2.476a3.288,3.288,0,0,0-.134-.739c-.322-.645-1.289-.385-1.91-.04a1.536,1.536,0,0,0-1.958-.94,1.52,1.52,0,0,0-.377.194,4.089,4.089,0,0,0-.926,2.209,10.673,10.673,0,0,1-3.45,4.644,2.877,2.877,0,0,1-1.674.938c-.651.031-1.34-.67-1.037-1.241.2-.394.769-.621.714-1.062-.079-.55-1.037-.509-1.225-1.037.377-1.556,2.161-2.2,3.529-3.035a8.544,8.544,0,0,0,3.607-4.433,1.126,1.126,0,0,0,.047-.911c-.205-.393-.731-.456-1.18-.456-1.054-.015-2.364.126-2.75,1.11a11.708,11.708,0,0,0-.18,1.674c-.37,1.634-2.61,1.815-3.977,2.789a12.286,12.286,0,0,1-1.54,1.194,5.809,5.809,0,0,1-2.09.339c-.126.008-.448,0-.574.012-.432.6-.772,1.147-1.173,1.771s-.8,1.319-1.178,1.96a49.146,49.146,0,0,0-4.221,9.64c-.386,1.174-.717,2.441-1.012,3.654s-.505,2.362-.708,3.607a13.96,13.96,0,0,0,.9-3.128,5.732,5.732,0,0,1,1.564-3.217" transform="translate(-26.15 -145.664)"/>
                    </g>
                  </g>
                </g>
              </g>
            </g>
            <g id="Grupo_174613" data-name="Grupo 174613" transform="translate(66.269 184.464)" opacity="0.3">
              <g id="Grupo_174612" data-name="Grupo 174612">
                <g id="Grupo_174611" data-name="Grupo 174611" clip-path="url(#clip-path-10)">
                  <g id="Grupo_174610" data-name="Grupo 174610" transform="translate(0.002)">
                    <g id="Grupo_174609" data-name="Grupo 174609" clip-path="url(#clip-path-11)">
                      <path id="Trazado_207869" data-name="Trazado 207869" d="M62.425,147.329c.469-.615.332-1.5.637-2.213.505-1.184,2.076-1.608,2.622-2.771.209-.449.261-1,.627-1.33.3-.277.757-.334,1.084-.584a1.512,1.512,0,0,0-.087-2.138,1.487,1.487,0,0,0-.261-.194c-1.949-1.244-5.533.193-7.217,1.411-2.163,1.566-4.281,3.45-7.16,3.266a5.656,5.656,0,0,0-2.362.012c-.744.283-1.206,1.4-.562,1.868.358.268.862.189,1.263.375a1.609,1.609,0,0,1,.454,2.145c-.362.733-1.016,1.281-1.442,1.978a3.737,3.737,0,0,0-.536,2.279,2.081,2.081,0,0,0,.67,1.461c.9.714,2.259.1,3.017-.757a11.206,11.206,0,0,1,2.267-2.557,5.627,5.627,0,0,1,1.608-.562l3.753-.893a2.712,2.712,0,0,0,1.615-.8" transform="translate(-49.443 -137.621)"/>
                    </g>
                  </g>
                </g>
              </g>
            </g>
            <g id="Grupo_174618" data-name="Grupo 174618" transform="translate(81.747 191.852)" opacity="0.3">
              <g id="Grupo_174617" data-name="Grupo 174617">
                <g id="Grupo_174616" data-name="Grupo 174616" clip-path="url(#clip-path-12)">
                  <g id="Grupo_174615" data-name="Grupo 174615" transform="translate(0.001)">
                    <g id="Grupo_174614" data-name="Grupo 174614" clip-path="url(#clip-path-13)">
                      <path id="Trazado_207870" data-name="Trazado 207870" d="M113.008,181.845c0-.716-.025-1.423-.064-2.13s-.066-1.422-.134-2.12c-.055-.566-.1-1.131-.182-1.689-.078-.59-.155-1.268-.253-1.851a45.128,45.128,0,0,0-1.092-4.994c-.185-.649-.5-1.34-.708-1.977s-.432-1.271-.67-1.9v-.008c-.252-.472-.519-.938-.8-1.391-2.758-4.37-6.766-7.8-9.8-11.976-.989-1.359-1.76-2.484-3.513-2.75-2.594-.4-3.906,1.072-5.745-1.383-.495-.661-1.359-1.273-2.09-.881.189.527.385,1.054.574,1.587a.749.749,0,0,1,.063.346c-.039.37-.59.47-.9.268a3.21,3.21,0,0,1-.692-.889,2.547,2.547,0,0,0-3.575-.441c-.055.043-.107.087-.158.134a1.432,1.432,0,0,0-.826-1.163,1.705,1.705,0,0,1-1.949,1.417,1.755,1.755,0,0,1-.189-.042c-.15-.479.706-.566,1.005-.974.275-.385-.055-.919-.4-1.241a5.457,5.457,0,0,0-3.419-1.328,4.683,4.683,0,0,1-2.342-.275c-.4-.236-.684-.63-1.092-.856a3.033,3.033,0,0,0-2.846.449,5.561,5.561,0,0,0-2.868,2.815c-.432,1.306.519,3.073,1.886,2.909a2.655,2.655,0,0,1,1.045-.118,1.265,1.265,0,0,1,.745,1.206,3.566,3.566,0,0,0,.229,1.474c.235.44.95.659,1.225.244a2.729,2.729,0,0,0,.4-2.516,3.35,3.35,0,0,1,.181-2.569c.525-.714,2.02-.487,1.918.394-.063.519-.651.9-.63,1.422s.677.816,1.206.793a5.743,5.743,0,0,1,1.6-.079c.525.126.938.8.566,1.194-.653.74-2.351-.525-2.689.394-.1.236,0,.5-.024.755-.063.769-1.029,1.054-1.8,1.147a4.231,4.231,0,0,1-2.287-.165,1.451,1.451,0,0,1-.781-1.9l0-.011a.874.874,0,0,0-1.178.379.609.609,0,0,0-.028.06,2.526,2.526,0,0,0-.086,1.43c-.816-.181-1.549.511-2.011,1.194s-.919,1.495-1.713,1.742-1.9-.087-2.319.635c-.536.938,1.029,2.138.479,3.073-.314.527-1.072.511-1.665.67a2.572,2.572,0,0,0-1.054,3.992,3.09,3.09,0,0,0,4.37-.015,13.937,13.937,0,0,0,1.689-2.925,2.664,2.664,0,0,1,2.744-1.532,3.324,3.324,0,0,1,1.125.708c.525.44,1.054.879,1.579,1.328.339.283.708.635.67,1.072-.031.354-.306.629-.424.958-.33.952,1.044,1.855,1.909,1.34a1.9,1.9,0,0,0,.375-2.658l-.005-.007c-.816-1.131-2.665-1.7-2.616-3.1.938-.769,2.429.04,2.98,1.131s.566,2.374,1.029,3.5,1.76,2.13,2.844,1.58c-.283-.976-.558-1.941-.84-2.909.692-.52,1.485.989,2.311.739.5-.157.566-.881.346-1.367a6.772,6.772,0,0,1-.7-1.422,1.62,1.62,0,0,1,1.558-1.679,1.593,1.593,0,0,1,.319.02,2.46,2.46,0,0,1,1.84,2.028,4.482,4.482,0,0,0,.251,1.125c.361.755,1.3.981,2.066,1.3s1.58,1.092,1.257,1.863c-.149.339-.5.661-.377,1.007.119.306.574.44.574.769-.008.22-.235.37-.44.456-.519.212-1.084.283-1.587.525a1.436,1.436,0,0,0-.919,1.275c.063.785,1,1.163,1.438,1.815a9.571,9.571,0,0,1,.63,2.154,7.7,7.7,0,0,0,1.186,1.721c1.3,1.776,1.608,4.063,2.248,6.166.284.952.8,2.011,1.776,2.193a2.979,2.979,0,0,0,1.571-.307,9.453,9.453,0,0,0,3.851-2.295,3.239,3.239,0,0,0,.306-4.134A.8.8,0,0,0,98,176.47a1.444,1.444,0,0,0-.74.259,2.1,2.1,0,0,1-2.193-.47,6.186,6.186,0,0,1-1.3-1.957c-.386-.779-.771-1.564-1.165-2.35a1.374,1.374,0,0,1,1.682.157,9.158,9.158,0,0,1,1.147,1.414,7.317,7.317,0,0,0,4.959,2.327,4.718,4.718,0,0,1,1.4.29c1.391.637,1.792,2.689,3.261,3.128a9.255,9.255,0,0,1,1.249.284,2.3,2.3,0,0,1,1.045,1.556,24.861,24.861,0,0,0,.92,3.473,3.218,3.218,0,0,0,2.657,2.115,2.762,2.762,0,0,0,1.965-.858c.063-1.084.134-2.208.134-3.308,0-.228,0-.456-.016-.684" transform="translate(-60.989 -143.123)"/>
                    </g>
                  </g>
                </g>
              </g>
            </g>
            <g id="Grupo_174623" data-name="Grupo 174623" transform="translate(108.548 251.145)" opacity="0.3">
              <g id="Grupo_174622" data-name="Grupo 174622">
                <g id="Grupo_174621" data-name="Grupo 174621" clip-path="url(#clip-path-14)">
                  <g id="Grupo_174620" data-name="Grupo 174620" transform="translate(0 0.001)">
                    <g id="Grupo_174619" data-name="Grupo 174619" clip-path="url(#clip-path-15)">
                      <path id="Trazado_207871" data-name="Trazado 207871" d="M86.1,187.413c-.74.146-.887.58-1.289,1.129-.523.713-1.273,1.428-1.751,2.131-.8,1.193-.08,3.056-1.143,4.059-.24.177-.469.365-.69.564a1.254,1.254,0,0,0,.255,1.734,1.706,1.706,0,0,0,1.851.032,2.709,2.709,0,0,0,1.134-1.549,2.6,2.6,0,0,1,.574-1.269c.609-.536,1.553-.134,2.354-.249,3.406-.477,1.942-7.221-1.293-6.583" transform="translate(-80.983 -187.37)"/>
                    </g>
                  </g>
                </g>
              </g>
            </g>
            <g id="Grupo_174628" data-name="Grupo 174628" transform="translate(74.71 214.12)" opacity="0.3">
              <g id="Grupo_174627" data-name="Grupo 174627">
                <g id="Grupo_174626" data-name="Grupo 174626" clip-path="url(#clip-path-16)">
                  <g id="Grupo_174625" data-name="Grupo 174625" transform="translate(0.033)">
                    <g id="Grupo_174624" data-name="Grupo 174624" clip-path="url(#clip-path-17)">
                      <path id="Trazado_207872" data-name="Trazado 207872" d="M95.846,187.438c1.96-1.7,2.752-5.529.316-6.414-.921-.336-1.982-.064-2.9-.42a4.558,4.558,0,0,1-2.181-3.005q-1.7-4.743-3.394-9.484c-.682-1.9-1.716-4.112-3.72-4.392a10.883,10.883,0,0,0-3.363.587c-3.887.706-10.409-8.686-13.362-2.363-.413-1.718-3.2-1.072-4.1.452s-1.08,3.548-2.5,4.608c-1.079.8-2.661.855-3.543,1.877a4.553,4.553,0,0,0-.8,2.681l-.449,5.42a7.4,7.4,0,0,0,.5,4.289c.721,1.272,2.607,1.978,3.686.993a11.084,11.084,0,0,0,1.111-1.677,2.816,2.816,0,0,1,2.9-1,4.9,4.9,0,0,1,2.208,1.553c5.053,5.441,6.861,13.185,7.084,20.606a11.808,11.808,0,0,0,.536,4.021c.586,1.481,1.82,2.681,2.183,4.229a18.456,18.456,0,0,0,.527,3.611c.938,2.047,4.083,2.134,5.792.67a9.654,9.654,0,0,0,2.65-6.056,15.72,15.72,0,0,1,1.816-6.447,22.332,22.332,0,0,0,2.45-3.384c.755-1.8.194-3.935.9-5.764.938-2.413,3.682-3.485,5.643-5.185" transform="translate(-55.771 -159.746)"/>
                    </g>
                  </g>
                </g>
              </g>
            </g>
            <path id="Trazado_207873" data-name="Trazado 207873" d="M125,185.082s-.017-.268-.036-.8-.013-1.33-.1-2.368a51,51,0,0,0-1.4-8.993,49.758,49.758,0,0,0-2.02-6.262A48.189,48.189,0,0,0,118,159.627a50.394,50.394,0,0,0-12.551-14.208,49.156,49.156,0,0,0-20.886-9.383,49.888,49.888,0,0,0-19.474.231,52.655,52.655,0,0,0-6.638,1.918,49.639,49.639,0,0,0-22.99,17.469A48.519,48.519,0,0,0,31.45,162.2c-.607,1.141-1.121,2.332-1.649,3.521-.477,1.206-.964,2.425-1.355,3.678a49.276,49.276,0,0,0-1.868,7.692,50.267,50.267,0,0,0,0,16,49.472,49.472,0,0,0,1.867,7.7c.393,1.253.878,2.466,1.355,3.678.528,1.19,1.041,2.382,1.649,3.524a48.458,48.458,0,0,0,4.013,6.546,49.626,49.626,0,0,0,22.993,17.474,52.618,52.618,0,0,0,6.639,1.918,49.793,49.793,0,0,0,19.476.229,49.173,49.173,0,0,0,20.886-9.383A50.354,50.354,0,0,0,118,210.537a47.894,47.894,0,0,0,3.431-7.026,49.521,49.521,0,0,0,2.02-6.261,51.085,51.085,0,0,0,1.4-8.991c.091-1.039.072-1.835.1-2.368s.036-.8.036-.8v.8c0,.536.008,1.331-.075,2.372a49.344,49.344,0,0,1-3.351,15.3,48.08,48.08,0,0,1-3.419,7.061,50.474,50.474,0,0,1-12.566,14.3A49.326,49.326,0,0,1,84.613,234.4a50.029,50.029,0,0,1-19.583-.21,53.008,53.008,0,0,1-6.68-1.921,49.909,49.909,0,0,1-23.143-17.559,48.8,48.8,0,0,1-4.04-6.587c-.611-1.147-1.129-2.347-1.661-3.545-.48-1.22-.969-2.439-1.364-3.7a49.577,49.577,0,0,1-1.877-7.743,50.583,50.583,0,0,1,0-16.1,49.529,49.529,0,0,1,1.877-7.739c.394-1.26.886-2.481,1.366-3.7.536-1.2,1.05-2.4,1.661-3.544a48.752,48.752,0,0,1,4.04-6.583A49.9,49.9,0,0,1,58.348,137.91a52.765,52.765,0,0,1,6.679-1.921,50.04,50.04,0,0,1,19.58-.212,49.352,49.352,0,0,1,20.974,9.466,50.417,50.417,0,0,1,12.566,14.3,48.1,48.1,0,0,1,3.421,7.062,49.267,49.267,0,0,1,3.351,15.3c.083,1.04.052,1.838.075,2.372a7.117,7.117,0,0,1,0,.8" transform="translate(8.721 45.921)" fill="#263238"/>
            <path id="Trazado_207874" data-name="Trazado 207874" d="M64.2,234.872c-.086,0-.157-22.2-.157-49.58s.071-49.586.157-49.586.157,22.2.157,49.586-.071,49.58-.157,49.58" transform="translate(21.8 46.191)" fill="#263238"/>
            <path id="Trazado_207875" data-name="Trazado 207875" d="M66.285,234.6s.08-.066.245-.18l.737-.5c.657-.426,1.59-1.11,2.767-2.017A54.1,54.1,0,0,0,78.89,223a58.323,58.323,0,0,0,9.039-16.232,70.753,70.753,0,0,0,4-22.4,79.674,79.674,0,0,0-2.537-22.639,45.9,45.9,0,0,0-8.338-16.539,29.169,29.169,0,0,0-5.115-4.982,27.828,27.828,0,0,0-4.608-2.815,31.345,31.345,0,0,0-3.166-1.293l-.843-.287c-.19-.066-.284-.107-.284-.107s.1.021.294.078l.854.257a27.792,27.792,0,0,1,3.2,1.244,27.265,27.265,0,0,1,4.662,2.784,28.956,28.956,0,0,1,5.182,4.982,45.843,45.843,0,0,1,8.444,16.6,79.325,79.325,0,0,1,2.572,22.726,70.594,70.594,0,0,1-4.04,22.487,58.1,58.1,0,0,1-9.139,16.271A52.864,52.864,0,0,1,70.109,232c-1.192.894-2.138,1.563-2.807,1.973l-.755.476c-.172.106-.268.154-.268.154" transform="translate(22.56 46.19)" fill="#263238"/>
            <path id="Trazado_207876" data-name="Trazado 207876" d="M69.836,234.788s-.094-.048-.268-.155l-.769-.484c-.684-.417-1.65-1.092-2.872-1.992a61.746,61.746,0,0,1-14.676-15.9,46.708,46.708,0,0,1-4.557-9.115,65.24,65.24,0,0,1-2.986-10.857,82.03,82.03,0,0,1,1.464-35.173A47.264,47.264,0,0,1,49,151.665a32.505,32.505,0,0,1,5.215-7.183,32.949,32.949,0,0,1,10.541-7.259A33.823,33.823,0,0,1,68.035,136l.871-.26c.2-.056.3-.078.3-.078s-.1.043-.29.109l-.862.288c-.756.255-1.862.661-3.246,1.271a33.331,33.331,0,0,0-10.429,7.3,32.422,32.422,0,0,0-5.147,7.152,47.418,47.418,0,0,0-3.784,9.4A79.016,79.016,0,0,0,42.8,184.243a77.957,77.957,0,0,0,1.206,11.983,65.122,65.122,0,0,0,2.949,10.815,46.709,46.709,0,0,0,4.509,9.074,62.076,62.076,0,0,0,5.258,7.112A62.85,62.85,0,0,0,66,232.063c1.206.911,2.163,1.608,2.834,2.036l.752.509c.169.117.251.182.251.182" transform="translate(14.452 46.177)" fill="#263238"/>
            <path id="Trazado_207877" data-name="Trazado 207877" d="M124.88,171.727c0,.086-22.1.157-49.362.157s-49.367-.071-49.367-.157,22.1-.157,49.367-.157,49.362.071,49.362.157" transform="translate(8.901 58.398)" fill="#263238"/>
            <path id="Trazado_207878" data-name="Trazado 207878" d="M115.529,152.72c0,.086-18.858.157-42.111.157S31.3,152.806,31.3,152.72s18.852-.157,42.116-.157,42.111.071,42.111.157" transform="translate(10.655 51.929)" fill="#263238"/>
            <path id="Trazado_207879" data-name="Trazado 207879" d="M116.421,191.094c0,.086-19.285.157-43.07.157s-43.076-.071-43.076-.157,19.281-.157,43.076-.157,43.07.071,43.07.157" transform="translate(10.305 64.99)" fill="#263238"/>
            <path id="Trazado_207880" data-name="Trazado 207880" d="M105.429,193.678h-62.1a15.928,15.928,0,1,1-.292-31.854c.1,0,.194,0,.292,0h62.1a15.928,15.928,0,0,1,0,31.854" transform="translate(9.275 55.081)" fill="#fff"/>
            <path id="Trazado_207881" data-name="Trazado 207881" d="M105.427,193.719s.2-.021.578-.046a12.96,12.96,0,0,0,1.688-.166,15.524,15.524,0,0,0,6.065-2.23,16.655,16.655,0,0,0,1.816-1.3l.89-.812c.307-.268.566-.609.861-.919a15.9,15.9,0,0,0,2.045-17.921,16.2,16.2,0,0,0-5.3-5.756,15.222,15.222,0,0,0-1.816-1.012,15.487,15.487,0,0,0-1.965-.795,15.752,15.752,0,0,0-4.281-.737c-5.955-.054-12.331,0-19.041-.015l-43.64.012a15.812,15.812,0,0,0-15.493,18.734,16.155,16.155,0,0,0,1.831,4.912,15.945,15.945,0,0,0,7.506,6.66,16.917,16.917,0,0,0,4.76,1.178c1.608.121,3.236.055,4.825.074l9.249.009,16.594.019,24.03.05,6.533.029,1.7.015c.382,0,.578.016.578.016s-.2.011-.578.016l-1.7.015-6.533.029-24.03.05-16.594.019-9.249.008c-1.591-.017-3.193.054-4.845-.067a17.239,17.239,0,0,1-4.847-1.194,16.227,16.227,0,0,1-7.648-6.777,16.458,16.458,0,0,1-1.877-5.006,16.111,16.111,0,0,1,15.792-19.1l43.64.012c6.709.017,13.077-.02,19.049.046a16.2,16.2,0,0,1,8.186,2.6,16.4,16.4,0,0,1,5.361,5.853,16.235,16.235,0,0,1,1.86,6.97,15.916,15.916,0,0,1-3.988,11.148c-.3.314-.562.65-.874.924l-.9.815a17.107,17.107,0,0,1-1.839,1.3,15.377,15.377,0,0,1-6.121,2.19,11.582,11.582,0,0,1-1.7.134c-.382.015-.578.013-.578.013" transform="translate(9.278 55.041)" fill="#263238"/>
            <path id="Trazado_207882" data-name="Trazado 207882" d="M61.376,167.941l-4.91,13.788H51.787l-2.6-7.506-2.7,7.506H41.813L36.9,167.941H41.48l2.823,8.344,2.926-8.344h4.12l2.85,8.42,2.926-8.42Z" transform="translate(12.561 57.163)" fill="#263238"/>
            <path id="Trazado_207883" data-name="Trazado 207883" d="M79.2,167.941l-4.912,13.788H69.6l-2.6-7.506-2.7,7.506H59.631l-4.91-13.788H59.3l2.823,8.344,2.926-8.344h4.12l2.85,8.42,2.926-8.42Z" transform="translate(18.626 57.163)" fill="#263238"/>
            <path id="Trazado_207884" data-name="Trazado 207884" d="M97.018,167.941l-4.91,13.788H87.426l-2.595-7.506-2.7,7.506H77.455l-4.91-13.788h4.579l2.823,8.344,2.926-8.344h4.12l2.85,8.42,2.926-8.42Z" transform="translate(24.692 57.163)" fill="#263238"/>
            <path id="Trazado_207885" data-name="Trazado 207885" d="M49.043,196.608l-21.529,6.266a1.156,1.156,0,0,0-.481,1.942l14.691,14.192a1.157,1.157,0,0,0,1.9-.465l6.836-20.457a1.157,1.157,0,0,0-1.421-1.474" transform="translate(9.081 66.906)" fill="#263238"/>
            <path id="Trazado_207886" data-name="Trazado 207886" d="M21.1,217.583l15.173-14.1,6.044,5.874-15.1,14.475Z" transform="translate(7.184 69.261)" fill="#263238"/>
          </g>
        </g>
      </g>
    </g>
    <g id="Grupo_174642" data-name="Grupo 174642" transform="translate(236.243 2139.705)">
      <g id="Grupo_174597" data-name="Grupo 174597" clip-path="url(#clip-path-18)">
        <g id="Grupo_174596" data-name="Grupo 174596">
          <g id="Grupo_174595" data-name="Grupo 174595" clip-path="url(#clip-path-18)">
            <path id="Trazado_207741" data-name="Trazado 207741" d="M129.168,59.945S103.676,66.84,98.9,86.07c-7.546,30.4-30.646,120.1-30.646,120.1L43.889,225.9l15.537,25.77s27.162-8.938,38.516-23.526,22.925-69.113,22.925-69.113Z" transform="translate(68.195 93.142)" fill="#b9ddfc"/>
            <path id="Trazado_207742" data-name="Trazado 207742" d="M159.942,15.3c6.017-6.944,21.291-6.285,25.014-1.9a11.64,11.64,0,0,1,15.353,4.7l16.309,3.164a16.917,16.917,0,0,1,7.866,2.957,5.821,5.821,0,0,1,1.55,7.544,8.823,8.823,0,0,1,4.05,14.015,6.147,6.147,0,0,1-.432,8.685c-.087.082-.179.158-.271.232a61.692,61.692,0,0,1,10.884,17.818,12.548,12.548,0,0,1,1.022,8.53c-.953,2.768-4.518,4.745-6.931,3.09a7.2,7.2,0,0,1,.526,7.764c2.745,0,3.665,4.224,1.826,6.267a10.024,10.024,0,0,1-7.641,2.324,13.243,13.243,0,0,0-7.942,1.553,2.5,2.5,0,0,0,.937,1.719,11.294,11.294,0,0,1,2.883,15.323c-.317.465-.613.894-.871,1.277a24.7,24.7,0,0,1-7.84,5.789c-6.129,3.381-9.842,2.858-16.745,4.025,2,4.423-9.02,14.59-22.131,5.169a248.382,248.382,0,0,1-70.595,11.283c-3.795.1-8.371-.3-10.133-3.667a9.431,9.431,0,0,1-8.744-2.638,27.824,27.824,0,0,1-5.281-7.9A16.545,16.545,0,0,1,70.348,117.8a20.448,20.448,0,0,1-8.057-14.355,12,12,0,0,1-7.58-15.187c.094-.286.2-.567.317-.843A72.38,72.38,0,0,1,62.39,64.832c-4.375-.838-6.152-6.665-4.459-10.787s5.59-6.837,9.291-9.319c-3.236.945-6.167-3.065-5.473-6.369a12.866,12.866,0,0,1,6.436-7.429,61.336,61.336,0,0,1,13.344-6.339C82.94,18.825,90.1,12.127,95.408,9.463,116.8-1.291,131.9-4.24,159.953,15.3" transform="translate(84.042 1.546)" fill="#263238"/>
            <path id="Trazado_207743" data-name="Trazado 207743" d="M153.968,33.471a8.778,8.778,0,0,0-7.6-9.122l-46.224-13.1c-14.863-2-25.3,16.089-26.669,31.013-1.532,16.6-2.725,36.913-1.108,49.375a32.22,32.22,0,0,0,25.538,28.567c0-.033-.375,18.1-.375,18.1l-.613,21.054c7.115-1,52.767-22.828,52.767-22.828Z" transform="translate(111.248 17.248)" fill="#ffbe9d"/>
            <path id="Trazado_207744" data-name="Trazado 207744" d="M87.271,55.4a22.768,22.768,0,0,0-5.562-1.17c-.876-.115-1.7-.314-1.836-.917a4.49,4.49,0,0,1,.661-2.59l2.789-6.619a114.988,114.988,0,0,0,6.339-17.34,115.194,115.194,0,0,0-7.718,16.789q-1.4,3.49-2.681,6.663a5.082,5.082,0,0,0-.554,3.437,2.217,2.217,0,0,0,1.41,1.325,5.887,5.887,0,0,0,1.486.255,22.4,22.4,0,0,0,5.667.169" transform="translate(122.155 41.594)" fill="#263238"/>
            <path id="Trazado_207745" data-name="Trazado 207745" d="M82.01,58.541s13.484,1.767,30.39-7.751c0,0-4.551,18.464-30.572,16.377Z" transform="translate(127.146 78.917)" fill="#eb996e"/>
            <path id="Trazado_207746" data-name="Trazado 207746" d="M86.409,24.335c.312.945,3.762.6,7.784,1.2,4.04.511,7.26,1.788,7.82.97.255-.4-.294-1.29-1.583-2.235a13.7,13.7,0,0,0-11.89-1.657c-1.5.557-2.265,1.277-2.132,1.719" transform="translate(134.234 34.094)" fill="#263238"/>
            <path id="Trazado_207747" data-name="Trazado 207747" d="M74.6,24.94c.582.8,2.978.054,5.83.1,2.853-.056,5.251.677,5.828-.125.255-.391-.1-1.182-1.136-1.954a8.442,8.442,0,0,0-9.4.023c-1.022.766-1.384,1.568-1.129,1.959" transform="translate(115.785 33.471)" fill="#263238"/>
            <path id="Trazado_207748" data-name="Trazado 207748" d="M68.021,60.409a17.151,17.151,0,0,1,3.964-10.8,62.462,62.462,0,0,0,4.548-4.536c2.745-3.731,2.265-8.841,3.384-13.338A18.849,18.849,0,0,1,91.375,18.877c4.653-1.744,9.96-1.606,14.3-4,3.215-1.772,5.636-4.8,8.951-6.384,6.453-3.08,14.046.135,20.259,3.7,1.3,4.852-1.724,9.132-4.633,13.236a17.453,17.453,0,0,1-12.713,7.194c-3.889.3-8.451-.511-11.145,2.314-2.832,2.97-1.632,8.1-3.946,11.492-3.3,4.852-11.032,3.149-16.048,6.19-3.872,2.349-5.437,7.054-7.342,11.165S73.825,72.2,69.3,72.052a51.015,51.015,0,0,1-1.277-11.643" transform="translate(105.689 11.266)" fill="#263238"/>
            <path id="Trazado_207749" data-name="Trazado 207749" d="M90.458,12.748a88.423,88.423,0,0,1,33.485,5.486,16.086,16.086,0,0,1,8.32,5.542,15.8,15.8,0,0,1,1.88,8.619c.041,9.342-3.537,20.831-6.959,29.524l-11.551,7.169c-9.012-1.979-5.141-17.552-4.832-25.331A18.356,18.356,0,0,1,99.82,27.724a20.31,20.31,0,0,1-9.367-14.975" transform="translate(140.546 19.744)" fill="#263238"/>
            <path id="Trazado_207750" data-name="Trazado 207750" d="M100.441,36.634c.255-5.345,6.808-6.487,11.444-3.81,2.554,1.471,4.49,4.428,4.255,10.1-.626,15.134-15.691,11.385-15.7,10.951,0-.268-.312-10.981,0-17.243" transform="translate(155.846 48.839)" fill="#ffbe9d"/>
            <path id="Trazado_207751" data-name="Trazado 207751" d="M102.265,45.268c.069-.046.255.194.692.419a2.65,2.65,0,0,0,1.972.123,6.529,6.529,0,0,0,3.259-5.728,8.681,8.681,0,0,0-.58-3.805,3.036,3.036,0,0,0-1.9-2.1,1.343,1.343,0,0,0-1.588.656c-.22.414-.135.72-.217.746s-.314-.268-.166-.889a1.685,1.685,0,0,1,.633-.924,1.99,1.99,0,0,1,1.476-.327A3.7,3.7,0,0,1,108.5,35.9a8.946,8.946,0,0,1,.741,4.255,6.844,6.844,0,0,1-4.114,6.384,2.812,2.812,0,0,1-2.393-.511c-.455-.393-.511-.733-.467-.766" transform="translate(158.884 51.904)" fill="#eb996e"/>
            <path id="Trazado_207752" data-name="Trazado 207752" d="M121.7,84.444a.875.875,0,0,0,.049.2,2,2,0,0,0,.212.575,3.514,3.514,0,0,0,1.788,1.532,9.323,9.323,0,0,0,3.754.718,12.664,12.664,0,0,0,2.426-.194,8.939,8.939,0,0,0,2.633-.843l-.181-.087a7.522,7.522,0,0,0,12.051,4.6l-.255-.043a3.114,3.114,0,0,0,2,1.292,4.292,4.292,0,0,0,2.447-.255,3.943,3.943,0,0,0,1.943-1.629,5.233,5.233,0,0,0,.728-2.5,7.713,7.713,0,0,0-1.729-5.018,22.809,22.809,0,0,0-4.045-3.831l-.02.35a5.323,5.323,0,0,0,2.342-3.619,7.764,7.764,0,0,0-.511-4.454,12.034,12.034,0,0,0-2.707-3.731A35.76,35.76,0,0,0,141,64.532l.028.34a5.685,5.685,0,0,0,1.42-4.413A8.2,8.2,0,0,0,140.657,56a20.2,20.2,0,0,0-7.457-5.031l.123.255A10.042,10.042,0,0,0,122.219,39l.235.255a8.656,8.656,0,0,0-2.161-7.324,8.53,8.53,0,0,0-6.438-3.036l.194.189a8.495,8.495,0,0,0-3.537-6.538,8.307,8.307,0,0,0-6.349-1.647l.176.146a8.319,8.319,0,0,0-1.29-3.859,10.7,10.7,0,0,0-2.339-2.74,8.681,8.681,0,0,0-5.2-2.15l-.569-.028c-.184,0-.363.033-.534.049a8.012,8.012,0,0,0-.955.125,10.355,10.355,0,0,0-1.438.432l-.838.373a1.58,1.58,0,0,0-.278.14,2.029,2.029,0,0,0,.3-.1l.85-.332a11.088,11.088,0,0,1,1.433-.388,7.764,7.764,0,0,1,.942-.1c.169,0,.342-.036.523-.038l.557.038a8.542,8.542,0,0,1,5.064,2.166,10.514,10.514,0,0,1,2.26,2.7,8.122,8.122,0,0,1,1.221,3.723v.176l.166-.031a8.006,8.006,0,0,1,6.093,1.627,8.16,8.16,0,0,1,3.363,6.27v.192h.192a8.617,8.617,0,0,1,8.172,9.9l-.061.3.3-.038a9.6,9.6,0,0,1,10.6,11.694l-.041.179.166.082a19.87,19.87,0,0,1,7.291,4.906,7.72,7.72,0,0,1,1.68,4.211,5.2,5.2,0,0,1-1.292,4.061l-.181.186.209.156a17.822,17.822,0,0,1,6.2,6.515,7.329,7.329,0,0,1,.48,4.193,4.891,4.891,0,0,1-2.138,3.34l-.255.158.24.192a22.361,22.361,0,0,1,4,3.749,7.331,7.331,0,0,1,1.66,4.75,4.057,4.057,0,0,1-2.418,3.8,3.317,3.317,0,0,1-4.012-.894l-.107-.161-.153.123a7.321,7.321,0,0,1-7.605.843,7.4,7.4,0,0,1-3.979-5.194l-.031-.169-.153.082a8.681,8.681,0,0,1-2.554.843,12.473,12.473,0,0,1-2.385.225,9.3,9.3,0,0,1-3.7-.646,3.518,3.518,0,0,1-1.772-1.453,7.981,7.981,0,0,1-.319-.741" transform="translate(141.231 19.059)" fill="#455a64"/>
            <path id="Trazado_207753" data-name="Trazado 207753" d="M177.014,72.426a5.067,5.067,0,0,0,.554-.924,7.722,7.722,0,0,0,.753-3.006,7.613,7.613,0,0,0-1.315-4.725,8.043,8.043,0,0,0-5.534-3.4l.128.181a10.374,10.374,0,0,0-1.486-7.442,10.092,10.092,0,0,0-3.011-3.1,24.154,24.154,0,0,0-4.168-1.88,8.266,8.266,0,0,1-2-1.144,5.105,5.105,0,0,1-1.412-1.836c-.7-1.44-.94-3.149-1.816-4.7a9.192,9.192,0,0,0-9.283-4.418l.255.255a12.119,12.119,0,0,0-13.648-13.512l.255.255a10.642,10.642,0,0,0-16.707-9.674l.255.018a14.573,14.573,0,0,0-5.335-3.136,21.934,21.934,0,0,0-5.445-1.159,25.412,25.412,0,0,0-8.959.766,18.062,18.062,0,0,0-5.289,2.3,10.574,10.574,0,0,0-1.216.914c-.255.217-.393.34-.393.34s.559-.442,1.67-1.157a18.728,18.728,0,0,1,5.284-2.183,25.554,25.554,0,0,1,8.869-.656,21.542,21.542,0,0,1,5.363,1.177,14.2,14.2,0,0,1,5.187,3.082l.115.112.13-.092a10.228,10.228,0,0,1,16.033,9.319l-.023.283.281-.038a11.677,11.677,0,0,1,13.132,13.006l-.038.3.3-.051a8.762,8.762,0,0,1,8.828,4.186c.83,1.445,1.083,3.144,1.813,4.661a5.579,5.579,0,0,0,1.532,1.977,8.647,8.647,0,0,0,2.1,1.2,23.99,23.99,0,0,1,4.114,1.831,9.791,9.791,0,0,1,2.922,2.97,10.062,10.062,0,0,1,1.489,7.189l-.028.158.158.02a7.792,7.792,0,0,1,5.376,3.231,7.488,7.488,0,0,1,1.346,4.584,7.971,7.971,0,0,1-.664,2.975c-.289.641-.511.947-.478.96" transform="translate(143.26 13.959)" fill="#455a64"/>
            <path id="Trazado_207754" data-name="Trazado 207754" d="M74.889,78.155a1.485,1.485,0,0,0,.038-1.241,2.943,2.943,0,0,0-.907-1.241,5.107,5.107,0,0,0-1.882-.907,8.867,8.867,0,0,1-2.378-.947,4.709,4.709,0,0,1-1.742-2.4,9.266,9.266,0,0,1-.437-3.455c.033-1.246.207-2.572.184-3.986a40.534,40.534,0,0,0-2.074-8.908,12.544,12.544,0,0,1-.286-4.97,6.052,6.052,0,0,1,2.671-4.3,22.732,22.732,0,0,1,5.271-1.885,9.185,9.185,0,0,0,2.689-1.308,6.1,6.1,0,0,0,1.872-2.424A29.394,29.394,0,0,0,79.4,34.21a10.055,10.055,0,0,1,1-2.886,4.637,4.637,0,0,1,2.2-1.992,16.872,16.872,0,0,1,4.175-.641,6.644,6.644,0,0,0,2.109-.567,4.164,4.164,0,0,0,1.65-1.44,14.717,14.717,0,0,0,1.52-3.889,9.3,9.3,0,0,1,1.841-3.445,9.124,9.124,0,0,1,6.533-3.259,9.389,9.389,0,0,1,6.459,2.219l.2.176.107-.255a14.394,14.394,0,0,1,8.854-7.9,13.279,13.279,0,0,1,5.046-.511,12.1,12.1,0,0,1,4.175,1.088,11.212,11.212,0,0,1,5.258,5.4l.186.368a.424.424,0,0,0,.074.123.629.629,0,0,0-.046-.133l-.158-.383a9.035,9.035,0,0,0-.728-1.448,10.572,10.572,0,0,0-4.49-4.135,12.26,12.26,0,0,0-4.25-1.154,13.468,13.468,0,0,0-5.164.488,14.718,14.718,0,0,0-9.12,8.055l.312-.069a9.763,9.763,0,0,0-6.734-2.342,9.536,9.536,0,0,0-6.854,3.394,9.726,9.726,0,0,0-1.933,3.593,14.371,14.371,0,0,1-1.466,3.767,4.43,4.43,0,0,1-3.44,1.808,17.082,17.082,0,0,0-4.29.672A5.1,5.1,0,0,0,80,31.1a10.525,10.525,0,0,0-1.047,3.016A29.242,29.242,0,0,1,77.5,40a5.65,5.65,0,0,1-1.731,2.255A8.812,8.812,0,0,1,73.217,43.5a22.768,22.768,0,0,0-5.363,1.943,5.817,5.817,0,0,0-1.946,2.017,7.734,7.734,0,0,0-.894,2.569,12.993,12.993,0,0,0,.314,5.125,41.136,41.136,0,0,1,2.117,8.826c.033,1.382-.128,2.707-.151,3.971a9.468,9.468,0,0,0,.488,3.55A4.916,4.916,0,0,0,69.646,74a9.058,9.058,0,0,0,2.447.935,5.068,5.068,0,0,1,1.849.843,2.89,2.89,0,0,1,.9,1.165,1.866,1.866,0,0,1,.051,1.208" transform="translate(100.827 14.724)" fill="#455a64"/>
            <path id="Trazado_207755" data-name="Trazado 207755" d="M57.159,61.91a1.709,1.709,0,0,0,.153-.286l.4-.856,1.5-3.3c.661-1.43,1.4-3.218,2.464-5.177a13.441,13.441,0,0,1,4.975-5.511c1.211-.684,2.618-1.147,4.027-1.8a9.533,9.533,0,0,0,2.043-1.241,5.2,5.2,0,0,0,1.509-2c.69-1.581.682-3.361,1.228-4.993a4.3,4.3,0,0,1,1.42-2.089A8.139,8.139,0,0,1,79.3,33.487a15.625,15.625,0,0,0,2.659-1.067,4.874,4.874,0,0,0,2.03-2.173,22.216,22.216,0,0,0,1.2-5.889,7.292,7.292,0,0,1,.958-2.791,3.763,3.763,0,0,1,2.375-1.619c1.979-.447,4.13.212,6.339-.174a5.364,5.364,0,0,0,2.886-1.591,13.85,13.85,0,0,0,1.839-2.636,28.7,28.7,0,0,1,1.624-2.633,5.834,5.834,0,0,1,2.191-1.941,8.9,8.9,0,0,1,5.715-.049,13.352,13.352,0,0,0,5.751.4,15.354,15.354,0,0,0,4.959-2.36,25.947,25.947,0,0,1,4.408-2.554,15.609,15.609,0,0,1,8.969-.437,16.716,16.716,0,0,1,6.7,3.32,18.707,18.707,0,0,1,3.741,4.28,21.208,21.208,0,0,1,1.624,3.228c.156.365.273.651.365.868a1.617,1.617,0,0,0,.138.294,1.634,1.634,0,0,0-.094-.306c-.082-.222-.189-.511-.322-.889a19.346,19.346,0,0,0-1.558-3.287A18.539,18.539,0,0,0,140.065,9.1a16.908,16.908,0,0,0-6.791-3.43,15.872,15.872,0,0,0-9.194.4,25.986,25.986,0,0,0-4.49,2.554,15.02,15.02,0,0,1-4.829,2.286,12.934,12.934,0,0,1-5.572-.419,18.921,18.921,0,0,0-2.955-.465,6.249,6.249,0,0,0-3.047.536,6.34,6.34,0,0,0-2.362,2.076,29.972,29.972,0,0,0-1.647,2.676,13.455,13.455,0,0,1-1.772,2.554,4.888,4.888,0,0,1-2.641,1.456c-2.056.373-4.2-.289-6.356.181a4.251,4.251,0,0,0-2.648,1.811A7.68,7.68,0,0,0,84.74,24.28a22.046,22.046,0,0,1-1.147,5.772,4.413,4.413,0,0,1-1.849,1.989,15.178,15.178,0,0,1-2.582,1.044,8.508,8.508,0,0,0-2.528,1.241,4.672,4.672,0,0,0-1.55,2.3c-.562,1.726-.547,3.486-1.2,4.972a6.191,6.191,0,0,1-3.358,3.065c-1.377.651-2.791,1.126-4.038,1.839a13.661,13.661,0,0,0-5.039,5.672c-1.055,1.989-1.767,3.787-2.4,5.228l-1.425,3.34c-.153.368-.271.656-.36.873a1.6,1.6,0,0,0-.11.3" transform="translate(88.814 8.035)" fill="#455a64"/>
            <path id="Trazado_207756" data-name="Trazado 207756" d="M66.86,21.114a1.469,1.469,0,0,0-.278-.043,1.708,1.708,0,0,0-.8.192,3.247,3.247,0,0,0-1.461,2.707,7.946,7.946,0,0,0,.363,2.255,9.341,9.341,0,0,1,.434,2.61A5.866,5.866,0,0,1,64.1,31.644c-.572.922-1.3,1.829-1.89,2.922a4.343,4.343,0,0,0-.314,3.813c.511,1.277,1.456,2.342,1.938,3.644a5.637,5.637,0,0,1-.345,4.17c-.567,1.389-1.384,2.745-1.938,4.288a6.822,6.822,0,0,0-.444,2.464,6.172,6.172,0,0,0,.613,2.5,29.141,29.141,0,0,0,2.95,4.265,6.947,6.947,0,0,1,1.675,4.763A22.928,22.928,0,0,1,64.6,69.6a7.884,7.884,0,0,0-.511,2.789,6.25,6.25,0,0,0,.766,2.707,23.074,23.074,0,0,0,3.32,4.224,12.231,12.231,0,0,1,2.712,4.237,37.4,37.4,0,0,0,1.647,4.681,5.476,5.476,0,0,0,1.568,1.89,6.991,6.991,0,0,0,2.155,1,19.317,19.317,0,0,1,2.109.713A7.514,7.514,0,0,1,80.13,93a15.334,15.334,0,0,1,2.533,3.2c.713,1.113,1.376,2.212,2.115,3.192a10.366,10.366,0,0,0,5.332,3.79,11.124,11.124,0,0,0,4.949.391,9.884,9.884,0,0,0,3-.93,7.427,7.427,0,0,0,.94-.562,11.45,11.45,0,0,1-3.964,1.315,11.119,11.119,0,0,1-4.852-.46,10.142,10.142,0,0,1-5.151-3.739c-.718-.968-1.366-2.061-2.076-3.19a15.745,15.745,0,0,0-2.577-3.287,7.833,7.833,0,0,0-1.859-1.236,19.422,19.422,0,0,0-2.15-.741,6.578,6.578,0,0,1-2.03-.945,5.092,5.092,0,0,1-1.44-1.752,37.493,37.493,0,0,1-1.609-4.633A12.688,12.688,0,0,0,68.5,79.024a23.022,23.022,0,0,1-3.266-4.137,5.825,5.825,0,0,1-.7-2.508,7.429,7.429,0,0,1,.49-2.623,22.762,22.762,0,0,0,1.765-5.243,5.742,5.742,0,0,0-.416-2.738,11,11,0,0,0-1.348-2.332,29.657,29.657,0,0,1-2.916-4.188,5.73,5.73,0,0,1-.577-2.314,6.4,6.4,0,0,1,.411-2.316c.526-1.489,1.336-2.847,1.913-4.28a6.035,6.035,0,0,0,.327-4.454c-.531-1.389-1.489-2.439-1.966-3.642a4,4,0,0,1,.273-3.532c.552-1.06,1.277-1.977,1.849-2.919a6.07,6.07,0,0,0,1.022-2.955,9.351,9.351,0,0,0-.48-2.676,7.986,7.986,0,0,1-.393-2.191,3.181,3.181,0,0,1,1.328-2.633,1.924,1.924,0,0,1,1.022-.227" transform="translate(94.943 32.74)" fill="#455a64"/>
            <path id="Trazado_207757" data-name="Trazado 207757" d="M171.965,80.614a5.724,5.724,0,0,0,1.2-.138,8.225,8.225,0,0,0,3.164-1.417,8.054,8.054,0,0,0,3.118-4.507,8.507,8.507,0,0,0-1.343-7.12,21.2,21.2,0,0,0-3.065-3.065,10.2,10.2,0,0,1-2.886-3.552,6.677,6.677,0,0,1,.158-4.809c.554-1.629,1.417-3.225,1.941-5.028a14.836,14.836,0,0,0-10.1-18.39q-.674-.2-1.361-.327l.143.352a7.549,7.549,0,0,0,1.262-3.32,9.542,9.542,0,0,0-.281-3.6,10.451,10.451,0,0,0-1.568-3.3,12.481,12.481,0,0,0-2.6-2.62,23.42,23.42,0,0,0-10.013-3.869,35.4,35.4,0,0,0-10.177-.286l.255.209a10.749,10.749,0,0,0-6.218-9.209,10.986,10.986,0,0,0-5.33-.942,17.778,17.778,0,0,0-4.942,1.384,9.985,9.985,0,0,1-2.324.575,6.1,6.1,0,0,1-2.283-.2,18.654,18.654,0,0,1-4.032-1.885,16.073,16.073,0,0,0-3.849-1.693A13.2,13.2,0,0,0,107,3.4a12.73,12.73,0,0,0-6.257,1.806,13.127,13.127,0,0,0-3.629,3.248,12.664,12.664,0,0,0-1.553,2.628,6.871,6.871,0,0,0-.363.991c.02,0,.135-.335.434-.958A13.171,13.171,0,0,1,100.855,5.4a12.57,12.57,0,0,1,6.152-1.716,12.858,12.858,0,0,1,3.741.47,16.043,16.043,0,0,1,3.767,1.688,18.666,18.666,0,0,0,4.1,1.941,6.461,6.461,0,0,0,2.411.227,10.467,10.467,0,0,0,2.413-.582,17.448,17.448,0,0,1,4.852-1.346A10.59,10.59,0,0,1,133.418,7a10.331,10.331,0,0,1,5.948,8.851v.235l.235-.026a35.142,35.142,0,0,1,10.047.3,23.02,23.02,0,0,1,9.812,3.79,11.985,11.985,0,0,1,2.51,2.521,9.934,9.934,0,0,1,1.5,3.154,9.071,9.071,0,0,1,.271,3.417,7.074,7.074,0,0,1-1.177,3.121l-.2.289.34.064A14.432,14.432,0,0,1,174.174,49.6q-.123.647-.306,1.282c-.511,1.749-1.354,3.348-1.915,5.018a7.048,7.048,0,0,0-.13,5.062,10.484,10.484,0,0,0,3,3.66,21.382,21.382,0,0,1,3.049,2.993,8.268,8.268,0,0,1,1.356,6.9,7.928,7.928,0,0,1-2.988,4.433,8.453,8.453,0,0,1-3.09,1.466c-.766.179-1.18.194-1.177.217" transform="translate(147.918 5.278)" fill="#263238"/>
            <path id="Trazado_207758" data-name="Trazado 207758" d="M61.22,43.545a1.375,1.375,0,0,0,.038-.289c.018-.217.041-.5.069-.853.059-.766.143-1.872.255-3.269s.3-3.154.651-5.138a29.294,29.294,0,0,1,1.9-6.556,19.417,19.417,0,0,1,4.714-6.7,14.347,14.347,0,0,1,3.843-2.452,41.011,41.011,0,0,1,4.679-1.43,13.682,13.682,0,0,0,4.737-2.189A21.573,21.573,0,0,0,85.9,10.775c1.149-1.433,2.242-2.945,3.522-4.316a15.355,15.355,0,0,1,4.49-3.422A27.262,27.262,0,0,1,104.8.539a71.3,71.3,0,0,1,10.522.255A53.872,53.872,0,0,1,132.5,5.3a38.177,38.177,0,0,1,9.98,6.619c.511.493.983.914,1.361,1.308l.93,1.022.58.626a1.583,1.583,0,0,0,.209.2,1.281,1.281,0,0,0-.174-.232l-.544-.656-.9-1.06c-.37-.4-.835-.838-1.341-1.346A37.241,37.241,0,0,0,132.64,5,53.516,53.516,0,0,0,115.374.371,70.507,70.507,0,0,0,104.783.08,27.58,27.58,0,0,0,93.707,2.616a15.82,15.82,0,0,0-4.615,3.522c-1.3,1.4-2.4,2.919-3.542,4.341a21.224,21.224,0,0,1-3.706,3.831,13.334,13.334,0,0,1-4.6,2.132,41.2,41.2,0,0,0-4.722,1.463,14.654,14.654,0,0,0-3.938,2.554,19.619,19.619,0,0,0-4.758,6.854,29.125,29.125,0,0,0-1.854,6.64c-.332,2-.475,3.746-.577,5.169s-.138,2.531-.163,3.279c0,.355-.018.636-.023.856a1.387,1.387,0,0,0,0,.291" transform="translate(95.1 -0.001)" fill="#263238"/>
            <path id="Trazado_207759" data-name="Trazado 207759" d="M93.354,39.989,82.312,44.251l-1.05.4a23.191,23.191,0,0,0,2.189,5.514A5.94,5.94,0,0,0,87.6,53a6.665,6.665,0,0,0,3.974-1.062,7.961,7.961,0,0,0,3.361-5.5,8.393,8.393,0,0,0-1.581-6.443" transform="translate(126.265 62.13)" fill="#eb996e"/>
            <path id="Trazado_207760" data-name="Trazado 207760" d="M86.99,53.264a8.547,8.547,0,0,0,4.239-1.126,7.091,7.091,0,0,0,2.835-3.649,8.786,8.786,0,0,0,0-5.677,10.5,10.5,0,0,0-.577-1.417,2.057,2.057,0,0,0-.319-.534c-.115-.084-.066-.082-.24-.051l-2.681,1.073-4.64,1.808a21.763,21.763,0,0,1-4.367,1.438,21.573,21.573,0,0,1,4.107-2.071l4.561-2c.884-.373,1.716-.748,2.756-1.159a1.165,1.165,0,0,1,1.18.278,2.8,2.8,0,0,1,.511.787,11.326,11.326,0,0,1,.636,1.548,9.381,9.381,0,0,1-.082,6.285,7.51,7.51,0,0,1-3.32,3.928,6.4,6.4,0,0,1-3.358.822c-.822-.041-1.241-.232-1.228-.286" transform="translate(126.229 61.899)" fill="#263238"/>
            <path id="Trazado_207761" data-name="Trazado 207761" d="M117.072,40.2a7.8,7.8,0,0,1,2.286,1.277,10.231,10.231,0,0,1,3.769,5.978,10.833,10.833,0,0,1-.036,4.965,12.168,12.168,0,0,1-2.687,5.023,12.4,12.4,0,0,1-5.2,3.545,11.427,11.427,0,0,1-6.739.255,12.281,12.281,0,0,1-5.823-3.417A11.047,11.047,0,0,1,99.8,52.21a11.76,11.76,0,0,1,2.809-10,11.342,11.342,0,0,1,6.384-3.1,6.473,6.473,0,0,1,1.949.036,2.318,2.318,0,0,1,.649.194,8.333,8.333,0,0,0-2.569,0,11,11,0,0,0-2.87.9,10.42,10.42,0,0,0-3.233,2.26,11.386,11.386,0,0,0-2.584,9.62,10.587,10.587,0,0,0,2.73,5.32,11.783,11.783,0,0,0,5.557,3.248,10.9,10.9,0,0,0,6.407-.232,11.94,11.94,0,0,0,4.988-3.361,11.792,11.792,0,0,0,2.62-4.788,10.542,10.542,0,0,0,.1-4.758,10.246,10.246,0,0,0-3.511-5.892,22.864,22.864,0,0,0-2.145-1.448" transform="translate(154.759 60.678)" fill="#e0e0e0"/>
            <path id="Trazado_207762" data-name="Trazado 207762" d="M88.388,33.256a3.284,3.284,0,0,0,3.065,3.4,3.141,3.141,0,0,0,3.455-2.791l.008-.079a3.285,3.285,0,0,0-3.065-3.4,3.144,3.144,0,0,0-3.46,2.791l-.008.082" transform="translate(137.329 47.181)" fill="#263238"/>
            <path id="Trazado_207763" data-name="Trazado 207763" d="M75.571,32.6A3.284,3.284,0,0,0,78.636,36,3.141,3.141,0,0,0,82.091,33.2l.008-.079a3.285,3.285,0,0,0-3.065-3.4,3.144,3.144,0,0,0-3.46,2.791l-.008.082" transform="translate(117.414 46.16)" fill="#263238"/>
            <path id="Trazado_207764" data-name="Trazado 207764" d="M73.882,29.891c.386.58,3.32-1.494,7.168-1.134,3.831.3,6.415,2.853,6.9,2.347.23-.225-.117-1.241-1.233-2.393a8.7,8.7,0,0,0-11.221-.97c-1.29.945-1.788,1.887-1.6,2.15" transform="translate(114.751 40.606)" fill="#263238"/>
            <path id="Trazado_207765" data-name="Trazado 207765" d="M86.9,30.962c.475.529,3.363-1.788,7.467-1.826,4.1-.094,7.128,2.14,7.569,1.594.217-.24-.255-1.2-1.586-2.209a9.956,9.956,0,0,0-6.065-1.938,9.7,9.7,0,0,0-5.94,2.117c-1.254,1.052-1.683,2.023-1.451,2.258" transform="translate(134.929 41.301)" fill="#263238"/>
            <path id="Trazado_207766" data-name="Trazado 207766" d="M41.476,249.7l21.393,51.924,38.659-15.948L79.821,221.611Z" transform="translate(64.445 344.339)" fill="#ffbe9d"/>
            <path id="Trazado_207767" data-name="Trazado 207767" d="M61.089,263.556l12.646,26.761s-36.665,34.893-33.71,43.159l84.291-36.2L103.791,243.8Z" transform="translate(61.928 378.819)" fill="#084a93"/>
            <path id="Trazado_207768" data-name="Trazado 207768" d="M64.583,256.221a3.747,3.747,0,0,1,4.068,2.906,3.605,3.605,0,0,1-2.847,4.058,3.956,3.956,0,0,1-4.29-3.1,3.738,3.738,0,0,1,3.427-3.892" transform="translate(95.573 398.072)" fill="#e0e0e0"/>
            <g id="Grupo_174589" data-name="Grupo 174589" transform="translate(101.515 669.358)" opacity="0.6">
              <g id="Grupo_174588" data-name="Grupo 174588">
                <g id="Grupo_174587" data-name="Grupo 174587" clip-path="url(#clip-path-20)">
                  <g id="Grupo_174586" data-name="Grupo 174586" transform="translate(0.001 0.008)">
                    <g id="Grupo_174585" data-name="Grupo 174585" clip-path="url(#clip-path-21)">
                      <path id="Trazado_207769" data-name="Trazado 207769" d="M124.488,268.835l-3.167-6.732L41.687,299.327s-3.052,3.243-1.491,5.705Z" transform="translate(-39.751 -262.111)" fill="#fff"/>
                    </g>
                  </g>
                </g>
              </g>
            </g>
            <path id="Trazado_207770" data-name="Trazado 207770" d="M52.526,262.975c.192.406,2.326-.291,4.921.161,2.6.388,4.416,1.721,4.725,1.394.345-.255-1.325-2.439-4.477-2.932s-5.422,1.034-5.169,1.377" transform="translate(81.584 406.32)" fill="#263238"/>
            <path id="Trazado_207771" data-name="Trazado 207771" d="M49.673,265.375c.074.439,2.158.373,4.3,1.514,2.181,1.078,3.34,2.809,3.744,2.615.416-.1-.337-2.636-3.031-4s-5.177-.511-5.016-.125" transform="translate(77.17 411.374)" fill="#263238"/>
            <path id="Trazado_207772" data-name="Trazado 207772" d="M51.149,260.436c.332.3,1.977-1.078,4.372-1.918,2.378-.891,4.525-.889,4.6-1.333.11-.4-2.3-1.165-5.108-.133s-4.181,3.146-3.831,3.384" transform="translate(79.439 398.604)" fill="#263238"/>
            <path id="Trazado_207773" data-name="Trazado 207773" d="M71.9,395.288,19.956,233.671s2.49-26.4,7.71-34.553,154.855-50.77,154.855-50.77,37.975-7.49,62.668,2.6,49.7,22.323,46.464,39.793a46.509,46.509,0,0,1-2.255,7.817,63.939,63.939,0,0,1-60.819,40.886l-19.6,1.374L108.688,255.685a7.644,7.644,0,0,0-6.436,8.685c.038.255.089.511.153.764l27.7,108.421S94.282,389.233,71.9,395.288" transform="translate(31.008 226.349)" fill="#084a93"/>
            <path id="Trazado_207774" data-name="Trazado 207774" d="M24.106,204.5,20.383,260.54l41.732,2.753,8.813-67.06Z" transform="translate(31.67 304.906)" fill="#ffbe9d"/>
            <path id="Trazado_207775" data-name="Trazado 207775" d="M52.356,218.489l-3.065,31.948S.989,265.558,0,274.282l91.612,4.732,5.192-57.044Z" transform="translate(0.005 339.488)" fill="#084a93"/>
            <path id="Trazado_207776" data-name="Trazado 207776" d="M24.119,229.438a3.29,3.29,0,0,1,.123-1.634,10.18,10.18,0,0,1,2.017-4.086,6.027,6.027,0,0,1,1.149-1.159,2.267,2.267,0,0,1,2.081-.332,1.4,1.4,0,0,1,.881.861,1.626,1.626,0,0,1-.087,1.108,10.915,10.915,0,0,1-1.022,1.632c-.766,1.052-1.4,2.107-2.362,3.287a2.769,2.769,0,0,1-2.493.889,5.54,5.54,0,0,1-2.329-1.039,19.7,19.7,0,0,1-3.363-3.024,19.027,19.027,0,0,1-1.3-1.66,5.094,5.094,0,0,1-.955-1.882,1.693,1.693,0,0,1,1.129-1.964,2.521,2.521,0,0,1,2.186.541A12.58,12.58,0,0,1,22,223.434a15.167,15.167,0,0,1,2.115,4.063,3.768,3.768,0,0,1,.332,1.611,30.655,30.655,0,0,0-3.085-5.289,13.219,13.219,0,0,0-2.148-2.209,1.6,1.6,0,0,0-1.3-.365.845.845,0,0,0-.47,1.022,4.475,4.475,0,0,0,.84,1.532,19.434,19.434,0,0,0,1.259,1.56,19.729,19.729,0,0,0,3.2,2.85,4.525,4.525,0,0,0,1.823.848,1.619,1.619,0,0,0,1.514-.554c.8-.96,1.583-2.155,2.327-3.149a11.162,11.162,0,0,0,.983-1.453c.2-.46.115-.766-.255-.912-.822-.345-1.67.47-2.265,1.165a14.782,14.782,0,0,0-2.758,5.3" transform="translate(25.509 342.414)" fill="#263238"/>
            <path id="Trazado_207777" data-name="Trazado 207777" d="M33.265,230.095a3.744,3.744,0,0,1,2.365,4.4,3.6,3.6,0,0,1-4.341,2.385,3.957,3.957,0,0,1-2.482-4.676,3.738,3.738,0,0,1,4.8-1.977" transform="translate(44.575 357.324)" fill="#e0e0e0"/>
            <g id="Grupo_174594" data-name="Grupo 174594" transform="translate(0 609.31)" opacity="0.6">
              <g id="Grupo_174593" data-name="Grupo 174593">
                <g id="Grupo_174592" data-name="Grupo 174592" clip-path="url(#clip-path-22)">
                  <g id="Grupo_174591" data-name="Grupo 174591" transform="translate(0.003)">
                    <g id="Grupo_174590" data-name="Grupo 174590" clip-path="url(#clip-path-23)">
                      <path id="Trazado_207778" data-name="Trazado 207778" d="M91.632,247.781l.13-7.437L3.876,238.59S-.3,240.15.017,243.049Z" transform="translate(-0.002 -238.59)" fill="#fff"/>
                    </g>
                  </g>
                </g>
              </g>
            </g>
            <path id="Trazado_207779" data-name="Trazado 207779" d="M18.739,230.984c0,.447,2.219.766,4.341,2.319,2.168,1.5,3.2,3.494,3.624,3.338.416-.064-.112-2.773-2.72-4.6s-5.325-1.463-5.248-1.047" transform="translate(29.109 358.399)" fill="#263238"/>
            <path id="Trazado_207780" data-name="Trazado 207780" d="M14.9,232.242c-.123.429,1.772,1.29,3.2,3.259,1.479,1.931,1.757,4,2.2,4,.416.092.861-2.51-.953-4.926s-4.416-2.756-4.446-2.329" transform="translate(23.137 360.617)" fill="#263238"/>
            <path id="Trazado_207781" data-name="Trazado 207781" d="M14.466,241.345c.4.117,1.136-2.086.115-4.6s-3.065-3.593-3.271-3.231c-.268.355,1.022,1.739,1.829,3.813.856,2.043.889,3.946,1.331,4.012" transform="translate(17.517 362.733)" fill="#263238"/>
            <path id="Trazado_207782" data-name="Trazado 207782" d="M19.282,227.42c.166.416,2.252-.092,4.77.209,2.528.255,4.451,1.2,4.7.827.276-.309-1.558-2.063-4.53-2.38s-5.143.978-4.942,1.343" transform="translate(29.94 351.201)" fill="#263238"/>
            <path id="Trazado_207783" data-name="Trazado 207783" d="M65,139.035S40.054,136,36.142,163.04,13.924,315.405,13.924,315.405l68.587,8.588L96.948,194.851l94.95-35.817s-110.043-22.79-126.9-20" transform="translate(21.635 215.657)" fill="#084a93"/>
            <path id="Trazado_207784" data-name="Trazado 207784" d="M83.768,126.216s-16.957,41.956-14.26,46.824,40.948,26.018,40.948,26.018l96.179,41.594a81.972,81.972,0,0,0,11.719-40.082c1.022-24.516-31.156-70.061-31.156-70.061Z" transform="translate(107.549 196.114)" fill="#084a93"/>
            <path id="Trazado_207785" data-name="Trazado 207785" d="M190.336,145.951a2.5,2.5,0,0,1-.47.227l-1.417.582-5.511,2.186-20.686,8.006-71.4,27.285.335-.432c-1.417,12.754-2.95,26.531-4.533,40.787-3.764,33.314-7.235,64.034-9.983,88.338l-.049.439-.437-.056L33.739,307.8l-11.689-1.583L19,305.77a6.516,6.516,0,0,1-1.037-.194,6.34,6.34,0,0,1,1.055.066l3.065.319L33.8,307.31l42.5,5.133-.485.383c2.684-24.31,6.078-55.034,9.761-88.361,1.6-14.25,3.146-28.025,4.576-40.782l.036-.319.3-.115,71.529-26.912,20.79-7.723,5.575-2.02,1.448-.511a2.2,2.2,0,0,1,.511-.14" transform="translate(27.909 226.766)" fill="#052b4c"/>
            <path id="Trazado_207786" data-name="Trazado 207786" d="M158.29,156.961a14.227,14.227,0,0,1-2.715-.863l-7.258-2.676a160.416,160.416,0,0,0-24.371-7.245,72.266,72.266,0,0,0-25.229-.723A101.682,101.682,0,0,0,88.5,147.961a12.2,12.2,0,0,1,2.595-1.18,45.152,45.152,0,0,1,7.5-2.086,67.808,67.808,0,0,1,25.569.409,137.123,137.123,0,0,1,24.442,7.6c3.034,1.221,5.47,2.263,7.151,3.006a14.191,14.191,0,0,1,2.554,1.256" transform="translate(137.514 223.241)" fill="#052b4c"/>
            <path id="Trazado_207787" data-name="Trazado 207787" d="M144.535,140.581a71.817,71.817,0,0,0-8.545-.4c-2.638.074-5.787.347-9.291.608s-7.342.577-11.329,1.164a52.455,52.455,0,0,0-19.447,6.31,59.766,59.766,0,0,0-6.865,5.077,7.5,7.5,0,0,1,1.5-1.788,29.163,29.163,0,0,1,4.962-3.953,49.055,49.055,0,0,1,19.692-6.732c4.04-.593,7.917-.873,11.418-1.088s6.673-.4,9.355-.375a34.869,34.869,0,0,1,6.31.544,7.272,7.272,0,0,1,2.24.631" transform="translate(138.38 216.598)" fill="#052b4c"/>
            <path id="Trazado_207788" data-name="Trazado 207788" d="M56.784,261.835a4.06,4.06,0,0,1-.687-1.7,12.082,12.082,0,0,1-.189-5,6.466,6.466,0,0,1,.465-1.673,2.084,2.084,0,0,1,1.7-1.262,1.471,1.471,0,0,1,1.205.473,1.959,1.959,0,0,1,.465,1.152,12.485,12.485,0,0,1-.128,2.094c-.166,1.394-.225,2.732-.511,4.341a2.638,2.638,0,0,1-1.788,2,5.251,5.251,0,0,1-2.595,0,20.576,20.576,0,0,1-4.484-1.532,21.448,21.448,0,0,1-1.977-1.08,5.9,5.9,0,0,1-1.772-1.461,1.945,1.945,0,0,1,.054-2.469,2.322,2.322,0,0,1,2.222-.437,13.606,13.606,0,0,1,3.192,1.471,17.741,17.741,0,0,1,3.877,3.128c.789.868,1.134,1.422,1.083,1.466a35.686,35.686,0,0,0-5.34-3.925,14.028,14.028,0,0,0-3-1.256,1.473,1.473,0,0,0-1.341.215.978.978,0,0,0,.074,1.223,5.146,5.146,0,0,0,1.5,1.152,20.125,20.125,0,0,0,6.142,2.434A4.254,4.254,0,0,0,57,261.23,1.533,1.533,0,0,0,58.081,260c.255-1.32.368-2.868.549-4.193a13.064,13.064,0,0,0,.171-1.895c-.043-.554-.271-.822-.664-.807-.9.02-1.277,1.213-1.461,2.176a17.59,17.59,0,0,0,.12,6.548" transform="translate(71.593 391.871)" fill="#263238"/>
            <path id="Trazado_207789" data-name="Trazado 207789" d="M190.54,87.2s.271-15.714-1.262-17.568L157.1,58.413l-23.178,6.941c-5.437,2.39-15.859,17.892-21.743,17.087-6.571-.9-7.81-18.18-10.514-23.163L89.8,62.325s-20.321,53.957-20.578,69.231,7.766,35.86,6.438,67.885c-.695,16.74-2.324,31.7,8.093,32.124l103.429,4.293s23.628-5.491,25.226-19.488S190.53,87.2,190.53,87.2" transform="translate(107.552 90.762)" fill="#b9ddfc"/>
            <path id="Trazado_207790" data-name="Trazado 207790" d="M217.626,189.165,201.418,137.88s-9.743-65.076-32.4-74.1c-9.692-3.864-30.886-3.19-37.319,9.96S133.2,96.5,134.763,103s23.495,52.1,23.495,52.1A222.21,222.21,0,0,1,169.02,180.76L81.481,227.1l11.032,28.858,109.448-39.839A24.617,24.617,0,0,0,217.438,199.9a20.347,20.347,0,0,0,.2-10.772" transform="translate(126.605 95.91)" fill="#b9ddfc"/>
            <path id="Trazado_207791" data-name="Trazado 207791" d="M54.985,141.812,77.5,132.167l43.233-1.629,3.616-2.3,9.321,24.389s-11.523,4.931-17.455,5.166l-36.185-2.6L61.012,156.4Z" transform="translate(85.436 199.257)" fill="#ffbe9d"/>
            <path id="Trazado_207792" data-name="Trazado 207792" d="M12.9,98.235,137.076,104.4c4.03.166,7.8,2.263,8.236,6.272l9.819,91.1,63.98,2.653a3.734,3.734,0,1,1-.309,7.462l-62.864-2.607-11.931-.5L14.451,203.41l-10-96.135A8.152,8.152,0,0,1,12.9,98.237" transform="translate(6.838 152.63)" fill="#e0e0e0"/>
            <path id="Trazado_207793" data-name="Trazado 207793" d="M12.952,98.251a6.6,6.6,0,0,0-1.966.1,8.222,8.222,0,0,0-6.576,6.852,23.108,23.108,0,0,0,.255,5.125q.552,5.524,1.277,12.682c1.946,19.1,4.753,46.614,8.2,80.445l.033.332.332.015,198.249,8.343,5.335.222a5.163,5.163,0,0,0,2.845-.419,4.237,4.237,0,0,0,.291-7.406,5.17,5.17,0,0,0-2.779-.641l-2.628-.11-20.765-.858L155.216,201.3l.462.432c-3.542-32.627-6.844-63.063-9.809-90.369a7.047,7.047,0,0,0-2.1-4.824,9.253,9.253,0,0,0-4.663-2.3,40.994,40.994,0,0,0-5-.383l-4.878-.235-18.694-.9L77.3,101.129,30,98.923l-12.657-.547-3.269-.123c-.735-.02-1.111,0-1.111,0s.373.049,1.106.1l3.266.2,12.649.707,47.294,2.49,33.222,1.709,18.691.955,4.878.255a41.021,41.021,0,0,1,4.878.383,8.43,8.43,0,0,1,4.252,2.089,6.181,6.181,0,0,1,1.844,4.324c2.922,27.308,6.18,57.749,9.671,90.379l.046.416.416.018,39.839,1.665,20.762.866,2.628.11a4.163,4.163,0,0,1,2.3.5,3.235,3.235,0,0,1-.222,5.649,4.18,4.18,0,0,1-2.352.312l-5.332-.222L14.535,203.046l.365.342c-3.588-33.817-6.51-61.324-8.535-80.411L5,110.305a23.1,23.1,0,0,1-.3-5.054,7.956,7.956,0,0,1,1.6-3.8,8.126,8.126,0,0,1,4.722-2.975,16.463,16.463,0,0,1,1.941-.215" transform="translate(6.784 152.614)" fill="#263238"/>
            <path id="Trazado_207794" data-name="Trazado 207794" d="M43.641,124.387a7.784,7.784,0,1,1-7.457-8.1h0a7.784,7.784,0,0,1,7.455,8.1" transform="translate(43.63 180.679)" fill="#fff"/>
            <path id="Trazado_207795" data-name="Trazado 207795" d="M69.106,204.426c-.176.02-3.174-23.2-6.694-51.842s-6.234-51.911-6.055-51.934,3.172,23.191,6.7,51.855,6.229,51.909,6.052,51.931" transform="translate(87.555 156.39)" fill="#263238"/>
            <path id="Trazado_207796" data-name="Trazado 207796" d="M193.467,190.9a2.4,2.4,0,0,1-.472.217l-1.417.562-5.529,2.1L165.26,201.49,93.08,227.957l-.46.169-.176-.462c-3.514-9.171-7.225-18.857-11.058-28.858l-.166-.434.411-.217,17.307-9.168L169.2,151.872l-.207.575-21.322-52.422-5.9-14.71-1.532-3.887c-.156-.411-.276-.741-.375-1a.181.181,0,1,1,.066-.026l.439.976,1.65,3.831,6.129,14.613L169.816,152.1l.158.381-.368.194L99.426,189.923l-17.312,9.158.255-.646,11.009,28.876-.636-.294,72.316-26.11,20.887-7.447,5.585-1.943,1.448-.483a2.4,2.4,0,0,1,.511-.135" transform="translate(126.199 124.403)" fill="#263238"/>
            <path id="Trazado_207797" data-name="Trazado 207797" d="M137.73,53.6,104.684,68.836,96.157,87.913l-1.29-19.488-9.96-7.917-5.32,7.605,9.618,27.555,15.187.631,36.575-29.4,1.226-.649Z" transform="translate(123.663 83.288)" fill="#b9ddfc"/>
            <path id="Trazado_207798" data-name="Trazado 207798" d="M79.587,59.282a39.68,39.68,0,0,1,2.659,5.779c1.558,3.575,3.519,8.7,6.032,14.031l.189.352-.93.054c2.324-5.345,3.907-10.448,5.179-14.061a39.568,39.568,0,0,1,2.166-5.83,34.465,34.465,0,0,1-1.461,6.05A121.358,121.358,0,0,1,88.5,79.94l-.429.988-.511-.935-.212-.4c-2.6-5.5-4.4-10.57-5.8-14.255a36.488,36.488,0,0,1-1.966-6.053" transform="translate(123.654 92.112)" fill="#263238"/>
            <path id="Trazado_207799" data-name="Trazado 207799" d="M126.96,58.551a12.314,12.314,0,0,1-2.01,1.627l-5.7,4.112c-4.852,3.437-11.574,8.124-19.044,13.244l-8.864,6.04-.72.493-.056-.866c-.429-6.425-.766-11.936-.958-15.834-.074-1.8-.135-3.32-.186-4.569a6.116,6.116,0,0,1,.046-1.645,6.038,6.038,0,0,1,.283,1.622c.13,1.246.286,2.756.472,4.548.368,3.895.833,9.393,1.333,15.816l-.766-.375,8.834-6.091c7.467-5.123,14.268-9.7,19.215-12.989l5.894-3.831a12.24,12.24,0,0,1,2.242-1.277" transform="translate(138.885 90.976)" fill="#263238"/>
            <path id="Trazado_207800" data-name="Trazado 207800" d="M80.469,204.987a4.084,4.084,0,0,1-.452-.879,13.822,13.822,0,0,1-.766-2.745,66.657,66.657,0,0,1-.927-10.57c-.123-4.52,0-9.96.255-16.089.232-6.129.493-12.955.766-20.257l.135.368a46.522,46.522,0,0,1-9.319-15.027,45.887,45.887,0,0,1-2.973-13.553,56.884,56.884,0,0,1,.817-12.886A186.828,186.828,0,0,1,73.535,92.3,138.4,138.4,0,0,0,77.11,78.142c.644-3.389.784-5.3.9-5.291a7.048,7.048,0,0,1-.051,1.392c-.059.912-.174,2.252-.444,3.966a117.618,117.618,0,0,1-3.254,14.3,200.11,200.11,0,0,0-5.286,21,56.5,56.5,0,0,0-.746,12.659,45.343,45.343,0,0,0,2.927,13.244,45.935,45.935,0,0,0,9.079,14.71l.146.156v.212c-.329,7.3-.633,14.115-.909,20.257-.345,6.129-.531,11.528-.5,16.035A77.012,77.012,0,0,0,79.6,201.3a25.005,25.005,0,0,0,.871,3.685" transform="translate(104.286 113.196)" fill="#263238"/>
            <path id="Trazado_207801" data-name="Trazado 207801" d="M84.9,213.632a8.085,8.085,0,0,1-.169-1.486c-.069-1.08-.158-2.5-.273-4.275-.227-3.713-.455-9.089-.646-15.739-.386-13.3-.455-31.682.4-51.965S86.69,101.558,88.2,88.342c.751-6.609,1.43-11.947,1.972-15.627.255-1.76.472-3.164.633-4.237a7.97,7.97,0,0,1,.294-1.466,7.891,7.891,0,0,1-.082,1.494q-.169,1.613-.437,4.257c-.4,3.813-.955,9.132-1.637,15.655-1.315,13.224-2.809,31.527-3.68,51.788s-.9,38.621-.7,51.908c.128,6.556.232,11.906.309,15.739.033,1.788.056,3.2.079,4.28a8.141,8.141,0,0,1-.046,1.5" transform="translate(129.798 104.125)" fill="#263238"/>
            <path id="Trazado_207802" data-name="Trazado 207802" d="M135.014,63.193c0,.2-2.707-.166-6.949.493A29.793,29.793,0,0,0,104,84.232c-1.318,4.086-1.379,6.806-1.578,6.785a5.788,5.788,0,0,1-.036-1.9,25.13,25.13,0,0,1,.9-5.108,28.938,28.938,0,0,1,24.677-21.069,25.258,25.258,0,0,1,5.179-.087,5.848,5.848,0,0,1,1.872.332" transform="translate(158.992 97.517)" fill="#263238"/>
            <path id="Trazado_207803" data-name="Trazado 207803" d="M133.511,116.1A26.594,26.594,0,0,0,115.56,108.7a6.286,6.286,0,0,1,2.973-.421,19.267,19.267,0,0,1,13.167,5.437c1.32,1.318,1.908,2.321,1.808,2.4" transform="translate(179.557 168.192)" fill="#263238"/>
            <path id="Trazado_207804" data-name="Trazado 207804" d="M130.951,103.82c.028.066-.475.332-1.417.766a31.3,31.3,0,0,1-4.109,1.486,44.892,44.892,0,0,1-28.406-1.157,30.731,30.731,0,0,1-3.971-1.811c-.9-.511-1.382-.807-1.348-.871.082-.163,2.12.838,5.575,1.979a50.676,50.676,0,0,0,27.959,1.136c3.534-.858,5.649-1.693,5.718-1.532" transform="translate(142.479 158.823)" fill="#263238"/>
          </g>
        </g>
      </g>
    </g>
    <g id="Grupo_174645" data-name="Grupo 174645" transform="translate(333 1894)">
      <rect id="Rectángulo_298001" data-name="Rectángulo 298001" width="189.383" height="88.947" transform="translate(0.326 0.317)" fill="#fafafa"/>
      <g id="Grupo_174644" data-name="Grupo 174644" transform="translate(0 0)">
        <g id="Grupo_174643" data-name="Grupo 174643" clip-path="url(#clip-path-24)">
          <path id="Trazado_207941" data-name="Trazado 207941" d="M189.709,89.264s-.015-.548-.025-1.593-.014-2.6-.026-4.626c-.012-4.067-.031-10.041-.057-17.729-.031-15.367-.072-37.575-.124-65l.231.231L.339.634H.326L.643.317c0,31.3-.011,61.39-.017,88.947L.32,88.958,136.3,89.1l39.269.083,10.493.037,2.714.018c.613,0,.933.018.933.018s-.3.012-.9.018l-2.679.018-10.43.037-39.2.083L.322,89.555H.015v-.306C.015,61.692,0,31.6,0,.3V0H.329l189.38.086h.231V.317c-.052,27.484-.095,49.739-.124,65.138-.026,7.667-.044,13.622-.057,17.679-.011,2.005-.02,3.538-.026,4.583s-.025,1.546-.025,1.546" transform="translate(0 0)" fill="#263238"/>
          <path id="Trazado_207942" data-name="Trazado 207942" d="M189.887,17.843c0,.175-42.463.317-94.834.317S.213,18.017.213,17.843s42.454-.316,94.84-.316,94.834.141,94.834.316" transform="translate(0.113 9.321)" fill="#263238"/>
          <path id="Trazado_207943" data-name="Trazado 207943" d="M16.127,6.333a42.067,42.067,0,0,1-5.145,5.158,42.138,42.138,0,0,1-5.573,4.693,42.309,42.309,0,0,1,5.147-5.159,42.114,42.114,0,0,1,5.571-4.692" transform="translate(2.877 3.368)" fill="#263238"/>
          <path id="Trazado_207944" data-name="Trazado 207944" d="M15.543,16.767a42.067,42.067,0,0,1-5.158-5.145A42.139,42.139,0,0,1,5.692,6.049a42.406,42.406,0,0,1,5.159,5.145,42.127,42.127,0,0,1,4.692,5.573" transform="translate(3.027 3.217)" fill="#263238"/>
          <path id="Trazado_207945" data-name="Trazado 207945" d="M28.387,16.587a4.938,4.938,0,0,1-.063-.8c-.02-.591-.043-1.29-.072-2.122-.052-1.809-.113-4.344-.139-7.368l.274.273L18.1,6.618c-.07.069.6-.6.316-.314V9.079q0,1.36-.009,2.659c-.011,1.717-.021,3.345-.031,4.851l-.273-.274c3.024.028,5.559.089,7.368.139l2.122.072a4.77,4.77,0,0,1,.8.063,24.427,24.427,0,0,1-2.74.135c-1.792.052-4.4.113-7.543.139h-.273v-.276c-.011-1.506-.02-3.134-.032-4.851q0-1.3-.009-2.659V6.305c-.283.282.386-.388.317-.319L28.4,6.03h.276V6.3c-.028,3.145-.089,5.752-.139,7.541a24.113,24.113,0,0,1-.135,2.742" transform="translate(9.425 3.181)" fill="#263238"/>
          <path id="Trazado_207946" data-name="Trazado 207946" d="M41.038,12.419a24.356,24.356,0,0,1-5.514.316,24.356,24.356,0,0,1-5.514-.316,48.365,48.365,0,0,1,11.038,0" transform="translate(15.959 6.436)" fill="#263238"/>
        </g>
      </g>
    </g>
  </g>
</svg>
