<svg xmlns="http://www.w3.org/2000/svg" xmlns:xlink="http://www.w3.org/1999/xlink" width="1030" height="248.385" viewBox="0 0 1030 248.385">
  <defs>
    <clipPath id="clip-path">
      <rect id="Rectángulo_297807" data-name="Rectángulo 297807" width="1030" height="248.385" fill="none"/>
    </clipPath>
    <clipPath id="clip-path-2">
      <rect id="Rectángulo_297806" data-name="Rectángulo 297806" width="1030.001" height="248.385" fill="#ffb30b"/>
    </clipPath>
    <clipPath id="clip-path-3">
      <rect id="Rectángulo_297799" data-name="Rectángulo 297799" width="218.327" height="218.327" fill="none"/>
    </clipPath>
    <clipPath id="clip-path-4">
      <path id="Trazado_207551" data-name="Trazado 207551" d="M174.051,75.6H44.276A44.276,44.276,0,0,0,0,119.879V249.655A44.276,44.276,0,0,0,44.276,293.93H174.051a44.276,44.276,0,0,0,44.276-44.276V119.88A44.276,44.276,0,0,0,174.051,75.6" transform="translate(0 -75.604)" fill="none"/>
    </clipPath>
    <radialGradient id="radial-gradient" cx="0.5" cy="0.5" r="0.5" gradientTransform="matrix(1, 0, 0, -1, 0, 2)" gradientUnits="objectBoundingBox">
      <stop offset="0"/>
      <stop offset="0.156" stop-color="#3c3c3c"/>
      <stop offset="0.324" stop-color="#777"/>
      <stop offset="0.487" stop-color="#a7a7a7"/>
      <stop offset="0.64" stop-color="#cdcdcd"/>
      <stop offset="0.78" stop-color="#e8e8e8"/>
      <stop offset="0.905" stop-color="#f9f9f9"/>
      <stop offset="1" stop-color="#fff"/>
    </radialGradient>
    <clipPath id="clip-path-5">
      <rect id="Rectángulo_297801" data-name="Rectángulo 297801" width="218.326" height="218.327" fill="none"/>
    </clipPath>
    <clipPath id="clip-path-6">
      <path id="Trazado_207553" data-name="Trazado 207553" d="M838.671,75.6H708.9a44.276,44.276,0,0,0-44.276,44.275V249.655A44.276,44.276,0,0,0,708.9,293.93H838.671a44.276,44.276,0,0,0,44.276-44.276V119.88A44.276,44.276,0,0,0,838.671,75.6" transform="translate(-664.62 -75.604)" fill="none"/>
    </clipPath>
    <radialGradient id="radial-gradient-2" xlink:href="#radial-gradient"/>
    <clipPath id="clip-path-8">
      <path id="Trazado_207568" data-name="Trazado 207568" d="M1503.291,69.684H1373.516a44.276,44.276,0,0,0-44.276,44.276V243.735a44.276,44.276,0,0,0,44.276,44.276h129.775a44.276,44.276,0,0,0,44.276-44.276V113.96a44.276,44.276,0,0,0-44.276-44.276" transform="translate(-1329.24 -69.684)" fill="none"/>
    </clipPath>
    <radialGradient id="radial-gradient-3" gradientTransform="matrix(1, 0, 0, -1, 0, 2.022)" xlink:href="#radial-gradient"/>
    <clipPath id="clip-path-10">
      <path id="Trazado_207570" data-name="Trazado 207570" d="M2167.91,69.684H2038.136a44.276,44.276,0,0,0-44.276,44.276V243.735a44.276,44.276,0,0,0,44.276,44.276H2167.91a44.276,44.276,0,0,0,44.276-44.276V113.96a44.276,44.276,0,0,0-44.276-44.276" transform="translate(-1993.86 -69.684)" fill="none"/>
    </clipPath>
    <radialGradient id="radial-gradient-4" gradientTransform="matrix(1, 0, 0, -1, 0, 2.022)" xlink:href="#radial-gradient"/>
    <clipPath id="clip-path-11">
      <rect id="Rectángulo_297808" data-name="Rectángulo 297808" width="70" height="70" fill="none"/>
    </clipPath>
    <clipPath id="clip-path-13">
      <rect id="Rectángulo_297810" data-name="Rectángulo 297810" width="75.527" height="70" fill="none"/>
    </clipPath>
  </defs>
  <g id="Grupo_176099" data-name="Grupo 176099" transform="translate(-285 -922.002)">
    <g id="Grupo_174345" data-name="Grupo 174345" transform="translate(285 922.002)">
      <g id="Grupo_174344" data-name="Grupo 174344" clip-path="url(#clip-path)">
        <g id="Grupo_174343" data-name="Grupo 174343">
          <g id="Grupo_174342" data-name="Grupo 174342" clip-path="url(#clip-path-2)">
            <path id="Trazado_207537" data-name="Trazado 207537" d="M402.32,265.11H400.4a17.659,17.659,0,0,0-17.639,17.639v39.562a45.9,45.9,0,0,1-45.847,45.847H250.948a2.189,2.189,0,0,0,0,4.379h85.971a50.224,50.224,0,0,0,50.226-50.226V282.749a13.275,13.275,0,0,1,13.26-13.26h1.915a2.189,2.189,0,1,0,0-4.378" transform="translate(-149.858 -159.708)" fill="#ffb30b"/>
            <path id="Trazado_207538" data-name="Trazado 207538" d="M87.845,465.268a2.189,2.189,0,1,0-3.785,2.2l.087.149a2.189,2.189,0,0,0,3.776-2.217Z" transform="translate(-50.461 -279.632)" fill="#ffb30b"/>
            <path id="Trazado_207539" data-name="Trazado 207539" d="M130.576,508.11l-.133-.078a2.189,2.189,0,1,0-2.223,3.772l.149.087a2.189,2.189,0,0,0,2.208-3.781" transform="translate(-76.593 -305.867)" fill="#ffb30b"/>
            <path id="Trazado_207540" data-name="Trazado 207540" d="M69.6,404.933a2.19,2.19,0,0,0-2.163,2.215l0,.167a2.189,2.189,0,0,0,2.188,2.159h.031a2.189,2.189,0,0,0,2.159-2.219l0-.16a2.188,2.188,0,0,0-2.216-2.163" transform="translate(-40.628 -243.94)" fill="#ffb30b"/>
            <path id="Trazado_207541" data-name="Trazado 207541" d="M188.7,524.287l-.157,0H188.5a2.189,2.189,0,0,0-.033,4.378l.17,0h.027a2.189,2.189,0,0,0,.026-4.379" transform="translate(-112.241 -315.841)" fill="#ffb30b"/>
            <path id="Trazado_207542" data-name="Trazado 207542" d="M227.683,10.3A45.9,45.9,0,0,1,273.53,56.146v34.8a2.189,2.189,0,1,0,4.379,0v-34.8A50.224,50.224,0,0,0,227.683,5.92H117.658A50.224,50.224,0,0,0,67.432,56.146v85.969a2.189,2.189,0,1,0,4.379,0V56.146A45.9,45.9,0,0,1,117.658,10.3Z" transform="translate(-40.623 -3.566)" fill="#ffb30b"/>
            <path id="Trazado_207543" data-name="Trazado 207543" d="M659.339,262.145a3.368,3.368,0,1,0,3.368,3.368,3.368,3.368,0,0,0-3.368-3.368" transform="translate(-395.171 -157.922)" fill="#ffb30b"/>
            <path id="Trazado_207544" data-name="Trazado 207544" d="M1131.8,10.3a45.9,45.9,0,0,1,45.847,45.847v34.8a2.189,2.189,0,0,0,4.379,0v-34.8A50.225,50.225,0,0,0,1131.8,5.92a2.189,2.189,0,1,0,0,4.379" transform="translate(-680.504 -3.566)" fill="#ffb30b"/>
            <path id="Trazado_207545" data-name="Trazado 207545" d="M993.205,10.3h.182a2.189,2.189,0,0,0,0-4.379h-.182a2.189,2.189,0,1,0,0,4.379" transform="translate(-597.01 -3.566)" fill="#ffb30b"/>
            <path id="Trazado_207546" data-name="Trazado 207546" d="M924.013,10.3h.182a2.189,2.189,0,1,0,0-4.379h-.182a2.189,2.189,0,1,0,0,4.379" transform="translate(-555.328 -3.566)" fill="#ffb30b"/>
            <path id="Trazado_207547" data-name="Trazado 207547" d="M1062.4,10.3h.182a2.189,2.189,0,0,0,0-4.379h-.182a2.189,2.189,0,1,0,0,4.379" transform="translate(-638.694 -3.566)" fill="#ffb30b"/>
            <path id="Trazado_207548" data-name="Trazado 207548" d="M709.357,56.146A45.9,45.9,0,0,1,755.2,10.3a2.189,2.189,0,1,0,0-4.379,50.224,50.224,0,0,0-50.226,50.226V95.708a13.275,13.275,0,0,1-13.26,13.26H689.3a2.189,2.189,0,1,0,0,4.379h2.42a17.659,17.659,0,0,0,17.639-17.639Z" transform="translate(-413.93 -3.566)" fill="#ffb30b"/>
            <path id="Trazado_207549" data-name="Trazado 207549" d="M957.706,265.11h-1.915a17.659,17.659,0,0,0-17.639,17.639v39.562a45.9,45.9,0,0,1-45.847,45.847H782.282a45.9,45.9,0,0,1-45.847-45.847v-34.8a2.189,2.189,0,1,0-4.378,0v34.8a50.224,50.224,0,0,0,50.226,50.226H892.306a50.224,50.224,0,0,0,50.226-50.226V282.749a13.275,13.275,0,0,1,13.26-13.26h1.915a2.189,2.189,0,1,0,0-4.378" transform="translate(-441.007 -159.708)" fill="#ffb30b"/>
            <path id="Trazado_207550" data-name="Trazado 207550" d="M1323.958,262.145a3.368,3.368,0,1,0,3.368,3.368,3.368,3.368,0,0,0-3.368-3.368" transform="translate(-795.553 -157.922)" fill="#ffb30b"/>
            <g id="Grupo_174326" data-name="Grupo 174326" transform="translate(0 30.058)" opacity="0.9" style="mix-blend-mode: multiply;isolation: isolate">
              <g id="Grupo_174325" data-name="Grupo 174325">
                <g id="Grupo_174324" data-name="Grupo 174324" clip-path="url(#clip-path-3)">
                  <g id="Grupo_174323" data-name="Grupo 174323" transform="translate(0 0)">
                    <g id="Grupo_174322" data-name="Grupo 174322" clip-path="url(#clip-path-4)">
                      <rect id="Rectángulo_297798" data-name="Rectángulo 297798" width="218.326" height="218.326" transform="translate(0 0)" fill="url(#radial-gradient)"/>
                    </g>
                  </g>
                </g>
              </g>
            </g>
            <path id="Trazado_207552" data-name="Trazado 207552" d="M249.649,45.313H143.16a36.331,36.331,0,0,0-36.331,36.331V188.133a36.331,36.331,0,0,0,36.331,36.331H249.649a36.331,36.331,0,0,0,36.331-36.331V81.644a36.331,36.331,0,0,0-36.331-36.331" transform="translate(-64.356 -27.298)" fill="#f7f7f7"/>
            <g id="Grupo_174331" data-name="Grupo 174331" transform="translate(264.238 30.058)" opacity="0.9" style="mix-blend-mode: multiply;isolation: isolate">
              <g id="Grupo_174330" data-name="Grupo 174330">
                <g id="Grupo_174329" data-name="Grupo 174329" clip-path="url(#clip-path-5)">
                  <g id="Grupo_174328" data-name="Grupo 174328" transform="translate(0 0)">
                    <g id="Grupo_174327" data-name="Grupo 174327" clip-path="url(#clip-path-6)">
                      <rect id="Rectángulo_297800" data-name="Rectángulo 297800" width="218.326" height="218.326" transform="translate(0 0)" fill="url(#radial-gradient-2)"/>
                    </g>
                  </g>
                </g>
              </g>
            </g>
            <path id="Trazado_207554" data-name="Trazado 207554" d="M914.269,45.313H807.78a36.331,36.331,0,0,0-36.331,36.331V188.133a36.331,36.331,0,0,0,36.331,36.331H914.269A36.331,36.331,0,0,0,950.6,188.133V81.644a36.331,36.331,0,0,0-36.331-36.331" transform="translate(-464.738 -27.298)" fill="#f7f7f7"/>
            <path id="Trazado_207555" data-name="Trazado 207555" d="M2197.491,392.86H2111.52a45.9,45.9,0,0,1-45.847-45.847v-34.8a2.189,2.189,0,1,0-4.379,0v34.8a50.224,50.224,0,0,0,50.226,50.226h85.971a2.189,2.189,0,0,0,0-4.379" transform="translate(-1241.77 -186.763)" fill="#ffb30b"/>
            <path id="Trazado_207556" data-name="Trazado 207556" d="M2462.738,518.366h-.034l-.157,0a2.189,2.189,0,0,0,.026,4.379h.027l.17,0a2.189,2.189,0,0,0-.032-4.379" transform="translate(-1482.191 -312.275)" fill="#ffb30b"/>
            <path id="Trazado_207557" data-name="Trazado 207557" d="M2520.833,502.112l-.133.078a2.189,2.189,0,1,0,2.208,3.781l.148-.087a2.189,2.189,0,0,0-2.223-3.772" transform="translate(-1517.872 -302.3)" fill="#ffb30b"/>
            <path id="Trazado_207558" data-name="Trazado 207558" d="M2566.513,458.557a2.189,2.189,0,0,0-2.994.791l-.08.137a2.189,2.189,0,1,0,3.779,2.212l.085-.147a2.189,2.189,0,0,0-.791-2.993" transform="translate(-1544.093 -276.066)" fill="#ffb30b"/>
            <path id="Trazado_207559" data-name="Trazado 207559" d="M2581.883,399.013a2.194,2.194,0,0,0-2.216,2.163l0,.15a2.19,2.19,0,0,0,2.149,2.228h.041a2.19,2.19,0,0,0,2.188-2.15l0-.177a2.19,2.19,0,0,0-2.163-2.215" transform="translate(-1554.048 -240.374)" fill="#ffb30b"/>
            <path id="Trazado_207560" data-name="Trazado 207560" d="M2230.5,14.71A49.9,49.9,0,0,0,2194.98,0H2084.954a50.224,50.224,0,0,0-50.226,50.226V89.788a13.275,13.275,0,0,1-13.26,13.26h-2.083a2.189,2.189,0,0,0,0,4.379h2.083a17.659,17.659,0,0,0,17.639-17.639V50.226a45.9,45.9,0,0,1,45.847-45.847H2194.98a45.9,45.9,0,0,1,45.847,45.847v85.969a2.189,2.189,0,0,0,4.379,0V50.226A49.9,49.9,0,0,0,2230.5,14.71" transform="translate(-1215.204 0)" fill="#ffb30b"/>
            <path id="Trazado_207561" data-name="Trazado 207561" d="M1796.423,4.379a45.9,45.9,0,0,1,45.847,45.847v34.8a2.189,2.189,0,1,0,4.379,0v-34.8A50.224,50.224,0,0,0,1796.423,0a2.189,2.189,0,1,0,0,4.379" transform="translate(-1080.886 0)" fill="#ffb30b"/>
            <path id="Trazado_207562" data-name="Trazado 207562" d="M1657.826,4.379h.182a2.189,2.189,0,0,0,0-4.379h-.182a2.189,2.189,0,0,0,0,4.379" transform="translate(-997.393)" fill="#ffb30b"/>
            <path id="Trazado_207563" data-name="Trazado 207563" d="M1588.633,4.379h.182a2.189,2.189,0,1,0,0-4.379h-.182a2.189,2.189,0,1,0,0,4.379" transform="translate(-955.709)" fill="#ffb30b"/>
            <path id="Trazado_207564" data-name="Trazado 207564" d="M1727.019,4.379h.182a2.189,2.189,0,0,0,0-4.379h-.182a2.189,2.189,0,1,0,0,4.379" transform="translate(-1039.076)" fill="#ffb30b"/>
            <path id="Trazado_207565" data-name="Trazado 207565" d="M1373.977,50.226a45.9,45.9,0,0,1,45.847-45.847,2.189,2.189,0,1,0,0-4.379A50.224,50.224,0,0,0,1369.6,50.226V89.788a13.275,13.275,0,0,1-13.26,13.26h-2.42a2.189,2.189,0,1,0,0,4.379h2.42a17.659,17.659,0,0,0,17.639-17.639Z" transform="translate(-814.312)" fill="#ffb30b"/>
            <path id="Trazado_207566" data-name="Trazado 207566" d="M1622.326,259.19h-1.915a17.659,17.659,0,0,0-17.639,17.639v39.562a45.9,45.9,0,0,1-45.847,45.847H1446.9a45.9,45.9,0,0,1-45.847-45.847v-34.8a2.189,2.189,0,1,0-4.379,0v34.8a50.224,50.224,0,0,0,50.226,50.226h110.024a50.225,50.225,0,0,0,50.226-50.226V276.829a13.275,13.275,0,0,1,13.26-13.26h1.915a2.189,2.189,0,1,0,0-4.379" transform="translate(-841.389 -156.142)" fill="#ffb30b"/>
            <path id="Trazado_207567" data-name="Trazado 207567" d="M1988.578,256.225a3.368,3.368,0,1,0,3.368,3.368,3.368,3.368,0,0,0-3.368-3.368" transform="translate(-1195.935 -154.356)" fill="#ffb30b"/>
            <g id="Grupo_174336" data-name="Grupo 174336" transform="translate(528.476 27.705)" opacity="0.9" style="mix-blend-mode: multiply;isolation: isolate">
              <g id="Grupo_174335" data-name="Grupo 174335">
                <g id="Grupo_174334" data-name="Grupo 174334" clip-path="url(#clip-path-5)">
                  <g id="Grupo_174333" data-name="Grupo 174333" transform="translate(0 0)">
                    <g id="Grupo_174332" data-name="Grupo 174332" clip-path="url(#clip-path-8)">
                      <rect id="Rectángulo_297802" data-name="Rectángulo 297802" width="218.326" height="218.327" transform="translate(0 0)" fill="url(#radial-gradient-3)"/>
                    </g>
                  </g>
                </g>
              </g>
            </g>
            <path id="Trazado_207569" data-name="Trazado 207569" d="M1578.889,39.393H1472.4a36.331,36.331,0,0,0-36.331,36.331V182.213a36.331,36.331,0,0,0,36.331,36.331h106.489a36.331,36.331,0,0,0,36.331-36.331V75.724a36.331,36.331,0,0,0-36.331-36.331" transform="translate(-865.12 -23.731)" fill="#f7f7f7"/>
            <g id="Grupo_174341" data-name="Grupo 174341" transform="translate(792.714 27.705)" opacity="0.9" style="mix-blend-mode: multiply;isolation: isolate">
              <g id="Grupo_174340" data-name="Grupo 174340">
                <g id="Grupo_174339" data-name="Grupo 174339" clip-path="url(#clip-path-5)">
                  <g id="Grupo_174338" data-name="Grupo 174338" transform="translate(0 0)">
                    <g id="Grupo_174337" data-name="Grupo 174337" clip-path="url(#clip-path-10)">
                      <rect id="Rectángulo_297804" data-name="Rectángulo 297804" width="218.326" height="218.327" transform="translate(0 0)" fill="url(#radial-gradient-4)"/>
                    </g>
                  </g>
                </g>
              </g>
            </g>
            <path id="Trazado_207571" data-name="Trazado 207571" d="M2243.509,39.393H2137.02a36.331,36.331,0,0,0-36.331,36.331V182.213a36.331,36.331,0,0,0,36.331,36.331h106.489a36.332,36.332,0,0,0,36.332-36.331V75.724a36.332,36.332,0,0,0-36.332-36.331" transform="translate(-1265.502 -23.731)" fill="#f7f7f7"/>
          </g>
        </g>
      </g>
    </g>
    <path id="Trazado_208882" data-name="Trazado 208882" d="M54.5,14.264A5.031,5.031,0,0,1,52.8,17.877,5.951,5.951,0,0,1,48.774,19.2a5.351,5.351,0,0,1-4.3-1.841A7.548,7.548,0,0,1,42.905,12.3v-.869a8.523,8.523,0,0,1,.723-3.613,5.415,5.415,0,0,1,2.065-2.4,6.455,6.455,0,0,1,7.085.483,5.407,5.407,0,0,1,1.738,3.7h-2.93a2.97,2.97,0,0,0-.767-2,2.839,2.839,0,0,0-2.007-.62,2.489,2.489,0,0,0-2.192,1.05,5.883,5.883,0,0,0-.747,3.257v1.074a6.3,6.3,0,0,0,.7,3.369,2.443,2.443,0,0,0,2.2,1.064,2.892,2.892,0,0,0,2.026-.62,2.8,2.8,0,0,0,.767-1.919Zm1.3-.645a6.267,6.267,0,0,1,.605-2.8,4.432,4.432,0,0,1,1.743-1.9,5.086,5.086,0,0,1,2.642-.674,4.812,4.812,0,0,1,3.491,1.309A5.252,5.252,0,0,1,65.786,13.1l.02.723a5.523,5.523,0,0,1-1.357,3.9,5.261,5.261,0,0,1-7.29,0A5.62,5.62,0,0,1,55.8,13.746Zm2.822.2a3.95,3.95,0,0,0,.566,2.3,2.035,2.035,0,0,0,3.223.01,4.322,4.322,0,0,0,.576-2.518,3.91,3.91,0,0,0-.576-2.289,1.873,1.873,0,0,0-1.621-.812,1.842,1.842,0,0,0-1.6.807A4.395,4.395,0,0,0,58.618,13.819ZM70.142,8.434l.088,1.221a3.689,3.689,0,0,1,3.037-1.416,3.066,3.066,0,0,1,2.5.986,4.6,4.6,0,0,1,.84,2.949V19H73.784V12.227a1.838,1.838,0,0,0-.391-1.307,1.746,1.746,0,0,0-1.3-.406,1.941,1.941,0,0,0-1.787,1.018V19H67.485V8.434Zm13,8.486a1.851,1.851,0,0,0,1.27-.43,1.506,1.506,0,0,0,.508-1.143h2.646a3.62,3.62,0,0,1-.586,1.968A3.866,3.866,0,0,1,85.4,18.7a4.936,4.936,0,0,1-2.212.493,4.587,4.587,0,0,1-3.574-1.44,5.7,5.7,0,0,1-1.309-3.979V13.59a5.635,5.635,0,0,1,1.3-3.9,4.534,4.534,0,0,1,3.564-1.455,4.444,4.444,0,0,1,3.179,1.128,3.994,3.994,0,0,1,1.216,3H84.917a1.939,1.939,0,0,0-.508-1.34,1.887,1.887,0,0,0-2.778.2,4.166,4.166,0,0,0-.5,2.333v.293a4.219,4.219,0,0,0,.5,2.347A1.721,1.721,0,0,0,83.14,16.92Zm10.9,2.275a5.187,5.187,0,0,1-3.784-1.426,5.068,5.068,0,0,1-1.46-3.8V13.7a6.383,6.383,0,0,1,.615-2.847,4.515,4.515,0,0,1,1.743-1.934,4.893,4.893,0,0,1,2.573-.679,4.385,4.385,0,0,1,3.413,1.367,5.555,5.555,0,0,1,1.245,3.877v1.152H91.655a2.622,2.622,0,0,0,.825,1.66,2.5,2.5,0,0,0,1.743.625,3.046,3.046,0,0,0,2.549-1.182l1.387,1.553a4.237,4.237,0,0,1-1.719,1.4A5.639,5.639,0,0,1,94.038,19.2Zm-.322-8.682a1.764,1.764,0,0,0-1.362.569,2.946,2.946,0,0,0-.669,1.628H95.61v-.226a2.1,2.1,0,0,0-.508-1.457A1.819,1.819,0,0,0,93.716,10.514Zm15.781,3.3a6.337,6.337,0,0,1-1.108,3.911A3.554,3.554,0,0,1,105.4,19.2a3.292,3.292,0,0,1-2.588-1.113v4.98H99.985V8.434H102.6l.1,1.035a3.317,3.317,0,0,1,2.676-1.23,3.578,3.578,0,0,1,3.037,1.445,6.509,6.509,0,0,1,1.084,3.984Zm-2.822-.215a4.182,4.182,0,0,0-.522-2.282,1.7,1.7,0,0,0-1.519-.8,1.847,1.847,0,0,0-1.826,1.019v4.339a1.879,1.879,0,0,0,1.846,1.048Q106.675,16.92,106.675,13.6Zm7.949-7.763v2.6h1.807V10.5h-1.807v5.273a1.259,1.259,0,0,0,.225.84,1.128,1.128,0,0,0,.859.254,4.5,4.5,0,0,0,.83-.068v2.139a5.81,5.81,0,0,1-1.709.254q-2.969,0-3.027-3V10.5h-1.543V8.434H111.8v-2.6Zm2.646,7.783a6.266,6.266,0,0,1,.605-2.8,4.432,4.432,0,0,1,1.743-1.9,5.086,5.086,0,0,1,2.642-.674,4.812,4.812,0,0,1,3.491,1.309,5.252,5.252,0,0,1,1.509,3.555l.02.723a5.523,5.523,0,0,1-1.357,3.9,5.261,5.261,0,0,1-7.29,0,5.62,5.62,0,0,1-1.362-3.984Zm2.822.2a3.95,3.95,0,0,0,.566,2.3,2.035,2.035,0,0,0,3.223.01,4.322,4.322,0,0,0,.576-2.518,3.91,3.91,0,0,0-.576-2.289,1.873,1.873,0,0,0-1.621-.812,1.842,1.842,0,0,0-1.6.807A4.395,4.395,0,0,0,120.093,13.819Z" transform="translate(332.002 1038.789)" fill="#12263f"/>
    <path id="Trazado_208881" data-name="Trazado 208881" d="M29.39,14.264A5.031,5.031,0,0,1,27.7,17.877,5.951,5.951,0,0,1,23.667,19.2a5.351,5.351,0,0,1-4.3-1.841A7.548,7.548,0,0,1,17.8,12.3v-.869a8.523,8.523,0,0,1,.723-3.613,5.416,5.416,0,0,1,2.065-2.4,5.786,5.786,0,0,1,3.12-.835A5.8,5.8,0,0,1,27.671,5.9a5.407,5.407,0,0,1,1.738,3.7h-2.93a2.97,2.97,0,0,0-.767-2,2.839,2.839,0,0,0-2.007-.62,2.489,2.489,0,0,0-2.192,1.05,5.883,5.883,0,0,0-.747,3.257v1.074a6.3,6.3,0,0,0,.7,3.369,2.443,2.443,0,0,0,2.2,1.064,2.892,2.892,0,0,0,2.026-.62,2.8,2.8,0,0,0,.767-1.919ZM37.251,19a3.134,3.134,0,0,1-.283-.947A3.415,3.415,0,0,1,34.3,19.2a3.752,3.752,0,0,1-2.573-.9,2.89,2.89,0,0,1-1.021-2.266,2.986,2.986,0,0,1,1.245-2.578,6.144,6.144,0,0,1,3.6-.908h1.3v-.605a1.741,1.741,0,0,0-.376-1.172,1.479,1.479,0,0,0-1.187-.439,1.682,1.682,0,0,0-1.118.342,1.161,1.161,0,0,0-.405.938H30.942a2.835,2.835,0,0,1,.566-1.7,3.744,3.744,0,0,1,1.6-1.226,5.837,5.837,0,0,1,2.324-.444,4.611,4.611,0,0,1,3.1.981,3.433,3.433,0,0,1,1.147,2.759v4.58a5.052,5.052,0,0,0,.42,2.275V19Zm-2.334-1.963a2.431,2.431,0,0,0,1.152-.278,1.828,1.828,0,0,0,.781-.747V14.2H35.8q-2.119,0-2.256,1.465l-.01.166a1.13,1.13,0,0,0,.371.869A1.441,1.441,0,0,0,34.917,17.037ZM47.788,11.08A7.667,7.667,0,0,0,46.772,11a2.067,2.067,0,0,0-2.1,1.084V19H41.851V8.434h2.666l.078,1.26a2.615,2.615,0,0,1,2.354-1.455,2.957,2.957,0,0,1,.879.127ZM54.976,19a3.134,3.134,0,0,1-.283-.947A3.415,3.415,0,0,1,52.026,19.2a3.752,3.752,0,0,1-2.573-.9,2.89,2.89,0,0,1-1.021-2.266,2.986,2.986,0,0,1,1.245-2.578,6.144,6.144,0,0,1,3.6-.908h1.3v-.605a1.741,1.741,0,0,0-.376-1.172,1.479,1.479,0,0,0-1.187-.439,1.682,1.682,0,0,0-1.118.342,1.161,1.161,0,0,0-.405.938H48.667a2.835,2.835,0,0,1,.566-1.7,3.744,3.744,0,0,1,1.6-1.226,5.837,5.837,0,0,1,2.324-.444,4.611,4.611,0,0,1,3.1.981,3.433,3.433,0,0,1,1.147,2.759v4.58a5.052,5.052,0,0,0,.42,2.275V19Zm-2.334-1.963a2.431,2.431,0,0,0,1.152-.278,1.828,1.828,0,0,0,.781-.747V14.2H53.521q-2.119,0-2.256,1.465l-.01.166a1.13,1.13,0,0,0,.371.869A1.441,1.441,0,0,0,52.642,17.037ZM63.97,16.92a1.851,1.851,0,0,0,1.27-.43,1.506,1.506,0,0,0,.508-1.143h2.646a3.62,3.62,0,0,1-.586,1.968A3.866,3.866,0,0,1,66.23,18.7a4.936,4.936,0,0,1-2.212.493,4.587,4.587,0,0,1-3.574-1.44,5.7,5.7,0,0,1-1.309-3.979V13.59a5.635,5.635,0,0,1,1.3-3.9A4.534,4.534,0,0,1,64,8.238a4.444,4.444,0,0,1,3.179,1.128,3.994,3.994,0,0,1,1.216,3H65.747a1.939,1.939,0,0,0-.508-1.34,1.887,1.887,0,0,0-2.778.2,4.166,4.166,0,0,0-.5,2.333v.293a4.219,4.219,0,0,0,.5,2.347A1.721,1.721,0,0,0,63.97,16.92ZM73.384,5.836v2.6H75.19V10.5H73.384v5.273a1.259,1.259,0,0,0,.225.84,1.128,1.128,0,0,0,.859.254,4.5,4.5,0,0,0,.83-.068v2.139a5.81,5.81,0,0,1-1.709.254q-2.969,0-3.027-3V10.5H69.019V8.434h1.543v-2.6ZM81.626,19.2a5.187,5.187,0,0,1-3.784-1.426,5.068,5.068,0,0,1-1.46-3.8V13.7A6.383,6.383,0,0,1,77,10.851,4.515,4.515,0,0,1,78.74,8.917a4.893,4.893,0,0,1,2.573-.679,4.385,4.385,0,0,1,3.413,1.367,5.555,5.555,0,0,1,1.245,3.877v1.152H79.243a2.622,2.622,0,0,0,.825,1.66,2.5,2.5,0,0,0,1.743.625,3.046,3.046,0,0,0,2.549-1.182l1.387,1.553a4.237,4.237,0,0,1-1.719,1.4A5.639,5.639,0,0,1,81.626,19.2ZM81.3,10.514a1.764,1.764,0,0,0-1.362.569,2.946,2.946,0,0,0-.669,1.628H83.2v-.226a2.1,2.1,0,0,0-.508-1.457A1.819,1.819,0,0,0,81.3,10.514Zm12.207.566A7.667,7.667,0,0,0,92.5,11a2.067,2.067,0,0,0-2.1,1.084V19H87.573V8.434h2.666l.078,1.26a2.615,2.615,0,0,1,2.354-1.455,2.957,2.957,0,0,1,.879.127Zm4.4,7.92H95.093V8.434h2.822Zm-.83-14.854h3.076L97.456,7.174H95.161Zm8.984,11.934a.909.909,0,0,0-.513-.815,5.824,5.824,0,0,0-1.646-.532q-3.77-.791-3.77-3.2a2.9,2.9,0,0,1,1.167-2.349,4.708,4.708,0,0,1,3.052-.942,5.067,5.067,0,0,1,3.218.947,2.985,2.985,0,0,1,1.206,2.461h-2.822a1.366,1.366,0,0,0-.391-1,1.653,1.653,0,0,0-1.221-.4,1.689,1.689,0,0,0-1.1.322,1.017,1.017,0,0,0-.391.82.87.87,0,0,0,.444.757,4.571,4.571,0,0,0,1.5.5,12.244,12.244,0,0,1,1.777.474,2.92,2.92,0,0,1,2.236,2.842,2.756,2.756,0,0,1-1.24,2.339,5.35,5.35,0,0,1-3.2.894,5.588,5.588,0,0,1-2.358-.474,3.957,3.957,0,0,1-1.616-1.3,3.018,3.018,0,0,1-.586-1.782h2.676a1.473,1.473,0,0,0,.557,1.152,2.208,2.208,0,0,0,1.387.4,2.044,2.044,0,0,0,1.226-.308A.957.957,0,0,0,106.069,16.08Zm7.939-10.244v2.6h1.807V10.5h-1.807v5.273a1.259,1.259,0,0,0,.225.84,1.128,1.128,0,0,0,.859.254,4.5,4.5,0,0,0,.83-.068v2.139a5.81,5.81,0,0,1-1.709.254q-2.969,0-3.027-3V10.5h-1.543V8.434h1.543v-2.6ZM120.366,19h-2.832V8.434h2.832Zm-3-13.3a1.39,1.39,0,0,1,.425-1.045,1.831,1.831,0,0,1,2.31,0,1.382,1.382,0,0,1,.43,1.045,1.386,1.386,0,0,1-.435,1.055,1.81,1.81,0,0,1-2.295,0A1.386,1.386,0,0,1,117.368,5.7Zm9.717,11.221a1.851,1.851,0,0,0,1.27-.43,1.506,1.506,0,0,0,.508-1.143h2.646a3.62,3.62,0,0,1-.586,1.968,3.866,3.866,0,0,1-1.577,1.387,4.936,4.936,0,0,1-2.212.493,4.587,4.587,0,0,1-3.574-1.44,5.7,5.7,0,0,1-1.309-3.979V13.59a5.635,5.635,0,0,1,1.3-3.9,4.534,4.534,0,0,1,3.564-1.455,4.444,4.444,0,0,1,3.179,1.128,3.994,3.994,0,0,1,1.216,3h-2.646a1.939,1.939,0,0,0-.508-1.34,1.887,1.887,0,0,0-2.778.2,4.166,4.166,0,0,0-.5,2.333v.293a4.219,4.219,0,0,0,.5,2.347A1.721,1.721,0,0,0,127.085,16.92ZM139.243,19a3.134,3.134,0,0,1-.283-.947,3.415,3.415,0,0,1-2.666,1.143,3.752,3.752,0,0,1-2.573-.9,2.889,2.889,0,0,1-1.021-2.266,2.986,2.986,0,0,1,1.245-2.578,6.144,6.144,0,0,1,3.6-.908h1.3v-.605a1.741,1.741,0,0,0-.376-1.172,1.479,1.479,0,0,0-1.187-.439,1.682,1.682,0,0,0-1.118.342,1.161,1.161,0,0,0-.405.938h-2.822a2.835,2.835,0,0,1,.566-1.7,3.744,3.744,0,0,1,1.6-1.226,5.837,5.837,0,0,1,2.324-.444,4.611,4.611,0,0,1,3.1.981,3.433,3.433,0,0,1,1.147,2.759v4.58a5.052,5.052,0,0,0,.42,2.275V19Zm-2.334-1.963a2.431,2.431,0,0,0,1.152-.278,1.828,1.828,0,0,0,.781-.747V14.2h-1.055q-2.119,0-2.256,1.465l-.01.166a1.13,1.13,0,0,0,.371.869A1.441,1.441,0,0,0,136.909,17.037Zm12.656-.957a.909.909,0,0,0-.513-.815,5.824,5.824,0,0,0-1.646-.532q-3.77-.791-3.77-3.2A2.9,2.9,0,0,1,144.8,9.181a4.708,4.708,0,0,1,3.052-.942,5.067,5.067,0,0,1,3.218.947,2.985,2.985,0,0,1,1.206,2.461h-2.822a1.366,1.366,0,0,0-.391-1,1.653,1.653,0,0,0-1.221-.4,1.689,1.689,0,0,0-1.1.322,1.017,1.017,0,0,0-.391.82.87.87,0,0,0,.444.757,4.571,4.571,0,0,0,1.5.5,12.244,12.244,0,0,1,1.777.474,2.92,2.92,0,0,1,2.236,2.842,2.756,2.756,0,0,1-1.24,2.339,5.35,5.35,0,0,1-3.2.894,5.588,5.588,0,0,1-2.358-.474,3.957,3.957,0,0,1-1.616-1.3,3.018,3.018,0,0,1-.586-1.782h2.676a1.473,1.473,0,0,0,.557,1.152,2.208,2.208,0,0,0,1.387.4,2.044,2.044,0,0,0,1.226-.308A.957.957,0,0,0,149.565,16.08Z" transform="translate(596.002 1038.789)" fill="#12263f"/>
    <path id="Trazado_208880" data-name="Trazado 208880" d="M52.354,15.475,55.576,4.781h3.262L53.887,19H50.83L45.9,4.781H49.15ZM64.424,19.2A5.187,5.187,0,0,1,60.64,17.77a5.068,5.068,0,0,1-1.46-3.8V13.7a6.383,6.383,0,0,1,.615-2.847,4.515,4.515,0,0,1,1.743-1.934,4.893,4.893,0,0,1,2.573-.679,4.385,4.385,0,0,1,3.413,1.367,5.555,5.555,0,0,1,1.245,3.877v1.152H62.041a2.622,2.622,0,0,0,.825,1.66,2.5,2.5,0,0,0,1.743.625,3.046,3.046,0,0,0,2.549-1.182l1.387,1.553a4.237,4.237,0,0,1-1.719,1.4A5.639,5.639,0,0,1,64.424,19.2ZM64.1,10.514a1.764,1.764,0,0,0-1.362.569,2.946,2.946,0,0,0-.669,1.628H66v-.226a2.1,2.1,0,0,0-.508-1.457A1.819,1.819,0,0,0,64.1,10.514Zm8.867-2.08.088,1.221a3.689,3.689,0,0,1,3.037-1.416,3.066,3.066,0,0,1,2.5.986,4.6,4.6,0,0,1,.84,2.949V19H76.611V12.227a1.838,1.838,0,0,0-.391-1.307,1.746,1.746,0,0,0-1.3-.406,1.941,1.941,0,0,0-1.787,1.018V19H70.313V8.434Zm11.982-2.6v2.6h1.807V10.5H84.951v5.273a1.259,1.259,0,0,0,.225.84,1.128,1.128,0,0,0,.859.254,4.5,4.5,0,0,0,.83-.068v2.139a5.81,5.81,0,0,1-1.709.254q-2.969,0-3.027-3V10.5H80.586V8.434h1.543v-2.6ZM94.453,19a3.134,3.134,0,0,1-.283-.947A3.415,3.415,0,0,1,91.5,19.2a3.752,3.752,0,0,1-2.573-.9,2.89,2.89,0,0,1-1.021-2.266,2.986,2.986,0,0,1,1.245-2.578,6.144,6.144,0,0,1,3.6-.908h1.3v-.605a1.741,1.741,0,0,0-.376-1.172,1.479,1.479,0,0,0-1.187-.439,1.682,1.682,0,0,0-1.118.342,1.161,1.161,0,0,0-.405.938H88.145a2.835,2.835,0,0,1,.566-1.7,3.744,3.744,0,0,1,1.6-1.226,5.837,5.837,0,0,1,2.324-.444,4.611,4.611,0,0,1,3.1.981,3.433,3.433,0,0,1,1.147,2.759v4.58a5.052,5.052,0,0,0,.42,2.275V19Zm-2.334-1.963a2.431,2.431,0,0,0,1.152-.278,1.828,1.828,0,0,0,.781-.747V14.2H93q-2.119,0-2.256,1.465l-.01.166a1.13,1.13,0,0,0,.371.869A1.441,1.441,0,0,0,92.119,17.037Zm9.922-8.6V19.576a3.78,3.78,0,0,1-.928,2.72,3.526,3.526,0,0,1-2.676.972,5.738,5.738,0,0,1-1.4-.166V20.865a5.3,5.3,0,0,0,.889.088q1.279,0,1.279-1.357V8.434ZM98.984,5.7a1.39,1.39,0,0,1,.425-1.045,1.838,1.838,0,0,1,2.314,0,1.39,1.39,0,0,1,.425,1.045,1.386,1.386,0,0,1-.435,1.055,1.81,1.81,0,0,1-2.295,0A1.386,1.386,0,0,1,98.984,5.7ZM110.371,19a3.134,3.134,0,0,1-.283-.947,3.415,3.415,0,0,1-2.666,1.143,3.752,3.752,0,0,1-2.573-.9,2.89,2.89,0,0,1-1.021-2.266,2.986,2.986,0,0,1,1.245-2.578,6.144,6.144,0,0,1,3.6-.908h1.3v-.605a1.741,1.741,0,0,0-.376-1.172,1.479,1.479,0,0,0-1.187-.439,1.682,1.682,0,0,0-1.118.342,1.161,1.161,0,0,0-.405.938h-2.822a2.835,2.835,0,0,1,.566-1.7,3.744,3.744,0,0,1,1.6-1.226,5.837,5.837,0,0,1,2.324-.444,4.611,4.611,0,0,1,3.1.981,3.433,3.433,0,0,1,1.147,2.759v4.58a5.052,5.052,0,0,0,.42,2.275V19Zm-2.334-1.963a2.431,2.431,0,0,0,1.152-.278,1.828,1.828,0,0,0,.781-.747V14.2h-1.055q-2.119,0-2.256,1.465l-.01.166a1.13,1.13,0,0,0,.371.869A1.441,1.441,0,0,0,108.037,17.037Zm12.656-.957a.909.909,0,0,0-.513-.815,5.824,5.824,0,0,0-1.646-.532q-3.77-.791-3.77-3.2a2.9,2.9,0,0,1,1.167-2.349,4.708,4.708,0,0,1,3.052-.942,5.067,5.067,0,0,1,3.218.947,2.985,2.985,0,0,1,1.206,2.461h-2.822a1.366,1.366,0,0,0-.391-1,1.653,1.653,0,0,0-1.221-.4,1.689,1.689,0,0,0-1.1.322,1.017,1.017,0,0,0-.391.82.87.87,0,0,0,.444.757,4.571,4.571,0,0,0,1.5.5,12.244,12.244,0,0,1,1.777.474,2.92,2.92,0,0,1,2.236,2.842A2.756,2.756,0,0,1,122.2,18.3a5.35,5.35,0,0,1-3.2.894,5.588,5.588,0,0,1-2.358-.474,3.957,3.957,0,0,1-1.616-1.3,3.018,3.018,0,0,1-.586-1.782h2.676a1.473,1.473,0,0,0,.557,1.152,2.208,2.208,0,0,0,1.387.4,2.044,2.044,0,0,0,1.226-.308A.957.957,0,0,0,120.693,16.08Z" transform="translate(861.002 1038.789)" fill="#12263f"/>
    <path id="Trazado_208879" data-name="Trazado 208879" d="M51.2,4.781l3.652,10.313L58.481,4.781h3.848V19H59.39V15.113L59.683,8.4,55.845,19H53.833L50,8.414l.293,6.7V19h-2.93V4.781Zm13.066,8.838a6.266,6.266,0,0,1,.605-2.8,4.432,4.432,0,0,1,1.743-1.9,5.086,5.086,0,0,1,2.642-.674,4.812,4.812,0,0,1,3.491,1.309A5.252,5.252,0,0,1,74.253,13.1l.02.723a5.523,5.523,0,0,1-1.357,3.9,5.261,5.261,0,0,1-7.29,0,5.62,5.62,0,0,1-1.362-3.984Zm2.822.2a3.95,3.95,0,0,0,.566,2.3,2.035,2.035,0,0,0,3.223.01,4.322,4.322,0,0,0,.576-2.518,3.91,3.91,0,0,0-.576-2.289,1.873,1.873,0,0,0-1.621-.812,1.842,1.842,0,0,0-1.6.807A4.395,4.395,0,0,0,67.085,13.819Zm8.486-.181A6.368,6.368,0,0,1,76.68,9.7a3.6,3.6,0,0,1,3.032-1.465,3.236,3.236,0,0,1,2.549,1.152V4h2.832V19H82.544l-.137-1.123A3.321,3.321,0,0,1,79.692,19.2a3.587,3.587,0,0,1-2.993-1.47A6.573,6.573,0,0,1,75.571,13.639Zm2.822.2a4.194,4.194,0,0,0,.518,2.286,1.685,1.685,0,0,0,1.5.795,1.888,1.888,0,0,0,1.846-1.109V11.622a1.861,1.861,0,0,0-1.826-1.109Q78.394,10.514,78.394,13.839ZM92.144,19.2a5.187,5.187,0,0,1-3.784-1.426,5.068,5.068,0,0,1-1.46-3.8V13.7a6.383,6.383,0,0,1,.615-2.847,4.515,4.515,0,0,1,1.743-1.934,4.893,4.893,0,0,1,2.573-.679,4.385,4.385,0,0,1,3.413,1.367,5.555,5.555,0,0,1,1.245,3.877v1.152H89.761a2.622,2.622,0,0,0,.825,1.66,2.5,2.5,0,0,0,1.743.625,3.046,3.046,0,0,0,2.549-1.182l1.387,1.553a4.237,4.237,0,0,1-1.719,1.4A5.639,5.639,0,0,1,92.144,19.2Zm-.322-8.682a1.764,1.764,0,0,0-1.362.569,2.946,2.946,0,0,0-.669,1.628h3.926v-.226a2.1,2.1,0,0,0-.508-1.457A1.819,1.819,0,0,0,91.821,10.514ZM101.069,19H98.237V4h2.832Zm1.885-5.381a6.266,6.266,0,0,1,.605-2.8,4.432,4.432,0,0,1,1.743-1.9,5.086,5.086,0,0,1,2.642-.674,4.812,4.812,0,0,1,3.491,1.309,5.252,5.252,0,0,1,1.509,3.555l.02.723a5.523,5.523,0,0,1-1.357,3.9,5.261,5.261,0,0,1-7.29,0,5.62,5.62,0,0,1-1.362-3.984Zm2.822.2a3.95,3.95,0,0,0,.566,2.3,2.035,2.035,0,0,0,3.223.01,4.322,4.322,0,0,0,.576-2.518,3.91,3.91,0,0,0-.576-2.289,1.873,1.873,0,0,0-1.621-.812,1.842,1.842,0,0,0-1.6.807A4.395,4.395,0,0,0,105.776,13.819Zm14.648,2.261a.909.909,0,0,0-.513-.815,5.824,5.824,0,0,0-1.646-.532q-3.77-.791-3.77-3.2a2.9,2.9,0,0,1,1.167-2.349,4.708,4.708,0,0,1,3.052-.942,5.067,5.067,0,0,1,3.218.947,2.985,2.985,0,0,1,1.206,2.461h-2.822a1.366,1.366,0,0,0-.391-1,1.653,1.653,0,0,0-1.221-.4,1.689,1.689,0,0,0-1.1.322,1.017,1.017,0,0,0-.391.82.87.87,0,0,0,.444.757,4.571,4.571,0,0,0,1.5.5,12.244,12.244,0,0,1,1.777.474,2.92,2.92,0,0,1,2.236,2.842,2.756,2.756,0,0,1-1.24,2.339,5.35,5.35,0,0,1-3.2.894,5.588,5.588,0,0,1-2.358-.474,3.957,3.957,0,0,1-1.616-1.3,3.018,3.018,0,0,1-.586-1.782h2.676a1.473,1.473,0,0,0,.557,1.152,2.208,2.208,0,0,0,1.387.4,2.044,2.044,0,0,0,1.226-.308A.957.957,0,0,0,120.425,16.08Z" transform="translate(1124.002 1038.789)" fill="#12263f"/>
    <g id="Grupo_174352" data-name="Grupo 174352" transform="translate(382.002 957.001)">
      <g id="Grupo_174351" data-name="Grupo 174351" clip-path="url(#clip-path-11)">
        <path id="Trazado_207572" data-name="Trazado 207572" d="M38.315,21.742V6.826A1.381,1.381,0,0,1,39.7,5.445H54.612a1.381,1.381,0,0,1,1.381,1.381V21.742a1.381,1.381,0,0,1-1.381,1.381H39.7a1.381,1.381,0,0,1-1.381-1.381" fill="#62dbfb"/>
        <path id="Trazado_207573" data-name="Trazado 207573" d="M54.611,5.445H50.468a1.381,1.381,0,0,1,1.381,1.381V21.742a1.381,1.381,0,0,1-1.381,1.381h4.143a1.381,1.381,0,0,0,1.381-1.381V6.826a1.381,1.381,0,0,0-1.381-1.381" fill="#01d0fb"/>
        <path id="Trazado_207574" data-name="Trazado 207574" d="M1.025,33.067V67.594a1.381,1.381,0,0,0,1.381,1.381H20.084a1.381,1.381,0,0,0,1.381-1.381V33.067Z" fill="#dff6fd"/>
        <path id="Trazado_207575" data-name="Trazado 207575" d="M17.322,33.067V67.594a1.381,1.381,0,0,1-1.381,1.381h4.143a1.381,1.381,0,0,0,1.381-1.381V33.067Z" fill="#c8effe"/>
        <path id="Trazado_207576" data-name="Trazado 207576" d="M1.025,30.028v3.038h20.44V30.028a1.381,1.381,0,0,0-1.381-1.381H2.406a1.381,1.381,0,0,0-1.381,1.381" fill="#3c87d0"/>
        <path id="Trazado_207577" data-name="Trazado 207577" d="M17.322,30.028v3.038h4.143V30.028a1.381,1.381,0,0,0-1.381-1.381H15.941a1.381,1.381,0,0,1,1.381,1.381" fill="#0078c8"/>
        <path id="Trazado_207578" data-name="Trazado 207578" d="M38.315,44.944V30.028A1.381,1.381,0,0,1,39.7,28.647H54.612a1.381,1.381,0,0,1,1.381,1.381V44.944a1.381,1.381,0,0,1-1.381,1.381H39.7a1.381,1.381,0,0,1-1.381-1.381" fill="#fee4a9"/>
        <path id="Trazado_207579" data-name="Trazado 207579" d="M54.611,28.647H50.468a1.381,1.381,0,0,1,1.381,1.381V44.944a1.381,1.381,0,0,1-1.381,1.381h4.143a1.381,1.381,0,0,0,1.381-1.381V30.028a1.381,1.381,0,0,0-1.381-1.381" fill="#ffb30b"/>
        <path id="Trazado_207580" data-name="Trazado 207580" d="M38.315,67.593V52.677A1.382,1.382,0,0,1,39.7,51.3H54.612a1.382,1.382,0,0,1,1.381,1.381V67.593a1.381,1.381,0,0,1-1.381,1.381H39.7a1.381,1.381,0,0,1-1.381-1.381" fill="#b9ddfc"/>
        <path id="Trazado_207581" data-name="Trazado 207581" d="M54.611,51.3H50.468a1.381,1.381,0,0,1,1.381,1.381V67.594a1.381,1.381,0,0,1-1.381,1.381h4.143a1.381,1.381,0,0,0,1.381-1.381V52.678A1.381,1.381,0,0,0,54.611,51.3" fill="#96c2e8"/>
        <path id="Trazado_207582" data-name="Trazado 207582" d="M18.7,21.689V15.12A3.823,3.823,0,0,0,14.881,11.3H4.847A3.823,3.823,0,0,0,1.025,15.12v6.569a1.433,1.433,0,0,0,1.433,1.433H17.27A1.433,1.433,0,0,0,18.7,21.689" fill="#dff6fd"/>
        <path id="Trazado_207583" data-name="Trazado 207583" d="M14.881,11.3H11.3A3.822,3.822,0,0,1,15.12,15.12v8h2.15A1.434,1.434,0,0,0,18.7,21.69V15.12A3.822,3.822,0,0,0,14.881,11.3" fill="#c8effe"/>
        <path id="Trazado_207584" data-name="Trazado 207584" d="M12.577,16.821l-.961-4.806h-3.5l-.961,4.806A1.094,1.094,0,0,0,7.557,17.9L9.2,19.165a1.1,1.1,0,0,0,1.336,0L12.171,17.9a1.094,1.094,0,0,0,.406-1.082" fill="#00defc"/>
        <path id="Trazado_207585" data-name="Trazado 207585" d="M9.864,1.025A5.733,5.733,0,1,1,4.131,6.758,5.733,5.733,0,0,1,9.864,1.025" fill="#fed2a4"/>
        <path id="Trazado_207586" data-name="Trazado 207586" d="M11.554,1.279a5.735,5.735,0,0,1-6.175,9.049,5.733,5.733,0,1,0,6.175-9.049" fill="#ffbd86"/>
        <path id="Trazado_207587" data-name="Trazado 207587" d="M9.864,1.025A5.733,5.733,0,0,0,4.131,6.758L6.122,5.2a1.65,1.65,0,0,1,1.017-.351A1.621,1.621,0,0,1,8,5.088c1.609,1.005,3.72,1.67,7.6,1.67A5.733,5.733,0,0,0,9.864,1.025" fill="#c86d36"/>
        <path id="Trazado_207588" data-name="Trazado 207588" d="M15.6,6.759a5.736,5.736,0,0,0-4.044-5.48,5.734,5.734,0,0,1,.979,5.307,24.441,24.441,0,0,0,3.065.173" fill="#ac5e2e"/>
        <path id="Trazado_207589" data-name="Trazado 207589" d="M51.573,10.89H45.5a1.026,1.026,0,0,1,0-2.051h6.077a1.026,1.026,0,0,1,0,2.051"/>
        <path id="Trazado_207590" data-name="Trazado 207590" d="M51.573,15.309H42.734a1.025,1.025,0,0,1,0-2.051h8.839a1.025,1.025,0,0,1,0,2.051"/>
        <path id="Trazado_207591" data-name="Trazado 207591" d="M51.573,19.729H42.734a1.026,1.026,0,0,1,0-2.051h8.839a1.026,1.026,0,0,1,0,2.051"/>
        <path id="Trazado_207592" data-name="Trazado 207592" d="M54.611,24.149H39.7a2.41,2.41,0,0,1-2.407-2.408V14.885a1.025,1.025,0,0,1,2.051,0v6.856a.357.357,0,0,0,.356.357H54.611a.356.356,0,0,0,.355-.357V6.827a.356.356,0,0,0-.355-.356H39.7a.357.357,0,0,0-.356.356V10.1a1.025,1.025,0,0,1-2.051,0V6.827A2.41,2.41,0,0,1,39.7,4.42H54.611a2.409,2.409,0,0,1,2.406,2.407V21.741a2.409,2.409,0,0,1-2.406,2.408"/>
        <path id="Trazado_207593" data-name="Trazado 207593" d="M33.9,15.309H22.846a1.025,1.025,0,0,1,0-2.051H33.9a1.025,1.025,0,0,1,0,2.051"/>
        <path id="Trazado_207594" data-name="Trazado 207594" d="M31.962,17.519a1.025,1.025,0,0,1-.726-1.75l1.485-1.485L31.236,12.8a1.025,1.025,0,1,1,1.45-1.45l2.21,2.21a1.026,1.026,0,0,1,0,1.45l-2.21,2.21a1.022,1.022,0,0,1-.724.3"/>
        <path id="Trazado_207595" data-name="Trazado 207595" d="M34.171,38.511H25.885a1.026,1.026,0,1,1,0-2.051h8.286a1.026,1.026,0,0,1,0,2.051"/>
        <path id="Trazado_207596" data-name="Trazado 207596" d="M27.819,40.721a1.02,1.02,0,0,1-.725-.3l-2.211-2.21a1.026,1.026,0,0,1,0-1.45l2.211-2.21A1.025,1.025,0,0,1,28.543,36l-1.484,1.485,1.484,1.484a1.025,1.025,0,0,1-.724,1.751"/>
        <path id="Trazado_207597" data-name="Trazado 207597" d="M34.171,61.161H25.885a1.025,1.025,0,1,1,0-2.051h8.286a1.025,1.025,0,0,1,0,2.051"/>
        <path id="Trazado_207598" data-name="Trazado 207598" d="M27.819,63.371a1.02,1.02,0,0,1-.725-.3l-2.211-2.21a1.026,1.026,0,0,1,0-1.45l2.211-2.21a1.025,1.025,0,1,1,1.449,1.45l-1.484,1.485,1.484,1.484a1.025,1.025,0,0,1-.724,1.751"/>
        <path id="Trazado_207599" data-name="Trazado 207599" d="M68.975,61.161H60.412a1.025,1.025,0,0,1,0-2.051H67.95V37.486a1.025,1.025,0,1,1,2.05,0v22.65a1.025,1.025,0,0,1-1.025,1.025"/>
        <path id="Trazado_207600" data-name="Trazado 207600" d="M62.345,63.371a1.023,1.023,0,0,1-.725-.3l-2.21-2.21a1.026,1.026,0,0,1,0-1.45l2.21-2.21a1.025,1.025,0,0,1,1.45,1.45l-1.485,1.485L63.07,61.62a1.025,1.025,0,0,1-.725,1.751"/>
        <path id="Trazado_207601" data-name="Trazado 207601" d="M68.975,38.511H60.136a1.026,1.026,0,0,1,0-2.051H67.95V15.309H60.136a1.025,1.025,0,0,1,0-2.051h8.839A1.025,1.025,0,0,1,70,14.284v23.2a1.025,1.025,0,0,1-1.025,1.025"/>
        <path id="Trazado_207602" data-name="Trazado 207602" d="M62.345,40.721a1.023,1.023,0,0,1-.725-.3l-2.21-2.21a1.026,1.026,0,0,1,0-1.45l2.21-2.21A1.025,1.025,0,0,1,63.07,36l-1.485,1.485,1.485,1.485a1.025,1.025,0,0,1-.725,1.75"/>
        <path id="Trazado_207603" data-name="Trazado 207603" d="M11.522,38.511H5.445a1.026,1.026,0,0,1,0-2.051h6.077a1.026,1.026,0,0,1,0,2.051"/>
        <path id="Trazado_207604" data-name="Trazado 207604" d="M17.046,42.931H5.445a1.025,1.025,0,1,1,0-2.051h11.6a1.025,1.025,0,0,1,0,2.051"/>
        <path id="Trazado_207605" data-name="Trazado 207605" d="M17.046,47.35H5.445a1.025,1.025,0,1,1,0-2.051h11.6a1.025,1.025,0,0,1,0,2.051"/>
        <path id="Trazado_207606" data-name="Trazado 207606" d="M9.864,65.581H5.445a1.026,1.026,0,1,1,0-2.051H9.864a1.026,1.026,0,0,1,0,2.051"/>
        <path id="Trazado_207607" data-name="Trazado 207607" d="M20.084,70H2.406A2.408,2.408,0,0,1,0,67.594V30.028a2.409,2.409,0,0,1,2.406-2.407H20.084a2.409,2.409,0,0,1,2.406,2.407V45.59a1.026,1.026,0,1,1-2.051,0V30.028a.356.356,0,0,0-.355-.356H2.406a.356.356,0,0,0-.355.356V67.594a.355.355,0,0,0,.355.355H20.084a.355.355,0,0,0,.355-.355V50.375a1.026,1.026,0,0,1,2.051,0V67.594A2.408,2.408,0,0,1,20.084,70"/>
        <path id="Trazado_207608" data-name="Trazado 207608" d="M51.573,34.092H45.5a1.025,1.025,0,0,1,0-2.051h6.077a1.025,1.025,0,0,1,0,2.051"/>
        <path id="Trazado_207609" data-name="Trazado 207609" d="M51.573,38.511H42.734a1.026,1.026,0,0,1,0-2.051h8.839a1.026,1.026,0,0,1,0,2.051"/>
        <path id="Trazado_207610" data-name="Trazado 207610" d="M51.573,42.931H42.734a1.025,1.025,0,0,1,0-2.051h8.839a1.025,1.025,0,0,1,0,2.051"/>
        <path id="Trazado_207611" data-name="Trazado 207611" d="M54.612,47.35H39.7a2.409,2.409,0,0,1-2.406-2.406V30.028A2.409,2.409,0,0,1,39.7,27.621H54.612a2.409,2.409,0,0,1,2.406,2.407V44.944a2.409,2.409,0,0,1-2.406,2.406M39.7,29.672a.357.357,0,0,0-.356.356V44.944a.356.356,0,0,0,.356.355H54.612a.355.355,0,0,0,.355-.355V30.028a.356.356,0,0,0-.355-.356Z"/>
        <path id="Trazado_207612" data-name="Trazado 207612" d="M51.573,56.742H45.5a1.025,1.025,0,0,1,0-2.051h6.077a1.025,1.025,0,0,1,0,2.051"/>
        <path id="Trazado_207613" data-name="Trazado 207613" d="M51.573,61.161H42.734a1.025,1.025,0,0,1,0-2.051h8.839a1.025,1.025,0,0,1,0,2.051"/>
        <path id="Trazado_207614" data-name="Trazado 207614" d="M51.573,65.581H42.734a1.026,1.026,0,0,1,0-2.051h8.839a1.026,1.026,0,0,1,0,2.051"/>
        <path id="Trazado_207615" data-name="Trazado 207615" d="M54.611,70H39.7a2.409,2.409,0,0,1-2.407-2.406V52.678A2.409,2.409,0,0,1,39.7,50.272H54.611a2.408,2.408,0,0,1,2.406,2.406v2.856a1.025,1.025,0,0,1-2.051,0V52.678a.356.356,0,0,0-.355-.356H39.7a.357.357,0,0,0-.356.356V67.594a.356.356,0,0,0,.356.355H54.611a.355.355,0,0,0,.355-.355V60.319a1.025,1.025,0,0,1,2.051,0v7.275A2.408,2.408,0,0,1,54.611,70"/>
        <path id="Trazado_207616" data-name="Trazado 207616" d="M9.864,20.416a2.118,2.118,0,0,1-1.292-.438L6.933,18.716a2.106,2.106,0,0,1-.787-2.1l.922-4.614a1.025,1.025,0,0,1,2.011.4l-.922,4.614a.072.072,0,0,0,.026.07l1.639,1.261a.071.071,0,0,0,.086,0l1.637-1.26a.071.071,0,0,0,.027-.07l-.922-4.614a1.025,1.025,0,0,1,2.011-.4l.922,4.614a2.108,2.108,0,0,1-.787,2.1l-1.638,1.261a2.12,2.12,0,0,1-1.294.439"/>
        <path id="Trazado_207617" data-name="Trazado 207617" d="M17.27,24.148H2.459A2.462,2.462,0,0,1,0,21.689V15.12a4.854,4.854,0,0,1,4.848-4.848H6.362a1.025,1.025,0,1,1,0,2.051H4.848a2.8,2.8,0,0,0-2.8,2.8v6.569a.408.408,0,0,0,.408.408H17.27a.408.408,0,0,0,.408-.408V15.12a2.8,2.8,0,0,0-2.8-2.8H13.367a1.025,1.025,0,1,1,0-2.051h1.514a4.854,4.854,0,0,1,4.848,4.848v6.569a2.462,2.462,0,0,1-2.459,2.459"/>
        <path id="Trazado_207618" data-name="Trazado 207618" d="M9.864,13.518a6.759,6.759,0,1,1,6.759-6.759,6.767,6.767,0,0,1-6.759,6.759m0-11.467a4.708,4.708,0,1,0,4.708,4.708A4.713,4.713,0,0,0,9.864,2.051"/>
        <path id="Trazado_207619" data-name="Trazado 207619" d="M4.132,7.784A1.026,1.026,0,0,1,3.5,5.951L5.49,4.391a2.687,2.687,0,0,1,1.649-.569,2.639,2.639,0,0,1,1.4.4c1.7,1.062,3.812,1.515,7.059,1.515a1.026,1.026,0,0,1,0,2.051c-3.659,0-6.094-.546-8.144-1.826a.64.64,0,0,0-.7.047L4.764,7.566a1.023,1.023,0,0,1-.632.218"/>
        <path id="Trazado_207620" data-name="Trazado 207620" d="M21.465,34.092H1.025a1.025,1.025,0,0,1,0-2.051h20.44a1.025,1.025,0,0,1,0,2.051"/>
      </g>
    </g>
    <g id="Grupo_174354" data-name="Grupo 174354" transform="translate(1174.002 957.001)">
      <g id="Grupo_174353" data-name="Grupo 174353" clip-path="url(#clip-path-11)">
        <path id="Trazado_207621" data-name="Trazado 207621" d="M66.793,1.025H3.207A2.182,2.182,0,0,0,1.025,3.206V13.242H68.974V3.206a2.181,2.181,0,0,0-2.181-2.181" fill="#b9ddfc"/>
        <path id="Trazado_207622" data-name="Trazado 207622" d="M66.793,1.025H62.828A2.182,2.182,0,0,1,65.01,3.206V13.242h3.964V3.206a2.181,2.181,0,0,0-2.181-2.181" fill="#94b0c9"/>
        <path id="Trazado_207623" data-name="Trazado 207623" d="M25.168,9.789,24.056,7.381a1.237,1.237,0,0,0-1.123-.719H11.65a1.238,1.238,0,0,0-1.123.719L9.415,9.789a1.238,1.238,0,0,1-1.123.719H1.025V66.793a2.182,2.182,0,0,0,2.181,2.182H66.793a2.182,2.182,0,0,0,2.181-2.182V10.508H26.292a1.238,1.238,0,0,1-1.124-.719" fill="#f4f8f9"/>
        <path id="Trazado_207624" data-name="Trazado 207624" d="M65.01,10.508V66.793a2.182,2.182,0,0,1-2.181,2.182h3.964a2.182,2.182,0,0,0,2.182-2.182V10.508Z" fill="#e7eef3"/>
        <path id="Trazado_207625" data-name="Trazado 207625" d="M46.316,27.846H23.684a1.27,1.27,0,0,1-1.27-1.27v-8.9a1.27,1.27,0,0,1,1.27-1.27H46.316a1.27,1.27,0,0,1,1.27,1.27v8.9a1.27,1.27,0,0,1-1.27,1.27" fill="#00defc"/>
        <path id="Trazado_207626" data-name="Trazado 207626" d="M46.316,16.41H43.651a1.27,1.27,0,0,1,1.27,1.27v8.9a1.27,1.27,0,0,1-1.27,1.27h2.665a1.27,1.27,0,0,0,1.27-1.27v-8.9a1.27,1.27,0,0,0-1.27-1.27" fill="#1cb1c9"/>
        <path id="Trazado_207627" data-name="Trazado 207627" d="M46.316,46.03H23.684a1.27,1.27,0,0,1-1.27-1.27v-8.9a1.27,1.27,0,0,1,1.27-1.27H46.316a1.27,1.27,0,0,1,1.27,1.27v8.9a1.27,1.27,0,0,1-1.27,1.27" fill="#ffb30b"/>
        <path id="Trazado_207628" data-name="Trazado 207628" d="M46.316,34.594H43.651a1.27,1.27,0,0,1,1.27,1.27v8.9a1.27,1.27,0,0,1-1.27,1.27h2.665a1.27,1.27,0,0,0,1.27-1.27v-8.9a1.27,1.27,0,0,0-1.27-1.27" fill="#cc8f20"/>
        <path id="Trazado_207629" data-name="Trazado 207629" d="M46.316,64.214H23.684a1.27,1.27,0,0,1-1.27-1.27v-8.9a1.27,1.27,0,0,1,1.27-1.269H46.316a1.27,1.27,0,0,1,1.27,1.269v8.9a1.27,1.27,0,0,1-1.27,1.27" fill="#dae4ef"/>
        <path id="Trazado_207630" data-name="Trazado 207630" d="M46.316,52.777H43.651a1.27,1.27,0,0,1,1.27,1.27v8.9a1.27,1.27,0,0,1-1.27,1.27h2.665a1.27,1.27,0,0,0,1.27-1.27v-8.9a1.27,1.27,0,0,0-1.27-1.27" fill="#a8c0d9"/>
        <path id="Trazado_207631" data-name="Trazado 207631" d="M68.975,11.533H27.856a1.025,1.025,0,0,1,0-2.051H67.95V3.207A1.158,1.158,0,0,0,66.794,2.05H9.664a1.025,1.025,0,1,1,0-2.05h57.13A3.21,3.21,0,0,1,70,3.207v7.3a1.025,1.025,0,0,1-1.025,1.025"/>
        <path id="Trazado_207632" data-name="Trazado 207632" d="M5.7,11.533H1.026A1.025,1.025,0,0,1,0,10.508v-7.3A3.21,3.21,0,0,1,3.207,0H5.7a1.025,1.025,0,1,1,0,2.05H3.207A1.158,1.158,0,0,0,2.051,3.206V9.482H5.7a1.025,1.025,0,0,1,0,2.051"/>
        <path id="Trazado_207633" data-name="Trazado 207633" d="M51,6.792h-.993a1.025,1.025,0,1,1,0-2.051H51a1.025,1.025,0,0,1,0,2.051"/>
        <path id="Trazado_207634" data-name="Trazado 207634" d="M55.922,6.792h-.993a1.025,1.025,0,1,1,0-2.051h.993a1.025,1.025,0,0,1,0,2.051"/>
        <path id="Trazado_207635" data-name="Trazado 207635" d="M60.844,6.792h-.993a1.025,1.025,0,1,1,0-2.051h.993a1.025,1.025,0,0,1,0,2.051"/>
        <path id="Trazado_207636" data-name="Trazado 207636" d="M66.793,70H3.206A3.21,3.21,0,0,1,0,66.793V10.508A1.025,1.025,0,0,1,1.025,9.483H8.292a.212.212,0,0,0,.192-.124L9.6,6.951A2.269,2.269,0,0,1,11.65,5.636H22.933a2.271,2.271,0,0,1,2.055,1.315L26.1,9.359a.214.214,0,0,0,.193.124H68.974A1.025,1.025,0,0,1,70,10.508V56.549a1.026,1.026,0,1,1-2.051,0V11.533H26.292a2.271,2.271,0,0,1-2.055-1.314L23.126,7.81a.216.216,0,0,0-.193-.123H11.65a.212.212,0,0,0-.192.124l-1.112,2.408a2.269,2.269,0,0,1-2.054,1.314H2.05v55.26a1.157,1.157,0,0,0,1.156,1.156H66.793a1.157,1.157,0,0,0,1.156-1.156V60.514a1.026,1.026,0,0,1,2.051,0v6.279A3.211,3.211,0,0,1,66.793,70"/>
        <path id="Trazado_207637" data-name="Trazado 207637" d="M31.425,25.326a1.025,1.025,0,0,1-.841-.437l-1.522-2.172a1.027,1.027,0,0,1,0-1.177l1.522-2.172a1.026,1.026,0,0,1,1.68,1.177l-1.11,1.583,1.11,1.584a1.026,1.026,0,0,1-.839,1.614"/>
        <path id="Trazado_207638" data-name="Trazado 207638" d="M38.575,25.326a1.026,1.026,0,0,1-.839-1.614l1.11-1.584-1.11-1.583a1.026,1.026,0,0,1,1.68-1.177l1.522,2.172a1.027,1.027,0,0,1,0,1.177l-1.522,2.172a1.025,1.025,0,0,1-.841.437"/>
        <path id="Trazado_207639" data-name="Trazado 207639" d="M33.942,25.222a1.026,1.026,0,0,1-.922-1.472l2-4.136a1.025,1.025,0,1,1,1.846.893l-2,4.136a1.025,1.025,0,0,1-.924.579"/>
        <path id="Trazado_207640" data-name="Trazado 207640" d="M46.316,28.871H23.684a2.3,2.3,0,0,1-2.3-2.3v-8.9a2.3,2.3,0,0,1,2.3-2.3H46.316a2.3,2.3,0,0,1,2.295,2.3v8.9a2.3,2.3,0,0,1-2.295,2.3M23.684,17.435a.244.244,0,0,0-.244.244v8.9a.244.244,0,0,0,.244.244H46.316a.244.244,0,0,0,.244-.244v-8.9a.244.244,0,0,0-.244-.244Z"/>
        <path id="Trazado_207641" data-name="Trazado 207641" d="M32.388,44.086a2.666,2.666,0,0,1-2.658-2.5l-.568-.5a1.026,1.026,0,0,1,0-1.538l.568-.5a2.666,2.666,0,0,1,2.658-2.5,1.026,1.026,0,0,1,0,2.051.613.613,0,0,0-.612.612,1.706,1.706,0,0,1-.411,1.111,1.7,1.7,0,0,1,.411,1.111.613.613,0,0,0,.612.612,1.025,1.025,0,0,1,0,2.051"/>
        <path id="Trazado_207642" data-name="Trazado 207642" d="M37.612,44.086a1.025,1.025,0,0,1,0-2.051.613.613,0,0,0,.612-.612,1.706,1.706,0,0,1,.411-1.111,1.708,1.708,0,0,1-.411-1.111.613.613,0,0,0-.612-.612,1.026,1.026,0,0,1,0-2.051,2.666,2.666,0,0,1,2.658,2.5l.568.5a1.026,1.026,0,0,1,0,1.538l-.568.5a2.666,2.666,0,0,1-2.658,2.5"/>
        <path id="Trazado_207643" data-name="Trazado 207643" d="M35.083,39.973a1.025,1.025,0,0,1-1.025-1.025v-.137a1.025,1.025,0,1,1,2.05,0v.137a1.025,1.025,0,0,1-1.025,1.025"/>
        <path id="Trazado_207644" data-name="Trazado 207644" d="M35.083,42.6a1.025,1.025,0,0,1-1.025-1.025v-.137a1.025,1.025,0,1,1,2.05,0v.137A1.025,1.025,0,0,1,35.083,42.6"/>
        <path id="Trazado_207645" data-name="Trazado 207645" d="M46.316,47.055H23.684a2.3,2.3,0,0,1-2.3-2.3v-8.9a2.3,2.3,0,0,1,2.3-2.295h2.359a1.025,1.025,0,1,1,0,2.051H23.684a.244.244,0,0,0-.244.244v8.9a.244.244,0,0,0,.244.244H46.316a.244.244,0,0,0,.244-.244v-8.9a.244.244,0,0,0-.244-.244H30.008a1.025,1.025,0,0,1,0-2.051H46.316a2.3,2.3,0,0,1,2.295,2.295v8.9a2.3,2.3,0,0,1-2.295,2.3"/>
        <path id="Trazado_207646" data-name="Trazado 207646" d="M46.316,65.239H23.684a2.3,2.3,0,0,1-2.3-2.295v-8.9a2.3,2.3,0,0,1,2.3-2.3H46.316a2.3,2.3,0,0,1,2.295,2.3v8.9a2.3,2.3,0,0,1-2.295,2.295M23.684,53.8a.244.244,0,0,0-.244.244v8.9a.244.244,0,0,0,.244.244H46.316a.244.244,0,0,0,.244-.244v-8.9a.244.244,0,0,0-.244-.244Z"/>
        <path id="Trazado_207647" data-name="Trazado 207647" d="M33.414,62.269a2.666,2.666,0,0,1-2.658-2.5l-.568-.5a1.026,1.026,0,0,1,0-1.538l.568-.5a2.666,2.666,0,0,1,2.658-2.5,1.025,1.025,0,0,1,0,2.051.613.613,0,0,0-.612.612,1.706,1.706,0,0,1-.411,1.111,1.709,1.709,0,0,1,.411,1.112.612.612,0,0,0,.612.611,1.026,1.026,0,0,1,0,2.051"/>
        <path id="Trazado_207648" data-name="Trazado 207648" d="M36.586,62.269a1.026,1.026,0,0,1,0-2.051.612.612,0,0,0,.612-.611,1.709,1.709,0,0,1,.411-1.112,1.708,1.708,0,0,1-.411-1.111.613.613,0,0,0-.612-.612,1.025,1.025,0,0,1,0-2.051,2.666,2.666,0,0,1,2.658,2.5l.568.5a1.026,1.026,0,0,1,0,1.538l-.568.5a2.666,2.666,0,0,1-2.658,2.5"/>
        <path id="Trazado_207649" data-name="Trazado 207649" d="M35,35.248a1.025,1.025,0,0,1-1.025-1.025V28.082a1.025,1.025,0,1,1,2.05,0v6.141A1.025,1.025,0,0,1,35,35.248"/>
        <path id="Trazado_207650" data-name="Trazado 207650" d="M35,53.55a1.025,1.025,0,0,1-1.025-1.025V46.384a1.025,1.025,0,1,1,2.05,0v6.141A1.025,1.025,0,0,1,35,53.55"/>
        <path id="Trazado_207651" data-name="Trazado 207651" d="M57.815,41.4h-6a1.025,1.025,0,1,1,0-2.05h6A.187.187,0,0,0,58,39.167V23.34a.187.187,0,0,0-.187-.187H51.324a1.025,1.025,0,1,1,0-2.05h6.491a2.24,2.24,0,0,1,2.238,2.237V39.167A2.24,2.24,0,0,1,57.815,41.4"/>
        <path id="Trazado_207652" data-name="Trazado 207652" d="M52.969,43.594a1.025,1.025,0,0,1-.776-.354l-1.9-2.189a1.025,1.025,0,0,1,0-1.343l1.9-2.189a1.026,1.026,0,0,1,1.551,1.343L52.429,40.38,53.744,41.9a1.025,1.025,0,0,1-.775,1.7"/>
        <path id="Trazado_207653" data-name="Trazado 207653" d="M17.757,59.9h-6a2.241,2.241,0,0,1-2.238-2.238V41.84A2.241,2.241,0,0,1,11.759,39.6H18.25a1.025,1.025,0,0,1,0,2.051H11.759a.187.187,0,0,0-.187.187V57.666a.187.187,0,0,0,.187.187h6a1.025,1.025,0,0,1,0,2.051"/>
        <path id="Trazado_207654" data-name="Trazado 207654" d="M16.6,62.093a1.025,1.025,0,0,1-.775-1.7l1.315-1.517-1.315-1.518a1.026,1.026,0,0,1,1.551-1.343l1.9,2.189a1.025,1.025,0,0,1,0,1.343l-1.9,2.189a1.025,1.025,0,0,1-.776.354"/>
      </g>
    </g>
    <g id="Grupo_174356" data-name="Grupo 174356" transform="translate(643.239 957.001)">
      <g id="Grupo_174355" data-name="Grupo 174355" clip-path="url(#clip-path-13)">
        <path id="Trazado_207655" data-name="Trazado 207655" d="M55.991,32.646H52.842a11.987,11.987,0,0,0-1.8-4.334l2.227-2.228a1.127,1.127,0,0,0,0-1.6l-1.731-1.732a1.13,1.13,0,0,0-1.6,0l-2.227,2.228a11.994,11.994,0,0,0-4.334-1.8V20.038a1.13,1.13,0,0,0-1.13-1.13H39.805a1.13,1.13,0,0,0-1.13,1.13v3.149a11.994,11.994,0,0,0-4.334,1.8l-2.227-2.228a1.13,1.13,0,0,0-1.6,0l-1.731,1.732a1.129,1.129,0,0,0,0,1.6l2.227,2.228a11.987,11.987,0,0,0-1.8,4.334H26.067a1.13,1.13,0,0,0-1.13,1.13v2.448a1.13,1.13,0,0,0,1.13,1.13h3.149a11.994,11.994,0,0,0,1.8,4.334l-2.227,2.227a1.13,1.13,0,0,0,0,1.6l1.731,1.731a1.13,1.13,0,0,0,1.6,0l2.227-2.227a11.994,11.994,0,0,0,4.334,1.8v3.149a1.13,1.13,0,0,0,1.13,1.13h2.448a1.13,1.13,0,0,0,1.13-1.13V46.813a11.994,11.994,0,0,0,4.334-1.8l2.227,2.227a1.13,1.13,0,0,0,1.6,0l1.731-1.731a1.129,1.129,0,0,0,0-1.6l-2.227-2.227a11.994,11.994,0,0,0,1.8-4.334h3.149a1.13,1.13,0,0,0,1.13-1.13V33.776A1.13,1.13,0,0,0,55.991,32.646Zm-14.962,7.3A4.941,4.941,0,1,1,45.97,35a4.941,4.941,0,0,1-4.941,4.941" fill="#7a8c98"/>
        <path id="Trazado_207656" data-name="Trazado 207656" d="M40.36,20.038v2.384a.765.765,0,0,0,.765.765h2.259V20.038a1.13,1.13,0,0,0-1.13-1.13H39.806a1.094,1.094,0,0,0-.288.039A1.129,1.129,0,0,1,40.36,20.038Z" fill="#6b7e89"/>
        <path id="Trazado_207657" data-name="Trazado 207657" d="M50.25,24.487a1.13,1.13,0,0,1,0,1.6l-1.795,1.8a.766.766,0,0,0-.111.939,11.967,11.967,0,0,1,1.343,3.242.767.767,0,0,0,.743.585h2.412a11.994,11.994,0,0,0-1.8-4.334l2.228-2.227a1.13,1.13,0,0,0,0-1.6l-1.732-1.731a1.127,1.127,0,0,0-1.6,0l-.713.713Z" fill="#6b7e89"/>
        <path id="Trazado_207658" data-name="Trazado 207658" d="M31.318,24.983a12,12,0,0,1,1.962-1.061l-1.166-1.167a1.13,1.13,0,0,0-1.6,0l-.713.713Z" fill="#6b7e89"/>
        <path id="Trazado_207659" data-name="Trazado 207659" d="M51.046,41.688a11.987,11.987,0,0,0,1.8-4.334H50.43a.768.768,0,0,0-.743.585,12,12,0,0,1-1.343,3.242.768.768,0,0,0,.111.94l1.795,1.8a1.129,1.129,0,0,1,0,1.6l-1.018,1.019.713.713a1.129,1.129,0,0,0,1.6,0l1.732-1.732a1.129,1.129,0,0,0,0-1.6Z" fill="#6b7e89"/>
        <path id="Trazado_207660" data-name="Trazado 207660" d="M55.992,32.646H52.968a1.13,1.13,0,0,1,1.13,1.13v2.448a1.13,1.13,0,0,1-1.13,1.13h3.024a1.13,1.13,0,0,0,1.13-1.13V33.776A1.13,1.13,0,0,0,55.992,32.646Z" fill="#6b7e89"/>
        <path id="Trazado_207661" data-name="Trazado 207661" d="M31.318,45.017,29.8,46.532l.713.713a1.13,1.13,0,0,0,1.6,0l1.166-1.167a12,12,0,0,1-1.962-1.061" fill="#6b7e89"/>
        <path id="Trazado_207662" data-name="Trazado 207662" d="M40.36,49.962a1.129,1.129,0,0,1-.842,1.091,1.094,1.094,0,0,0,.288.039h2.448a1.13,1.13,0,0,0,1.13-1.13v-3.15H41.125a.766.766,0,0,0-.765.766Z" fill="#6b7e89"/>
        <path id="Trazado_207663" data-name="Trazado 207663" d="M64.331,11.7a32.809,32.809,0,0,0-13.066-8.04,1,1,0,0,0-1.317.954V7.13a1,1,0,0,0,.662.942,28.727,28.727,0,0,1,17.108,16.7,1,1,0,0,0,.934.639h2.539a1,1,0,0,0,.948-1.336A32.816,32.816,0,0,0,64.331,11.7m3.847,32.239A28.722,28.722,0,0,1,50.613,61.926a1,1,0,0,0-.665.944v2.516a1,1,0,0,0,1.317.954,33.095,33.095,0,0,0,21.322-21.8,1,1,0,0,0-.962-1.293h-2.5A1,1,0,0,0,68.178,43.938ZM14.312,47.409a12.907,12.907,0,0,1-2.2.554,1,1,0,0,0-.747,1.424A33.163,33.163,0,0,0,30.794,66.34a1,1,0,0,0,1.317-.954V62.87a1,1,0,0,0-.665-.944A28.732,28.732,0,0,1,15.535,47.908a1,1,0,0,0-1.223-.5" fill="#d8ecfe"/>
        <path id="Trazado_207664" data-name="Trazado 207664" d="M60.979,11.7a32.816,32.816,0,0,1,7.808,12.38,1,1,0,0,1-.54,1.249,1,1,0,0,0,.4.087h2.539a1,1,0,0,0,.948-1.336A33.118,33.118,0,0,0,51.265,3.66a1,1,0,0,0-1.295.749A32.887,32.887,0,0,1,60.979,11.7Z" fill="#c4e2ff"/>
        <path id="Trazado_207665" data-name="Trazado 207665" d="M71.625,43.25h-2.5a1,1,0,0,0-.426.1,1,1,0,0,1,.532,1.2A33.114,33.114,0,0,1,49.97,65.591a1,1,0,0,0,1.295.749,33.1,33.1,0,0,0,21.322-21.8A1,1,0,0,0,71.625,43.25Z" fill="#c4e2ff"/>
        <path id="Trazado_207666" data-name="Trazado 207666" d="M31.446,61.927A28.736,28.736,0,0,1,15.535,47.909a1,1,0,0,0-1.223-.5,13,13,0,0,1-2.2.554,1.01,1.01,0,0,0-.514.246,1.041,1.041,0,0,1,1.045.543A28.29,28.29,0,0,0,28.094,61.927a1,1,0,0,1,.666.943v1.451a1,1,0,0,1-.749.97q1.367.588,2.783,1.05a1,1,0,0,0,1.317-.954V62.87a1,1,0,0,0-.665-.943" fill="#c4e2ff"/>
        <path id="Trazado_207667" data-name="Trazado 207667" d="M43.132,8.244H39.3a1.652,1.652,0,0,1-1.652-1.652V2.759A1.652,1.652,0,0,1,39.3,1.107h3.833a1.651,1.651,0,0,1,1.652,1.652V6.592a1.652,1.652,0,0,1-1.652,1.652" fill="#00defc"/>
        <path id="Trazado_207668" data-name="Trazado 207668" d="M44.783,2.758V6.592a1.652,1.652,0,0,1-1.652,1.652H39.539a1.652,1.652,0,0,0,1.652-1.652V2.758a1.652,1.652,0,0,0-1.652-1.652h3.592a1.652,1.652,0,0,1,1.652,1.652" fill="#1cb1c9"/>
        <path id="Trazado_207669" data-name="Trazado 207669" d="M43.132,68.894H39.3a1.652,1.652,0,0,1-1.652-1.652V63.409A1.652,1.652,0,0,1,39.3,61.757h3.833a1.652,1.652,0,0,1,1.652,1.652v3.833a1.652,1.652,0,0,1-1.652,1.652" fill="#a8c0d9"/>
        <path id="Trazado_207670" data-name="Trazado 207670" d="M44.783,63.408v3.834a1.652,1.652,0,0,1-1.652,1.652H39.539a1.652,1.652,0,0,0,1.652-1.652V63.408a1.652,1.652,0,0,0-1.652-1.652h3.592a1.652,1.652,0,0,1,1.652,1.652" fill="#084a93"/>
        <path id="Trazado_207671" data-name="Trazado 207671" d="M72.768,37.655H68.935A1.652,1.652,0,0,1,67.283,36V32.17a1.652,1.652,0,0,1,1.652-1.652h3.833A1.652,1.652,0,0,1,74.42,32.17V36a1.652,1.652,0,0,1-1.652,1.652" fill="#b9ddfc"/>
        <path id="Trazado_207672" data-name="Trazado 207672" d="M74.42,32.171V36a1.654,1.654,0,0,1-1.652,1.653H69.176A1.653,1.653,0,0,0,70.828,36V32.171a1.654,1.654,0,0,0-1.652-1.654h3.592A1.654,1.654,0,0,1,74.42,32.171Z" fill="#94b0c9"/>
        <path id="Trazado_207673" data-name="Trazado 207673" d="M10.015,26.092A8.909,8.909,0,1,1,1.107,35a8.908,8.908,0,0,1,8.908-8.908" fill="#ffb30b"/>
        <path id="Trazado_207674" data-name="Trazado 207674" d="M10.015,26.092a8.929,8.929,0,0,0-2.28.3,8.91,8.91,0,0,1,0,17.225,8.909,8.909,0,1,0,2.28-17.521" fill="#cc8f20"/>
        <path id="Trazado_207675" data-name="Trazado 207675" d="M52.325,48.026l1.731-1.731a2.236,2.236,0,0,0,0-3.162l-1.608-1.608a12.976,12.976,0,0,0,1.27-3.065h2.274a2.239,2.239,0,0,0,2.236-2.236V33.776a2.239,2.239,0,0,0-2.236-2.236H53.718a12.976,12.976,0,0,0-1.27-3.065l1.608-1.608a2.236,2.236,0,0,0,0-3.162l-1.731-1.732a2.24,2.24,0,0,0-3.163,0l-1.608,1.608a12.969,12.969,0,0,0-3.064-1.27V20.038A2.239,2.239,0,0,0,42.254,17.8H39.805a2.238,2.238,0,0,0-2.236,2.236v2.273a12.976,12.976,0,0,0-3.065,1.27L32.9,21.973a2.237,2.237,0,0,0-3.163,0L28,23.7a2.237,2.237,0,0,0,0,3.163l1.608,1.608a12.958,12.958,0,0,0-1.27,3.065H26.067a2.238,2.238,0,0,0-2.236,2.236v2.448a2.238,2.238,0,0,0,2.236,2.236h2.274a12.976,12.976,0,0,0,1.27,3.065L28,43.133a2.236,2.236,0,0,0,0,3.162l1.731,1.731a2.237,2.237,0,0,0,3.163,0L34.5,46.419a13.018,13.018,0,0,0,3.065,1.27v2.273A2.238,2.238,0,0,0,39.805,52.2h2.449a2.239,2.239,0,0,0,2.236-2.236V47.689a13.053,13.053,0,0,0,3.064-1.27l1.608,1.607A2.238,2.238,0,0,0,52.325,48.026ZM47.1,44.1a10.817,10.817,0,0,1-3.934,1.63,1.106,1.106,0,0,0-.891,1.086v3.149a.023.023,0,0,1-.023.024H39.805a.023.023,0,0,1-.023-.024V46.813a1.106,1.106,0,0,0-.891-1.086,10.81,10.81,0,0,1-3.934-1.63,1.107,1.107,0,0,0-1.4.137l-2.227,2.228a.026.026,0,0,1-.033,0l-1.732-1.731a.026.026,0,0,1,0-.033L31.8,42.47a1.107,1.107,0,0,0,.137-1.4,10.822,10.822,0,0,1-1.63-3.933,1.107,1.107,0,0,0-1.085-.892h-3.15a.023.023,0,0,1-.023-.023V33.776a.023.023,0,0,1,.023-.024h3.15a1.106,1.106,0,0,0,1.085-.891,10.834,10.834,0,0,1,1.63-3.934,1.1,1.1,0,0,0-.137-1.4L29.567,25.3a.026.026,0,0,1,0-.033L31.3,23.538a.026.026,0,0,1,.033,0l2.227,2.227a1.107,1.107,0,0,0,1.4.138,10.812,10.812,0,0,1,3.934-1.631,1.105,1.105,0,0,0,.891-1.085V20.038a.023.023,0,0,1,.023-.024h2.449a.023.023,0,0,1,.023.024v3.149a1.105,1.105,0,0,0,.891,1.085A10.836,10.836,0,0,1,47.1,25.9a1.106,1.106,0,0,0,1.4-.138l2.228-2.227a.024.024,0,0,1,.033,0l1.732,1.731a.029.029,0,0,1,0,.033L50.264,27.53a1.1,1.1,0,0,0-.137,1.4,10.834,10.834,0,0,1,1.63,3.934,1.105,1.105,0,0,0,1.085.891h3.15a.023.023,0,0,1,.023.024v2.448a.023.023,0,0,1-.023.023h-3.15a1.106,1.106,0,0,0-1.085.892,10.83,10.83,0,0,1-1.63,3.933,1.106,1.106,0,0,0,.137,1.4L52.492,44.7a.029.029,0,0,1,0,.033L50.76,46.462a.024.024,0,0,1-.033,0L48.5,44.234A1.106,1.106,0,0,0,47.1,44.1Z"/>
        <path id="Trazado_207676" data-name="Trazado 207676" d="M41.029,31.165a3.851,3.851,0,0,1,3.327,1.926,1.107,1.107,0,1,0,1.918-1.1,6.048,6.048,0,1,0-5.245,9.06A6.006,6.006,0,0,0,46.2,38.133a1.106,1.106,0,1,0-1.891-1.148,3.835,3.835,0,1,1-3.282-5.82"/>
        <path id="Trazado_207677" data-name="Trazado 207677" d="M50.238,9.115A27.507,27.507,0,0,1,66.685,25.173a2.118,2.118,0,0,0,1.967,1.349h2.539a2.111,2.111,0,0,0,1.992-2.808A34.226,34.226,0,0,0,51.607,2.608a2.112,2.112,0,0,0-2.766,2.006V7.131A2.11,2.11,0,0,0,50.238,9.115Zm.816-4.36a31.5,31.5,0,0,1,12.494,7.726h0a31.543,31.543,0,0,1,7.5,11.827H68.723A29.714,29.714,0,0,0,51.054,7.057Z"/>
        <path id="Trazado_207678" data-name="Trazado 207678" d="M71.625,42.144h-2.5a2.1,2.1,0,0,0-2,1.448A27.717,27.717,0,0,1,50.241,60.885a2.113,2.113,0,0,0-1.4,1.985v2.517a2.135,2.135,0,0,0,2.766,2,33.681,33.681,0,0,0,13.506-8.308,34.1,34.1,0,0,0,8.533-14.222,2.11,2.11,0,0,0-2.021-2.718ZM63.548,57.519a31.481,31.481,0,0,1-12.494,7.726v-2.3A29.946,29.946,0,0,0,69.205,44.357h2.283A31.888,31.888,0,0,1,63.548,57.519Z"/>
        <path id="Trazado_207679" data-name="Trazado 207679" d="M31.818,60.884a27.452,27.452,0,0,1-15.3-13.477,2.118,2.118,0,0,0-2.572-1.043,11.915,11.915,0,0,1-2.013.507,2.109,2.109,0,0,0-1.566,3,34.032,34.032,0,0,0,6.576,9.212,33.676,33.676,0,0,0,13.505,8.309,2.158,2.158,0,0,0,2.766-2.006V62.87A2.112,2.112,0,0,0,31.818,60.884ZM31,65.245a31.5,31.5,0,0,1-12.494-7.726,31.836,31.836,0,0,1-6.087-8.486,14.131,14.131,0,0,0,2.163-.548A29.66,29.66,0,0,0,31,62.944Z"/>
        <path id="Trazado_207680" data-name="Trazado 207680" d="M39.3,9.35h3.833A2.761,2.761,0,0,0,45.89,6.592V2.759A2.762,2.762,0,0,0,43.132,0H39.3A2.763,2.763,0,0,0,36.54,2.759V6.592A2.762,2.762,0,0,0,39.3,9.35m-.546-6.591a.547.547,0,0,1,.546-.546h3.833a.547.547,0,0,1,.546.546V6.592a.547.547,0,0,1-.546.546H39.3a.547.547,0,0,1-.546-.546Z"/>
        <path id="Trazado_207681" data-name="Trazado 207681" d="M43.132,60.651H39.3a2.76,2.76,0,0,0-2.758,2.758v3.832A2.761,2.761,0,0,0,39.3,70h3.833a2.762,2.762,0,0,0,2.759-2.758V63.409a2.761,2.761,0,0,0-2.759-2.758m.546,6.59a.546.546,0,0,1-.546.546H39.3a.546.546,0,0,1-.546-.546V63.409a.548.548,0,0,1,.546-.547h3.833a.548.548,0,0,1,.546.547Z"/>
        <path id="Trazado_207682" data-name="Trazado 207682" d="M72.768,29.412H68.935a2.761,2.761,0,0,0-2.758,2.758V36a2.762,2.762,0,0,0,2.758,2.759h3.833A2.763,2.763,0,0,0,75.527,36V32.17A2.762,2.762,0,0,0,72.768,29.412ZM73.314,36a.547.547,0,0,1-.546.546H68.935A.547.547,0,0,1,68.389,36V32.17a.547.547,0,0,1,.546-.546h3.833a.547.547,0,0,1,.546.546Z"/>
        <path id="Trazado_207683" data-name="Trazado 207683" d="M6.376,34.329a1.107,1.107,0,0,0,0,1.565l1.83,1.83a1.107,1.107,0,0,0,1.565,0l3.883-3.883a1.106,1.106,0,0,0-1.565-1.564l-3.1,3.1L7.941,34.329A1.107,1.107,0,0,0,6.376,34.329Z"/>
        <path id="Trazado_207684" data-name="Trazado 207684" d="M20.029,35a10.063,10.063,0,0,0-7.222-9.62,1.107,1.107,0,0,0-.616,2.126,7.8,7.8,0,1,1-4.5.043,1.106,1.106,0,1,0-.658-2.112,10.016,10.016,0,1,0,13,9.563"/>
        <path id="Trazado_207685" data-name="Trazado 207685" d="M21.581,5.781H30L28.448,7.329a1.107,1.107,0,0,0,1.565,1.565L33.45,5.457a1.116,1.116,0,0,0,0-1.565L30.013.455A1.107,1.107,0,0,0,28.448,2.02L30,3.568H21.581a1.107,1.107,0,0,0,0,2.213Z"/>
      </g>
    </g>
    <g id="Grupo_174359" data-name="Grupo 174359" transform="translate(911.002 957.001)">
      <path id="Trazado_207686" data-name="Trazado 207686" d="M40.645,62.1v6.774H27.1V62.1H40.645Z" fill="#aab2bd"/>
      <g id="Grupo_174358" data-name="Grupo 174358">
        <g id="Grupo_174357" data-name="Grupo 174357" clip-path="url(#clip-path-11)">
          <path id="Trazado_207687" data-name="Trazado 207687" d="M45.218,21.463a2.3,2.3,0,0,0-.305,2.552,2.27,2.27,0,0,1,.249,1.05,2.22,2.22,0,0,1-.181.892v.011H37.258V21.452h7.949Z" fill="#ccd1d9"/>
          <path id="Trazado_207688" data-name="Trazado 207688" d="M59.444,40.995a2.307,2.307,0,0,0-1.332,1.423,2.354,2.354,0,0,1-2.224,1.614h-.565v7.9a1.132,1.132,0,0,1-1.129,1.129H13.549a1.132,1.132,0,0,1-1.129-1.129V28.226H7.9V57.58A4.515,4.515,0,0,0,12.42,62.1h42.9a4.515,4.515,0,0,0,4.516-4.517V40.826c-.135.056-.26.113-.4.169" fill="#ccd1d9"/>
          <path id="Trazado_207689" data-name="Trazado 207689" d="M44.913,36.953a2.38,2.38,0,0,0-.26,1.061,2.336,2.336,0,0,0,.689,1.649l.8.8a2.329,2.329,0,0,0,2.709.429,2.287,2.287,0,0,1,1.05-.248,2.2,2.2,0,0,1,.892.181l.407.169a2.31,2.31,0,0,1,1.332,1.423,2.353,2.353,0,0,0,2.224,1.614h.565v7.9a1.132,1.132,0,0,1-1.129,1.129H13.548a1.133,1.133,0,0,1-1.129-1.129V28.226H35a2.265,2.265,0,0,0,2.258-2.258h7.723c-.057.135-.113.259-.17.4a2.311,2.311,0,0,1-1.422,1.332,2.353,2.353,0,0,0-1.615,2.224v1.129a2.353,2.353,0,0,0,1.615,2.224A2.31,2.31,0,0,1,44.811,34.6c.057.135.113.271.17.406A2.293,2.293,0,0,1,44.913,36.953Z" fill="#00defc"/>
          <path id="Trazado_207690" data-name="Trazado 207690" d="M33.871,55.323a2.258,2.258,0,1,1-2.258,2.258,2.258,2.258,0,0,1,2.258-2.258" fill="#e7f3fe"/>
          <path id="Trazado_207691" data-name="Trazado 207691" d="M1.129,10.161V3.387A2.265,2.265,0,0,1,3.387,1.129H35a2.265,2.265,0,0,1,2.258,2.258v6.774Z" fill="#b9ddfc"/>
          <path id="Trazado_207692" data-name="Trazado 207692" d="M1.129,25.968V10.162H37.258V25.968A2.265,2.265,0,0,1,35,28.226H3.387a2.265,2.265,0,0,1-2.258-2.258" fill="#e6e9ed"/>
          <rect id="Rectángulo_297811" data-name="Rectángulo 297811" width="6.774" height="9.032" transform="translate(25.968 14.677)" fill="#b9ddfc"/>
          <path id="Trazado_207693" data-name="Trazado 207693" d="M68.871,29.919v1.13a2.354,2.354,0,0,1-1.614,2.224A2.307,2.307,0,0,0,65.834,34.6l-.169.406a2.22,2.22,0,0,0-.181.892,2.281,2.281,0,0,0,.248,1.05,2.331,2.331,0,0,1-.429,2.71l-.8.8a2.339,2.339,0,0,1-1.649.688,2.379,2.379,0,0,1-1.061-.259,2.293,2.293,0,0,0-1.942-.068h-.011c-.136.056-.26.113-.4.169a2.31,2.31,0,0,0-1.332,1.423,2.354,2.354,0,0,1-2.225,1.614H54.758a2.352,2.352,0,0,1-2.224-1.614A2.31,2.31,0,0,0,51.2,40.995l-.407-.169a2.214,2.214,0,0,0-.892-.181,2.276,2.276,0,0,0-1.05.249,2.331,2.331,0,0,1-2.709-.429l-.8-.8a2.339,2.339,0,0,1-.689-1.648,2.381,2.381,0,0,1,.26-1.062,2.293,2.293,0,0,0,.068-1.942c-.057-.135-.113-.271-.169-.406a2.312,2.312,0,0,0-1.423-1.332,2.354,2.354,0,0,1-1.615-2.224v-1.13a2.354,2.354,0,0,1,1.615-2.224,2.312,2.312,0,0,0,1.423-1.332c.056-.135.112-.26.169-.4v-.011a2.22,2.22,0,0,0,.181-.892,2.282,2.282,0,0,0-.249-1.05,2.3,2.3,0,0,1,.305-2.552.562.562,0,0,1,.124-.158l.8-.8a2.337,2.337,0,0,1,1.648-.688,2.375,2.375,0,0,1,1.061.259,2.293,2.293,0,0,0,1.942.068l.407-.169a2.31,2.31,0,0,0,1.332-1.423,2.352,2.352,0,0,1,2.224-1.614h1.129a2.354,2.354,0,0,1,2.225,1.614,2.31,2.31,0,0,0,1.332,1.423l.406.169a2.214,2.214,0,0,0,.892.181,2.273,2.273,0,0,0,1.05-.249,2.333,2.333,0,0,1,2.71.429l.8.8a2.335,2.335,0,0,1,.689,1.648,2.368,2.368,0,0,1-.26,1.062,2.3,2.3,0,0,0-.067,1.942l.169.406a2.307,2.307,0,0,0,1.423,1.332A2.354,2.354,0,0,1,68.871,29.919Zm-6.774.565a6.774,6.774,0,1,0-6.774,6.774A6.779,6.779,0,0,0,62.1,30.484" fill="#ffb30b"/>
          <path id="Trazado_207694" data-name="Trazado 207694" d="M55.323,23.71a6.774,6.774,0,1,1-6.774,6.774,6.779,6.779,0,0,1,6.774-6.774m2.258,6.774a2.258,2.258,0,1,0-2.258,2.258,2.265,2.265,0,0,0,2.258-2.258" fill="#fff4da"/>
          <path id="Trazado_207695" data-name="Trazado 207695" d="M55.323,22.581a7.9,7.9,0,1,0,7.9,7.9,7.913,7.913,0,0,0-7.9-7.9m0,13.548a5.645,5.645,0,1,1,5.645-5.645,5.651,5.651,0,0,1-5.645,5.645"/>
          <path id="Trazado_207696" data-name="Trazado 207696" d="M55.323,27.1a3.387,3.387,0,1,0,3.387,3.387A3.392,3.392,0,0,0,55.323,27.1m0,4.516a1.129,1.129,0,1,1,1.129-1.129,1.13,1.13,0,0,1-1.129,1.129"/>
          <path id="Trazado_207697" data-name="Trazado 207697" d="M67.612,26.624a1.158,1.158,0,0,1-.73-.674c-.059-.149-.118-.3-.182-.442a1.162,1.162,0,0,1,.043-.986A3.465,3.465,0,0,0,66.1,20.5l-.8-.8a3.454,3.454,0,0,0-4.019-.642,1.155,1.155,0,0,1-.988.041c-.144-.063-.291-.122-.441-.18a1.166,1.166,0,0,1-.673-.731,3.464,3.464,0,0,0-3.3-2.388H54.76a3.466,3.466,0,0,0-3.3,2.388,1.155,1.155,0,0,1-.674.731c-.149.058-.295.117-.441.181a1.173,1.173,0,0,1-.986-.042,3.467,3.467,0,0,0-4.02.642l-.614.616h-6.34V3.387A3.392,3.392,0,0,0,35,0H3.387A3.392,3.392,0,0,0,0,3.387V25.968a3.392,3.392,0,0,0,3.387,3.387H6.774V57.581a5.652,5.652,0,0,0,5.645,5.645H25.968v4.516H19.194V70H48.548V67.742H41.774V63.226H55.323a5.652,5.652,0,0,0,5.645-5.645V41.819a1.214,1.214,0,0,1,.315.084,3.467,3.467,0,0,0,4.02-.643l.8-.8a3.464,3.464,0,0,0,.642-4.019,1.159,1.159,0,0,1-.042-.988c.063-.144.122-.291.181-.441a1.164,1.164,0,0,1,.73-.673A3.462,3.462,0,0,0,70,31.046V29.921a3.464,3.464,0,0,0-2.388-3.3m-24.579,7.72a1.16,1.16,0,0,1,.731.674c.058.149.117.3.181.441a1.158,1.158,0,0,1-.043.986,3.466,3.466,0,0,0,.643,4.021l.8.8a3.465,3.465,0,0,0,4.019.641,1.17,1.17,0,0,1,.988-.042c.145.063.291.122.442.181a1.16,1.16,0,0,1,.672.73,3.462,3.462,0,0,0,2.732,2.342v6.82H13.548V29.355H35A3.383,3.383,0,0,0,38.179,27.1H42.1a3.456,3.456,0,0,0-1.459,2.824v1.125A3.466,3.466,0,0,0,43.033,34.344Zm.525-11.763a3.451,3.451,0,0,0,.346,1.941,1.226,1.226,0,0,1,.083.317h-5.6V22.581ZM3.387,2.258H35a1.13,1.13,0,0,1,1.129,1.129V9.032H2.258V3.387A1.13,1.13,0,0,1,3.387,2.258M2.258,25.968V11.29H36.129V25.968A1.13,1.13,0,0,1,35,27.1H3.387a1.13,1.13,0,0,1-1.129-1.129M39.516,67.742H28.226V63.226h11.29Zm15.807-6.774h-42.9a3.392,3.392,0,0,1-3.387-3.387V29.355H11.29v22.58a2.26,2.26,0,0,0,2.258,2.258H54.194a2.26,2.26,0,0,0,2.258-2.258V45.114A3.463,3.463,0,0,0,58.71,43.7V57.581a3.392,3.392,0,0,1-3.387,3.387M67.742,31.046a1.21,1.21,0,0,1-.835,1.153,3.412,3.412,0,0,0-2.13,2c-.047.122-.1.243-.149.362a3.411,3.411,0,0,0,.1,2.9,1.213,1.213,0,0,1-.223,1.4l-.8.795a1.209,1.209,0,0,1-1.406.224,3.41,3.41,0,0,0-2.9-.1c-.12.052-.241.1-.362.15a3.41,3.41,0,0,0-2,2.132,1.213,1.213,0,0,1-1.154.833H54.76a1.208,1.208,0,0,1-1.152-.835,3.413,3.413,0,0,0-2-2.13c-.122-.047-.243-.1-.361-.149a3.365,3.365,0,0,0-1.339-.278,3.481,3.481,0,0,0-1.566.376,1.212,1.212,0,0,1-1.4-.223l-.8-.8a1.213,1.213,0,0,1-.224-1.406,3.41,3.41,0,0,0,.1-2.9c-.052-.12-.1-.241-.15-.362a3.41,3.41,0,0,0-2.132-2,1.215,1.215,0,0,1-.832-1.154V29.921a1.209,1.209,0,0,1,.836-1.152,3.414,3.414,0,0,0,2.129-2c.048-.122.1-.243.149-.361a3.413,3.413,0,0,0-.1-2.9,1.211,1.211,0,0,1,.223-1.4l.8-.8a1.215,1.215,0,0,1,1.406-.224,3.409,3.409,0,0,0,2.9.1c.119-.052.24-.1.361-.15a3.415,3.415,0,0,0,2-2.131,1.212,1.212,0,0,1,1.153-.834h1.125a1.211,1.211,0,0,1,1.153.836,3.413,3.413,0,0,0,2,2.129c.122.048.243.1.361.149a3.413,3.413,0,0,0,2.9-.1,1.211,1.211,0,0,1,1.405.224l.795.8a1.211,1.211,0,0,1,.224,1.4,3.412,3.412,0,0,0-.1,2.9c.052.119.1.24.15.361a3.412,3.412,0,0,0,2.132,2,1.211,1.211,0,0,1,.833,1.153Z"/>
          <rect id="Rectángulo_297812" data-name="Rectángulo 297812" width="2.258" height="2.258" transform="translate(4.516 4.516)"/>
          <rect id="Rectángulo_297813" data-name="Rectángulo 297813" width="2.258" height="2.258" transform="translate(13.548 4.516)"/>
          <rect id="Rectángulo_297814" data-name="Rectángulo 297814" width="2.258" height="2.258" transform="translate(9.032 4.516)"/>
          <path id="Trazado_207698" data-name="Trazado 207698" d="M37.258,57.581a3.387,3.387,0,1,0-3.387,3.387,3.392,3.392,0,0,0,3.387-3.387M33.871,58.71A1.129,1.129,0,1,1,35,57.581a1.13,1.13,0,0,1-1.129,1.129"/>
          <rect id="Rectángulo_297815" data-name="Rectángulo 297815" width="22.581" height="2.258" transform="translate(15.806 31.613)"/>
          <rect id="Rectángulo_297816" data-name="Rectángulo 297816" width="22.581" height="2.258" transform="translate(15.806 36.129)"/>
          <path id="Trazado_207699" data-name="Trazado 207699" d="M15.008,41.443l3.718,3.718-3.718,3.718,1.6,1.6,5.315-5.314L16.6,39.847Z"/>
          <rect id="Rectángulo_297817" data-name="Rectángulo 297817" width="9.032" height="2.258" transform="translate(22.581 47.419)"/>
          <rect id="Rectángulo_297818" data-name="Rectángulo 297818" width="4.516" height="2.258" transform="translate(4.516 13.548)"/>
          <rect id="Rectángulo_297819" data-name="Rectángulo 297819" width="11.29" height="2.258" transform="translate(11.29 13.548)"/>
          <path id="Trazado_207700" data-name="Trazado 207700" d="M24.839,24.839h9.032V13.549H24.839ZM27.1,15.806h4.516V22.58H27.1Z"/>
          <rect id="Rectángulo_297820" data-name="Rectángulo 297820" width="18.065" height="2.258" transform="translate(4.516 18.065)"/>
          <rect id="Rectángulo_297821" data-name="Rectángulo 297821" width="4.516" height="2.258" transform="translate(18.065 22.581)"/>
          <rect id="Rectángulo_297822" data-name="Rectángulo 297822" width="2.258" height="2.258" transform="translate(13.548 22.581)"/>
          <rect id="Rectángulo_297823" data-name="Rectángulo 297823" width="6.774" height="2.258" transform="translate(4.516 22.581)"/>
        </g>
      </g>
    </g>
  </g>
</svg>
