<svg xmlns="http://www.w3.org/2000/svg" width="101" height="83.838" viewBox="0 0 101 83.838">
  <g id="Grupo_174664" data-name="Grupo 174664" transform="translate(-34 -7704.193)">
    <path id="Trazado_195813" data-name="Trazado 195813" d="M-4858.659-3993v70.106H-4955.5v-61.788h31.488l7.723-8.318Z" transform="translate(4991.282 11708.846)" fill="#fff1d1" stroke="#707070" stroke-width="1"/>
    <path id="Trazado_195814" data-name="Trazado 195814" d="M-4955.5-4000.5h95.653v8.317h-57.035l-8.912,9.506H-4955.5Z" transform="translate(4991.282 11707.435)" fill="#ffb30b" stroke="#707070" stroke-width="1"/>
    <g id="Grupo_139247" data-name="Grupo 139247" transform="translate(34 7704.193)">
      <path id="Trazado_195800" data-name="Trazado 195800" d="M213.027,237H115.973A1.973,1.973,0,0,0,114,238.973v79.893a1.973,1.973,0,0,0,1.973,1.973h97.055A1.973,1.973,0,0,0,215,318.865V238.973A1.973,1.973,0,0,0,213.027,237Zm-1.973,3.945v4.932h-57.6a1.975,1.975,0,0,0-1.558.761l-6.311,8.116H117.945V240.945Zm-93.109,75.947V258.7h28.6a1.975,1.975,0,0,0,1.558-.761l6.311-8.115h56.637v67.07Zm0,0" transform="translate(-114 -237)"/>
      <path id="Trazado_195801" data-name="Trazado 195801" d="M149.728,274.7a1.973,1.973,0,0,0,0-3.945h0a1.973,1.973,0,0,0,0,3.945Zm0,0" transform="translate(-138.876 -261.873)"/>
      <path id="Trazado_195802" data-name="Trazado 195802" d="M183.477,274.7a1.973,1.973,0,0,0,0-3.945h0a1.973,1.973,0,0,0,0,3.945Zm0,0" transform="translate(-163.749 -261.873)"/>
      <path id="Trazado_195803" data-name="Trazado 195803" d="M217.227,274.7a1.973,1.973,0,0,0,0-3.945h0a1.973,1.973,0,0,0,0,3.945Zm0,0" transform="translate(-188.622 -261.873)"/>
      <path id="Trazado_195804" data-name="Trazado 195804" d="M200.344,342.2h21.6a1.973,1.973,0,0,0,0-3.945h-21.6a1.973,1.973,0,1,0,0,3.945Zm0,0" transform="translate(-176.18 -311.619)"/>
      <path id="Trazado_195805" data-name="Trazado 195805" d="M200.344,375.945h21.6a1.973,1.973,0,0,0,0-3.945h-21.6a1.973,1.973,0,1,0,0,3.945Zm0,0" transform="translate(-176.18 -336.492)"/>
      <path id="Trazado_195806" data-name="Trazado 195806" d="M186.611,407.723a1.973,1.973,0,0,0-1.973-1.973H149.723a1.973,1.973,0,0,0,0,3.945h34.916a1.973,1.973,0,0,0,1.973-1.973Zm0,0" transform="translate(-138.873 -361.365)"/>
      <path id="Trazado_195807" data-name="Trazado 195807" d="M149.723,439.5a1.973,1.973,0,0,0,0,3.945h17.458a1.973,1.973,0,1,0,0-3.945Zm0,0" transform="translate(-138.873 -386.238)"/>
      <path id="Trazado_195808" data-name="Trazado 195808" d="M215.709,473.25H149.723a1.973,1.973,0,0,0,0,3.945h65.986a1.973,1.973,0,0,0,0-3.945Zm0,0" transform="translate(-138.873 -411.111)"/>
      <path id="Trazado_195809" data-name="Trazado 195809" d="M215.709,507H149.723a1.973,1.973,0,0,0,0,3.945h65.986a1.973,1.973,0,0,0,0-3.945Zm0,0" transform="translate(-138.873 -435.984)"/>
      <path id="Trazado_195810" data-name="Trazado 195810" d="M152.767,350.494a1.973,1.973,0,0,0,2.791-2.791l-3.044-3.043,3.044-3.043a1.973,1.973,0,1,0-2.791-2.791l-4.438,4.438a1.976,1.976,0,0,0,0,2.791Zm0,0" transform="translate(-138.874 -311.618)"/>
      <path id="Trazado_195811" data-name="Trazado 195811" d="M435.741,473.826a1.973,1.973,0,0,0-2.79,2.791l3.043,3.043-3.043,3.043a1.973,1.973,0,0,0,2.79,2.791l4.438-4.438a1.974,1.974,0,0,0,0-2.791Zm0,0" transform="translate(-348.634 -411.11)"/>
      <path id="Trazado_195812" data-name="Trazado 195812" d="M346.256,315.441l4.57-2,4.828,8.363-4.017,2.955a14.881,14.881,0,0,1,0,4.467l4.017,2.956-4.828,8.362-4.57-2a14.765,14.765,0,0,1-3.867,2.237l-.551,4.954h-9.656l-.551-4.954a14.753,14.753,0,0,1-3.868-2.237l-4.569,2-4.828-8.363,4.017-2.955a14.876,14.876,0,0,1,0-4.467l-4.017-2.955,4.828-8.363,4.57,2a14.779,14.779,0,0,1,3.867-2.237l.551-4.954h9.656l.551,4.954a14.748,14.748,0,0,1,3.867,2.237Zm-9.246,7.6a3.945,3.945,0,1,0,3.945,3.945,3.945,3.945,0,0,0-3.945-3.945Zm0,0" transform="translate(-264.614 -289.51)" fill="#00defc" fill-rule="evenodd"/>
    </g>
  </g>
</svg>
