<svg xmlns="http://www.w3.org/2000/svg" width="101" height="100.872" viewBox="0 0 101 100.872">
  <g id="Grupo_174666" data-name="Grupo 174666" transform="translate(-582.848 -6329)">
    <rect id="Rectángulo_293427" data-name="Rectángulo 293427" width="100.872" height="100.872" transform="translate(582.976 6329)" fill="none"/>
    <g id="Grupo_129326" data-name="Grupo 129326" transform="translate(582.848 6329)">
      <path id="Trazado_189945" data-name="Trazado 189945" d="M-569.466,780.227q17.308,0,34.617,0c5.236,0,8.059,2.844,8.062,8.12.009,14.681-.04,29.36.032,44.039.019,3.993.907,7.974-.005,11.982a5.3,5.3,0,0,0,1.078,4.011c4.27,6.9,8.52,13.811,12.676,20.779a7.353,7.353,0,0,1-4.888,11.279c-2.981.606-5.925-.766-7.764-3.743q-5.214-8.44-10.337-16.936a2.185,2.185,0,0,0-2.014-1.36c-1.364-.028-2.03.255-1.834,1.77.228,1.757-.667,2.685-2.4,2.87a8.5,8.5,0,0,0-1,.23c-2.118.492-2.494,1.432-1.314,3.285,1.843,2.894,1.844,2.895-.57,5.309-1.5,1.5-3.056,2.938-4.472,4.508-1.306,1.448-2.514,1.483-4.091.388-2.74-1.9-3.513-1.59-4.091,1.717-.338,1.939-1.265,2.672-3.181,2.591a64.184,64.184,0,0,0-6.961.011c-2.137.138-3.115-.74-3.462-2.793-.509-3.011-1.387-3.4-3.856-1.62-1.727,1.246-3.011,1.114-4.419-.449-1.551-1.723-3.213-3.356-4.923-4.922-1.428-1.309-1.551-2.553-.4-4.1.5-.671,1.3-1.285,1.165-2.289-.205-1.528-1.5-1.658-2.6-1.768-2.116-.211-3.1-1.259-2.868-3.364.122-1.128-.4-1.353-1.414-1.343-4.505.044-9.012.03-13.519.015-5.006-.015-7.916-2.842-7.922-7.856q-.042-31.236,0-62.474c.006-5.137,2.867-7.884,8.059-7.886Q-586.774,780.22-569.466,780.227Zm18.961,78.3c-1.479-.353-2.14.239-2.578,1.716a10.9,10.9,0,0,1-3.913,5.617c-6.873,5.251-16.2,2.378-19.153-5.881-.188-.524,0-1.429-.848-1.447-2.716-.059-5.435-.022-8.523-.022a3.112,3.112,0,0,0,2.206,1.165c2.833.633,4.8,5.184,3.133,7.594-.9,1.3-.813,2.161.374,3.089a8.509,8.509,0,0,1,1.446,1.442c.828,1.054,1.642,1.229,2.715.3.716-.619,1.612-1.286,2.594-.824,1.651.778,3.529,1.1,4.934,2.379.569,3.321.569,3.321,3.784,3.32a3.529,3.529,0,0,1,.611,0c1.575.276,2.284-.353,2.575-1.961.477-2.639,5.1-4.727,7.265-3.194,1.632,1.159,2.6.823,3.653-.582a8.09,8.09,0,0,1,1.438-1.441,1.258,1.258,0,0,0,.18-2.076c-1.331-1.486-1.026-2.9-.354-4.673.814-2.143,1.908-3.5,4.246-3.683.3-.024.7-.1.595-.755A40.165,40.165,0,0,0-550.5,858.524Zm10.259-27.5c-.563-1-1.145-1.99-1.684-3-.882-1.656-.361-2.631,1.471-2.728.884-.045,1.772.006,2.658.013a19.059,19.059,0,0,1,6.967,3.308V806.107c0-5.205,0-5.205-5.344-4.852a2.705,2.705,0,0,0-.4-.059q-35-.008-70.006-.051c-1.784,0-1.561.971-1.56,2.072q.011,21.187.01,42.372c0,1.155.083,2.309.127,3.464-.436,4.191.578,5.34,4.722,5.34h63.7c-.625-1.412-.618-1.49-1.409-1.555-5.566-.458-9.3-3.489-11.78-8.308a17.226,17.226,0,0,1-.54-9.863l-.028.031c.689-.435.669-1.268,1.045-1.883.459-.75.774-1.668,1.839-1.682.964-.014,1.34.787,1.774,1.482,1.041,1.667,2.1,3.324,3.145,4.985.285.531.535,1.086.864,1.588.778,1.187,4.682,1.328,5.593.221,2.008-2.437,2.077-3.323.409-6.041C-539.17,832.568-539.722,831.8-540.246,831.024Zm-29.309-33.981c12.221,0,24.442-.026,36.663.034,1.6.007,2.181-.422,2.087-2.07-.132-2.314-.014-4.641-.039-6.962-.026-2.493-1.158-3.691-3.6-3.693q-35.126-.022-70.253,0c-2.3,0-3.141.912-3.166,3.283-.025,2.389.113,4.787-.045,7.166-.121,1.836.507,2.295,2.3,2.283C-593.587,797.006-581.57,797.044-569.555,797.043Zm19.267,38.811c-1.5,7.6,2.915,13.7,9.811,13.965a3.472,3.472,0,0,1,3.2,1.989c4.607,7.648,9.282,15.256,13.916,22.888.766,1.26,1.621,2.384,3.171,2.67a4.169,4.169,0,0,0,4.519-1.658,4.36,4.36,0,0,0-.011-5.166c-4.45-7.266-8.832-14.573-13.339-21.8-1.279-2.053-1.889-3.688-.827-6.308,2.436-6.01-1.974-13.21-8.073-13.688,1.174,1.943,2.307,3.788,3.408,5.652,1.135,1.919-2.013,8.3-4.243,8.536-1.761.188-3.541.209-5.305.371a2.379,2.379,0,0,1-2.494-1.361C-547.68,840.018-548.881,838.138-550.287,835.854Zm-14.143,22.592c-2.179,0-4.358.046-6.535-.018-1.208-.035-1.434.3-.88,1.377a7.827,7.827,0,0,0,7.146,4.631,7.794,7.794,0,0,0,7.315-4.357c.595-1.078.685-1.727-.92-1.656C-560.342,858.516-562.388,858.446-564.43,858.446Z" transform="translate(612.159 -780.226)" fill-rule="evenodd"/>
      <path id="Trazado_189946" data-name="Trazado 189946" d="M-536.812,830.478c-.886-.007-1.774-.058-2.658-.013-1.832.1-2.353,1.072-1.471,2.728.54,1.014,1.122,2,1.685,3a14.751,14.751,0,0,1-1.167,1.871c-1.348,1.592-2.032,3.774-4.132,4.7-1.049-1.66-2.1-3.318-3.145-4.985-.434-.7-.811-1.5-1.774-1.482-1.065.014-1.381.932-1.839,1.682-.376.615-.355,1.448-1.046,1.884-.415-2.2-.062-4.427-.171-6.641-.055-1.122-.055-2.06,1.455-2.456,1.25-.326,1.433-2.192.309-2.493-2.145-.573-1.752-2.068-1.766-3.512-.014-1.567.023-3.137-.03-4.7a3.678,3.678,0,0,0-3.144-3.735,13.29,13.29,0,0,0-4.071-.123,1.383,1.383,0,0,0-1.352,1.511,1.4,1.4,0,0,0,1.394,1.477,17.721,17.721,0,0,0,2.45.056c1.226-.05,1.7.481,1.663,1.711-.065,1.907.06,3.823-.043,5.726-.061,1.135,1.075,2.115.621,3.086-.9,1.926-.537,3.891-.574,5.837-.069,3.61-.019,3.621-3.662,3.978-.971.1-1.819.39-1.854,1.495-.039,1.21.8,1.537,1.887,1.66,2.871.326,5.277-.353,6.917-2.906a17.226,17.226,0,0,0,.54,9.864,6.519,6.519,0,0,0-2.452.973,31.747,31.747,0,0,1-13.3,3.515c-13.16.156-26.323.043-39.485.035-.044-1.155-.127-2.308-.128-3.464q-.012-21.186-.01-42.372c0-1.1-.224-2.076,1.56-2.072q35,.091,70.006.051a2.7,2.7,0,0,1,.4.059c.008,2.926-.018,5.851.031,8.776C-535.07,820.366-535.073,825.515-536.812,830.478Zm-56.761-14.315c-4.164,0-5.448,1.305-5.453,5.543,0,1.365-.026,2.729.008,4.092.026,1.082-.035,1.883-1.4,2.288s-1.518,2.266-.249,2.586c1.864.469,1.647,1.664,1.64,2.945-.006,1.092,0,2.183,0,3.274,0,4.8,2.578,6.874,7.223,5.806a1.5,1.5,0,0,0,1.383-1.514,1.42,1.42,0,0,0-1.355-1.52,12.185,12.185,0,0,0-2.449-.059c-1.228.078-1.729-.413-1.685-1.661.065-1.839-.055-3.686.039-5.523.061-1.2-1.055-2.293-.624-3.306.827-1.939.556-3.892.585-5.844.054-3.658.015-3.664,3.639-4.015.957-.092,1.81-.329,1.826-1.489.018-1.252-.819-1.6-1.9-1.6Q-592.959,816.164-593.573,816.163Zm11.9,26.526c.969-.055,1.388-.753,1.761-1.5q5.5-11.053,11.012-22.1c.53-1.061.908-2.123-.5-2.737-1.324-.577-1.8.486-2.259,1.419q-3.5,7.034-7,14.073c-1.364,2.74-2.755,5.47-4.083,8.228C-583.4,841.442-582.867,842.647-581.671,842.689Zm14.507-6.047a3.218,3.218,0,0,0,.793-.325c2.732-1.923,5.487-3.816,8.156-5.824,1.15-.865.9-1.925-.216-2.689-2.534-1.728-5.107-3.4-7.662-5.1-.91-.605-1.836-.768-2.477.277-.573.933-.093,1.671.754,2.227,1.539,1.009,3.013,2.131,4.612,3.034,1.511.854,1.171,1.4-.028,2.178-1.656,1.078-3.245,2.26-4.85,3.416a1.486,1.486,0,0,0-.625,1.793A1.484,1.484,0,0,0-567.165,836.642Zm-22.659-7.353c2.2-1.473,4.115-2.748,6.02-4.036.856-.58,1.518-1.3.763-2.353-.727-1.019-1.629-.723-2.5-.143-2.432,1.62-4.88,3.217-7.291,4.866-1.667,1.141-1.665,2.053,0,3.271,2.362,1.721,4.767,3.38,7.137,5.09.908.655,1.837,1.118,2.644-.01.838-1.171-.042-1.863-.908-2.485C-585.821,832.146-587.694,830.81-589.824,829.289Z" transform="translate(611.17 -785.397)" fill="#fff1d1" fill-rule="evenodd"/>
      <path id="Trazado_189947" data-name="Trazado 189947" d="M-568.506,798.062c-12.016,0-24.033-.038-36.047.04-1.794.012-2.421-.447-2.3-2.283.158-2.379.02-4.777.045-7.166.025-2.371.868-3.282,3.166-3.283q35.126-.021,70.253,0c2.437,0,3.57,1.2,3.6,3.693.024,2.321-.093,4.648.038,6.962.094,1.648-.485,2.077-2.087,2.07C-544.064,798.034-556.285,798.061-568.506,798.062ZM-556,789.129c-6.954,0-13.909.086-20.86-.05-2.182-.042-2.22,1.026-2.2,2.627.017,1.559-.05,2.661,2.178,2.644q20.655-.155,41.313-.009c1.927.01,2.307-.714,2.2-2.4-.093-1.519.257-2.915-2.179-2.863C-542.364,789.225-549.183,789.129-556,789.129Zm-47.509,2.832a2.521,2.521,0,0,0,2.493,2.3,2.479,2.479,0,0,0,2.548-2.592,2.44,2.44,0,0,0-2.466-2.478A2.619,2.619,0,0,0-603.509,791.961Zm7.118-.209a2.558,2.558,0,0,0,2.469,2.514,2.548,2.548,0,0,0,2.608-2.558,2.506,2.506,0,0,0-2.457-2.513A2.568,2.568,0,0,0-596.391,791.751Zm7.16-.046a2.484,2.484,0,0,0,2.578,2.552,2.378,2.378,0,0,0,2.405-2.51,2.383,2.383,0,0,0-2.365-2.551A2.482,2.482,0,0,0-589.231,791.705Z" transform="translate(611.11 -781.243)" fill="#ffb30c" fill-rule="evenodd"/>
      <path id="Trazado_189948" data-name="Trazado 189948" d="M-535.064,847.849c1.406,2.284,2.607,4.164,3.728,6.089a2.38,2.38,0,0,0,2.494,1.362c1.765-.162,3.544-.184,5.305-.371,2.23-.237,5.378-6.616,4.243-8.536-1.1-1.863-2.235-3.709-3.408-5.652,6.1.478,10.509,7.678,8.073,13.688-1.062,2.62-.452,4.255.827,6.308,4.508,7.229,8.889,14.536,13.339,21.8a4.359,4.359,0,0,1,.011,5.166,4.168,4.168,0,0,1-4.519,1.658c-1.55-.286-2.405-1.41-3.171-2.67-4.634-7.632-9.309-15.24-13.916-22.888a3.472,3.472,0,0,0-3.2-1.989C-532.149,861.55-536.565,855.454-535.064,847.849Zm33.842,37.476a2.453,2.453,0,0,0-2.641-2.458,2.367,2.367,0,0,0-2.465,2.644,2.355,2.355,0,0,0,2.606,2.5A2.467,2.467,0,0,0-501.221,885.326Z" transform="translate(596.935 -792.221)" fill="#e0e6e6" fill-rule="evenodd"/>
      <path id="Trazado_189949" data-name="Trazado 189949" d="M-607.009,864.95c13.162.007,26.325.121,39.484-.035a31.749,31.749,0,0,0,13.3-3.515,6.516,6.516,0,0,1,2.452-.973c2.481,4.819,6.214,7.85,11.78,8.308.791.065.784.143,1.409,1.555h-63.7C-606.431,870.29-607.445,869.141-607.009,864.95Z" transform="translate(611.157 -796.123)" fill="#fff1d1" fill-rule="evenodd"/>
      <path id="Trazado_189950" data-name="Trazado 189950" d="M-561.531,892.985c-1.4-1.283-3.283-1.6-4.934-2.379-.981-.462-1.878.205-2.594.824-1.073.927-1.887.753-2.715-.3a8.51,8.51,0,0,0-1.446-1.441c-1.187-.929-1.278-1.786-.374-3.089,1.671-2.41-.3-6.961-3.133-7.594a3.111,3.111,0,0,1-2.206-1.165c3.088,0,5.807-.037,8.523.022.851.018.661.923.848,1.447,2.95,8.259,12.28,11.132,19.153,5.881a10.9,10.9,0,0,0,3.913-5.617c.438-1.477,1.1-2.069,2.578-1.716-2.607,6.376-7.7,10.15-13.626,13.078C-558.883,891.6-560.6,891.526-561.531,892.985Z" transform="translate(605.573 -799.558)" fill="#0ddcf1" fill-rule="evenodd"/>
      <path id="Trazado_189951" data-name="Trazado 189951" d="M-519.418,830.472c1.739-4.963,1.741-10.111,1.654-15.276-.05-2.924-.023-5.85-.031-8.776,5.344-.353,5.344-.353,5.344,4.852v22.508A19.056,19.056,0,0,0-519.418,830.472Z" transform="translate(593.776 -785.392)" fill="#fff1d1" fill-rule="evenodd"/>
      <path id="Trazado_189952" data-name="Trazado 189952" d="M-557.229,892.989c.926-1.459,2.648-1.389,3.987-2.051,5.927-2.928,11.019-6.7,13.626-13.078a40.167,40.167,0,0,1,6.382.09c.1.655-.3.73-.595.755-2.338.186-3.433,1.539-4.246,3.682-.673,1.772-.977,3.187.354,4.673a1.258,1.258,0,0,1-.18,2.076,8.089,8.089,0,0,0-1.438,1.441c-1.052,1.4-2.02,1.741-3.653.582-2.161-1.533-6.788.556-7.265,3.194-.291,1.608-1,2.237-2.575,1.961a3.54,3.54,0,0,0-.611,0C-556.66,896.31-556.66,896.31-557.229,892.989Z" transform="translate(601.271 -799.562)" fill="#0ddcf1" fill-rule="evenodd"/>
      <path id="Trazado_189953" data-name="Trazado 189953" d="M-554.534,877.777c2.042,0,4.087.07,6.126-.022,1.6-.071,1.515.577.92,1.656a7.794,7.794,0,0,1-7.315,4.357,7.827,7.827,0,0,1-7.146-4.631c-.555-1.073-.328-1.412.88-1.377C-558.893,877.823-556.713,877.777-554.534,877.777Z" transform="translate(602.263 -799.557)" fill="#fbfbfb" fill-rule="evenodd"/>
      <path id="Trazado_189954" data-name="Trazado 189954" d="M-529.076,850.157c2.1-.929,2.785-3.111,4.132-4.7a14.766,14.766,0,0,0,1.167-1.87c.524.78,1.075,1.543,1.567,2.342,1.668,2.717,1.6,3.6-.409,6.041-.912,1.107-4.815.967-5.593-.22C-528.541,851.243-528.79,850.688-529.076,850.157Z" transform="translate(595.69 -792.784)" fill="#fff1d1" fill-rule="evenodd"/>
      <path id="Trazado_189955" data-name="Trazado 189955" d="M-540.95,842.259c-1.641,2.554-4.046,3.233-6.917,2.906-1.084-.123-1.926-.45-1.887-1.66.034-1.1.883-1.4,1.854-1.495,3.642-.358,3.593-.368,3.662-3.978.037-1.946-.327-3.911.574-5.837.455-.971-.682-1.951-.621-3.086.1-1.9-.022-3.819.043-5.726.042-1.23-.437-1.761-1.663-1.711a17.7,17.7,0,0,1-2.45-.056,1.4,1.4,0,0,1-1.394-1.477,1.383,1.383,0,0,1,1.352-1.511,13.292,13.292,0,0,1,4.071.123,3.677,3.677,0,0,1,3.144,3.735c.053,1.567.016,3.136.03,4.7.014,1.444-.379,2.939,1.766,3.512,1.124.3.941,2.166-.309,2.493-1.51.4-1.51,1.333-1.455,2.456.109,2.214-.244,4.438.171,6.641Z" transform="translate(599.79 -787.819)" fill-rule="evenodd"/>
      <path id="Trazado_189956" data-name="Trazado 189956" d="M-592.181,818.6h1.227c1.084,0,1.921.35,1.9,1.6-.017,1.16-.87,1.4-1.826,1.489-3.624.351-3.585.358-3.638,4.015-.03,1.952.241,3.906-.585,5.844-.431,1.013.685,2.106.624,3.306-.094,1.837.026,3.684-.039,5.523-.044,1.248.458,1.739,1.685,1.661a12.177,12.177,0,0,1,2.449.059,1.419,1.419,0,0,1,1.355,1.52,1.5,1.5,0,0,1-1.383,1.514c-4.645,1.067-7.222-1-7.223-5.806,0-1.09,0-2.182,0-3.274.007-1.281.225-2.476-1.64-2.945-1.269-.32-1.127-2.178.248-2.586s1.425-1.206,1.4-2.288c-.035-1.364-.01-2.728-.008-4.092C-597.629,819.9-596.345,818.6-592.181,818.6Z" transform="translate(609.778 -787.832)" fill-rule="evenodd"/>
      <path id="Trazado_189957" data-name="Trazado 189957" d="M-575.7,845.129c-1.2-.042-1.733-1.248-1.07-2.624,1.328-2.758,2.719-5.487,4.083-8.228q3.5-7.037,7-14.073c.464-.933.936-2,2.26-1.419,1.41.614,1.033,1.677.5,2.737q-5.516,11.048-11.012,22.1C-574.315,844.375-574.735,845.073-575.7,845.129Z" transform="translate(605.202 -787.836)" fill-rule="evenodd"/>
      <path id="Trazado_189958" data-name="Trazado 189958" d="M-557.685,840.574a1.484,1.484,0,0,1-1.544-1.014,1.486,1.486,0,0,1,.625-1.793c1.605-1.155,3.193-2.337,4.85-3.416,1.2-.781,1.539-1.324.028-2.178-1.6-.9-3.072-2.025-4.612-3.034-.847-.556-1.327-1.293-.754-2.227.641-1.045,1.567-.882,2.477-.277,2.555,1.7,5.127,3.371,7.662,5.1,1.119.764,1.366,1.824.216,2.689-2.668,2.008-5.423,3.9-8.156,5.824A3.216,3.216,0,0,1-557.685,840.574Z" transform="translate(601.69 -789.33)" fill-rule="evenodd"/>
      <path id="Trazado_189959" data-name="Trazado 189959" d="M-586.588,833.222c2.13,1.522,4,2.858,5.871,4.2.866.621,1.745,1.314.908,2.485-.807,1.129-1.736.665-2.644.01-2.371-1.709-4.775-3.369-7.137-5.09-1.67-1.218-1.672-2.13,0-3.27,2.411-1.649,4.859-3.246,7.291-4.866.872-.58,1.773-.876,2.5.143.754,1.057.093,1.773-.763,2.353C-582.474,830.474-584.389,831.749-586.588,833.222Z" transform="translate(607.934 -789.331)" fill-rule="evenodd"/>
      <path id="Trazado_189960" data-name="Trazado 189960" d="M-549.127,790.048c6.818,0,13.637.1,20.451-.05,2.436-.052,2.086,1.345,2.179,2.863.1,1.687-.275,2.411-2.2,2.4q-20.656-.122-41.313.009c-2.228.017-2.162-1.085-2.178-2.644-.017-1.6.021-2.67,2.2-2.627C-563.037,790.134-556.081,790.048-549.127,790.048Z" transform="translate(604.237 -782.162)" fill="#0d0902" fill-rule="evenodd"/>
      <path id="Trazado_189961" data-name="Trazado 189961" d="M-602.679,792.906a2.619,2.619,0,0,1,2.575-2.771,2.44,2.44,0,0,1,2.466,2.478,2.479,2.479,0,0,1-2.548,2.592A2.521,2.521,0,0,1-602.679,792.906Z" transform="translate(610.28 -782.189)" fill-rule="evenodd"/>
      <path id="Trazado_189962" data-name="Trazado 189962" d="M-593.8,792.7a2.567,2.567,0,0,1,2.619-2.558,2.506,2.506,0,0,1,2.457,2.513,2.548,2.548,0,0,1-2.608,2.558A2.556,2.556,0,0,1-593.8,792.7Z" transform="translate(608.52 -782.189)" fill-rule="evenodd"/>
      <path id="Trazado_189963" data-name="Trazado 189963" d="M-584.871,792.65a2.482,2.482,0,0,1,2.619-2.509,2.383,2.383,0,0,1,2.364,2.551,2.378,2.378,0,0,1-2.405,2.509A2.484,2.484,0,0,1-584.871,792.65Z" transform="translate(606.75 -782.188)" fill-rule="evenodd"/>
      <path id="Trazado_189964" data-name="Trazado 189964" d="M-494.045,895.74a2.467,2.467,0,0,1-2.5,2.685,2.356,2.356,0,0,1-2.606-2.5,2.367,2.367,0,0,1,2.465-2.644A2.453,2.453,0,0,1-494.045,895.74Z" transform="translate(589.759 -802.635)" fill="#ffb30c" fill-rule="evenodd"/>
    </g>
  </g>
</svg>
