<svg id="Grupo_174690" data-name="Grupo 174690" xmlns="http://www.w3.org/2000/svg" xmlns:xlink="http://www.w3.org/1999/xlink" width="49.152" height="50" viewBox="0 0 49.152 50">
  <defs>
    <clipPath id="clip-path">
      <rect id="Rectángulo_35458" data-name="Rectángulo 35458" width="49.152" height="50" fill="#00defc"/>
    </clipPath>
  </defs>
  <g id="Grupo_89559" data-name="Grupo 89559" clip-path="url(#clip-path)">
    <path id="Trazado_137415" data-name="Trazado 137415" d="M46.314,0A3.339,3.339,0,0,1,48.78,1.87a5.007,5.007,0,0,1,.356,1.84q.031,16.279.015,32.56v.147a3.292,3.292,0,0,1-3.419,3.571C40,40.029,34.276,40,28.548,40a1.165,1.165,0,0,1-.177-.036v-1.63H29q8.25,0,16.5,0c1.083,0,1.722-.424,1.929-1.282a2.692,2.692,0,0,0,.053-.629q0-16.427,0-32.854a1.7,1.7,0,0,0-1.893-1.9q-18.917,0-37.833,0A1.726,1.726,0,0,0,5.82,3.628q0,9.519,0,19.038v.644H4.151v-.625c0-6.168.025-12.335-.015-18.5C4.124,2.263,4.595.688,6.961,0Z" fill="#00defc"/>
    <path id="Trazado_137416" data-name="Trazado 137416" d="M0,36.64c0-.765-.007-1.53,0-2.294.008-.709.3-1,1.011-1.019.553-.013,1.107-.018,1.66,0a.443.443,0,0,0,.492-.345c.5-1.257.511-1.254-.45-2.216C1.6,29.652,1.6,29.535,2.7,28.433q1.382-1.38,2.763-2.761c.588-.585.989-.585,1.577-.007.348.342.692.689,1.036,1.035.171.172.35.423.605.183.4-.374,1.3-.056,1.307-.952,0-.537-.007-1.074,0-1.611a.872.872,0,0,1,1-.983q2.343-.009,4.686,0a.846.846,0,0,1,.969.953c.013.586-.015,1.173.017,1.757.008.145.17.391.28.4.528.055.935.8,1.525.336a16.527,16.527,0,0,0,1.218-1.2.867.867,0,0,1,1.4-.015q1.683,1.664,3.345,3.351a.838.838,0,0,1,.006,1.328c-.414.437-.86.844-1.265,1.288a.622.622,0,0,0-.084.45c.021.154.162.291.185.445.125.837.654.992,1.388.893a5.655,5.655,0,0,1,1.073,0,.851.851,0,0,1,.922.92q.03,2.415,0,4.832c-.009.607-.341.9-.974.916-.569.019-1.14.02-1.709,0a.417.417,0,0,0-.489.351,3.48,3.48,0,0,1-.165.458c-.333.808-.334.807.3,1.438.288.288.586.566.859.867a.824.824,0,0,1-.013,1.257q-1.692,1.723-3.415,3.419a.853.853,0,0,1-1.331-.022c-.389-.37-.762-.757-1.141-1.137-.069-.069-.158-.208-.2-.2a15,15,0,0,0-1.472.456.52.52,0,0,0-.237.4c-.026.585,0,1.172-.015,1.757a.851.851,0,0,1-.972.954q-2.343.012-4.686,0a.875.875,0,0,1-1-.988c-.01-.57-.013-1.139,0-1.709.007-.25-.063-.4-.32-.453a2.984,2.984,0,0,1-.456-.169c-.851-.342-.85-.342-1.485.293-.287.288-.565.587-.867.858a.823.823,0,0,1-1.224,0Q3.88,46.1,2.158,44.337A.812.812,0,0,1,2.2,43.081c.392-.413.794-.817,1.21-1.206.206-.193.3-.369.123-.627a2.572,2.572,0,0,1-.186-.4C2.988,40,2.988,40,2.042,40c-.39,0-.782.017-1.171-.011a.822.822,0,0,1-.863-.911c-.015-.813,0-1.627,0-2.441Zm1.689,1.694c.637,0,1.22.007,1.8,0a.972.972,0,0,1,1.014.737c.256.7.542,1.389.844,2.071A.969.969,0,0,1,5.1,42.525c-.4.391-.834.755-1.179,1.065l2.442,2.446,1.173-1.228a.96.96,0,0,1,1.231-.217c.7.331,1.43.616,2.154.9a.918.918,0,0,1,.731,1.055c0,.581,0,1.162,0,1.754h3.332c0-.616,0-1.2,0-1.783a.984.984,0,0,1,.725-1.026c.73-.268,1.445-.578,2.159-.888a.907.907,0,0,1,1.264.228c.412.414.808.844,1.176,1.231l2.391-2.4c-.373-.368-.778-.762-1.176-1.163a.95.95,0,0,1-.232-1.348c.284-.636.56-1.278.8-1.931.282-.761.429-.888,1.24-.892.547,0,1.093,0,1.635,0V34.991c-.631,0-1.229-.006-1.827,0a.94.94,0,0,1-.983-.7c-.27-.729-.578-1.445-.888-2.158a.92.92,0,0,1,.218-1.27c.414-.409.848-.8,1.245-1.167l-2.415-2.407c-.364.372-.766.794-1.18,1.2-.466.463-.7.484-1.309.214-.667-.3-1.339-.581-2.02-.842-.658-.253-.818-.447-.823-1.146,0-.563,0-1.125,0-1.684H11.653c0,.621-.011,1.206,0,1.79a.962.962,0,0,1-.729,1.016c-.714.264-1.416.563-2.113.87a.921.921,0,0,1-1.306-.226c-.411-.414-.8-.848-1.154-1.221l-2.4,2.4c.383.379.8.786,1.209,1.2a.944.944,0,0,1,.217,1.274c-.3.682-.591,1.369-.858,2.065-.244.634-.422.783-1.115.789-.565,0-1.131,0-1.717,0Z" fill="#00defc"/>
    <rect id="Rectángulo_35454" data-name="Rectángulo 35454" width="38.288" height="1.603" transform="translate(7.523 6.682)" fill="#00defc"/>
    <path id="Trazado_137417" data-name="Trazado 137417" d="M39.965,34.171q-2.342,0-4.684,0c-.829,0-1.121-.284-1.123-1.112q-.009-3.9,0-7.8c0-.8.287-1.083,1.094-1.088,1.22-.008,2.439,0,3.659-.005a1.158,1.158,0,0,1,1.028.452,2.917,2.917,0,0,0,3.028,1.236,12.032,12.032,0,0,1,1.851-.01c.707.016,1,.317,1,1.026q.008,3.123,0,6.245c0,.755-.309,1.058-1.077,1.06-1.594.006-3.188,0-4.781,0m4.154-1.687V27.5c-.837,0-1.636-.048-2.428.013a2.091,2.091,0,0,1-2.042-.85,1.982,1.982,0,0,0-2.015-.845,15.216,15.216,0,0,1-1.76.013v6.649Z" fill="#00defc"/>
    <path id="Trazado_137418" data-name="Trazado 137418" d="M13.3,20.825c-1.561,0-3.123,0-4.684,0-.861,0-1.13-.271-1.132-1.144q-.006-3.855,0-7.709c0-.861.283-1.133,1.146-1.134,1.187,0,2.375.011,3.562-.007a1.192,1.192,0,0,1,1.078.445A2.913,2.913,0,0,0,16.3,12.513a12.752,12.752,0,0,1,1.8-.013c.742.006,1.056.3,1.058,1.027q.01,3.147,0,6.293c0,.7-.309,1-1.025,1-1.61.007-3.22,0-4.83,0m4.154-1.686V14.163c-.576,0-1.112.007-1.648,0-2.461-.041-1.624.315-3.379-1.375-.113-.108-.252-.267-.382-.27C11.1,12.493,10.143,12.5,9.2,12.5v6.635Z" fill="#00defc"/>
    <path id="Trazado_137419" data-name="Trazado 137419" d="M39.962,20.825c-1.561,0-3.122,0-4.684,0-.845,0-1.118-.264-1.12-1.1q-.008-3.879,0-7.757c0-.865.275-1.126,1.149-1.127,1.187,0,2.375.011,3.562-.007a1.2,1.2,0,0,1,1.076.451,2.887,2.887,0,0,0,2.976,1.234,12.812,12.812,0,0,1,1.95-.012.848.848,0,0,1,.949.933q.017,3.221,0,6.44c0,.64-.319.942-.98.946-1.626.009-3.253,0-4.879,0m-4.1-1.708h8.277V14.163c-.638,0-1.252.008-1.865,0-2.179-.033-1.475.272-3.076-1.281-.138-.133-.289-.352-.44-.357-.966-.033-1.934-.017-2.925-.017,0,2.169,0,4.267,0,6.365a2.142,2.142,0,0,0,.028.245" fill="#00defc"/>
    <path id="Trazado_137420" data-name="Trazado 137420" d="M26.636,20.825q-2.341,0-4.684,0c-.862,0-1.125-.272-1.126-1.145q0-3.854,0-7.708c0-.864.273-1.134,1.141-1.135,1.187,0,2.374.011,3.561-.007a1.188,1.188,0,0,1,1.077.449,2.914,2.914,0,0,0,3.024,1.235,12.69,12.69,0,0,1,1.9-.011c.626.011.944.3.948.926q.02,3.244,0,6.488c0,.635-.323.9-1.011.906-1.61.007-3.22,0-4.83,0m4.138-1.688V14.162c-.577,0-1.113.008-1.647,0-2.446-.04-1.616.309-3.376-1.384-.113-.108-.253-.26-.383-.263-.952-.023-1.9-.013-2.843-.013v6.636Z" fill="#00defc"/>
    <path id="Trazado_137421" data-name="Trazado 137421" d="M28.356,34.134V32.513H30.78V27.5c-.852,0-1.7-.043-2.531.013a1.952,1.952,0,0,1-1.87-.793,2.046,2.046,0,0,0-2.14-.9,5.756,5.756,0,0,1-.866.007V24.2c.864,0,1.723-.035,2.576.021a1.127,1.127,0,0,1,.71.452,2.812,2.812,0,0,0,2.864,1.177,13.639,13.639,0,0,1,1.95-.011c.719.015,1.006.3,1.009,1.015q.014,3.149,0,6.3c0,.71-.31,1.014-1.011,1.021-.976.01-1.952,0-2.928,0a1.376,1.376,0,0,1-.187-.033" fill="#00defc"/>
    <rect id="Rectángulo_35455" data-name="Rectángulo 35455" width="1.58" height="1.618" transform="translate(7.519 3.35)" fill="#00defc"/>
    <rect id="Rectángulo_35456" data-name="Rectángulo 35456" width="1.597" height="1.6" transform="translate(10.863 3.355)" fill="#00defc"/>
    <rect id="Rectángulo_35457" data-name="Rectángulo 35457" width="1.593" height="1.602" transform="translate(14.208 3.362)" fill="#00defc"/>
    <path id="Trazado_137422" data-name="Trazado 137422" d="M7.493,36.665a5.834,5.834,0,1,1,5.848,5.822,5.83,5.83,0,0,1-5.848-5.822M9.174,36.6a4.153,4.153,0,1,0,4.264-4.089A4.16,4.16,0,0,0,9.174,36.6" fill="#00defc"/>
  </g>
</svg>
