<svg xmlns="http://www.w3.org/2000/svg" xmlns:xlink="http://www.w3.org/1999/xlink" width="445" height="145.99" viewBox="0 0 445 145.99">
  <defs>
    <clipPath id="clip-path">
      <rect id="Rectángulo_297749" data-name="Rectángulo 297749" width="445" height="145.99" fill="none"/>
    </clipPath>
  </defs>
  <g id="Grupo_176092" data-name="Grupo 176092" transform="translate(5952.33 8987.738)">
    <g id="Grupo_174280" data-name="Grupo 174280" transform="translate(-5952.33 -8987.738)">
      <g id="Grupo_174281" data-name="Grupo 174281" transform="translate(0 0)" clip-path="url(#clip-path)">
        <path id="Trazado_207508" data-name="Trazado 207508" d="M52.041,121.428a52.054,52.054,0,1,1,36.8-88.838L87.7,33.726a50.488,50.488,0,1,0,14.772,35.661v-.8h22.267v1.608H104.076a52,52,0,0,1-52.035,51.237" transform="translate(0 4.236)" fill="#084a93"/>
        <path id="Trazado_207509" data-name="Trazado 207509" d="M96.194,67.037,95.1,65.86l5.805-5.395-5.805-5.4,1.1-1.178,7.07,6.574Z" transform="translate(23.223 13.16)" fill="#084a93"/>
        <path id="Trazado_207510" data-name="Trazado 207510" d="M308.041,121.428a52.054,52.054,0,1,1,36.8-88.838L343.7,33.726a50.488,50.488,0,1,0,14.772,35.661v-.8h22.267v1.608H360.076a52,52,0,0,1-52.035,51.237" transform="translate(62.515 4.236)" fill="#084a93"/>
        <path id="Trazado_207511" data-name="Trazado 207511" d="M352.194,67.037l-1.1-1.177,5.805-5.395-5.805-5.4,1.1-1.178,7.07,6.574Z" transform="translate(85.737 13.16)" fill="#084a93"/>
        <path id="Trazado_207512" data-name="Trazado 207512" d="M181,145.99A73.015,73.015,0,0,1,152.582,5.736a72.933,72.933,0,0,1,80.029,15.643l-1.594,1.6a70.816,70.816,0,1,0,20.72,50.02V71.867h31.234v2.254H253.983A72.935,72.935,0,0,1,181,145.99" transform="translate(26.373 0)" fill="#084a93"/>
        <path id="Trazado_207513" data-name="Trazado 207513" d="M242.928,69.7l-1.538-1.651,8.143-7.567-8.143-7.57,1.538-1.651,9.915,9.221Z" transform="translate(58.947 12.517)" fill="#084a93"/>
        <path id="Trazado_207514" data-name="Trazado 207514" d="M248.458,72.431A68.431,68.431,0,1,1,180.027,4a68.43,68.43,0,0,1,68.431,68.431" transform="translate(27.252 0.977)" fill="#b9ddfc"/>
        <g id="Grupo_176093" data-name="Grupo 176093">
          <path id="Trazado_207515" data-name="Trazado 207515" d="M133.3,81.182a14.288,14.288,0,1,1,14.288-14.288A14.3,14.3,0,0,1,133.3,81.182m0-27.448a13.16,13.16,0,1,0,13.16,13.16,13.175,13.175,0,0,0-13.16-13.16" transform="translate(29.063 12.846)" fill="#12263f"/>
          <path id="Trazado_207516" data-name="Trazado 207516" d="M207.65,76.2a14.288,14.288,0,1,1,14.288-14.288A14.3,14.3,0,0,1,207.65,76.2m0-27.448a13.16,13.16,0,1,0,13.16,13.16,13.174,13.174,0,0,0-13.16-13.16" transform="translate(47.219 11.629)" fill="#12263f"/>
          <path id="Trazado_207517" data-name="Trazado 207517" d="M148.977,26.59l-1.087-.3c.016-.061,1.767-6.1,9.191-6.1h18.7v1.128h-18.7c-6.574,0-8.089,5.218-8.1,5.27" transform="translate(36.114 4.931)" fill="#12263f"/>
          <path id="Trazado_207518" data-name="Trazado 207518" d="M167.455,26.163l-.769-.826,4.074-3.786-4.074-3.789.769-.826,4.962,4.615Z" transform="translate(40.705 4.136)" fill="#12263f"/>
          <path id="Trazado_207519" data-name="Trazado 207519" d="M202.47,51.429h-1.128v-18.7c0-6.576-5.217-8.09-5.27-8.1l.3-1.086c.061.016,6.1,1.766,6.1,9.191Z" transform="translate(47.88 5.748)" fill="#12263f"/>
          <path id="Trazado_207520" data-name="Trazado 207520" d="M197.052,43.1l.826-.769,3.786,4.074,3.789-4.074.826.769-4.615,4.962Z" transform="translate(48.12 10.338)" fill="#12263f"/>
          <path id="Trazado_207521" data-name="Trazado 207521" d="M167.434,51.429h-1.128v-18.7c0-7.425,6.038-9.175,6.1-9.191l.3,1.086c-.215.061-5.272,1.559-5.272,8.1Z" transform="translate(40.611 5.748)" fill="#12263f"/>
          <path id="Trazado_207522" data-name="Trazado 207522" d="M163.05,43.1l.826-.769,3.786,4.074,3.789-4.074.826.769-4.615,4.962Z" transform="translate(39.816 10.338)" fill="#12263f"/>
          <path id="Trazado_207523" data-name="Trazado 207523" d="M124.364,57.776h-1.128v-18.7c0-7.425,6.038-9.175,6.1-9.191l.3,1.086c-.215.061-5.272,1.559-5.272,8.1Z" transform="translate(30.094 7.298)" fill="#12263f"/>
          <path id="Trazado_207524" data-name="Trazado 207524" d="M119.982,49.449l.826-.769,3.786,4.074,3.789-4.074.826.769-4.615,4.962Z" transform="translate(29.299 11.888)" fill="#12263f"/>
          <path id="Trazado_207525" data-name="Trazado 207525" d="M167.622,77.663h-18.7c-7.425,0-9.175-6.038-9.191-6.1l1.086-.3c.061.215,1.559,5.272,8.1,5.272h18.7Z" transform="translate(34.122 17.402)" fill="#12263f"/>
          <path id="Trazado_207526" data-name="Trazado 207526" d="M159.3,81.473l-.769-.826L162.6,76.86l-4.074-3.789.769-.826,4.962,4.615Z" transform="translate(38.712 17.643)" fill="#12263f"/>
          <path id="Trazado_207527" data-name="Trazado 207527" d="M203.891,77.663h-18.7c-7.425,0-9.175-6.038-9.191-6.1l1.086-.3c.061.215,1.559,5.272,8.1,5.272h18.7Z" transform="translate(42.979 17.402)" fill="#12263f"/>
          <path id="Trazado_207528" data-name="Trazado 207528" d="M195.563,81.473l-.769-.826,4.073-3.786-4.073-3.789.769-.826,4.962,4.615Z" transform="translate(47.568 17.643)" fill="#12263f"/>
          <path id="Trazado_207529" data-name="Trazado 207529" d="M195.6,63.644h-9.327a5.931,5.931,0,0,1-5.947-3.966l1.087-.3-.544.149.542-.152a4.745,4.745,0,0,0,4.861,3.14H195.6Z" transform="translate(44.035 14.499)" fill="#12263f"/>
          <path id="Trazado_207530" data-name="Trazado 207530" d="M190.783,66.371l-.546-.587,2.893-2.687-2.893-2.69.546-.586L194.3,63.1Z" transform="translate(46.455 14.608)" fill="#12263f"/>
          <path id="Trazado_207531" data-name="Trazado 207531" d="M157.918,56.817l-8-6.533a5.555,5.555,0,0,1-1.614-6.577l1.017.488-.509-.244.51.243a4.361,4.361,0,0,0,1.309,5.217l8,6.533Z" transform="translate(36.1 10.673)" fill="#12263f"/>
          <path id="Trazado_207532" data-name="Trazado 207532" d="M152.917,55.58l-.052-.8,3.942-.254-.541-3.912.794-.109.658,4.765Z" transform="translate(37.33 12.333)" fill="#12263f"/>
          <path id="Trazado_207533" data-name="Trazado 207533" d="M159.645,28.811c0-.01,0-.017,0-.026a.576.576,0,0,0-.019-.123.417.417,0,0,0-.02-.05.507.507,0,0,0-.04-.088c-.01-.016-.024-.031-.035-.047a.778.778,0,0,0-.058-.068.491.491,0,0,0-.049-.04c-.015-.012-.029-.026-.045-.037l-.031-.014c-.007,0-.014-.011-.022-.015l-15.372-7.4a.568.568,0,0,0-.509.009l-14.234,7.4-.017.012-.02.009c-.02.012-.034.029-.052.042s-.034.025-.048.04a.586.586,0,0,0-.057.07c-.011.016-.025.031-.035.047a.712.712,0,0,0-.041.1c-.005.015-.012.027-.016.042a.564.564,0,0,0-.02.147V47.033a.569.569,0,0,0,.315.509l14.8,7.4c.007,0,.017,0,.026.006a.565.565,0,0,0,.228.054.571.571,0,0,0,.229-.054c.007,0,.017,0,.026-.006l14.8-7.4a.569.569,0,0,0,.315-.509V28.812ZM143.713,22.05l14.071,6.775-13.511,6.755L130.724,28.8Zm-13.674,7.685L143.7,36.567V53.513l-13.665-6.832Zm28.467,16.946-13.664,6.832V36.567l13.664-6.832Z" transform="translate(31.478 5.09)" fill="#12263f"/>
          <path id="Trazado_207534" data-name="Trazado 207534" d="M186.393,56.012c0-.01,0-.017,0-.026a.578.578,0,0,0-.019-.123.419.419,0,0,0-.02-.05.507.507,0,0,0-.04-.088c-.01-.016-.024-.031-.035-.047a.768.768,0,0,0-.058-.068.487.487,0,0,0-.049-.04c-.015-.012-.029-.026-.045-.037l-.031-.014c-.007,0-.014-.011-.022-.015L170.7,48.1a.568.568,0,0,0-.509.009l-14.234,7.4-.017.012-.02.009c-.02.012-.034.029-.052.042s-.034.025-.049.04a.587.587,0,0,0-.057.07c-.011.016-.025.031-.035.047a.716.716,0,0,0-.041.1c0,.015-.012.027-.016.042a.565.565,0,0,0-.02.147V74.234a.569.569,0,0,0,.315.509l14.8,7.4c.007,0,.017,0,.026.006a.565.565,0,0,0,.228.053.571.571,0,0,0,.229-.053c.009,0,.017,0,.026-.006l14.8-7.4a.569.569,0,0,0,.315-.509V56.013Zm-15.932-6.761,14.071,6.775L171.021,62.78l-13.549-6.775Zm-13.674,7.685,13.665,6.832V80.714l-13.665-6.832Zm28.467,16.946-13.664,6.832V63.768l13.664-6.832Z" transform="translate(38.009 11.732)" fill="#12263f"/>
          <path id="Trazado_207535" data-name="Trazado 207535" d="M186.331,44.416A14.288,14.288,0,1,1,200.62,30.127a14.3,14.3,0,0,1-14.288,14.288m0-27.448a13.16,13.16,0,1,0,13.16,13.16,13.175,13.175,0,0,0-13.16-13.16" transform="translate(42.013 3.868)" fill="#12263f"/>
        </g>
      </g>
    </g>
    <path id="Trazado_208873" data-name="Trazado 208873" d="M24.035,6.3H21.293L19.96,14H18.1l1.333-7.7h-2.71L17,4.758h7.313Zm2.92,7.827a2.988,2.988,0,0,1-1.6-.441,2.675,2.675,0,0,1-1.038-1.193,3.326,3.326,0,0,1-.267-1.673l.019-.254a4.44,4.44,0,0,1,.584-1.841,3.527,3.527,0,0,1,1.257-1.292A3.11,3.11,0,0,1,27.615,7a2.376,2.376,0,0,1,2.009.976,3.345,3.345,0,0,1,.517,2.406l-.1.782H25.832a1.474,1.474,0,0,0,.324,1.066,1.236,1.236,0,0,0,.952.413,2.2,2.2,0,0,0,1.714-.762L29.64,12.9a2.547,2.547,0,0,1-1.117.911A3.653,3.653,0,0,1,26.955,14.127Zm.571-5.643a1.272,1.272,0,0,0-.879.311,2.733,2.733,0,0,0-.689,1.124h2.463l.038-.165a1.682,1.682,0,0,0,.006-.482.921.921,0,0,0-.311-.574A.975.975,0,0,0,27.526,8.484Zm7.027,3.58q.1-.508-.7-.736l-.578-.146q-2.05-.565-1.993-1.993a1.972,1.972,0,0,1,.86-1.584,3.2,3.2,0,0,1,2-.6,2.873,2.873,0,0,1,1.879.616,2.028,2.028,0,0,1,.73,1.606L34.966,9.22a.783.783,0,0,0-.876-.9,1.261,1.261,0,0,0-.727.209.862.862,0,0,0-.378.565q-.1.508.768.717l.254.057a5.107,5.107,0,0,1,1.339.479,2.021,2.021,0,0,1,.714.67,1.657,1.657,0,0,1,.232.958,1.829,1.829,0,0,1-.422,1.143,2.584,2.584,0,0,1-1.1.755,3.848,3.848,0,0,1-1.476.248,2.9,2.9,0,0,1-1.9-.657,2.118,2.118,0,0,1-.774-1.666l1.688.013a.928.928,0,0,0,1.054,1,1.5,1.5,0,0,0,.816-.2A.8.8,0,0,0,34.553,12.064Zm6.2-6.621-.3,1.688h1.143l-.235,1.346H40.215l-.584,3.44a.875.875,0,0,0,.051.5q.089.171.432.184.1.006.546-.032l-.127,1.4a3.011,3.011,0,0,1-1.028.146,1.613,1.613,0,0,1-1.314-.552,2,2,0,0,1-.355-1.46l.59-3.625h-.971l.235-1.346h.971l.292-1.688Zm11.546,5.472a3.456,3.456,0,0,1-.654,1.7,3.554,3.554,0,0,1-1.422,1.136,4.33,4.33,0,0,1-1.892.378,3.2,3.2,0,0,1-1.593-.422,2.8,2.8,0,0,1-1.07-1.168,4.316,4.316,0,0,1-.441-1.761,8.64,8.64,0,0,1,.162-1.942,6.157,6.157,0,0,1,.736-2.063,4.6,4.6,0,0,1,1.26-1.428,3.8,3.8,0,0,1,2.349-.711,3.119,3.119,0,0,1,2.276.885,3.562,3.562,0,0,1,.924,2.39L51.076,7.9a1.943,1.943,0,0,0-.349-1.282,1.424,1.424,0,0,0-1.085-.432,1.884,1.884,0,0,0-1.565.679,4.085,4.085,0,0,0-.822,2.076,11.5,11.5,0,0,0-.178,1.987,1.978,1.978,0,0,0,.375,1.235,1.254,1.254,0,0,0,.958.416,1.914,1.914,0,0,0,1.362-.4,2.133,2.133,0,0,0,.676-1.247ZM56.935,14a1.853,1.853,0,0,1-.07-.622,2.326,2.326,0,0,1-1.752.749,2.108,2.108,0,0,1-1.495-.587,1.776,1.776,0,0,1-.555-1.419,2.053,2.053,0,0,1,.943-1.723,4.279,4.279,0,0,1,2.409-.6l.838.013.089-.413A1.433,1.433,0,0,0,57.36,9a.687.687,0,0,0-.225-.467.776.776,0,0,0-.511-.175,1.093,1.093,0,0,0-.711.206,1,1,0,0,0-.375.632l-1.8.006a2,2,0,0,1,.9-1.6A3.5,3.5,0,0,1,56.77,7a2.533,2.533,0,0,1,1.828.7,2.033,2.033,0,0,1,.552,1.723l-.527,3.288-.032.406a1.96,1.96,0,0,0,.108.762L58.693,14Zm-1.377-1.263a1.639,1.639,0,0,0,1.352-.673l.222-1.187-.622-.006a1.738,1.738,0,0,0-1.428.6,1.05,1.05,0,0,0-.2.514.609.609,0,0,0,.143.543A.724.724,0,0,0,55.558,12.737Zm8.208-.673q.1-.508-.7-.736l-.578-.146q-2.05-.565-1.993-1.993A1.972,1.972,0,0,1,61.35,7.6a3.2,3.2,0,0,1,2-.6,2.873,2.873,0,0,1,1.879.616,2.028,2.028,0,0,1,.73,1.606L64.178,9.22a.783.783,0,0,0-.876-.9,1.261,1.261,0,0,0-.727.209A.862.862,0,0,0,62.2,9.1q-.1.508.768.717l.254.057a5.107,5.107,0,0,1,1.339.479,2.021,2.021,0,0,1,.714.67,1.657,1.657,0,0,1,.232.958,1.829,1.829,0,0,1-.422,1.143,2.584,2.584,0,0,1-1.1.755,3.848,3.848,0,0,1-1.476.248,2.9,2.9,0,0,1-1.9-.657,2.118,2.118,0,0,1-.774-1.666l1.688.013a.928.928,0,0,0,1.054,1,1.5,1.5,0,0,0,.816-.2A.8.8,0,0,0,63.765,12.064Zm5.827,2.063a2.988,2.988,0,0,1-1.6-.441,2.675,2.675,0,0,1-1.038-1.193,3.326,3.326,0,0,1-.267-1.673l.019-.254a4.44,4.44,0,0,1,.584-1.841,3.527,3.527,0,0,1,1.257-1.292A3.11,3.11,0,0,1,70.252,7a2.376,2.376,0,0,1,2.009.976,3.345,3.345,0,0,1,.517,2.406l-.1.782H68.469a1.474,1.474,0,0,0,.324,1.066,1.236,1.236,0,0,0,.952.413,2.2,2.2,0,0,0,1.714-.762l.819,1.016a2.547,2.547,0,0,1-1.117.911A3.653,3.653,0,0,1,69.592,14.127Zm.571-5.643a1.272,1.272,0,0,0-.879.311A2.733,2.733,0,0,0,68.6,9.918h2.463l.038-.165a1.683,1.683,0,0,0,.006-.482.921.921,0,0,0-.311-.574A.975.975,0,0,0,70.164,8.484ZM29.951,29h-1.86l1.6-9.242h1.86Zm4.5-6.875-.146.781a2.529,2.529,0,0,1,2.012-.9,1.933,1.933,0,0,1,1.054.292,1.364,1.364,0,0,1,.565.755A2.645,2.645,0,0,1,40.069,22a1.727,1.727,0,0,1,1.425.647,2.658,2.658,0,0,1,.4,1.815l-.013.159L41.155,29h-1.8l.73-4.391a3.176,3.176,0,0,0,.019-.438.68.68,0,0,0-.762-.686,1.511,1.511,0,0,0-1.263.788l-.019.146L37.264,29h-1.79l.73-4.374a3.168,3.168,0,0,0,.019-.438.679.679,0,0,0-.755-.692,1.517,1.517,0,0,0-1.225.641L33.385,29H31.6l1.187-6.868Zm14.72,3.459a5.672,5.672,0,0,1-.565,1.917,3.108,3.108,0,0,1-1.073,1.244,2.485,2.485,0,0,1-1.422.387,1.983,1.983,0,0,1-1.574-.743l-.628,3.25H42.12l1.644-9.509,1.65-.006-.121.692A2.193,2.193,0,0,1,47.045,22a1.951,1.951,0,0,1,1.568.733,3.187,3.187,0,0,1,.6,1.92A7.42,7.42,0,0,1,49.172,25.585Zm-1.777-.13.038-.61a1.7,1.7,0,0,0-.225-.979.809.809,0,0,0-.7-.375,1.477,1.477,0,0,0-1.289.661l-.514,2.835a1,1,0,0,0,1.009.667,1.292,1.292,0,0,0,1.079-.5A3.44,3.44,0,0,0,47.395,25.455Zm6.6,2.834a2.371,2.371,0,0,1-1.892.838,1.765,1.765,0,0,1-1.5-.711,2.6,2.6,0,0,1-.394-1.841l.743-4.443h1.79L51.984,26.6a1.767,1.767,0,0,0-.006.394.653.653,0,0,0,.7.655,1.636,1.636,0,0,0,1.377-.642l.857-4.874h1.8L55.526,29H53.856Zm6.5-7.846-.3,1.688h1.143L61.1,23.478H59.957l-.584,3.44a.875.875,0,0,0,.051.5q.089.171.432.184.1.006.546-.032l-.127,1.4a3.011,3.011,0,0,1-1.028.146,1.613,1.613,0,0,1-1.314-.552,2,2,0,0,1-.355-1.46l.59-3.625H57.2l.235-1.346H58.4l.292-1.688Z" transform="translate(-5944.33 -8931.692)" fill="#12263f"/>
    <path id="Trazado_208875" data-name="Trazado 208875" d="M24.035,6.3H21.293L19.96,14H18.1l1.333-7.7h-2.71L17,4.758h7.313Zm2.92,7.827a2.988,2.988,0,0,1-1.6-.441,2.675,2.675,0,0,1-1.038-1.193,3.326,3.326,0,0,1-.267-1.673l.019-.254a4.44,4.44,0,0,1,.584-1.841,3.527,3.527,0,0,1,1.257-1.292A3.11,3.11,0,0,1,27.615,7a2.376,2.376,0,0,1,2.009.976,3.345,3.345,0,0,1,.517,2.406l-.1.782H25.832a1.474,1.474,0,0,0,.324,1.066,1.236,1.236,0,0,0,.952.413,2.2,2.2,0,0,0,1.714-.762L29.64,12.9a2.547,2.547,0,0,1-1.117.911A3.653,3.653,0,0,1,26.955,14.127Zm.571-5.643a1.272,1.272,0,0,0-.879.311,2.733,2.733,0,0,0-.689,1.124h2.463l.038-.165a1.682,1.682,0,0,0,.006-.482.921.921,0,0,0-.311-.574A.975.975,0,0,0,27.526,8.484Zm7.027,3.58q.1-.508-.7-.736l-.578-.146q-2.05-.565-1.993-1.993a1.972,1.972,0,0,1,.86-1.584,3.2,3.2,0,0,1,2-.6,2.873,2.873,0,0,1,1.879.616,2.028,2.028,0,0,1,.73,1.606L34.966,9.22a.783.783,0,0,0-.876-.9,1.261,1.261,0,0,0-.727.209.862.862,0,0,0-.378.565q-.1.508.768.717l.254.057a5.107,5.107,0,0,1,1.339.479,2.021,2.021,0,0,1,.714.67,1.657,1.657,0,0,1,.232.958,1.829,1.829,0,0,1-.422,1.143,2.584,2.584,0,0,1-1.1.755,3.848,3.848,0,0,1-1.476.248,2.9,2.9,0,0,1-1.9-.657,2.118,2.118,0,0,1-.774-1.666l1.688.013a.928.928,0,0,0,1.054,1,1.5,1.5,0,0,0,.816-.2A.8.8,0,0,0,34.553,12.064Zm6.2-6.621-.3,1.688h1.143l-.235,1.346H40.215l-.584,3.44a.875.875,0,0,0,.051.5q.089.171.432.184.1.006.546-.032l-.127,1.4a3.011,3.011,0,0,1-1.028.146,1.613,1.613,0,0,1-1.314-.552,2,2,0,0,1-.355-1.46l.59-3.625h-.971l.235-1.346h.971l.292-1.688Zm11.546,5.472a3.456,3.456,0,0,1-.654,1.7,3.554,3.554,0,0,1-1.422,1.136,4.33,4.33,0,0,1-1.892.378,3.2,3.2,0,0,1-1.593-.422,2.8,2.8,0,0,1-1.07-1.168,4.316,4.316,0,0,1-.441-1.761,8.64,8.64,0,0,1,.162-1.942,6.157,6.157,0,0,1,.736-2.063,4.6,4.6,0,0,1,1.26-1.428,3.8,3.8,0,0,1,2.349-.711,3.119,3.119,0,0,1,2.276.885,3.562,3.562,0,0,1,.924,2.39L51.076,7.9a1.943,1.943,0,0,0-.349-1.282,1.424,1.424,0,0,0-1.085-.432,1.884,1.884,0,0,0-1.565.679,4.085,4.085,0,0,0-.822,2.076,11.5,11.5,0,0,0-.178,1.987,1.978,1.978,0,0,0,.375,1.235,1.254,1.254,0,0,0,.958.416,1.914,1.914,0,0,0,1.362-.4,2.133,2.133,0,0,0,.676-1.247ZM56.935,14a1.853,1.853,0,0,1-.07-.622,2.326,2.326,0,0,1-1.752.749,2.108,2.108,0,0,1-1.495-.587,1.776,1.776,0,0,1-.555-1.419,2.053,2.053,0,0,1,.943-1.723,4.279,4.279,0,0,1,2.409-.6l.838.013.089-.413A1.433,1.433,0,0,0,57.36,9a.687.687,0,0,0-.225-.467.776.776,0,0,0-.511-.175,1.093,1.093,0,0,0-.711.206,1,1,0,0,0-.375.632l-1.8.006a2,2,0,0,1,.9-1.6A3.5,3.5,0,0,1,56.77,7a2.533,2.533,0,0,1,1.828.7,2.033,2.033,0,0,1,.552,1.723l-.527,3.288-.032.406a1.96,1.96,0,0,0,.108.762L58.693,14Zm-1.377-1.263a1.639,1.639,0,0,0,1.352-.673l.222-1.187-.622-.006a1.738,1.738,0,0,0-1.428.6,1.05,1.05,0,0,0-.2.514.609.609,0,0,0,.143.543A.724.724,0,0,0,55.558,12.737Zm8.208-.673q.1-.508-.7-.736l-.578-.146q-2.05-.565-1.993-1.993A1.972,1.972,0,0,1,61.35,7.6a3.2,3.2,0,0,1,2-.6,2.873,2.873,0,0,1,1.879.616,2.028,2.028,0,0,1,.73,1.606L64.178,9.22a.783.783,0,0,0-.876-.9,1.261,1.261,0,0,0-.727.209A.862.862,0,0,0,62.2,9.1q-.1.508.768.717l.254.057a5.107,5.107,0,0,1,1.339.479,2.021,2.021,0,0,1,.714.67,1.657,1.657,0,0,1,.232.958,1.829,1.829,0,0,1-.422,1.143,2.584,2.584,0,0,1-1.1.755,3.848,3.848,0,0,1-1.476.248,2.9,2.9,0,0,1-1.9-.657,2.118,2.118,0,0,1-.774-1.666l1.688.013a.928.928,0,0,0,1.054,1,1.5,1.5,0,0,0,.816-.2A.8.8,0,0,0,63.765,12.064Zm5.827,2.063a2.988,2.988,0,0,1-1.6-.441,2.675,2.675,0,0,1-1.038-1.193,3.326,3.326,0,0,1-.267-1.673l.019-.254a4.44,4.44,0,0,1,.584-1.841,3.527,3.527,0,0,1,1.257-1.292A3.11,3.11,0,0,1,70.252,7a2.376,2.376,0,0,1,2.009.976,3.345,3.345,0,0,1,.517,2.406l-.1.782H68.469a1.474,1.474,0,0,0,.324,1.066,1.236,1.236,0,0,0,.952.413,2.2,2.2,0,0,0,1.714-.762l.819,1.016a2.547,2.547,0,0,1-1.117.911A3.653,3.653,0,0,1,69.592,14.127Zm.571-5.643a1.272,1.272,0,0,0-.879.311A2.733,2.733,0,0,0,68.6,9.918h2.463l.038-.165a1.683,1.683,0,0,0,.006-.482.921.921,0,0,0-.311-.574A.975.975,0,0,0,70.164,8.484ZM28.936,29.127a3.256,3.256,0,0,1-1.622-.435,2.935,2.935,0,0,1-1.111-1.2,4.443,4.443,0,0,1-.473-1.8,7.234,7.234,0,0,1,.222-2.222,5.929,5.929,0,0,1,.939-2.076,4.27,4.27,0,0,1,1.52-1.339,3.935,3.935,0,0,1,1.888-.425,3.223,3.223,0,0,1,1.631.441,2.914,2.914,0,0,1,1.1,1.212,4.5,4.5,0,0,1,.457,1.793,7.466,7.466,0,0,1-.241,2.3,5.831,5.831,0,0,1-.946,2.044,4.238,4.238,0,0,1-1.5,1.295A3.925,3.925,0,0,1,28.936,29.127Zm2.634-5,.051-.6a2.946,2.946,0,0,0-.3-1.714,1.273,1.273,0,0,0-1.108-.609,2.009,2.009,0,0,0-1.844,1.028A6.057,6.057,0,0,0,27.6,25.21a3.056,3.056,0,0,0,.3,1.73,1.27,1.27,0,0,0,1.124.632,1.905,1.905,0,0,0,1.65-.778,4.7,4.7,0,0,0,.857-2.326Zm6.563,4.164a2.371,2.371,0,0,1-1.892.838,1.765,1.765,0,0,1-1.5-.711,2.6,2.6,0,0,1-.394-1.841l.743-4.443h1.79L36.127,26.6a1.767,1.767,0,0,0-.006.394.653.653,0,0,0,.7.655,1.636,1.636,0,0,0,1.377-.642l.857-4.874h1.8L39.669,29H38Zm6.5-7.846-.3,1.688h1.143l-.235,1.346H44.1l-.584,3.44a.875.875,0,0,0,.051.5q.089.171.432.184.1.006.546-.032l-.127,1.4a3.011,3.011,0,0,1-1.028.146,1.613,1.613,0,0,1-1.314-.552,2,2,0,0,1-.355-1.46l.59-3.625h-.971l.235-1.346h.971l.292-1.688Zm7.287,5.142a5.672,5.672,0,0,1-.565,1.917,3.108,3.108,0,0,1-1.073,1.244,2.485,2.485,0,0,1-1.422.387,1.983,1.983,0,0,1-1.574-.743l-.628,3.25h-1.79l1.644-9.509,1.65-.006-.121.692A2.193,2.193,0,0,1,49.794,22a1.951,1.951,0,0,1,1.568.733,3.187,3.187,0,0,1,.6,1.92A7.42,7.42,0,0,1,51.92,25.585Zm-1.777-.13.038-.61a1.7,1.7,0,0,0-.225-.979.809.809,0,0,0-.7-.375,1.477,1.477,0,0,0-1.289.661l-.514,2.835a1,1,0,0,0,1.009.667,1.292,1.292,0,0,0,1.079-.5A3.44,3.44,0,0,0,50.143,25.455Zm6.6,2.834a2.371,2.371,0,0,1-1.892.838,1.765,1.765,0,0,1-1.5-.711,2.6,2.6,0,0,1-.394-1.841l.743-4.443h1.79L54.732,26.6a1.767,1.767,0,0,0-.006.394.653.653,0,0,0,.7.655,1.636,1.636,0,0,0,1.377-.642l.857-4.874h1.8L58.274,29H56.6Zm6.5-7.846-.3,1.688h1.143l-.235,1.346H62.705l-.584,3.44a.875.875,0,0,0,.051.5q.089.171.432.184.1.006.546-.032l-.127,1.4a3.011,3.011,0,0,1-1.028.146,1.613,1.613,0,0,1-1.314-.552,2,2,0,0,1-.355-1.46l.59-3.625h-.971l.235-1.346h.971l.292-1.688Z" transform="translate(-5625.33 -8931.692)" fill="#12263f"/>
    <path id="Trazado_208874" data-name="Trazado 208874" d="M19.465,12.1H16.241L15.289,14h-2.05l4.938-9.242H19.9L21.655,14h-1.9ZM17,10.553H19.23l-.521-3.44Zm12.061.032A5.672,5.672,0,0,1,28.5,12.5a3.108,3.108,0,0,1-1.073,1.244A2.485,2.485,0,0,1,26,14.133a1.983,1.983,0,0,1-1.574-.743l-.628,3.25h-1.79l1.644-9.509,1.65-.006-.121.692A2.193,2.193,0,0,1,26.937,7a1.951,1.951,0,0,1,1.568.733,3.187,3.187,0,0,1,.6,1.92A7.42,7.42,0,0,1,29.063,10.585Zm-1.777-.13.038-.61a1.7,1.7,0,0,0-.225-.979.809.809,0,0,0-.7-.375,1.477,1.477,0,0,0-1.289.661L24.6,11.987a1,1,0,0,0,1.009.667,1.292,1.292,0,0,0,1.079-.5A3.44,3.44,0,0,0,27.286,10.455Zm8.938.13a5.672,5.672,0,0,1-.565,1.917,3.108,3.108,0,0,1-1.073,1.244,2.485,2.485,0,0,1-1.422.387,1.983,1.983,0,0,1-1.574-.743l-.628,3.25h-1.79l1.644-9.509,1.65-.006-.121.692A2.193,2.193,0,0,1,34.1,7a1.951,1.951,0,0,1,1.568.733,3.187,3.187,0,0,1,.6,1.92A7.42,7.42,0,0,1,36.223,10.585Zm-1.777-.13.038-.61a1.7,1.7,0,0,0-.225-.979.809.809,0,0,0-.7-.375,1.477,1.477,0,0,0-1.289.661l-.514,2.835a1,1,0,0,0,1.009.667,1.292,1.292,0,0,0,1.079-.5A3.44,3.44,0,0,0,34.446,10.455ZM38.68,14h-1.8l1.695-9.75h1.8Zm3.409,0h-1.8l1.193-6.868h1.8Zm-.4-8.614a.894.894,0,0,1,.279-.7,1.075,1.075,0,0,1,1.409-.032.89.89,0,0,1,.311.673.919.919,0,0,1-.263.686.987.987,0,0,1-.72.3,1,1,0,0,1-.7-.241A.886.886,0,0,1,41.688,5.386Zm4.926,7.268a1.176,1.176,0,0,0,.825-.27,1.326,1.326,0,0,0,.432-.752l1.682-.006a2.467,2.467,0,0,1-.454,1.3,2.757,2.757,0,0,1-1.092.9,3.125,3.125,0,0,1-1.438.3,2.538,2.538,0,0,1-1.98-.863,3.222,3.222,0,0,1-.7-2.247l.019-.349.006-.07a4.294,4.294,0,0,1,1.13-2.656A3.056,3.056,0,0,1,47.408,7a2.476,2.476,0,0,1,1.844.759,2.679,2.679,0,0,1,.67,1.933H48.252a1.406,1.406,0,0,0-.241-.87.916.916,0,0,0-.724-.343Q46,8.446,45.732,10.356a6.323,6.323,0,0,0-.07,1.168Q45.726,12.635,46.614,12.654ZM54.219,14a1.853,1.853,0,0,1-.07-.622,2.326,2.326,0,0,1-1.752.749A2.108,2.108,0,0,1,50.9,13.54a1.776,1.776,0,0,1-.555-1.419,2.053,2.053,0,0,1,.943-1.723A4.279,4.279,0,0,1,53.7,9.8l.838.013.089-.413a1.433,1.433,0,0,0,.019-.4.687.687,0,0,0-.225-.467.776.776,0,0,0-.511-.175,1.093,1.093,0,0,0-.711.206,1,1,0,0,0-.375.632l-1.8.006a2,2,0,0,1,.9-1.6A3.5,3.5,0,0,1,54.054,7a2.533,2.533,0,0,1,1.828.7,2.033,2.033,0,0,1,.552,1.723l-.527,3.288-.032.406a1.96,1.96,0,0,0,.108.762L55.977,14Zm-1.377-1.263a1.639,1.639,0,0,0,1.352-.673l.222-1.187-.622-.006a1.738,1.738,0,0,0-1.428.6,1.05,1.05,0,0,0-.2.514.609.609,0,0,0,.143.543A.724.724,0,0,0,52.841,12.737ZM60.7,5.443l-.3,1.688h1.143l-.235,1.346H60.167l-.584,3.44a.875.875,0,0,0,.051.5q.089.171.432.184.1.006.546-.032l-.127,1.4a3.011,3.011,0,0,1-1.028.146,1.613,1.613,0,0,1-1.314-.552,2,2,0,0,1-.355-1.46l.59-3.625h-.971l.235-1.346h.971L58.9,5.443ZM63.283,14h-1.8l1.193-6.868h1.8Zm-.4-8.614a.894.894,0,0,1,.279-.7,1.075,1.075,0,0,1,1.409-.032.89.89,0,0,1,.311.673.919.919,0,0,1-.263.686.987.987,0,0,1-.72.3,1,1,0,0,1-.7-.241A.886.886,0,0,1,62.883,5.386ZM68.729,7a2.755,2.755,0,0,1,1.565.467,2.627,2.627,0,0,1,.965,1.25,3.869,3.869,0,0,1,.219,1.768,4.179,4.179,0,0,1-1.139,2.65,3.217,3.217,0,0,1-2.453.987,2.746,2.746,0,0,1-1.549-.46,2.618,2.618,0,0,1-.965-1.241,3.784,3.784,0,0,1-.222-1.752A4.3,4.3,0,0,1,66.3,7.97,3.151,3.151,0,0,1,68.729,7ZM66.92,11.323a1.585,1.585,0,0,0,.286.96.949.949,0,0,0,.768.364,1.391,1.391,0,0,0,1.295-.757,3.775,3.775,0,0,0,.438-2.057,1.724,1.724,0,0,0-.3-.973.934.934,0,0,0-.771-.377,1.393,1.393,0,0,0-1.279.751A3.736,3.736,0,0,0,66.92,11.323Zm7.9-4.2-.152.813a2.471,2.471,0,0,1,2-.933,1.648,1.648,0,0,1,1.435.711,2.865,2.865,0,0,1,.336,1.917L77.718,14h-1.79l.736-4.386a2.054,2.054,0,0,0,.013-.451.727.727,0,0,0-.812-.667A1.541,1.541,0,0,0,74.6,9.15L73.744,14h-1.79l1.193-6.868ZM35.588,27.654a1.176,1.176,0,0,0,.825-.27,1.326,1.326,0,0,0,.432-.752l1.682-.006a2.467,2.467,0,0,1-.454,1.3,2.757,2.757,0,0,1-1.092.9,3.125,3.125,0,0,1-1.438.3,2.538,2.538,0,0,1-1.98-.863,3.222,3.222,0,0,1-.7-2.247l.019-.349.006-.07a4.294,4.294,0,0,1,1.13-2.656A3.056,3.056,0,0,1,36.382,22a2.476,2.476,0,0,1,1.844.759A2.679,2.679,0,0,1,38.9,24.7H37.226a1.406,1.406,0,0,0-.241-.87.916.916,0,0,0-.724-.343q-1.282-.038-1.555,1.873a6.323,6.323,0,0,0-.07,1.168Q34.7,27.635,35.588,27.654ZM43.148,22a2.755,2.755,0,0,1,1.565.467,2.627,2.627,0,0,1,.965,1.25A3.869,3.869,0,0,1,45.9,25.49a4.179,4.179,0,0,1-1.139,2.65,3.217,3.217,0,0,1-2.453.987,2.746,2.746,0,0,1-1.549-.46,2.618,2.618,0,0,1-.965-1.241,3.784,3.784,0,0,1-.222-1.752,4.3,4.3,0,0,1,1.155-2.7A3.151,3.151,0,0,1,43.148,22Zm-1.809,4.318a1.585,1.585,0,0,0,.286.96.949.949,0,0,0,.768.364,1.391,1.391,0,0,0,1.295-.757,3.775,3.775,0,0,0,.438-2.057,1.724,1.724,0,0,0-.3-.973.934.934,0,0,0-.771-.377,1.393,1.393,0,0,0-1.279.751A3.736,3.736,0,0,0,41.339,26.323ZM49.82,22a1.954,1.954,0,0,1,1.549.768l.673-3.517h1.8L52.149,29h-1.6l.1-.736a2.223,2.223,0,0,1-1.79.87,1.977,1.977,0,0,1-1.124-.336,2.118,2.118,0,0,1-.746-.949,3.822,3.822,0,0,1-.289-1.381,5.2,5.2,0,0,1,.019-.774l.038-.286a5.5,5.5,0,0,1,.587-1.854,3.06,3.06,0,0,1,1.066-1.187A2.514,2.514,0,0,1,49.82,22Zm-1.3,3.694a5.14,5.14,0,0,0-.032.813q.063,1.117.9,1.136a1.532,1.532,0,0,0,1.314-.711l.489-2.729a1.014,1.014,0,0,0-.99-.711,1.3,1.3,0,0,0-1.089.5A3.393,3.393,0,0,0,48.519,25.693Zm8.322,3.434a2.988,2.988,0,0,1-1.6-.441,2.675,2.675,0,0,1-1.038-1.193,3.326,3.326,0,0,1-.267-1.673l.019-.254a4.44,4.44,0,0,1,.584-1.841A3.527,3.527,0,0,1,55.8,22.433,3.11,3.11,0,0,1,57.5,22a2.376,2.376,0,0,1,2.009.976,3.345,3.345,0,0,1,.517,2.406l-.1.782H55.717a1.474,1.474,0,0,0,.324,1.066,1.236,1.236,0,0,0,.952.413,2.2,2.2,0,0,0,1.714-.762l.819,1.016a2.547,2.547,0,0,1-1.117.911A3.653,3.653,0,0,1,56.84,29.127Zm.571-5.643a1.272,1.272,0,0,0-.879.311,2.733,2.733,0,0,0-.689,1.124h2.463l.038-.165a1.682,1.682,0,0,0,.006-.482.921.921,0,0,0-.311-.574A.975.975,0,0,0,57.412,23.484Z" transform="translate(-5793.33 -8884.692)" fill="#12263f"/>
  </g>
</svg>
