<svg id="Grupo_174691" data-name="Grupo 174691" xmlns="http://www.w3.org/2000/svg" xmlns:xlink="http://www.w3.org/1999/xlink" width="50.003" height="50" viewBox="0 0 50.003 50">
  <defs>
    <clipPath id="clip-path">
      <rect id="Rectángulo_35477" data-name="Rectángulo 35477" width="50.003" height="50" fill="#00defc"/>
    </clipPath>
  </defs>
  <g id="Grupo_89561" data-name="Grupo 89561" clip-path="url(#clip-path)">
    <path id="Trazado_137423" data-name="Trazado 137423" d="M44.683,32.258c1.488,1.486,2.9,2.85,4.25,4.27a4.132,4.132,0,0,1,.935,1.515,2.988,2.988,0,0,1-1.352,3.438,3.032,3.032,0,0,1-3.758-.432c-1.337-1.3-2.644-2.629-3.961-3.949-.544-.545-1.081-1.1-1.6-1.63-.665.3-1.287.546-1.878.856-.13.068-.21.347-.211.53-.012,3.46-.008,6.92-.009,10.38A2.462,2.462,0,0,1,34.334,50H2.74A2.456,2.456,0,0,1,0,47.265V20.457a2.447,2.447,0,0,1,2.708-2.714H12.9V2.722A2.448,2.448,0,0,1,15.6,0Q31.453,0,47.3,0A2.443,2.443,0,0,1,50,2.675V29.584a2.447,2.447,0,0,1-2.7,2.674H44.683M14.517,8.088V8.47q0,10.584,0,21.167c0,.723.285,1.006,1.007,1.007q3.228.006,6.452,0c.107,0,.215-.016.337-.026a12.112,12.112,0,0,1,17.6-15.581,11.8,11.8,0,0,1,4.534,5.888,12.057,12.057,0,0,1-.675,9.721H47.2c.962,0,1.188-.225,1.188-1.181q0-10.407,0-20.814V8.088ZM1.613,25.831v.43q0,10.533,0,21.066c0,.8.27,1.06,1.108,1.06H34.369c.86,0,1.114-.252,1.114-1.1q0-4.938,0-9.878v-.513c-.165.011-.281.011-.4.028a11.887,11.887,0,0,1-11.4-4.325.83.83,0,0,0-.717-.343c-1.578.017-3.157.007-4.737.007h-.465v1.628h3.156V43.52H6.437V37.087H3.256V27.4h9.622V25.831Zm12.9-19.412H48.386c0-1.224,0-2.414,0-3.6,0-.989-.216-1.2-1.217-1.2H15.735c-.135,0-.27-.006-.4,0a.782.782,0,0,0-.808.794c-.017,1.324-.006,2.649-.006,4.008M43.547,25.012a10.483,10.483,0,1,0-10.5,10.472,10.5,10.5,0,0,0,10.5-10.472M16.118,32.258a3.058,3.058,0,0,1-2.513-.717,3.1,3.1,0,0,1-.709-2.476H4.876v6.378H16.118Zm3.2,9.653v-6.4H17.736v1.606H8.09v4.8ZM1.615,24.158H12.878V19.413c-.052-.023-.081-.048-.111-.048q-5.166-.006-10.329,0a.775.775,0,0,0-.82.833c-.013,1.308,0,2.617,0,3.963M40.639,34.643c1.686,1.691,3.454,3.48,5.244,5.246a1.429,1.429,0,0,0,2.076-.011,1.449,1.449,0,0,0-.021-2.079c-.506-.537-1.04-1.047-1.561-1.57l-3.652-3.671-2.086,2.085" fill="#00defc"/>
    <path id="Trazado_137424" data-name="Trazado 137424" d="M16.169,9.7h4.768v9.632H16.169Zm3.151,1.635H17.768v6.388H19.32Z" fill="#00defc"/>
    <rect id="Rectángulo_35459" data-name="Rectángulo 35459" width="20.921" height="1.55" transform="translate(25.831 9.713)" fill="#00defc"/>
    <rect id="Rectángulo_35460" data-name="Rectángulo 35460" width="4.781" height="1.548" transform="translate(41.969 12.931)" fill="#00defc"/>
    <rect id="Rectángulo_35461" data-name="Rectángulo 35461" width="3.164" height="1.551" transform="translate(16.156 21.007)" fill="#00defc"/>
    <rect id="Rectángulo_35462" data-name="Rectángulo 35462" width="3.145" height="1.569" transform="translate(16.171 24.204)" fill="#00defc"/>
    <rect id="Rectángulo_35463" data-name="Rectángulo 35463" width="3.164" height="1.551" transform="translate(16.164 27.442)" fill="#00defc"/>
    <rect id="Rectángulo_35464" data-name="Rectángulo 35464" width="1.554" height="1.545" transform="translate(22.606 9.716)" fill="#00defc"/>
    <rect id="Rectángulo_35465" data-name="Rectángulo 35465" width="14.465" height="1.556" transform="translate(6.482 45.185)" fill="#00defc"/>
    <rect id="Rectángulo_35466" data-name="Rectángulo 35466" width="11.226" height="1.554" transform="translate(22.605 41.96)" fill="#00defc"/>
    <rect id="Rectángulo_35467" data-name="Rectángulo 35467" width="11.226" height="1.553" transform="translate(22.621 38.744)" fill="#00defc"/>
    <rect id="Rectángulo_35468" data-name="Rectángulo 35468" width="8.018" height="1.55" transform="translate(25.829 45.188)" fill="#00defc"/>
    <rect id="Rectángulo_35469" data-name="Rectángulo 35469" width="1.541" height="1.568" transform="translate(3.258 45.188)" fill="#00defc"/>
    <rect id="Rectángulo_35470" data-name="Rectángulo 35470" width="1.565" height="1.556" transform="translate(22.6 45.194)" fill="#00defc"/>
    <rect id="Rectángulo_35471" data-name="Rectángulo 35471" width="1.556" height="1.565" transform="translate(22.614 3.254)" fill="#00defc"/>
    <rect id="Rectángulo_35472" data-name="Rectángulo 35472" width="1.548" height="1.557" transform="translate(19.392 3.258)" fill="#00defc"/>
    <rect id="Rectángulo_35473" data-name="Rectángulo 35473" width="1.553" height="1.562" transform="translate(16.164 3.256)" fill="#00defc"/>
    <path id="Trazado_137425" data-name="Trazado 137425" d="M41.935,25.025a8.871,8.871,0,1,1-8.858-8.9,8.887,8.887,0,0,1,8.858,8.9m-16.128-.048a7.258,7.258,0,1,0,7.305-7.235,7.273,7.273,0,0,0-7.305,7.235" fill="#00defc"/>
    <rect id="Rectángulo_35474" data-name="Rectángulo 35474" width="1.554" height="1.545" transform="translate(9.703 21.006)" fill="#00defc"/>
    <rect id="Rectángulo_35475" data-name="Rectángulo 35475" width="1.551" height="1.552" transform="translate(6.475 20.994)" fill="#00defc"/>
    <rect id="Rectángulo_35476" data-name="Rectángulo 35476" width="1.562" height="1.553" transform="translate(3.247 21.002)" fill="#00defc"/>
    <path id="Trazado_137426" data-name="Trazado 137426" d="M33.877,29.123l-1.6-.164c.272-2.7.539-5.354.81-8.05l1.6.152c-.269,2.682-.536,5.34-.809,8.062" fill="#00defc"/>
    <path id="Trazado_137427" data-name="Trazado 137427" d="M30.114,22.133l1.106,1.04L29.3,24.966l1.98,1.8c-.474.443-.839.782-1.154,1.076l-2.851-2.865,2.836-2.839" fill="#00defc"/>
    <path id="Trazado_137428" data-name="Trazado 137428" d="M36,27.908l-1.079-1.09,1.911-1.8-1.946-1.793,1.192-1.07L38.9,25,36,27.908" fill="#00defc"/>
  </g>
</svg>
